G75*
%MOIN*%
%OFA0B0*%
%FSLAX24Y24*%
%IPPOS*%
%LPD*%
%AMOC8*
5,1,8,0,0,1.08239X$1,22.5*
%
%ADD10C,0.0040*%
%ADD11R,0.0024X0.0012*%
%ADD12R,0.0035X0.0012*%
%ADD13R,0.0012X0.0012*%
%ADD14R,0.0047X0.0012*%
%ADD15R,0.0130X0.0012*%
%ADD16R,0.0118X0.0012*%
%ADD17R,0.0177X0.0012*%
%ADD18R,0.0142X0.0012*%
%ADD19R,0.0106X0.0012*%
%ADD20R,0.0189X0.0012*%
%ADD21R,0.0236X0.0012*%
%ADD22R,0.0201X0.0012*%
%ADD23R,0.0248X0.0012*%
%ADD24R,0.0283X0.0012*%
%ADD25R,0.0224X0.0012*%
%ADD26R,0.0260X0.0012*%
%ADD27R,0.0307X0.0012*%
%ADD28R,0.0272X0.0012*%
%ADD29R,0.0295X0.0012*%
%ADD30R,0.0331X0.0012*%
%ADD31R,0.0449X0.0012*%
%ADD32R,0.0437X0.0012*%
%ADD33R,0.0366X0.0012*%
%ADD34R,0.0461X0.0012*%
%ADD35R,0.0154X0.0012*%
%ADD36R,0.0390X0.0012*%
%ADD37R,0.0165X0.0012*%
%ADD38R,0.0413X0.0012*%
%ADD39R,0.0472X0.0012*%
%ADD40R,0.0484X0.0012*%
%ADD41R,0.0083X0.0012*%
%ADD42R,0.0213X0.0012*%
%ADD43R,0.0071X0.0012*%
%ADD44R,0.0496X0.0012*%
%ADD45R,0.0520X0.0012*%
%ADD46R,0.0425X0.0012*%
%ADD47R,0.0402X0.0012*%
%ADD48R,0.0378X0.0012*%
%ADD49R,0.0094X0.0012*%
%ADD50R,0.0059X0.0012*%
%ADD51R,0.0354X0.0012*%
%ADD52R,0.0343X0.0012*%
%ADD53R,0.0319X0.0012*%
%ADD54R,0.0508X0.0012*%
%ADD55R,0.0531X0.0012*%
%ADD56R,0.0567X0.0012*%
%ADD57R,0.0591X0.0012*%
%ADD58R,0.0626X0.0012*%
%ADD59R,0.0661X0.0012*%
%ADD60R,0.0650X0.0012*%
%ADD61R,0.0673X0.0012*%
%ADD62R,0.0685X0.0012*%
%ADD63R,0.0709X0.0012*%
%ADD64R,0.0744X0.0012*%
%ADD65R,0.0768X0.0012*%
%ADD66R,0.0756X0.0012*%
%ADD67R,0.0791X0.0012*%
%ADD68R,0.1122X0.0012*%
%ADD69R,0.1134X0.0012*%
%ADD70R,0.1157X0.0012*%
%ADD71R,0.1169X0.0012*%
%ADD72R,0.1181X0.0012*%
%ADD73R,0.1193X0.0012*%
%ADD74R,0.1205X0.0012*%
%ADD75R,0.1217X0.0012*%
%ADD76R,0.1240X0.0012*%
%ADD77R,0.1252X0.0012*%
%ADD78R,0.1276X0.0012*%
%ADD79R,0.1264X0.0012*%
%ADD80R,0.1228X0.0012*%
%ADD81R,0.1146X0.0012*%
%ADD82R,0.1287X0.0012*%
%ADD83R,0.1299X0.0012*%
%ADD84R,0.1311X0.0012*%
%ADD85R,0.1323X0.0012*%
%ADD86R,0.1335X0.0012*%
%ADD87R,0.1346X0.0012*%
%ADD88R,0.1358X0.0012*%
%ADD89R,0.1370X0.0012*%
%ADD90R,0.1394X0.0012*%
%ADD91R,0.1441X0.0012*%
%ADD92R,0.1500X0.0012*%
%ADD93R,0.1571X0.0012*%
%ADD94R,0.1547X0.0012*%
%ADD95R,0.1618X0.0012*%
%ADD96R,0.1606X0.0012*%
%ADD97R,0.1665X0.0012*%
%ADD98R,0.1677X0.0012*%
%ADD99R,0.1724X0.0012*%
%ADD100R,0.1713X0.0012*%
%ADD101R,0.1701X0.0012*%
%ADD102R,0.1689X0.0012*%
%ADD103R,0.1654X0.0012*%
%ADD104R,0.1642X0.0012*%
%ADD105R,0.1736X0.0012*%
%ADD106R,0.1594X0.0012*%
%ADD107R,0.1535X0.0012*%
%ADD108R,0.1488X0.0012*%
%ADD109R,0.1476X0.0012*%
%ADD110R,0.1429X0.0012*%
%ADD111R,0.1382X0.0012*%
%ADD112R,0.1406X0.0012*%
%ADD113R,0.1583X0.0012*%
%ADD114R,0.1559X0.0012*%
%ADD115R,0.3189X0.0012*%
%ADD116R,0.3165X0.0012*%
%ADD117R,0.3142X0.0012*%
%ADD118R,0.3118X0.0012*%
%ADD119R,0.3106X0.0012*%
%ADD120R,0.3094X0.0012*%
%ADD121R,0.3071X0.0012*%
%ADD122R,0.3047X0.0012*%
%ADD123R,0.3035X0.0012*%
%ADD124R,0.3024X0.0012*%
%ADD125R,0.3000X0.0012*%
%ADD126R,0.3059X0.0012*%
%ADD127R,0.3083X0.0012*%
%ADD128R,0.3154X0.0012*%
%ADD129R,0.3177X0.0012*%
%ADD130R,0.3201X0.0012*%
%ADD131R,0.3213X0.0012*%
%ADD132R,0.3236X0.0012*%
%ADD133R,0.3248X0.0012*%
%ADD134R,0.3260X0.0012*%
%ADD135R,0.3283X0.0012*%
%ADD136R,0.3295X0.0012*%
%ADD137R,0.3307X0.0012*%
%ADD138R,0.3331X0.0012*%
%ADD139R,0.3354X0.0012*%
%ADD140R,0.3378X0.0012*%
%ADD141R,0.3402X0.0012*%
%ADD142R,0.3425X0.0012*%
%ADD143R,0.3449X0.0012*%
%ADD144R,0.3472X0.0012*%
%ADD145R,0.3496X0.0012*%
%ADD146R,0.3520X0.0012*%
%ADD147R,0.3543X0.0012*%
%ADD148R,0.3555X0.0012*%
%ADD149R,0.3567X0.0012*%
%ADD150R,0.3591X0.0012*%
%ADD151R,0.3614X0.0012*%
%ADD152R,0.3638X0.0012*%
%ADD153R,0.3661X0.0012*%
%ADD154R,0.3673X0.0012*%
%ADD155R,0.3650X0.0012*%
%ADD156R,0.3602X0.0012*%
%ADD157R,0.0886X0.0012*%
%ADD158R,0.0850X0.0012*%
%ADD159R,0.0827X0.0012*%
%ADD160R,0.0815X0.0012*%
%ADD161R,0.0732X0.0012*%
%ADD162R,0.0697X0.0012*%
%ADD163R,0.0602X0.0012*%
%ADD164R,0.0614X0.0012*%
%ADD165R,0.0555X0.0012*%
%ADD166R,0.1087X0.0012*%
%ADD167R,0.1004X0.0012*%
%ADD168R,0.0957X0.0012*%
%ADD169R,0.0921X0.0012*%
%ADD170R,0.0874X0.0012*%
%ADD171R,0.0839X0.0012*%
%ADD172R,0.0803X0.0012*%
%ADD173R,0.0780X0.0012*%
%ADD174R,0.0720X0.0012*%
%ADD175R,0.0638X0.0012*%
D10*
X006700Y002383D02*
X006777Y002307D01*
X006930Y002307D01*
X007007Y002383D01*
X007007Y002460D01*
X006930Y002537D01*
X006777Y002537D01*
X006700Y002460D01*
X006700Y002383D01*
X006777Y002537D02*
X006700Y002614D01*
X006700Y002690D01*
X006777Y002767D01*
X006930Y002767D01*
X007007Y002690D01*
X007007Y002614D01*
X006930Y002537D01*
X007160Y002383D02*
X007160Y002307D01*
X007237Y002307D01*
X007237Y002383D01*
X007160Y002383D01*
X007390Y002383D02*
X007467Y002307D01*
X007621Y002307D01*
X007697Y002383D01*
X007390Y002690D01*
X007390Y002383D01*
X007390Y002690D02*
X007467Y002767D01*
X007621Y002767D01*
X007697Y002690D01*
X007697Y002383D01*
X007851Y002460D02*
X008004Y002307D01*
X008158Y002460D01*
X008158Y002767D01*
X007851Y002767D02*
X007851Y002460D01*
X009232Y002307D02*
X009232Y002767D01*
X009539Y002767D02*
X009232Y002307D01*
X009539Y002307D02*
X009539Y002767D01*
X009692Y002614D02*
X009692Y002307D01*
X009692Y002537D02*
X009999Y002537D01*
X009999Y002614D02*
X009846Y002767D01*
X009692Y002614D01*
X009999Y002614D02*
X009999Y002307D01*
X010306Y002307D02*
X010306Y002767D01*
X010153Y002767D02*
X010460Y002767D01*
X011074Y002767D02*
X011381Y002460D01*
X011304Y002537D02*
X011074Y002307D01*
X011381Y002307D02*
X011381Y002767D01*
X011534Y002690D02*
X011611Y002767D01*
X011764Y002767D01*
X011841Y002690D01*
X011841Y002383D01*
X011764Y002307D01*
X011611Y002307D01*
X011534Y002383D01*
X011994Y002307D02*
X011994Y002614D01*
X012148Y002767D01*
X012301Y002614D01*
X012301Y002307D01*
X012301Y002537D02*
X011994Y002537D01*
X012455Y002767D02*
X012608Y002767D01*
X012532Y002767D02*
X012532Y002383D01*
X012608Y002307D01*
X012685Y002307D01*
X012762Y002383D01*
X013376Y002383D02*
X013376Y002307D01*
X013452Y002307D01*
X013452Y002383D01*
X013376Y002383D01*
X013376Y002537D02*
X013452Y002537D01*
X013452Y002614D01*
X013376Y002614D01*
X013376Y002537D01*
X013606Y002537D02*
X013682Y002460D01*
X013913Y002460D01*
X013913Y002307D02*
X013913Y002767D01*
X013682Y002767D01*
X013606Y002690D01*
X013606Y002537D01*
X013759Y002460D02*
X013606Y002307D01*
X014066Y002383D02*
X014066Y002690D01*
X014143Y002767D01*
X014296Y002767D01*
X014373Y002690D01*
X014373Y002383D01*
X014296Y002307D01*
X014143Y002307D01*
X014066Y002383D01*
X014527Y002307D02*
X014527Y002767D01*
X014527Y002537D02*
X014833Y002537D01*
X014833Y002307D02*
X014833Y002767D01*
X014987Y002767D02*
X015294Y002767D01*
X015447Y002767D02*
X015447Y002383D01*
X015524Y002307D01*
X015678Y002307D01*
X015754Y002383D01*
X015754Y002767D01*
X015908Y002614D02*
X015908Y002307D01*
X015908Y002537D02*
X016215Y002537D01*
X016215Y002614D02*
X016215Y002307D01*
X016215Y002614D02*
X016061Y002767D01*
X015908Y002614D01*
X015140Y002767D02*
X015140Y002307D01*
X021325Y002354D02*
X021632Y002354D01*
X021785Y002200D01*
X021632Y002047D01*
X021325Y002047D01*
X021555Y002047D02*
X021555Y002354D01*
X021632Y002507D02*
X021785Y002661D01*
X021325Y002661D01*
X021325Y002814D02*
X021325Y002507D01*
X021401Y002967D02*
X021325Y003044D01*
X021325Y003198D01*
X021401Y003274D01*
X021401Y003428D02*
X021708Y003735D01*
X021401Y003735D01*
X021325Y003658D01*
X021325Y003505D01*
X021401Y003428D01*
X021708Y003428D01*
X021785Y003505D01*
X021785Y003658D01*
X021708Y003735D01*
X021325Y003888D02*
X021785Y004195D01*
X021785Y004349D02*
X021325Y004349D01*
X021478Y004349D02*
X021478Y004579D01*
X021555Y004656D01*
X021708Y004656D01*
X021785Y004579D01*
X021785Y004349D01*
X021478Y004502D02*
X021325Y004656D01*
X021325Y004809D02*
X021325Y004962D01*
X021325Y004886D02*
X021785Y004886D01*
X021785Y004962D02*
X021785Y004809D01*
X021708Y005116D02*
X021401Y005116D01*
X021325Y005193D01*
X021325Y005346D01*
X021401Y005423D01*
X021708Y005423D01*
X021785Y005346D01*
X021785Y005193D01*
X021708Y005116D01*
X021708Y005576D02*
X021401Y005576D01*
X021708Y005883D01*
X021401Y005883D01*
X021325Y005807D01*
X021325Y005653D01*
X021401Y005576D01*
X021708Y005576D02*
X021785Y005653D01*
X021785Y005807D01*
X021708Y005883D01*
X021325Y006037D02*
X021785Y006344D01*
X021632Y006497D02*
X021325Y006497D01*
X021555Y006497D02*
X021555Y006804D01*
X021632Y006804D02*
X021325Y006804D01*
X021325Y006958D02*
X021325Y007188D01*
X021401Y007264D01*
X021708Y007264D01*
X021785Y007188D01*
X021785Y006958D01*
X021325Y006958D01*
X021632Y006804D02*
X021785Y006651D01*
X021632Y006497D01*
X022325Y006497D02*
X022632Y006497D01*
X022785Y006651D01*
X022632Y006804D01*
X022325Y006804D01*
X022325Y006958D02*
X022325Y007188D01*
X022401Y007264D01*
X022708Y007264D01*
X022785Y007188D01*
X022785Y006958D01*
X022325Y006958D01*
X022555Y006804D02*
X022555Y006497D01*
X022785Y006344D02*
X022325Y006037D01*
X022401Y005883D02*
X022325Y005807D01*
X022325Y005653D01*
X022401Y005576D01*
X022401Y005423D02*
X022708Y005423D01*
X022785Y005346D01*
X022785Y005193D01*
X022708Y005116D01*
X022401Y005116D01*
X022325Y005193D01*
X022325Y005346D01*
X022401Y005423D01*
X022555Y005730D02*
X022555Y005807D01*
X022478Y005883D01*
X022401Y005883D01*
X022555Y005807D02*
X022632Y005883D01*
X022708Y005883D01*
X022785Y005807D01*
X022785Y005653D01*
X022708Y005576D01*
X023325Y005730D02*
X023785Y005730D01*
X023785Y005960D01*
X023708Y006037D01*
X023555Y006037D01*
X023478Y005960D01*
X023478Y005730D01*
X023478Y005883D02*
X023325Y006037D01*
X023325Y006190D02*
X023325Y006344D01*
X023325Y006267D02*
X023785Y006267D01*
X023785Y006190D02*
X023785Y006344D01*
X023708Y006497D02*
X023401Y006497D01*
X023325Y006574D01*
X023325Y006727D01*
X023401Y006804D01*
X023708Y006804D01*
X023785Y006727D01*
X023785Y006574D01*
X023708Y006497D01*
X023632Y006958D02*
X023785Y007111D01*
X023325Y007111D01*
X023325Y006958D02*
X023325Y007264D01*
X023555Y007418D02*
X023555Y007725D01*
X023785Y007648D02*
X023555Y007418D01*
X023325Y007648D02*
X023785Y007648D01*
X024325Y007725D02*
X024325Y007418D01*
X024632Y007725D01*
X024708Y007725D01*
X024785Y007648D01*
X024785Y007495D01*
X024708Y007418D01*
X024785Y007111D02*
X024325Y007111D01*
X024325Y006958D02*
X024325Y007264D01*
X024632Y006958D02*
X024785Y007111D01*
X024708Y006804D02*
X024785Y006727D01*
X024785Y006574D01*
X024708Y006497D01*
X024401Y006497D01*
X024325Y006574D01*
X024325Y006727D01*
X024401Y006804D01*
X024708Y006804D01*
X024785Y006344D02*
X024785Y006190D01*
X024785Y006267D02*
X024325Y006267D01*
X024325Y006190D02*
X024325Y006344D01*
X024325Y006037D02*
X024478Y005883D01*
X024478Y005960D02*
X024478Y005730D01*
X024325Y005730D02*
X024785Y005730D01*
X024785Y005960D01*
X024708Y006037D01*
X024555Y006037D01*
X024478Y005960D01*
X024785Y005576D02*
X024325Y005269D01*
X024325Y005116D02*
X024325Y004809D01*
X024632Y005116D01*
X024708Y005116D01*
X024785Y005039D01*
X024785Y004886D01*
X024708Y004809D01*
X024785Y004656D02*
X024785Y004349D01*
X024785Y004502D02*
X024325Y004502D01*
X023785Y004502D02*
X023325Y004502D01*
X023785Y004349D02*
X023785Y004656D01*
X023555Y004809D02*
X023555Y005116D01*
X023785Y005039D02*
X023555Y004809D01*
X023325Y005039D02*
X023785Y005039D01*
X023325Y005269D02*
X023785Y005576D01*
X022785Y004962D02*
X022785Y004809D01*
X022785Y004886D02*
X022325Y004886D01*
X022325Y004962D02*
X022325Y004809D01*
X022325Y004656D02*
X022478Y004502D01*
X022478Y004579D02*
X022478Y004349D01*
X022325Y004349D02*
X022785Y004349D01*
X022785Y004579D01*
X022708Y004656D01*
X022555Y004656D01*
X022478Y004579D01*
X022785Y004195D02*
X022325Y003888D01*
X022401Y003735D02*
X022325Y003658D01*
X022325Y003505D01*
X022401Y003428D01*
X022401Y003274D02*
X022325Y003198D01*
X022325Y003044D01*
X022401Y002967D01*
X022708Y002967D01*
X022785Y003044D01*
X022785Y003198D01*
X022708Y003274D01*
X022708Y003428D02*
X022785Y003505D01*
X022785Y003658D01*
X022708Y003735D01*
X022632Y003735D01*
X022555Y003658D01*
X022478Y003735D01*
X022401Y003735D01*
X022555Y003658D02*
X022555Y003581D01*
X023325Y003658D02*
X023785Y003658D01*
X023555Y003428D01*
X023555Y003735D01*
X023325Y003888D02*
X023785Y004195D01*
X024325Y003888D02*
X024785Y004195D01*
X024708Y003735D02*
X024632Y003735D01*
X024325Y003428D01*
X024325Y003735D01*
X024708Y003735D02*
X024785Y003658D01*
X024785Y003505D01*
X024708Y003428D01*
X024708Y003274D02*
X024785Y003198D01*
X024785Y003044D01*
X024708Y002967D01*
X024401Y002967D01*
X024325Y003044D01*
X024325Y003198D01*
X024401Y003274D01*
X024325Y002814D02*
X024325Y002507D01*
X024632Y002814D01*
X024708Y002814D01*
X024785Y002737D01*
X024785Y002584D01*
X024708Y002507D01*
X024632Y002354D02*
X024325Y002354D01*
X024555Y002354D02*
X024555Y002047D01*
X024632Y002047D02*
X024785Y002200D01*
X024632Y002354D01*
X024632Y002047D02*
X024325Y002047D01*
X023785Y002200D02*
X023632Y002047D01*
X023325Y002047D01*
X023555Y002047D02*
X023555Y002354D01*
X023632Y002354D02*
X023325Y002354D01*
X023325Y002507D02*
X023632Y002814D01*
X023708Y002814D01*
X023785Y002737D01*
X023785Y002584D01*
X023708Y002507D01*
X023632Y002354D02*
X023785Y002200D01*
X023325Y002507D02*
X023325Y002814D01*
X023401Y002967D02*
X023325Y003044D01*
X023325Y003198D01*
X023401Y003274D01*
X023708Y003274D02*
X023785Y003198D01*
X023785Y003044D01*
X023708Y002967D01*
X023401Y002967D01*
X022785Y002661D02*
X022325Y002661D01*
X022325Y002814D02*
X022325Y002507D01*
X022325Y002354D02*
X022632Y002354D01*
X022785Y002200D01*
X022632Y002047D01*
X022325Y002047D01*
X022555Y002047D02*
X022555Y002354D01*
X022632Y002507D02*
X022785Y002661D01*
X021785Y003044D02*
X021708Y002967D01*
X021401Y002967D01*
X021785Y003044D02*
X021785Y003198D01*
X021708Y003274D01*
X025325Y003198D02*
X025401Y003274D01*
X025325Y003198D02*
X025325Y003044D01*
X025401Y002967D01*
X025708Y002967D01*
X025785Y003044D01*
X025785Y003198D01*
X025708Y003274D01*
X025708Y003428D02*
X025785Y003505D01*
X025785Y003658D01*
X025708Y003735D01*
X025632Y003735D01*
X025555Y003658D01*
X025478Y003735D01*
X025401Y003735D01*
X025325Y003658D01*
X025325Y003505D01*
X025401Y003428D01*
X025555Y003581D02*
X025555Y003658D01*
X025325Y003888D02*
X025785Y004195D01*
X025785Y004349D02*
X025785Y004656D01*
X025785Y004502D02*
X025325Y004502D01*
X025401Y004809D02*
X025325Y004886D01*
X025325Y005039D01*
X025401Y005116D01*
X025478Y005116D01*
X025555Y005039D01*
X025555Y004962D01*
X025555Y005039D02*
X025632Y005116D01*
X025708Y005116D01*
X025785Y005039D01*
X025785Y004886D01*
X025708Y004809D01*
X025325Y005269D02*
X025785Y005576D01*
X025785Y005730D02*
X025325Y005730D01*
X025478Y005730D02*
X025478Y005960D01*
X025555Y006037D01*
X025708Y006037D01*
X025785Y005960D01*
X025785Y005730D01*
X025478Y005883D02*
X025325Y006037D01*
X025325Y006190D02*
X025325Y006344D01*
X025325Y006267D02*
X025785Y006267D01*
X025785Y006190D02*
X025785Y006344D01*
X025708Y006497D02*
X025401Y006497D01*
X025325Y006574D01*
X025325Y006727D01*
X025401Y006804D01*
X025708Y006804D01*
X025785Y006727D01*
X025785Y006574D01*
X025708Y006497D01*
X025632Y006958D02*
X025785Y007111D01*
X025325Y007111D01*
X025325Y006958D02*
X025325Y007264D01*
X025401Y007418D02*
X025325Y007495D01*
X025325Y007648D01*
X025401Y007725D01*
X025478Y007725D01*
X025555Y007648D01*
X025555Y007571D01*
X025555Y007648D02*
X025632Y007725D01*
X025708Y007725D01*
X025785Y007648D01*
X025785Y007495D01*
X025708Y007418D01*
X026325Y007495D02*
X026401Y007418D01*
X026325Y007495D02*
X026325Y007648D01*
X026401Y007725D01*
X026555Y007725D01*
X026632Y007648D01*
X026632Y007571D01*
X026555Y007418D01*
X026785Y007418D01*
X026785Y007725D01*
X026325Y007264D02*
X026325Y006958D01*
X026325Y007111D02*
X026785Y007111D01*
X026632Y006958D01*
X026708Y006804D02*
X026401Y006804D01*
X026325Y006727D01*
X026325Y006574D01*
X026401Y006497D01*
X026708Y006497D01*
X026785Y006574D01*
X026785Y006727D01*
X026708Y006804D01*
X026785Y006344D02*
X026785Y006190D01*
X026785Y006267D02*
X026325Y006267D01*
X026325Y006190D02*
X026325Y006344D01*
X026325Y006037D02*
X026478Y005883D01*
X026478Y005960D02*
X026478Y005730D01*
X026325Y005730D02*
X026785Y005730D01*
X026785Y005960D01*
X026708Y006037D01*
X026555Y006037D01*
X026478Y005960D01*
X026785Y005576D02*
X026325Y005269D01*
X026401Y005116D02*
X026325Y005039D01*
X026325Y004886D01*
X026401Y004809D01*
X026555Y004809D02*
X026632Y004962D01*
X026632Y005039D01*
X026555Y005116D01*
X026401Y005116D01*
X026555Y004809D02*
X026785Y004809D01*
X026785Y005116D01*
X026785Y004656D02*
X026785Y004349D01*
X026785Y004502D02*
X026325Y004502D01*
X026785Y004195D02*
X026325Y003888D01*
X026401Y003735D02*
X026325Y003658D01*
X026325Y003505D01*
X026401Y003428D01*
X026401Y003274D02*
X026325Y003198D01*
X026325Y003044D01*
X026401Y002967D01*
X026708Y002967D01*
X026785Y003044D01*
X026785Y003198D01*
X026708Y003274D01*
X026785Y003428D02*
X026555Y003428D01*
X026632Y003581D01*
X026632Y003658D01*
X026555Y003735D01*
X026401Y003735D01*
X026785Y003735D02*
X026785Y003428D01*
X026708Y002814D02*
X026785Y002737D01*
X026785Y002584D01*
X026708Y002507D01*
X026632Y002354D02*
X026325Y002354D01*
X026325Y002507D02*
X026632Y002814D01*
X026708Y002814D01*
X026325Y002814D02*
X026325Y002507D01*
X026555Y002354D02*
X026555Y002047D01*
X026632Y002047D02*
X026785Y002200D01*
X026632Y002354D01*
X026632Y002047D02*
X026325Y002047D01*
X025785Y002200D02*
X025632Y002047D01*
X025325Y002047D01*
X025555Y002047D02*
X025555Y002354D01*
X025632Y002354D02*
X025325Y002354D01*
X025325Y002507D02*
X025632Y002814D01*
X025708Y002814D01*
X025785Y002737D01*
X025785Y002584D01*
X025708Y002507D01*
X025632Y002354D02*
X025785Y002200D01*
X025325Y002507D02*
X025325Y002814D01*
X022785Y007418D02*
X022325Y007418D01*
X022555Y007418D02*
X022555Y007725D01*
X022785Y007725D02*
X022325Y007725D01*
X021785Y007725D02*
X021325Y007725D01*
X021555Y007725D02*
X021555Y007418D01*
X021325Y007418D02*
X021785Y007418D01*
X021738Y011580D02*
X021815Y011656D01*
X021815Y011810D01*
X021738Y011887D01*
X021661Y011887D01*
X021584Y011810D01*
X021584Y011656D01*
X021661Y011580D01*
X021738Y011580D01*
X021584Y011656D02*
X021508Y011580D01*
X021431Y011580D01*
X021354Y011656D01*
X021354Y011810D01*
X021431Y011887D01*
X021508Y011887D01*
X021584Y011810D01*
X021431Y012040D02*
X021354Y012117D01*
X021354Y012270D01*
X021431Y012347D01*
X021738Y012347D01*
X021815Y012270D01*
X021815Y012117D01*
X021738Y012040D01*
X021815Y012500D02*
X021815Y012807D01*
X021508Y012500D01*
X021431Y012500D01*
X021354Y012577D01*
X021354Y012731D01*
X021431Y012807D01*
X021508Y012961D02*
X021815Y012961D01*
X021584Y012961D02*
X021584Y013268D01*
X021508Y013268D02*
X021354Y013114D01*
X021508Y012961D01*
X021508Y013268D02*
X021815Y013268D01*
X022354Y013191D02*
X022354Y013038D01*
X022431Y012961D01*
X022431Y012807D02*
X022354Y012731D01*
X022354Y012577D01*
X022431Y012500D01*
X022738Y012807D01*
X022815Y012731D01*
X022815Y012577D01*
X022738Y012500D01*
X022431Y012500D01*
X022431Y012807D02*
X022738Y012807D01*
X022738Y012961D02*
X022815Y013038D01*
X022815Y013191D01*
X022738Y013268D01*
X022431Y013268D01*
X022354Y013191D01*
X022431Y013421D02*
X022354Y013498D01*
X022354Y013651D01*
X022431Y013728D01*
X022508Y013882D02*
X022815Y013882D01*
X022815Y013728D02*
X022508Y013421D01*
X022431Y013421D01*
X022815Y013421D02*
X022815Y013728D01*
X022584Y013882D02*
X022584Y014188D01*
X022508Y014188D02*
X022354Y014035D01*
X022508Y013882D01*
X022508Y014188D02*
X022815Y014188D01*
X022815Y014649D02*
X022354Y014342D01*
X021815Y014419D02*
X021815Y014572D01*
X021738Y014649D01*
X021431Y014649D01*
X021354Y014572D01*
X021354Y014419D01*
X021431Y014342D01*
X021508Y014188D02*
X021354Y014035D01*
X021815Y014035D01*
X021815Y014188D02*
X021815Y013882D01*
X021815Y013728D02*
X021354Y013421D01*
X020815Y013268D02*
X020508Y013268D01*
X020354Y013114D01*
X020508Y012961D01*
X020815Y012961D01*
X020815Y012807D02*
X020508Y012500D01*
X020431Y012500D01*
X020354Y012577D01*
X020354Y012731D01*
X020431Y012807D01*
X020584Y012961D02*
X020584Y013268D01*
X020354Y013421D02*
X020815Y013728D01*
X020815Y013882D02*
X020815Y014188D01*
X020508Y013882D01*
X020431Y013882D01*
X020354Y013958D01*
X020354Y014112D01*
X020431Y014188D01*
X020431Y014342D02*
X020354Y014419D01*
X020354Y014572D01*
X020431Y014649D01*
X020738Y014649D01*
X020815Y014572D01*
X020815Y014419D01*
X020738Y014342D01*
X020815Y014802D02*
X020508Y014802D01*
X020354Y014956D01*
X020508Y015109D01*
X020815Y015109D01*
X020738Y015263D02*
X020431Y015263D01*
X020354Y015339D01*
X020354Y015570D01*
X020815Y015570D01*
X020815Y015339D01*
X020738Y015263D01*
X020584Y015109D02*
X020584Y014802D01*
X019815Y014649D02*
X019738Y014649D01*
X019431Y014342D01*
X019354Y014342D01*
X019354Y014649D01*
X019354Y014802D02*
X019354Y015109D01*
X019354Y014956D02*
X019815Y014956D01*
X019354Y015263D02*
X019815Y015570D01*
X019431Y015723D02*
X019738Y016030D01*
X019815Y016030D01*
X019815Y016184D02*
X019815Y016490D01*
X019815Y016337D02*
X019354Y016337D01*
X019508Y016490D01*
X019431Y016644D02*
X019354Y016721D01*
X019354Y016874D01*
X019431Y016951D01*
X019738Y016951D01*
X019815Y016874D01*
X019815Y016721D01*
X019738Y016644D01*
X019431Y016644D01*
X019354Y017104D02*
X019354Y017258D01*
X019354Y017181D02*
X019815Y017181D01*
X019815Y017258D02*
X019815Y017104D01*
X019815Y017411D02*
X019661Y017565D01*
X019661Y017488D02*
X019661Y017718D01*
X019815Y017718D02*
X019354Y017718D01*
X019354Y017488D01*
X019431Y017411D01*
X019584Y017411D01*
X019661Y017488D01*
X019354Y017872D02*
X019815Y018179D01*
X019431Y018332D02*
X019738Y018639D01*
X019815Y018639D01*
X019815Y018792D02*
X019815Y019099D01*
X019508Y018792D01*
X019431Y018792D01*
X019354Y018869D01*
X019354Y019023D01*
X019431Y019099D01*
X019431Y019253D02*
X019354Y019330D01*
X019354Y019483D01*
X019431Y019560D01*
X019738Y019560D01*
X019815Y019483D01*
X019815Y019330D01*
X019738Y019253D01*
X019431Y019253D01*
X019354Y019713D02*
X019354Y019867D01*
X019354Y019790D02*
X019815Y019790D01*
X019815Y019867D02*
X019815Y019713D01*
X020354Y019713D02*
X020354Y019867D01*
X020354Y019790D02*
X020815Y019790D01*
X020815Y019867D02*
X020815Y019713D01*
X020738Y019560D02*
X020431Y019560D01*
X020354Y019483D01*
X020354Y019330D01*
X020431Y019253D01*
X020738Y019253D01*
X020815Y019330D01*
X020815Y019483D01*
X020738Y019560D01*
X020815Y019099D02*
X020508Y018792D01*
X020431Y018792D01*
X020354Y018869D01*
X020354Y019023D01*
X020431Y019099D01*
X020815Y019099D02*
X020815Y018792D01*
X020738Y018639D02*
X020584Y018639D01*
X020584Y018409D01*
X020661Y018332D01*
X020738Y018332D01*
X020815Y018409D01*
X020815Y018562D01*
X020738Y018639D01*
X020584Y018639D02*
X020431Y018485D01*
X020354Y018332D01*
X020354Y017872D02*
X020815Y018179D01*
X020815Y017718D02*
X020354Y017718D01*
X020354Y017488D01*
X020431Y017411D01*
X020584Y017411D01*
X020661Y017488D01*
X020661Y017718D01*
X020661Y017565D02*
X020815Y017411D01*
X020815Y017258D02*
X020815Y017104D01*
X020815Y017181D02*
X020354Y017181D01*
X020354Y017258D02*
X020354Y017104D01*
X020431Y016951D02*
X020738Y016951D01*
X020815Y016874D01*
X020815Y016721D01*
X020738Y016644D01*
X020431Y016644D01*
X020354Y016721D01*
X020354Y016874D01*
X020431Y016951D01*
X020354Y016490D02*
X020354Y016184D01*
X020431Y016184D01*
X020738Y016490D01*
X020815Y016490D01*
X020815Y016030D02*
X020354Y015723D01*
X021354Y015723D02*
X021815Y016030D01*
X021738Y016184D02*
X021815Y016260D01*
X021815Y016414D01*
X021738Y016490D01*
X021584Y016490D01*
X021584Y016260D01*
X021661Y016184D01*
X021738Y016184D01*
X021584Y016490D02*
X021431Y016337D01*
X021354Y016184D01*
X021354Y015570D02*
X021354Y015339D01*
X021431Y015263D01*
X021738Y015263D01*
X021815Y015339D01*
X021815Y015570D01*
X021354Y015570D01*
X021508Y015109D02*
X021354Y014956D01*
X021508Y014802D01*
X021815Y014802D01*
X021584Y014802D02*
X021584Y015109D01*
X021508Y015109D02*
X021815Y015109D01*
X022354Y015033D02*
X022354Y014879D01*
X022431Y014802D01*
X022738Y015109D01*
X022815Y015033D01*
X022815Y014879D01*
X022738Y014802D01*
X022431Y014802D01*
X022354Y015033D02*
X022431Y015109D01*
X022738Y015109D01*
X022815Y015416D02*
X022354Y015416D01*
X022354Y015263D02*
X022354Y015570D01*
X022354Y015723D02*
X022815Y016030D01*
X022738Y016184D02*
X022815Y016260D01*
X022815Y016414D01*
X022738Y016490D01*
X022431Y016184D01*
X022738Y016184D01*
X022431Y016184D02*
X022354Y016260D01*
X022354Y016414D01*
X022431Y016490D01*
X022738Y016490D01*
X022815Y016644D02*
X022815Y016951D01*
X022815Y016797D02*
X022354Y016797D01*
X022508Y016951D01*
X022431Y017104D02*
X022354Y017181D01*
X022354Y017335D01*
X022431Y017411D01*
X022738Y017411D01*
X022815Y017335D01*
X022815Y017181D01*
X022738Y017104D01*
X022431Y017104D01*
X022354Y017565D02*
X022354Y017718D01*
X022354Y017641D02*
X022815Y017641D01*
X022815Y017565D02*
X022815Y017718D01*
X022815Y017872D02*
X022661Y018025D01*
X022661Y017948D02*
X022661Y018179D01*
X022815Y018179D02*
X022354Y018179D01*
X022354Y017948D01*
X022431Y017872D01*
X022584Y017872D01*
X022661Y017948D01*
X022354Y018332D02*
X022815Y018639D01*
X022815Y018869D02*
X022354Y018869D01*
X022584Y019099D01*
X022584Y018792D01*
X022431Y019253D02*
X022354Y019330D01*
X022354Y019483D01*
X022431Y019560D01*
X022738Y019560D01*
X022815Y019483D01*
X022815Y019330D01*
X022738Y019253D01*
X022431Y019253D01*
X022354Y019713D02*
X022354Y019867D01*
X022354Y019790D02*
X022815Y019790D01*
X022815Y019867D02*
X022815Y019713D01*
X023354Y019713D02*
X023354Y019867D01*
X023354Y019790D02*
X023815Y019790D01*
X023815Y019867D02*
X023815Y019713D01*
X023738Y019560D02*
X023431Y019560D01*
X023354Y019483D01*
X023354Y019330D01*
X023431Y019253D01*
X023738Y019253D01*
X023815Y019330D01*
X023815Y019483D01*
X023738Y019560D01*
X023738Y019099D02*
X023431Y019099D01*
X023354Y019023D01*
X023354Y018869D01*
X023431Y018792D01*
X023738Y019099D01*
X023815Y019023D01*
X023815Y018869D01*
X023738Y018792D01*
X023431Y018792D01*
X023815Y018639D02*
X023354Y018332D01*
X023354Y018179D02*
X023354Y017948D01*
X023431Y017872D01*
X023584Y017872D01*
X023661Y017948D01*
X023661Y018179D01*
X023815Y018179D02*
X023354Y018179D01*
X023661Y018025D02*
X023815Y017872D01*
X023815Y017718D02*
X023815Y017565D01*
X023815Y017641D02*
X023354Y017641D01*
X023354Y017565D02*
X023354Y017718D01*
X023431Y017411D02*
X023738Y017411D01*
X023815Y017335D01*
X023815Y017181D01*
X023738Y017104D01*
X023431Y017104D01*
X023354Y017181D01*
X023354Y017335D01*
X023431Y017411D01*
X023508Y016951D02*
X023354Y016797D01*
X023815Y016797D01*
X023815Y016644D02*
X023815Y016951D01*
X023815Y016490D02*
X023815Y016184D01*
X023815Y016337D02*
X023354Y016337D01*
X023508Y016490D01*
X023815Y016030D02*
X023354Y015723D01*
X023354Y015570D02*
X023354Y015263D01*
X023354Y015416D02*
X023815Y015416D01*
X023815Y015109D02*
X023815Y014802D01*
X023815Y014649D02*
X023354Y014342D01*
X023508Y014188D02*
X023354Y014035D01*
X023508Y013882D01*
X023815Y013882D01*
X023815Y013728D02*
X023508Y013421D01*
X023431Y013421D01*
X023354Y013498D01*
X023354Y013651D01*
X023431Y013728D01*
X023584Y013882D02*
X023584Y014188D01*
X023508Y014188D02*
X023815Y014188D01*
X023815Y013728D02*
X023815Y013421D01*
X023738Y013268D02*
X023431Y013268D01*
X023354Y013191D01*
X023354Y013038D01*
X023431Y012961D01*
X023508Y012807D02*
X023354Y012654D01*
X023815Y012654D01*
X023815Y012807D02*
X023815Y012500D01*
X024354Y012577D02*
X024354Y012731D01*
X024431Y012807D01*
X024431Y012961D02*
X024354Y013038D01*
X024354Y013191D01*
X024431Y013268D01*
X024738Y013268D01*
X024815Y013191D01*
X024815Y013038D01*
X024738Y012961D01*
X024815Y012807D02*
X024508Y012500D01*
X024431Y012500D01*
X024354Y012577D01*
X024815Y012500D02*
X024815Y012807D01*
X024815Y013421D02*
X024815Y013728D01*
X024508Y013421D01*
X024431Y013421D01*
X024354Y013498D01*
X024354Y013651D01*
X024431Y013728D01*
X024508Y013882D02*
X024815Y013882D01*
X024584Y013882D02*
X024584Y014188D01*
X024508Y014188D02*
X024354Y014035D01*
X024508Y013882D01*
X024508Y014188D02*
X024815Y014188D01*
X024815Y014649D02*
X024354Y014342D01*
X024431Y014802D02*
X024354Y014879D01*
X024354Y015033D01*
X024431Y015109D01*
X024354Y015263D02*
X024354Y015570D01*
X024354Y015723D02*
X024815Y016030D01*
X024815Y016184D02*
X024815Y016490D01*
X024508Y016184D01*
X024431Y016184D01*
X024354Y016260D01*
X024354Y016414D01*
X024431Y016490D01*
X024354Y016797D02*
X024815Y016797D01*
X024815Y016644D02*
X024815Y016951D01*
X024738Y017104D02*
X024431Y017104D01*
X024354Y017181D01*
X024354Y017335D01*
X024431Y017411D01*
X024738Y017411D01*
X024815Y017335D01*
X024815Y017181D01*
X024738Y017104D01*
X024508Y016951D02*
X024354Y016797D01*
X024354Y017565D02*
X024354Y017718D01*
X024354Y017641D02*
X024815Y017641D01*
X024815Y017565D02*
X024815Y017718D01*
X024815Y017872D02*
X024661Y018025D01*
X024661Y017948D02*
X024661Y018179D01*
X024815Y018179D02*
X024354Y018179D01*
X024354Y017948D01*
X024431Y017872D01*
X024584Y017872D01*
X024661Y017948D01*
X024354Y018332D02*
X024815Y018639D01*
X024815Y018792D02*
X024815Y019099D01*
X024508Y018792D01*
X024431Y018792D01*
X024354Y018869D01*
X024354Y019023D01*
X024431Y019099D01*
X024431Y019253D02*
X024354Y019330D01*
X024354Y019483D01*
X024431Y019560D01*
X024738Y019560D01*
X024815Y019483D01*
X024815Y019330D01*
X024738Y019253D01*
X024431Y019253D01*
X024354Y019713D02*
X024354Y019867D01*
X024354Y019790D02*
X024815Y019790D01*
X024815Y019867D02*
X024815Y019713D01*
X025354Y019713D02*
X025354Y019867D01*
X025354Y019790D02*
X025815Y019790D01*
X025815Y019867D02*
X025815Y019713D01*
X025738Y019560D02*
X025431Y019560D01*
X025354Y019483D01*
X025354Y019330D01*
X025431Y019253D01*
X025738Y019253D01*
X025815Y019330D01*
X025815Y019483D01*
X025738Y019560D01*
X025815Y019099D02*
X025815Y018792D01*
X025815Y018946D02*
X025354Y018946D01*
X025508Y019099D01*
X026354Y019023D02*
X026354Y018869D01*
X026431Y018792D01*
X026508Y018792D01*
X026584Y018869D01*
X026661Y018792D01*
X026738Y018792D01*
X026815Y018869D01*
X026815Y019023D01*
X026738Y019099D01*
X026738Y019253D02*
X026431Y019253D01*
X026354Y019330D01*
X026354Y019483D01*
X026431Y019560D01*
X026738Y019560D01*
X026815Y019483D01*
X026815Y019330D01*
X026738Y019253D01*
X026431Y019099D02*
X026354Y019023D01*
X026584Y018946D02*
X026584Y018869D01*
X026354Y019713D02*
X026354Y019867D01*
X026354Y019790D02*
X026815Y019790D01*
X026815Y019867D02*
X026815Y019713D01*
X021815Y019713D02*
X021815Y019867D01*
X021815Y019790D02*
X021354Y019790D01*
X021354Y019867D02*
X021354Y019713D01*
X021431Y019560D02*
X021738Y019560D01*
X021815Y019483D01*
X021815Y019330D01*
X021738Y019253D01*
X021431Y019253D01*
X021354Y019330D01*
X021354Y019483D01*
X021431Y019560D01*
X021431Y019099D02*
X021354Y019023D01*
X021354Y018869D01*
X021431Y018792D01*
X021508Y018792D01*
X021815Y019099D01*
X021815Y018792D01*
X021738Y018639D02*
X021815Y018562D01*
X021815Y018409D01*
X021738Y018332D01*
X021584Y018332D01*
X021508Y018409D01*
X021508Y018485D01*
X021584Y018639D01*
X021354Y018639D01*
X021354Y018332D01*
X021354Y017872D02*
X021815Y018179D01*
X021815Y017718D02*
X021354Y017718D01*
X021354Y017488D01*
X021431Y017411D01*
X021584Y017411D01*
X021661Y017488D01*
X021661Y017718D01*
X021661Y017565D02*
X021815Y017411D01*
X021815Y017258D02*
X021815Y017104D01*
X021815Y017181D02*
X021354Y017181D01*
X021354Y017258D02*
X021354Y017104D01*
X021431Y016951D02*
X021738Y016951D01*
X021815Y016874D01*
X021815Y016721D01*
X021738Y016644D01*
X021431Y016644D01*
X021354Y016721D01*
X021354Y016874D01*
X021431Y016951D01*
X019354Y016030D02*
X019354Y015723D01*
X019431Y015723D01*
X018291Y015877D02*
X018291Y015570D01*
X017754Y015416D02*
X017754Y015109D01*
X017754Y014956D02*
X018215Y014649D01*
X018215Y014495D02*
X018215Y014265D01*
X018138Y014188D01*
X017831Y014188D01*
X017754Y014265D01*
X017754Y014495D01*
X018215Y014495D01*
X018215Y014956D02*
X017754Y014649D01*
X017191Y014495D02*
X017191Y014188D01*
X017115Y014035D02*
X017115Y013728D01*
X017115Y013575D02*
X016654Y013575D01*
X017115Y013268D01*
X016654Y013268D01*
X016654Y013728D02*
X016654Y014035D01*
X017115Y014035D01*
X016884Y014035D02*
X016884Y013882D01*
X016654Y014649D02*
X017115Y014956D01*
X017115Y015263D02*
X016654Y015263D01*
X016654Y015416D02*
X016654Y015109D01*
X016654Y014956D02*
X017115Y014649D01*
X017754Y015263D02*
X018215Y015263D01*
X017191Y015570D02*
X017191Y015877D01*
X017038Y016030D02*
X017115Y016107D01*
X017115Y016260D01*
X017038Y016337D01*
X016731Y016337D01*
X016654Y016260D01*
X016654Y016107D01*
X016731Y016030D01*
X016808Y016490D02*
X017115Y016490D01*
X016884Y016490D02*
X016884Y016797D01*
X016808Y016797D02*
X017115Y016797D01*
X017115Y016951D02*
X016654Y016951D01*
X016808Y017104D01*
X016654Y017258D01*
X017115Y017258D01*
X017115Y017411D02*
X017115Y017718D01*
X016654Y017718D01*
X016654Y017411D01*
X016884Y017565D02*
X016884Y017718D01*
X016654Y017872D02*
X017115Y018179D01*
X017115Y018332D02*
X017115Y018639D01*
X017115Y018792D02*
X017115Y019099D01*
X016808Y018792D01*
X016731Y018792D01*
X016654Y018869D01*
X016654Y019023D01*
X016731Y019099D01*
X016731Y019253D02*
X016654Y019330D01*
X016654Y019483D01*
X016731Y019560D01*
X017038Y019560D01*
X017115Y019483D01*
X017115Y019330D01*
X017038Y019253D01*
X016731Y019253D01*
X016654Y019713D02*
X016654Y019867D01*
X016654Y019790D02*
X017115Y019790D01*
X017115Y019867D02*
X017115Y019713D01*
X017754Y019713D02*
X017754Y019867D01*
X017754Y019790D02*
X018215Y019790D01*
X018215Y019867D02*
X018215Y019713D01*
X018138Y019560D02*
X017831Y019560D01*
X017754Y019483D01*
X017754Y019330D01*
X017831Y019253D01*
X018138Y019253D01*
X018215Y019330D01*
X018215Y019483D01*
X018138Y019560D01*
X018215Y019099D02*
X017908Y018792D01*
X017831Y018792D01*
X017754Y018869D01*
X017754Y019023D01*
X017831Y019099D01*
X018215Y019099D02*
X018215Y018792D01*
X018215Y018639D02*
X017908Y018332D01*
X017831Y018332D01*
X017754Y018409D01*
X017754Y018562D01*
X017831Y018639D01*
X018215Y018639D02*
X018215Y018332D01*
X018215Y018179D02*
X017754Y017872D01*
X017754Y017718D02*
X018215Y017718D01*
X018215Y017411D01*
X018215Y017258D02*
X017754Y017258D01*
X017908Y017104D01*
X017754Y016951D01*
X018215Y016951D01*
X018215Y016797D02*
X017908Y016797D01*
X017754Y016644D01*
X017908Y016490D01*
X018215Y016490D01*
X018138Y016337D02*
X017831Y016337D01*
X017754Y016260D01*
X017754Y016107D01*
X017831Y016030D01*
X018138Y016030D02*
X018215Y016107D01*
X018215Y016260D01*
X018138Y016337D01*
X017984Y016490D02*
X017984Y016797D01*
X017754Y017411D02*
X017754Y017718D01*
X017984Y017718D02*
X017984Y017565D01*
X017115Y018485D02*
X016654Y018485D01*
X016808Y018639D01*
X016215Y018869D02*
X016215Y019023D01*
X016138Y019099D01*
X015984Y019099D02*
X015908Y018946D01*
X015908Y018869D01*
X015984Y018792D01*
X016138Y018792D01*
X016215Y018869D01*
X015984Y019099D02*
X015754Y019099D01*
X015754Y018792D01*
X015831Y019253D02*
X015754Y019330D01*
X015754Y019483D01*
X015831Y019560D01*
X016138Y019560D01*
X016215Y019483D01*
X016215Y019330D01*
X016138Y019253D01*
X015831Y019253D01*
X015754Y019713D02*
X015754Y019867D01*
X015754Y019790D02*
X016215Y019790D01*
X016215Y019867D02*
X016215Y019713D01*
X015215Y019713D02*
X015215Y019867D01*
X015215Y019790D02*
X014754Y019790D01*
X014754Y019867D02*
X014754Y019713D01*
X014831Y019560D02*
X014754Y019483D01*
X014754Y019330D01*
X014831Y019253D01*
X015138Y019253D01*
X015215Y019330D01*
X015215Y019483D01*
X015138Y019560D01*
X014831Y019560D01*
X014831Y019099D02*
X014754Y019023D01*
X014754Y018869D01*
X014831Y018792D01*
X014908Y018792D01*
X015215Y019099D01*
X015215Y018792D01*
X015138Y018639D02*
X015215Y018562D01*
X015215Y018409D01*
X015138Y018332D01*
X015061Y018332D01*
X014984Y018409D01*
X014984Y018485D01*
X014984Y018409D02*
X014908Y018332D01*
X014831Y018332D01*
X014754Y018409D01*
X014754Y018562D01*
X014831Y018639D01*
X014115Y018562D02*
X014115Y018409D01*
X014038Y018332D01*
X013731Y018332D01*
X013654Y018409D01*
X013654Y018562D01*
X013731Y018639D01*
X013808Y018639D01*
X013884Y018562D01*
X013884Y018332D01*
X014115Y018179D02*
X013654Y017872D01*
X013654Y017718D02*
X014115Y017718D01*
X014115Y017411D01*
X014115Y017258D02*
X013654Y017258D01*
X013808Y017104D01*
X013654Y016951D01*
X014115Y016951D01*
X014115Y016797D02*
X013808Y016797D01*
X013654Y016644D01*
X013808Y016490D01*
X014115Y016490D01*
X014038Y016337D02*
X013731Y016337D01*
X013654Y016260D01*
X013654Y016107D01*
X013731Y016030D01*
X014038Y016030D02*
X014115Y016107D01*
X014115Y016260D01*
X014038Y016337D01*
X013884Y016490D02*
X013884Y016797D01*
X013654Y017411D02*
X013654Y017718D01*
X013884Y017718D02*
X013884Y017565D01*
X013138Y018332D02*
X013061Y018332D01*
X012984Y018409D01*
X012984Y018562D01*
X012908Y018639D01*
X012831Y018639D01*
X012754Y018562D01*
X012754Y018409D01*
X012831Y018332D01*
X012908Y018332D01*
X012984Y018409D01*
X012984Y018562D02*
X013061Y018639D01*
X013138Y018639D01*
X013215Y018562D01*
X013215Y018409D01*
X013138Y018332D01*
X013215Y018792D02*
X013215Y019099D01*
X013215Y018946D02*
X012754Y018946D01*
X012908Y019099D01*
X012831Y019253D02*
X012754Y019330D01*
X012754Y019483D01*
X012831Y019560D01*
X013138Y019560D01*
X013215Y019483D01*
X013215Y019330D01*
X013138Y019253D01*
X012831Y019253D01*
X012754Y019713D02*
X012754Y019867D01*
X012754Y019790D02*
X013215Y019790D01*
X013215Y019867D02*
X013215Y019713D01*
X013654Y019713D02*
X013654Y019867D01*
X013654Y019790D02*
X014115Y019790D01*
X014115Y019867D02*
X014115Y019713D01*
X014038Y019560D02*
X013731Y019560D01*
X013654Y019483D01*
X013654Y019330D01*
X013731Y019253D01*
X014038Y019253D01*
X014115Y019330D01*
X014115Y019483D01*
X014038Y019560D01*
X014115Y019099D02*
X014115Y018792D01*
X014115Y018946D02*
X013654Y018946D01*
X013808Y019099D01*
X014038Y018639D02*
X014115Y018562D01*
X012215Y018639D02*
X012138Y018639D01*
X011831Y018332D01*
X011754Y018332D01*
X011754Y018639D01*
X011754Y018946D02*
X012215Y018946D01*
X012215Y019099D02*
X012215Y018792D01*
X011908Y019099D02*
X011754Y018946D01*
X011831Y019253D02*
X011754Y019330D01*
X011754Y019483D01*
X011831Y019560D01*
X012138Y019560D01*
X012215Y019483D01*
X012215Y019330D01*
X012138Y019253D01*
X011831Y019253D01*
X011754Y019713D02*
X011754Y019867D01*
X011754Y019790D02*
X012215Y019790D01*
X012215Y019867D02*
X012215Y019713D01*
X011215Y019713D02*
X011215Y019867D01*
X011215Y019790D02*
X010754Y019790D01*
X010754Y019867D02*
X010754Y019713D01*
X010831Y019560D02*
X010754Y019483D01*
X010754Y019330D01*
X010831Y019253D01*
X011138Y019253D01*
X011215Y019330D01*
X011215Y019483D01*
X011138Y019560D01*
X010831Y019560D01*
X010908Y019099D02*
X010754Y018946D01*
X011215Y018946D01*
X011215Y019099D02*
X011215Y018792D01*
X011138Y018639D02*
X010984Y018639D01*
X010984Y018409D01*
X011061Y018332D01*
X011138Y018332D01*
X011215Y018409D01*
X011215Y018562D01*
X011138Y018639D01*
X010984Y018639D02*
X010831Y018485D01*
X010754Y018332D01*
X010215Y018409D02*
X009754Y018409D01*
X009984Y018639D01*
X009984Y018332D01*
X010754Y017872D02*
X011215Y018179D01*
X011215Y017718D02*
X010754Y017718D01*
X010754Y017411D01*
X010754Y017258D02*
X010908Y017104D01*
X010754Y016951D01*
X011215Y016951D01*
X011215Y016797D02*
X010908Y016797D01*
X010754Y016644D01*
X010908Y016490D01*
X011215Y016490D01*
X011138Y016337D02*
X010831Y016337D01*
X010754Y016260D01*
X010754Y016107D01*
X010831Y016030D01*
X011138Y016030D02*
X011215Y016107D01*
X011215Y016260D01*
X011138Y016337D01*
X010984Y016490D02*
X010984Y016797D01*
X011215Y017258D02*
X010754Y017258D01*
X010984Y017565D02*
X010984Y017718D01*
X011215Y017718D02*
X011215Y017411D01*
X011754Y017411D02*
X011754Y017718D01*
X012215Y017718D01*
X012215Y017411D01*
X012215Y017258D02*
X011754Y017258D01*
X011908Y017104D01*
X011754Y016951D01*
X012215Y016951D01*
X012215Y016797D02*
X011908Y016797D01*
X011754Y016644D01*
X011908Y016490D01*
X012215Y016490D01*
X012138Y016337D02*
X012215Y016260D01*
X012215Y016107D01*
X012138Y016030D01*
X012291Y015877D02*
X012291Y015570D01*
X012138Y015416D02*
X012215Y015339D01*
X012215Y015186D01*
X012138Y015109D01*
X012215Y014956D02*
X011754Y014956D01*
X011831Y015109D02*
X011754Y015186D01*
X011754Y015339D01*
X011831Y015416D01*
X012138Y015416D01*
X012215Y014956D02*
X012215Y014649D01*
X012215Y014495D02*
X011754Y014495D01*
X011984Y014419D02*
X012215Y014188D01*
X012291Y014035D02*
X012291Y013728D01*
X012138Y013575D02*
X012215Y013498D01*
X012215Y013344D01*
X012138Y013268D01*
X011831Y013268D01*
X011754Y013344D01*
X011754Y013498D01*
X011831Y013575D01*
X012138Y013575D01*
X012138Y013114D02*
X011754Y013114D01*
X011754Y012807D02*
X012138Y012807D01*
X012215Y012884D01*
X012215Y013038D01*
X012138Y013114D01*
X011754Y012654D02*
X011754Y012347D01*
X011754Y012500D02*
X012215Y012500D01*
X012291Y012193D02*
X012291Y011887D01*
X012215Y011733D02*
X012215Y011426D01*
X012215Y011580D02*
X011754Y011580D01*
X011908Y011733D01*
X011908Y011273D02*
X011831Y011273D01*
X011754Y011196D01*
X011754Y011042D01*
X011831Y010966D01*
X011908Y010966D01*
X011984Y011042D01*
X011984Y011196D01*
X011908Y011273D01*
X011984Y011196D02*
X012061Y011273D01*
X012138Y011273D01*
X012215Y011196D01*
X012215Y011042D01*
X012138Y010966D01*
X012061Y010966D01*
X011984Y011042D01*
X011831Y010812D02*
X011754Y010736D01*
X011754Y010582D01*
X011831Y010505D01*
X012138Y010812D01*
X012215Y010736D01*
X012215Y010582D01*
X012138Y010505D01*
X011831Y010505D01*
X011831Y010812D02*
X012138Y010812D01*
X011215Y012500D02*
X010754Y012500D01*
X010754Y012347D02*
X010754Y012654D01*
X010754Y012807D02*
X011138Y012807D01*
X011215Y012884D01*
X011215Y013038D01*
X011138Y013114D01*
X010754Y013114D01*
X010831Y013268D02*
X010754Y013344D01*
X010754Y013498D01*
X010831Y013575D01*
X011138Y013575D01*
X011215Y013498D01*
X011215Y013344D01*
X011138Y013268D01*
X010831Y013268D01*
X011291Y013728D02*
X011291Y014035D01*
X011215Y014188D02*
X010984Y014419D01*
X011061Y014495D02*
X010754Y014188D01*
X010754Y014495D02*
X011215Y014495D01*
X011215Y014649D02*
X011215Y014956D01*
X010754Y014956D01*
X010831Y015109D02*
X010754Y015186D01*
X010754Y015339D01*
X010831Y015416D01*
X011138Y015416D01*
X011215Y015339D01*
X011215Y015186D01*
X011138Y015109D01*
X011291Y015570D02*
X011291Y015877D01*
X011754Y016107D02*
X011754Y016260D01*
X011831Y016337D01*
X012138Y016337D01*
X011984Y016490D02*
X011984Y016797D01*
X011754Y016107D02*
X011831Y016030D01*
X013654Y015416D02*
X013654Y015109D01*
X013654Y014956D02*
X014115Y014649D01*
X014115Y014495D02*
X014115Y014265D01*
X014038Y014188D01*
X013731Y014188D01*
X013654Y014265D01*
X013654Y014495D01*
X014115Y014495D01*
X014115Y014956D02*
X013654Y014649D01*
X013731Y014035D02*
X013654Y013958D01*
X013654Y013805D01*
X013731Y013728D01*
X014038Y014035D01*
X014115Y013958D01*
X014115Y013805D01*
X014038Y013728D01*
X013731Y013728D01*
X013731Y014035D02*
X014038Y014035D01*
X014115Y015263D02*
X013654Y015263D01*
X014191Y015570D02*
X014191Y015877D01*
X012061Y014495D02*
X011754Y014188D01*
X011984Y017565D02*
X011984Y017718D01*
X011754Y017872D02*
X012215Y018179D01*
X010215Y018869D02*
X010215Y019023D01*
X010138Y019099D01*
X010138Y019253D02*
X009831Y019253D01*
X009754Y019330D01*
X009754Y019483D01*
X009831Y019560D01*
X010138Y019560D01*
X010215Y019483D01*
X010215Y019330D01*
X010138Y019253D01*
X009831Y019099D02*
X009754Y019023D01*
X009754Y018869D01*
X009831Y018792D01*
X009908Y018792D01*
X009984Y018869D01*
X010061Y018792D01*
X010138Y018792D01*
X010215Y018869D01*
X009984Y018869D02*
X009984Y018946D01*
X009215Y018869D02*
X009215Y019023D01*
X009138Y019099D01*
X009138Y019253D02*
X008831Y019253D01*
X008754Y019330D01*
X008754Y019483D01*
X008831Y019560D01*
X009138Y019560D01*
X009215Y019483D01*
X009215Y019330D01*
X009138Y019253D01*
X008831Y019099D02*
X008754Y019023D01*
X008754Y018869D01*
X008831Y018792D01*
X008908Y018792D01*
X008984Y018869D01*
X009061Y018792D01*
X009138Y018792D01*
X009215Y018869D01*
X008984Y018869D02*
X008984Y018946D01*
X008984Y018639D02*
X008908Y018485D01*
X008908Y018409D01*
X008984Y018332D01*
X009138Y018332D01*
X009215Y018409D01*
X009215Y018562D01*
X009138Y018639D01*
X008984Y018639D02*
X008754Y018639D01*
X008754Y018332D01*
X008754Y019713D02*
X008754Y019867D01*
X008754Y019790D02*
X009215Y019790D01*
X009215Y019867D02*
X009215Y019713D01*
X009754Y019713D02*
X009754Y019867D01*
X009754Y019790D02*
X010215Y019790D01*
X010215Y019867D02*
X010215Y019713D01*
X016654Y016644D02*
X016808Y016490D01*
X016654Y016644D02*
X016808Y016797D01*
X019354Y018332D02*
X019354Y018639D01*
X019354Y018332D02*
X019431Y018332D01*
X023354Y014956D02*
X023815Y014956D01*
X023508Y015109D02*
X023354Y014956D01*
X024354Y015416D02*
X024815Y015416D01*
X024815Y015109D02*
X024508Y014802D01*
X024431Y014802D01*
X024815Y014802D02*
X024815Y015109D01*
X023738Y013268D02*
X023815Y013191D01*
X023815Y013038D01*
X023738Y012961D01*
X021815Y014419D02*
X021738Y014342D01*
X019815Y014188D02*
X019354Y013882D01*
X019508Y013728D02*
X019354Y013575D01*
X019508Y013421D01*
X019815Y013421D01*
X019815Y013268D02*
X019508Y012961D01*
X019431Y012961D01*
X019354Y013038D01*
X019354Y013191D01*
X019431Y013268D01*
X019584Y013421D02*
X019584Y013728D01*
X019508Y013728D02*
X019815Y013728D01*
X019815Y013268D02*
X019815Y012961D01*
X019738Y012807D02*
X019815Y012731D01*
X019815Y012577D01*
X019738Y012500D01*
X019738Y012347D02*
X019815Y012347D01*
X019738Y012347D02*
X019431Y012040D01*
X019354Y012040D01*
X019354Y012347D01*
X019431Y012500D02*
X019354Y012577D01*
X019354Y012731D01*
X019431Y012807D01*
X019738Y012807D01*
X020354Y012270D02*
X020431Y012347D01*
X020738Y012347D01*
X020815Y012270D01*
X020815Y012117D01*
X020738Y012040D01*
X020738Y011887D02*
X020815Y011810D01*
X020815Y011656D01*
X020738Y011580D01*
X020431Y011580D01*
X020354Y011656D01*
X020354Y011810D01*
X020431Y011887D01*
X020508Y011887D01*
X020584Y011810D01*
X020584Y011580D01*
X020431Y012040D02*
X020354Y012117D01*
X020354Y012270D01*
X020815Y012500D02*
X020815Y012807D01*
X018215Y013728D02*
X018215Y014035D01*
X018215Y013882D02*
X017754Y013882D01*
X017908Y014035D01*
D11*
X008730Y013319D03*
X008647Y013319D03*
X008612Y013319D03*
X008494Y013213D03*
X008411Y013319D03*
X008222Y013673D03*
X007372Y013236D03*
X007029Y013520D03*
X006450Y014358D03*
X005801Y013059D03*
X005565Y013059D03*
X006143Y012705D03*
X006073Y012445D03*
X006167Y012079D03*
X005104Y012079D03*
X004950Y012244D03*
X004809Y013224D03*
X004525Y013319D03*
X004490Y013319D03*
X004431Y013319D03*
X004324Y013319D03*
X007632Y012079D03*
X007939Y012563D03*
X007950Y012705D03*
X008647Y012350D03*
X008718Y012079D03*
X007124Y016626D03*
X005742Y017819D03*
X006864Y018280D03*
X006923Y018280D03*
X007112Y018280D03*
X007171Y018280D03*
X007265Y018280D03*
X007301Y018280D03*
X008529Y017819D03*
D12*
X007413Y018280D03*
X007366Y018280D03*
X007071Y018280D03*
X005736Y014158D03*
X004815Y013508D03*
X004283Y013213D03*
X005842Y013059D03*
X006185Y012705D03*
X008547Y013319D03*
X008665Y012705D03*
X008771Y012563D03*
X008677Y012079D03*
X008535Y014158D03*
D13*
X008275Y013673D03*
X008252Y013673D03*
X008193Y013673D03*
X008169Y013673D03*
X008039Y013555D03*
X007945Y013673D03*
X008441Y013319D03*
X008464Y013319D03*
X008488Y013319D03*
X008511Y013319D03*
X008582Y013319D03*
X008677Y013319D03*
X008700Y013319D03*
X008630Y013165D03*
X008630Y012705D03*
X008606Y012705D03*
X008700Y012705D03*
X008724Y012705D03*
X008630Y012587D03*
X008771Y012551D03*
X008748Y012445D03*
X008606Y012197D03*
X008641Y012079D03*
X008228Y012705D03*
X008193Y012705D03*
X007685Y012705D03*
X007590Y012705D03*
X007283Y013059D03*
X007200Y013165D03*
X007177Y013165D03*
X007165Y013307D03*
X007130Y013425D03*
X007023Y013508D03*
X007059Y013661D03*
X006610Y013555D03*
X006539Y013673D03*
X006232Y013673D03*
X006208Y013673D03*
X006185Y013673D03*
X006161Y013673D03*
X006137Y013673D03*
X005866Y013673D03*
X005842Y013673D03*
X005819Y013673D03*
X005795Y013673D03*
X005771Y013673D03*
X005606Y013673D03*
X005582Y013673D03*
X005559Y013673D03*
X005535Y013673D03*
X005511Y013673D03*
X005393Y013555D03*
X005370Y013555D03*
X005299Y013532D03*
X004956Y013555D03*
X004933Y013555D03*
X004933Y013177D03*
X004968Y013177D03*
X005027Y013059D03*
X005511Y013059D03*
X005535Y013059D03*
X005594Y013059D03*
X005618Y013059D03*
X005771Y013059D03*
X005878Y013059D03*
X006055Y013047D03*
X006031Y013177D03*
X006598Y013177D03*
X006823Y012705D03*
X006279Y012551D03*
X006256Y012445D03*
X006303Y012433D03*
X006114Y012587D03*
X006114Y012705D03*
X006220Y012705D03*
X006208Y012197D03*
X005452Y012563D03*
X005063Y012705D03*
X004413Y013047D03*
X004413Y013165D03*
X004401Y013319D03*
X004378Y013319D03*
X004354Y013319D03*
X004295Y013319D03*
X004271Y013319D03*
X004248Y013319D03*
X004224Y013319D03*
X004200Y013319D03*
X004460Y013319D03*
X005051Y012079D03*
X005074Y012079D03*
X005134Y012079D03*
X007661Y012079D03*
X009149Y012705D03*
X009232Y012705D03*
X009197Y013047D03*
X009197Y013177D03*
X009232Y013555D03*
X009256Y013673D03*
X009362Y013673D03*
X009386Y013673D03*
X009409Y013673D03*
X009433Y013673D03*
X009456Y013673D03*
X009823Y013555D03*
X009834Y013047D03*
X008039Y014465D03*
X007815Y014358D03*
X006232Y014465D03*
X005346Y015575D03*
X005157Y015610D03*
X005027Y015634D03*
X004968Y015646D03*
X005051Y016343D03*
X005122Y016354D03*
X005925Y017701D03*
X006893Y018280D03*
X006952Y018280D03*
X007035Y018280D03*
X007141Y018280D03*
X007330Y018280D03*
X007626Y017630D03*
X007649Y017618D03*
X007236Y016614D03*
X008913Y016402D03*
X008972Y016390D03*
X009031Y016378D03*
X009102Y016366D03*
X009161Y016354D03*
X009220Y016343D03*
X009055Y015598D03*
D14*
X007821Y014370D03*
X006450Y014370D03*
X005305Y013543D03*
X005458Y012575D03*
X004950Y012232D03*
X006214Y012079D03*
X006285Y012563D03*
X007372Y013224D03*
X007998Y012705D03*
X007950Y012575D03*
X009191Y012705D03*
X007218Y018280D03*
X006994Y018280D03*
D15*
X005748Y017784D03*
X006421Y014406D03*
X005748Y014193D03*
X005819Y013661D03*
X005819Y013650D03*
X005819Y013626D03*
X005819Y013614D03*
X005819Y013591D03*
X005819Y013579D03*
X005819Y013567D03*
X005819Y013520D03*
X005819Y013508D03*
X005819Y013484D03*
X005819Y013461D03*
X005819Y013437D03*
X005819Y013425D03*
X005819Y013378D03*
X005819Y013354D03*
X005819Y013331D03*
X005819Y013307D03*
X005819Y013295D03*
X005819Y013284D03*
X005819Y013260D03*
X005830Y013248D03*
X005819Y013106D03*
X005819Y013095D03*
X005819Y013071D03*
X006043Y013059D03*
X006185Y013248D03*
X006185Y013260D03*
X006185Y013272D03*
X006185Y013284D03*
X006185Y013307D03*
X006185Y013331D03*
X006185Y013343D03*
X006185Y013378D03*
X006185Y013390D03*
X006185Y013425D03*
X006185Y013449D03*
X006185Y013472D03*
X006185Y013496D03*
X006185Y013520D03*
X006185Y013543D03*
X006185Y013567D03*
X006185Y013591D03*
X006185Y013614D03*
X006185Y013638D03*
X006185Y013661D03*
X006433Y013496D03*
X006421Y013461D03*
X006421Y013449D03*
X006421Y013437D03*
X006421Y013425D03*
X006421Y013402D03*
X006421Y013366D03*
X006421Y013343D03*
X006421Y013319D03*
X006421Y013295D03*
X006421Y013284D03*
X006421Y013272D03*
X006433Y013236D03*
X006445Y013213D03*
X006775Y013213D03*
X006787Y013236D03*
X006787Y013248D03*
X006799Y013260D03*
X006799Y013284D03*
X006799Y013295D03*
X006799Y013331D03*
X006799Y013343D03*
X006799Y013366D03*
X006799Y013390D03*
X006799Y013402D03*
X006799Y013425D03*
X006799Y013449D03*
X006799Y013461D03*
X006787Y013484D03*
X006787Y013496D03*
X007000Y013272D03*
X007000Y013248D03*
X007000Y013224D03*
X007000Y013213D03*
X007354Y013461D03*
X007354Y013472D03*
X007354Y013484D03*
X007354Y013508D03*
X007354Y013520D03*
X007342Y013532D03*
X007862Y013484D03*
X007862Y013472D03*
X007862Y013272D03*
X007850Y013260D03*
X007862Y013224D03*
X007850Y013213D03*
X007862Y013095D03*
X007850Y013083D03*
X008228Y013095D03*
X008228Y013071D03*
X008228Y013142D03*
X008228Y013165D03*
X008228Y013189D03*
X008228Y013201D03*
X008228Y013236D03*
X008228Y013248D03*
X008228Y013272D03*
X008228Y013295D03*
X008228Y013319D03*
X008228Y013343D03*
X008228Y013366D03*
X008228Y013390D03*
X008228Y013413D03*
X008228Y013437D03*
X008228Y013461D03*
X008216Y013472D03*
X008216Y013496D03*
X008228Y013626D03*
X008228Y013650D03*
X008464Y013496D03*
X008464Y013484D03*
X008464Y013472D03*
X008452Y013461D03*
X008452Y013437D03*
X008452Y013425D03*
X008641Y013673D03*
X008807Y013520D03*
X008819Y013508D03*
X008819Y013484D03*
X008830Y013449D03*
X008830Y013272D03*
X008830Y013248D03*
X008819Y013236D03*
X008819Y013224D03*
X008807Y013213D03*
X009043Y013284D03*
X009055Y013272D03*
X009043Y013319D03*
X009043Y013331D03*
X009043Y013343D03*
X009043Y013366D03*
X009043Y013390D03*
X009043Y013402D03*
X009043Y013425D03*
X009055Y013484D03*
X009055Y013496D03*
X009409Y013484D03*
X009409Y013472D03*
X009409Y013461D03*
X009409Y013449D03*
X009409Y013437D03*
X009409Y013425D03*
X009409Y013390D03*
X009409Y013366D03*
X009409Y013343D03*
X009409Y013319D03*
X009421Y013307D03*
X009409Y013295D03*
X009409Y013284D03*
X009409Y013272D03*
X009409Y013260D03*
X009409Y013083D03*
X009421Y013071D03*
X009409Y013059D03*
X009409Y013035D03*
X009409Y012988D03*
X009409Y012953D03*
X009421Y012929D03*
X009409Y012917D03*
X009409Y012906D03*
X009409Y012882D03*
X009409Y012858D03*
X009409Y012835D03*
X009409Y012811D03*
X009409Y012787D03*
X009409Y012764D03*
X009409Y012728D03*
X009409Y012717D03*
X009409Y012681D03*
X009409Y012658D03*
X009409Y012516D03*
X009409Y012504D03*
X009409Y012492D03*
X009409Y012480D03*
X009409Y012457D03*
X009409Y012433D03*
X009409Y012410D03*
X009409Y012386D03*
X009409Y012362D03*
X009409Y012339D03*
X009409Y012315D03*
X009421Y012303D03*
X009409Y012291D03*
X009409Y012256D03*
X009409Y012232D03*
X009409Y012209D03*
X009409Y012185D03*
X009421Y012173D03*
X009409Y012150D03*
X009409Y012114D03*
X009409Y012091D03*
X009043Y012102D03*
X009043Y012126D03*
X009043Y012150D03*
X009043Y012161D03*
X009043Y012185D03*
X009043Y012209D03*
X009043Y012221D03*
X009043Y012244D03*
X009043Y012268D03*
X009043Y012291D03*
X009043Y012303D03*
X009043Y012327D03*
X009043Y012339D03*
X009043Y012362D03*
X009043Y012386D03*
X009043Y012398D03*
X009043Y012421D03*
X009043Y012445D03*
X009043Y012457D03*
X009043Y012480D03*
X009055Y012492D03*
X009043Y012504D03*
X009055Y012516D03*
X008830Y012315D03*
X008819Y012327D03*
X008830Y012232D03*
X008819Y012221D03*
X008476Y012232D03*
X008464Y012244D03*
X008464Y012256D03*
X008464Y012280D03*
X008464Y012291D03*
X008464Y012315D03*
X008464Y012327D03*
X008464Y012480D03*
X008464Y012492D03*
X008464Y012516D03*
X008464Y012528D03*
X008464Y012539D03*
X008476Y012551D03*
X008204Y012504D03*
X008204Y012492D03*
X008204Y012480D03*
X008204Y012457D03*
X008204Y012445D03*
X008204Y012433D03*
X008204Y012421D03*
X008204Y012398D03*
X008204Y012386D03*
X008204Y012362D03*
X008204Y012350D03*
X008204Y012327D03*
X008204Y012303D03*
X008204Y012291D03*
X008204Y012268D03*
X008204Y012244D03*
X008204Y012232D03*
X008204Y012209D03*
X008204Y012185D03*
X008204Y012161D03*
X008204Y012150D03*
X008204Y012126D03*
X008204Y012102D03*
X008464Y012102D03*
X008464Y012114D03*
X008193Y012516D03*
X008204Y012646D03*
X008204Y012658D03*
X008204Y012681D03*
X008204Y012693D03*
X007779Y012528D03*
X007779Y012504D03*
X007779Y012492D03*
X007779Y012480D03*
X007779Y012445D03*
X007791Y012410D03*
X007779Y012398D03*
X007779Y012350D03*
X007779Y012339D03*
X007779Y012303D03*
X007779Y012291D03*
X007779Y012280D03*
X007425Y012280D03*
X007425Y012268D03*
X007425Y012315D03*
X007413Y012339D03*
X007425Y012350D03*
X007413Y012362D03*
X007413Y012386D03*
X007413Y012398D03*
X007413Y012433D03*
X007425Y012445D03*
X007413Y012469D03*
X007425Y012480D03*
X007425Y012504D03*
X007425Y012516D03*
X007413Y012646D03*
X007413Y012669D03*
X007413Y012717D03*
X007413Y012752D03*
X007413Y012776D03*
X007425Y012787D03*
X007413Y012799D03*
X007413Y012823D03*
X007413Y012847D03*
X007425Y012858D03*
X007413Y012882D03*
X007413Y012941D03*
X007224Y012693D03*
X007212Y012669D03*
X007212Y012658D03*
X007212Y012646D03*
X007200Y012634D03*
X007200Y012622D03*
X007200Y012610D03*
X007189Y012598D03*
X007189Y012587D03*
X007189Y012575D03*
X007177Y012551D03*
X007177Y012539D03*
X007165Y012504D03*
X007153Y012469D03*
X007130Y012386D03*
X007035Y012126D03*
X007035Y012114D03*
X007413Y012102D03*
X007413Y012126D03*
X006669Y012126D03*
X006669Y012114D03*
X006669Y012102D03*
X006574Y012398D03*
X006551Y012469D03*
X006539Y012504D03*
X006539Y012516D03*
X006527Y012551D03*
X006527Y012563D03*
X006515Y012575D03*
X006515Y012587D03*
X006515Y012598D03*
X006504Y012622D03*
X006504Y012634D03*
X006504Y012646D03*
X006492Y012658D03*
X006492Y012669D03*
X006492Y012681D03*
X006267Y012587D03*
X005972Y012516D03*
X005972Y012492D03*
X005972Y012480D03*
X005972Y012457D03*
X005984Y012445D03*
X005972Y012327D03*
X005972Y012303D03*
X005972Y012291D03*
X005972Y012268D03*
X005972Y012256D03*
X005984Y012244D03*
X005972Y012126D03*
X005972Y012102D03*
X005712Y012102D03*
X005712Y012114D03*
X005712Y012126D03*
X005712Y012150D03*
X005712Y012161D03*
X005712Y012197D03*
X005712Y012209D03*
X005712Y012232D03*
X005712Y012244D03*
X005712Y012256D03*
X005712Y012280D03*
X005712Y012303D03*
X005712Y012315D03*
X005712Y012339D03*
X005712Y012350D03*
X005712Y012362D03*
X005712Y012386D03*
X005712Y012398D03*
X005712Y012421D03*
X005712Y012445D03*
X005712Y012457D03*
X005712Y012480D03*
X005712Y012492D03*
X005712Y012504D03*
X005712Y012646D03*
X005712Y012669D03*
X005712Y012681D03*
X005712Y012693D03*
X005275Y012539D03*
X005275Y012528D03*
X005263Y012551D03*
X005287Y012504D03*
X005299Y012315D03*
X005275Y012256D03*
X005275Y012244D03*
X005263Y012232D03*
X004909Y012469D03*
X004921Y012504D03*
X005559Y013071D03*
X005559Y013095D03*
X005559Y013106D03*
X005559Y013118D03*
X005559Y013142D03*
X005559Y013154D03*
X005559Y013165D03*
X005559Y013189D03*
X005559Y013201D03*
X005559Y013248D03*
X005559Y013272D03*
X005559Y013284D03*
X005559Y013307D03*
X005559Y013331D03*
X005559Y013343D03*
X005559Y013354D03*
X005559Y013378D03*
X005559Y013402D03*
X005559Y013413D03*
X005559Y013437D03*
X005559Y013449D03*
X005559Y013461D03*
X005559Y013472D03*
X005559Y013484D03*
X005547Y013496D03*
X005559Y013614D03*
X005559Y013626D03*
X005559Y013650D03*
X005559Y013661D03*
X005157Y013449D03*
X005145Y013461D03*
X005145Y013472D03*
X005134Y013484D03*
X005157Y013425D03*
X005157Y013413D03*
X005157Y013402D03*
X005157Y013378D03*
X005157Y013354D03*
X005157Y013331D03*
X005157Y013295D03*
X005145Y013272D03*
X005145Y013260D03*
X005134Y013236D03*
X004815Y013543D03*
X004945Y013673D03*
X004614Y013496D03*
X004614Y013484D03*
X004626Y013449D03*
X004626Y013425D03*
X004602Y013520D03*
X004626Y013284D03*
X004614Y013248D03*
X004614Y013236D03*
X004602Y013224D03*
X004602Y013213D03*
X004295Y013177D03*
X004248Y013425D03*
X004248Y013449D03*
X004248Y013461D03*
X004248Y013472D03*
X004260Y013484D03*
X004260Y013496D03*
X007850Y014406D03*
X008523Y014193D03*
X009409Y013638D03*
X009657Y013496D03*
X009657Y013484D03*
X009645Y013461D03*
X009645Y013437D03*
X009645Y013425D03*
X009645Y013402D03*
X009645Y013390D03*
X009645Y013366D03*
X009645Y013343D03*
X009645Y013319D03*
X009645Y013307D03*
X009645Y013284D03*
X009645Y013272D03*
X009657Y013248D03*
X009657Y013236D03*
X010011Y013236D03*
X010011Y013248D03*
X010023Y013260D03*
X010023Y013284D03*
X010023Y013307D03*
X010023Y013331D03*
X010023Y013354D03*
X010023Y013378D03*
X010023Y013402D03*
X010023Y013425D03*
X010023Y013437D03*
X010023Y013461D03*
X010023Y013472D03*
X010011Y013484D03*
X010011Y013496D03*
X008760Y012587D03*
D16*
X009049Y012469D03*
X009049Y012433D03*
X009049Y012410D03*
X009049Y012374D03*
X009049Y012350D03*
X009049Y012315D03*
X009049Y012280D03*
X009049Y012256D03*
X009049Y012232D03*
X009049Y012197D03*
X009049Y012173D03*
X009049Y012138D03*
X009049Y012114D03*
X009049Y012091D03*
X008836Y012244D03*
X008836Y012256D03*
X008836Y012268D03*
X008836Y012280D03*
X008836Y012291D03*
X008836Y012303D03*
X008458Y012268D03*
X008458Y012339D03*
X008470Y012457D03*
X008458Y012469D03*
X008458Y012504D03*
X008199Y012469D03*
X008199Y012410D03*
X008199Y012339D03*
X008199Y012315D03*
X008199Y012280D03*
X008199Y012256D03*
X008199Y012197D03*
X008199Y012173D03*
X008199Y012138D03*
X008199Y012114D03*
X008199Y012091D03*
X008458Y012091D03*
X008458Y012126D03*
X008199Y012669D03*
X008222Y013059D03*
X008222Y013083D03*
X008222Y013106D03*
X008222Y013130D03*
X008222Y013154D03*
X008222Y013177D03*
X008222Y013213D03*
X008222Y013224D03*
X008222Y013260D03*
X008222Y013284D03*
X008222Y013307D03*
X008222Y013331D03*
X008222Y013354D03*
X008222Y013378D03*
X008222Y013402D03*
X008222Y013425D03*
X008222Y013449D03*
X008222Y013614D03*
X008222Y013638D03*
X008222Y013661D03*
X008458Y013449D03*
X008824Y013472D03*
X008836Y013461D03*
X008836Y013437D03*
X008836Y013425D03*
X008824Y013496D03*
X008836Y013307D03*
X008836Y013295D03*
X008836Y013284D03*
X008824Y013260D03*
X009049Y013248D03*
X009049Y013295D03*
X009049Y013307D03*
X009049Y013354D03*
X009049Y013378D03*
X009049Y013413D03*
X009049Y013437D03*
X009049Y013461D03*
X009415Y013413D03*
X009415Y013402D03*
X009415Y013378D03*
X009415Y013354D03*
X009415Y013331D03*
X009639Y013331D03*
X009639Y013354D03*
X009639Y013378D03*
X009639Y013413D03*
X009651Y013449D03*
X009639Y013295D03*
X009651Y013260D03*
X009415Y013106D03*
X009415Y013095D03*
X009415Y013047D03*
X009415Y013024D03*
X009415Y013012D03*
X009415Y013000D03*
X009415Y012976D03*
X009415Y012965D03*
X009415Y012941D03*
X009415Y012894D03*
X009415Y012870D03*
X009415Y012847D03*
X009415Y012823D03*
X009415Y012799D03*
X009415Y012776D03*
X009415Y012752D03*
X009415Y012740D03*
X009415Y012705D03*
X009415Y012693D03*
X009415Y012669D03*
X009415Y012646D03*
X009415Y012469D03*
X009415Y012445D03*
X009415Y012421D03*
X009415Y012398D03*
X009415Y012374D03*
X009415Y012350D03*
X009415Y012327D03*
X009415Y012280D03*
X009415Y012268D03*
X009415Y012244D03*
X009415Y012221D03*
X009415Y012197D03*
X009415Y012161D03*
X009415Y012138D03*
X009415Y012126D03*
X009415Y012102D03*
X009191Y013059D03*
X009415Y013626D03*
X009415Y013650D03*
X010017Y013449D03*
X010029Y013413D03*
X010029Y013390D03*
X010029Y013366D03*
X010029Y013343D03*
X010029Y013319D03*
X010017Y013295D03*
X010017Y013272D03*
X007856Y013284D03*
X007856Y013295D03*
X007856Y013319D03*
X007856Y013331D03*
X007856Y013343D03*
X007856Y013354D03*
X007856Y013378D03*
X007856Y013390D03*
X007856Y013413D03*
X007856Y013425D03*
X007856Y013437D03*
X007856Y013449D03*
X007856Y013248D03*
X007856Y013236D03*
X007856Y013201D03*
X007856Y013189D03*
X007856Y013165D03*
X007856Y013154D03*
X007856Y013142D03*
X007856Y013118D03*
X007856Y013106D03*
X007856Y013071D03*
X007856Y013059D03*
X007419Y012929D03*
X007419Y012917D03*
X007419Y012894D03*
X007419Y012870D03*
X007419Y012835D03*
X007419Y012811D03*
X007419Y012764D03*
X007419Y012740D03*
X007419Y012728D03*
X007419Y012705D03*
X007419Y012681D03*
X007419Y012658D03*
X007419Y012457D03*
X007419Y012421D03*
X007419Y012410D03*
X007419Y012374D03*
X007419Y012327D03*
X007419Y012138D03*
X007419Y012114D03*
X007419Y012091D03*
X007100Y012280D03*
X007100Y012291D03*
X007112Y012315D03*
X007112Y012327D03*
X007112Y012339D03*
X007124Y012362D03*
X007136Y012398D03*
X007136Y012410D03*
X007136Y012421D03*
X007147Y012433D03*
X007147Y012445D03*
X007147Y012457D03*
X007159Y012480D03*
X007159Y012492D03*
X007171Y012516D03*
X007171Y012528D03*
X007183Y012563D03*
X006958Y012350D03*
X006746Y012339D03*
X006734Y012303D03*
X006604Y012291D03*
X006604Y012280D03*
X006592Y012327D03*
X006592Y012339D03*
X006592Y012350D03*
X006580Y012362D03*
X006580Y012386D03*
X006569Y012410D03*
X006557Y012421D03*
X006569Y012433D03*
X006557Y012445D03*
X006557Y012457D03*
X006545Y012480D03*
X006545Y012492D03*
X006533Y012528D03*
X006533Y012539D03*
X006510Y012610D03*
X006344Y012315D03*
X006344Y012303D03*
X006344Y012291D03*
X006344Y012280D03*
X006356Y012268D03*
X006344Y012256D03*
X006344Y012244D03*
X006344Y012232D03*
X005978Y012280D03*
X005978Y012315D03*
X005978Y012339D03*
X005978Y012469D03*
X005978Y012504D03*
X005978Y012528D03*
X005978Y012551D03*
X005718Y012469D03*
X005718Y012433D03*
X005718Y012374D03*
X005718Y012327D03*
X005718Y012291D03*
X005718Y012221D03*
X005718Y012185D03*
X005706Y012173D03*
X005718Y012138D03*
X005718Y012091D03*
X005978Y012091D03*
X005978Y012114D03*
X005718Y012658D03*
X005281Y012516D03*
X005293Y012480D03*
X005293Y012469D03*
X005293Y012457D03*
X005293Y012339D03*
X005293Y012327D03*
X005293Y012303D03*
X005293Y012291D03*
X005281Y012280D03*
X005281Y012268D03*
X004962Y012209D03*
X004915Y012457D03*
X004915Y012480D03*
X004927Y012516D03*
X005565Y013083D03*
X005565Y013130D03*
X005565Y013177D03*
X005565Y013213D03*
X005553Y013224D03*
X005565Y013236D03*
X005565Y013260D03*
X005565Y013295D03*
X005565Y013319D03*
X005565Y013366D03*
X005565Y013390D03*
X005565Y013425D03*
X005565Y013638D03*
X005824Y013638D03*
X005824Y013602D03*
X005824Y013555D03*
X005813Y013543D03*
X005824Y013532D03*
X005824Y013496D03*
X005824Y013472D03*
X005824Y013449D03*
X005824Y013413D03*
X005813Y013402D03*
X005824Y013390D03*
X005824Y013366D03*
X005824Y013343D03*
X005824Y013319D03*
X005824Y013272D03*
X005824Y013083D03*
X006191Y013295D03*
X006191Y013319D03*
X006191Y013354D03*
X006191Y013366D03*
X006191Y013402D03*
X006191Y013413D03*
X006191Y013437D03*
X006191Y013461D03*
X006191Y013484D03*
X006191Y013508D03*
X006191Y013532D03*
X006191Y013555D03*
X006191Y013579D03*
X006191Y013602D03*
X006191Y013626D03*
X006191Y013650D03*
X006427Y013472D03*
X006415Y013413D03*
X006415Y013390D03*
X006415Y013378D03*
X006415Y013354D03*
X006415Y013331D03*
X006415Y013307D03*
X006427Y013260D03*
X006793Y013272D03*
X006793Y013307D03*
X006805Y013319D03*
X006805Y013354D03*
X006805Y013378D03*
X006805Y013413D03*
X006793Y013437D03*
X006793Y013472D03*
X006616Y013673D03*
X006994Y013260D03*
X006994Y013236D03*
X007360Y013496D03*
X006852Y012669D03*
X006852Y012658D03*
X006852Y012646D03*
X007041Y012102D03*
X007785Y012327D03*
X007785Y012362D03*
X007785Y012374D03*
X007785Y012386D03*
X007785Y012421D03*
X007785Y012433D03*
X007785Y012457D03*
X007785Y012469D03*
X005163Y013319D03*
X005151Y013307D03*
X005151Y013284D03*
X005163Y013343D03*
X005163Y013366D03*
X005163Y013390D03*
X005151Y013437D03*
X004620Y013461D03*
X004620Y013472D03*
X004608Y013508D03*
X004632Y013307D03*
X004620Y013295D03*
X004620Y013272D03*
X004620Y013260D03*
X004242Y013437D03*
X004431Y013673D03*
X008517Y017784D03*
D17*
X005760Y014217D03*
X005346Y013661D03*
X005098Y013543D03*
X005098Y013189D03*
X004567Y013177D03*
X004307Y013165D03*
X005228Y012587D03*
X005689Y012563D03*
X006008Y012587D03*
X006043Y013071D03*
X006149Y013189D03*
X006468Y013543D03*
X006752Y013543D03*
X007354Y013177D03*
X007897Y013543D03*
X008204Y013532D03*
X008511Y013555D03*
X009185Y013661D03*
X009386Y013543D03*
X009693Y013543D03*
X009386Y013189D03*
X009090Y013177D03*
X009090Y012575D03*
X009386Y012563D03*
X008677Y012091D03*
X007744Y012575D03*
X007437Y012221D03*
X007035Y012197D03*
X006669Y012197D03*
X006669Y012185D03*
X006858Y012563D03*
X006846Y012575D03*
X005098Y012091D03*
D18*
X004915Y012492D03*
X004927Y012528D03*
X004927Y012539D03*
X004939Y012551D03*
X004950Y012563D03*
X005246Y012575D03*
X005258Y012563D03*
X005706Y012539D03*
X005706Y012528D03*
X005706Y012516D03*
X005978Y012539D03*
X005990Y012563D03*
X005990Y012575D03*
X006167Y012445D03*
X006332Y012327D03*
X006332Y012221D03*
X006663Y012138D03*
X007041Y012138D03*
X007419Y012291D03*
X007419Y012303D03*
X007419Y012492D03*
X007419Y012693D03*
X007218Y012681D03*
X007419Y012906D03*
X007761Y012539D03*
X007773Y012516D03*
X007785Y012315D03*
X007773Y012268D03*
X007773Y012256D03*
X007761Y012244D03*
X007643Y012091D03*
X008199Y012528D03*
X008470Y012563D03*
X008482Y012575D03*
X008470Y012221D03*
X008813Y012209D03*
X009061Y012539D03*
X009403Y012528D03*
X009403Y013224D03*
X009403Y013236D03*
X009403Y013248D03*
X009403Y013496D03*
X009415Y013661D03*
X009663Y013508D03*
X009651Y013472D03*
X009663Y013224D03*
X009675Y013201D03*
X010006Y013213D03*
X010006Y013224D03*
X010006Y013508D03*
X009828Y013673D03*
X009061Y013508D03*
X009049Y013472D03*
X009049Y013449D03*
X009049Y013260D03*
X009061Y013236D03*
X009061Y013224D03*
X009061Y013213D03*
X008801Y013201D03*
X008506Y013177D03*
X008222Y013118D03*
X007856Y013130D03*
X007856Y013177D03*
X007856Y013307D03*
X007856Y013366D03*
X007856Y013402D03*
X007856Y013461D03*
X007868Y013496D03*
X007868Y013508D03*
X008222Y013484D03*
X008470Y013508D03*
X008482Y013520D03*
X008789Y013543D03*
X008801Y013532D03*
X007348Y013543D03*
X007348Y013449D03*
X007360Y013189D03*
X007017Y013189D03*
X007006Y013201D03*
X007006Y013284D03*
X006781Y013224D03*
X006781Y013508D03*
X007065Y013555D03*
X006439Y013508D03*
X006427Y013484D03*
X006427Y013248D03*
X006439Y013224D03*
X006179Y013224D03*
X006179Y013236D03*
X006167Y013213D03*
X005836Y013224D03*
X005824Y013236D03*
X005139Y013248D03*
X005128Y013224D03*
X005128Y013213D03*
X004939Y013059D03*
X004596Y013201D03*
X004620Y013319D03*
X004584Y013532D03*
X004584Y013543D03*
X004277Y013532D03*
X004265Y013520D03*
X004265Y013508D03*
X005116Y013520D03*
X005128Y013508D03*
X005139Y013496D03*
X006486Y012693D03*
X006852Y012634D03*
X006852Y012622D03*
X006852Y012610D03*
X005990Y012221D03*
X005978Y012232D03*
D19*
X005712Y012268D03*
X005712Y012410D03*
X005287Y012492D03*
X004815Y013189D03*
X004626Y013437D03*
X005334Y013673D03*
X005748Y014181D03*
X006433Y014394D03*
X007838Y014394D03*
X007366Y013201D03*
X006858Y012681D03*
X006917Y012504D03*
X006917Y012480D03*
X006917Y012469D03*
X006929Y012457D03*
X006929Y012445D03*
X006929Y012433D03*
X006941Y012421D03*
X006941Y012410D03*
X006941Y012398D03*
X006941Y012386D03*
X006952Y012374D03*
X006952Y012362D03*
X006964Y012339D03*
X006964Y012327D03*
X006964Y012315D03*
X006976Y012303D03*
X006976Y012291D03*
X006976Y012280D03*
X007106Y012303D03*
X007118Y012350D03*
X007130Y012374D03*
X007035Y012091D03*
X006728Y012280D03*
X006728Y012291D03*
X006740Y012315D03*
X006740Y012327D03*
X006752Y012350D03*
X006752Y012362D03*
X006752Y012374D03*
X006763Y012386D03*
X006763Y012398D03*
X006763Y012410D03*
X006775Y012421D03*
X006775Y012433D03*
X006775Y012445D03*
X006775Y012457D03*
X006787Y012469D03*
X006787Y012480D03*
X006787Y012492D03*
X006799Y012504D03*
X006574Y012374D03*
X006598Y012315D03*
X006598Y012303D03*
X006669Y012091D03*
X008204Y012221D03*
X008204Y012374D03*
X008464Y012303D03*
X009185Y013673D03*
D20*
X009391Y013532D03*
X009710Y013555D03*
X009710Y013177D03*
X009958Y013177D03*
X009191Y013071D03*
X009380Y012575D03*
X008789Y012197D03*
X008494Y012197D03*
X008506Y012587D03*
X008517Y013165D03*
X008187Y013543D03*
X007998Y013661D03*
X008517Y014217D03*
X007868Y014429D03*
X006403Y014429D03*
X005529Y013543D03*
X005848Y013189D03*
X006143Y013177D03*
X006486Y013177D03*
X006734Y013177D03*
X006852Y012551D03*
X006852Y012539D03*
X006663Y012221D03*
X006663Y012209D03*
X006297Y012350D03*
X006191Y012091D03*
X006013Y012197D03*
X005683Y012575D03*
X005104Y012693D03*
X004974Y012587D03*
X004939Y012350D03*
X005222Y012197D03*
X005080Y013177D03*
X007041Y012221D03*
X007041Y012209D03*
X007454Y012575D03*
X007738Y012209D03*
X008517Y017760D03*
D21*
X008506Y017736D03*
X005754Y017736D03*
X008175Y013555D03*
X008624Y013071D03*
X009191Y013083D03*
X009191Y012669D03*
X009356Y012587D03*
X008683Y012102D03*
X007714Y012587D03*
X007466Y012587D03*
X007336Y013165D03*
X006191Y012102D03*
X005246Y012445D03*
X005104Y012681D03*
D22*
X005074Y013555D03*
X004945Y013661D03*
X004437Y013661D03*
X006492Y013555D03*
X006610Y013661D03*
X006728Y013555D03*
X007047Y013307D03*
X006610Y013071D03*
X006669Y012244D03*
X006669Y012232D03*
X007035Y012232D03*
X007460Y012209D03*
X007637Y012102D03*
X007637Y012681D03*
X007980Y012681D03*
X008169Y012575D03*
X008771Y012350D03*
X009102Y013555D03*
X008641Y013661D03*
X008523Y017748D03*
D23*
X007886Y014453D03*
X008511Y014240D03*
X008004Y013638D03*
X007189Y013071D03*
X007637Y012669D03*
X007980Y012669D03*
X006610Y013650D03*
X006386Y014453D03*
X005760Y014240D03*
X004437Y013650D03*
X005488Y012669D03*
X005086Y012102D03*
D24*
X004419Y013083D03*
X004431Y013638D03*
X006155Y012681D03*
X008647Y012681D03*
X008683Y012126D03*
X008683Y012114D03*
X009191Y013106D03*
X009191Y013626D03*
X008647Y013638D03*
D25*
X009197Y013650D03*
X009362Y013555D03*
X009114Y012587D03*
X008653Y012693D03*
X008511Y012350D03*
X007637Y012114D03*
X007035Y012268D03*
X006669Y012268D03*
X006161Y012693D03*
X006043Y013083D03*
X005866Y013177D03*
X004945Y013071D03*
X004425Y013071D03*
X005240Y012350D03*
X007189Y013661D03*
X008004Y013650D03*
D26*
X008647Y013650D03*
X009191Y013638D03*
X009840Y013650D03*
X009191Y013095D03*
X007986Y012658D03*
X007277Y013425D03*
X006616Y013083D03*
X006191Y012114D03*
X005506Y012646D03*
X005352Y013614D03*
X005340Y013638D03*
X004950Y013650D03*
D27*
X004950Y013638D03*
X004950Y013095D03*
X005104Y012658D03*
X005080Y012114D03*
X007195Y013083D03*
X007643Y012646D03*
X007998Y013614D03*
X007183Y013650D03*
X005765Y014264D03*
X009191Y012646D03*
X005754Y017701D03*
D28*
X005760Y017724D03*
X008511Y017724D03*
X007886Y014465D03*
X008511Y014252D03*
X009834Y013083D03*
X009197Y012658D03*
X007992Y012646D03*
X007637Y012658D03*
X007637Y012126D03*
X006055Y012350D03*
X005500Y012658D03*
X005098Y012669D03*
X004980Y012445D03*
X004945Y013083D03*
X005346Y013626D03*
X005760Y014252D03*
X006386Y014465D03*
X006043Y013106D03*
X006043Y013095D03*
D29*
X006610Y013095D03*
X006610Y013638D03*
X008004Y013626D03*
X008511Y014264D03*
X009834Y013638D03*
X009834Y013095D03*
X008630Y013083D03*
X007637Y012138D03*
X006197Y012126D03*
X005771Y017713D03*
X008511Y017713D03*
D30*
X008506Y017701D03*
X008506Y014276D03*
X006604Y013106D03*
X005104Y012646D03*
X005092Y012126D03*
X005765Y014276D03*
X008647Y012669D03*
D31*
X008624Y012386D03*
X008624Y012138D03*
X009250Y012622D03*
X009250Y012634D03*
X009250Y013130D03*
X009250Y013591D03*
X009250Y013602D03*
X008494Y014323D03*
X008057Y013591D03*
X007171Y013591D03*
X007584Y012622D03*
X007573Y012150D03*
X006143Y012374D03*
X006132Y012398D03*
X005978Y013130D03*
X005990Y013142D03*
X004950Y013165D03*
X004950Y013567D03*
X005777Y014323D03*
D32*
X004945Y013579D03*
X004945Y013154D03*
X004413Y013154D03*
X005086Y012185D03*
X005086Y012173D03*
X006137Y012138D03*
X005984Y013118D03*
X006610Y013165D03*
X007200Y013130D03*
X007189Y013567D03*
X007177Y013579D03*
X007578Y012634D03*
X007578Y012161D03*
X008618Y012398D03*
X008618Y012410D03*
X008641Y012610D03*
X008630Y013154D03*
X009256Y013118D03*
X009834Y013165D03*
X009256Y013614D03*
X008500Y017654D03*
X005771Y017654D03*
D33*
X005771Y014287D03*
X004945Y013614D03*
X004945Y013118D03*
X005098Y012634D03*
X005086Y012138D03*
X005594Y012598D03*
X006610Y013130D03*
X007212Y013402D03*
X008086Y012587D03*
X008653Y012658D03*
X008630Y013106D03*
X008641Y013602D03*
X008500Y014287D03*
X009834Y013614D03*
X009834Y013602D03*
D34*
X009244Y013579D03*
X009244Y013154D03*
X009244Y013142D03*
X009244Y012610D03*
X008641Y012374D03*
X008641Y012173D03*
X008630Y012161D03*
X008630Y012150D03*
X007590Y012173D03*
X007590Y012197D03*
X007590Y012598D03*
X008051Y013567D03*
X008051Y013579D03*
X008063Y013602D03*
X006137Y012386D03*
X006149Y012161D03*
X006137Y012150D03*
X005996Y013165D03*
X008488Y017642D03*
D35*
X008523Y017772D03*
X005748Y017772D03*
X005748Y014205D03*
X005547Y013520D03*
X005547Y013508D03*
X005842Y013201D03*
X006445Y013520D03*
X006456Y013532D03*
X006763Y013532D03*
X006775Y013520D03*
X006763Y013201D03*
X006610Y013059D03*
X007011Y013295D03*
X007330Y013555D03*
X007874Y013520D03*
X008204Y013520D03*
X008216Y013508D03*
X008488Y013532D03*
X008500Y013543D03*
X008830Y013319D03*
X008795Y013189D03*
X009078Y013189D03*
X009397Y013213D03*
X009669Y013213D03*
X009834Y013059D03*
X009988Y013201D03*
X010000Y013520D03*
X009988Y013532D03*
X009681Y013532D03*
X009669Y013520D03*
X009397Y013520D03*
X009397Y013508D03*
X009067Y013520D03*
X008523Y014205D03*
X007980Y012693D03*
X007767Y012551D03*
X007756Y012563D03*
X007437Y012539D03*
X007425Y012528D03*
X007425Y012256D03*
X007425Y012244D03*
X007767Y012232D03*
X008193Y012539D03*
X008476Y012445D03*
X008807Y012339D03*
X009055Y012528D03*
X009067Y012551D03*
X009197Y012693D03*
X009397Y012551D03*
X007035Y012161D03*
X007035Y012150D03*
X006669Y012150D03*
X006669Y012173D03*
X006326Y012209D03*
X006315Y012339D03*
X005984Y012209D03*
X005252Y012221D03*
X005240Y012209D03*
X004413Y013059D03*
X004578Y013189D03*
X004567Y013555D03*
X005110Y013532D03*
X005110Y013201D03*
D36*
X004945Y013130D03*
X004413Y013118D03*
X004945Y013602D03*
X005429Y013602D03*
X005771Y014299D03*
X006610Y013591D03*
X006610Y013142D03*
X007189Y013106D03*
X007189Y013390D03*
X008074Y012622D03*
X008594Y012433D03*
X009834Y013142D03*
X009834Y013591D03*
X008641Y013591D03*
X008500Y014299D03*
X006161Y012646D03*
X005582Y012634D03*
X005582Y012622D03*
X005086Y012150D03*
X005771Y017677D03*
X008500Y017677D03*
D37*
X005754Y017760D03*
X006415Y014417D03*
X007183Y013673D03*
X007324Y013437D03*
X007029Y013177D03*
X007183Y013059D03*
X006758Y013189D03*
X006462Y013189D03*
X006450Y013201D03*
X006167Y013201D03*
X005836Y013213D03*
X005541Y013532D03*
X004832Y013555D03*
X004832Y013177D03*
X004301Y013555D03*
X004289Y013543D03*
X004962Y012575D03*
X005494Y012693D03*
X005695Y012551D03*
X006309Y012197D03*
X006663Y012161D03*
X007041Y012173D03*
X007041Y012185D03*
X007443Y012232D03*
X007750Y012221D03*
X007431Y012551D03*
X007443Y012563D03*
X007643Y012693D03*
X008175Y012563D03*
X008187Y012551D03*
X008647Y012445D03*
X008482Y012209D03*
X009073Y012563D03*
X009403Y012539D03*
X009391Y013201D03*
X009687Y013189D03*
X009982Y013189D03*
X009970Y013543D03*
X009084Y013543D03*
X009073Y013532D03*
X008777Y013555D03*
X008777Y013177D03*
X008624Y013059D03*
X009073Y013201D03*
X007880Y013532D03*
X007856Y014417D03*
X006852Y012598D03*
X006852Y012587D03*
X004962Y012197D03*
D38*
X005086Y012161D03*
X005098Y012598D03*
X004945Y013142D03*
X004945Y013591D03*
X004437Y013579D03*
X004437Y013567D03*
X005771Y014311D03*
X006610Y013579D03*
X006610Y013154D03*
X006161Y012634D03*
X006137Y012598D03*
X008606Y012421D03*
X008630Y012598D03*
X008641Y013567D03*
X008641Y013579D03*
X008500Y014311D03*
X009834Y013579D03*
X009834Y013154D03*
D39*
X009238Y013165D03*
X009238Y013567D03*
X009238Y012598D03*
X008636Y012362D03*
X007584Y012185D03*
X007584Y012610D03*
X006143Y012362D03*
X006143Y012173D03*
X005990Y013154D03*
X005777Y014335D03*
X008494Y014335D03*
X005777Y017642D03*
D40*
X007200Y013142D03*
X006149Y012185D03*
X008641Y012185D03*
D41*
X007826Y014382D03*
X006445Y014382D03*
X005311Y013555D03*
X004815Y013532D03*
X004815Y013201D03*
X004956Y012221D03*
D42*
X005494Y012681D03*
X004537Y013165D03*
X005340Y013650D03*
X005517Y013555D03*
X005754Y014228D03*
X006391Y014441D03*
X007053Y013165D03*
X006852Y012528D03*
X006852Y012516D03*
X006663Y012256D03*
X007041Y012256D03*
X007041Y012244D03*
X007915Y013555D03*
X008517Y014228D03*
X007868Y014441D03*
X009368Y013177D03*
X009840Y013071D03*
X009958Y013555D03*
X009828Y013661D03*
X008754Y013165D03*
X009191Y012681D03*
X005754Y017748D03*
D43*
X005742Y017807D03*
X005742Y014169D03*
X004809Y013520D03*
X005116Y012705D03*
X005080Y012350D03*
X005494Y012705D03*
X006285Y012575D03*
X007029Y013532D03*
X007372Y013213D03*
X008529Y014169D03*
D44*
X008647Y013402D03*
X008647Y013354D03*
X008647Y013331D03*
X007206Y013154D03*
X005104Y012433D03*
X005104Y012410D03*
X005104Y012386D03*
X005104Y012362D03*
D45*
X005104Y012374D03*
X005104Y012398D03*
X005104Y012421D03*
X008647Y013366D03*
X005789Y017618D03*
D46*
X007171Y013602D03*
X006604Y013567D03*
X007195Y013118D03*
X006155Y012622D03*
X006155Y012610D03*
X006120Y012410D03*
X004419Y013142D03*
X008624Y013142D03*
X008647Y012622D03*
X009828Y013567D03*
D47*
X008624Y013130D03*
X008647Y012646D03*
X008647Y012634D03*
X007183Y013378D03*
X007171Y013366D03*
X007171Y013614D03*
X006120Y012421D03*
X005104Y012610D03*
X004419Y013130D03*
X005777Y017665D03*
X008494Y017665D03*
D48*
X007171Y013626D03*
X007159Y013354D03*
X007147Y013343D03*
X006616Y013602D03*
X005435Y013591D03*
X005435Y013579D03*
X004431Y013591D03*
X005104Y012622D03*
X005588Y012610D03*
X006096Y012433D03*
X008069Y012634D03*
X008080Y012610D03*
X008624Y013118D03*
X009840Y013130D03*
D49*
X008494Y013189D03*
X008010Y013673D03*
X008529Y014181D03*
X007041Y013543D03*
X006852Y012693D03*
X006911Y012492D03*
X004289Y013189D03*
X005742Y017795D03*
X008529Y017795D03*
D50*
X008535Y017807D03*
X008500Y013201D03*
X008771Y012575D03*
X007637Y012705D03*
X004815Y013213D03*
X004283Y013201D03*
D51*
X004419Y013106D03*
X004431Y013602D03*
X005447Y013567D03*
X005600Y012587D03*
X006155Y012658D03*
X006616Y013118D03*
X007195Y013095D03*
X007230Y013413D03*
X006604Y013614D03*
X008080Y012598D03*
X009828Y013118D03*
X005765Y017689D03*
D52*
X008500Y017689D03*
X008641Y013614D03*
X007177Y013638D03*
X007130Y013331D03*
X006161Y012669D03*
X004945Y013106D03*
X004437Y013614D03*
D53*
X004437Y013626D03*
X004945Y013626D03*
X004413Y013095D03*
X006610Y013626D03*
X007106Y013319D03*
X008630Y013095D03*
X008641Y013626D03*
X009834Y013626D03*
X009834Y013106D03*
D54*
X008641Y013343D03*
X008641Y013378D03*
X008641Y013390D03*
X008641Y013413D03*
X008488Y014347D03*
X005783Y014347D03*
X004437Y013413D03*
X004437Y013402D03*
X004437Y013390D03*
X004437Y013378D03*
X004437Y013366D03*
X004437Y013354D03*
X004437Y013343D03*
X004437Y013331D03*
X005783Y017630D03*
X008488Y017630D03*
D55*
X008488Y017618D03*
X008488Y014358D03*
X005783Y014358D03*
D56*
X005789Y014370D03*
X008482Y014370D03*
D57*
X008482Y014382D03*
X005789Y014382D03*
X005789Y017595D03*
X008482Y017595D03*
D58*
X008476Y014394D03*
X005795Y014394D03*
D59*
X008470Y014406D03*
X005801Y017559D03*
X007136Y018173D03*
X007136Y018185D03*
X007136Y018197D03*
X007136Y018209D03*
X007136Y018232D03*
D60*
X007130Y018221D03*
X005795Y017571D03*
X008476Y017571D03*
X005795Y014406D03*
D61*
X008476Y014417D03*
X008476Y017559D03*
D62*
X007136Y018114D03*
X007136Y018126D03*
X007136Y018138D03*
X007136Y018150D03*
X007136Y018161D03*
X005801Y014417D03*
D63*
X005801Y014429D03*
X008470Y014429D03*
X005801Y017547D03*
X007136Y018055D03*
X007136Y018067D03*
X007136Y018091D03*
X007136Y018102D03*
D64*
X008464Y014441D03*
X005807Y014441D03*
D65*
X008464Y014453D03*
X008464Y017524D03*
X007130Y017913D03*
X005807Y017524D03*
D66*
X007136Y017925D03*
X007136Y017937D03*
X007136Y017949D03*
X007136Y017961D03*
X007136Y017984D03*
X005813Y014453D03*
D67*
X005807Y014465D03*
X008464Y014465D03*
X008464Y017512D03*
X007141Y017843D03*
X007130Y017854D03*
X005807Y017512D03*
D68*
X005960Y014476D03*
X008311Y014476D03*
D69*
X008317Y014488D03*
X005954Y014488D03*
D70*
X005954Y014500D03*
X006155Y015008D03*
X006167Y015020D03*
X006167Y015032D03*
X006179Y015043D03*
X006191Y015067D03*
X006202Y015102D03*
X008069Y015102D03*
X008092Y015043D03*
X008104Y015032D03*
X008104Y015020D03*
X008317Y014500D03*
D71*
X008323Y014512D03*
X008145Y014949D03*
X008134Y014972D03*
X008122Y014984D03*
X008122Y014996D03*
X008110Y015008D03*
X008074Y015114D03*
X006197Y015114D03*
X006149Y014996D03*
X006149Y014984D03*
X006137Y014972D03*
X006126Y014949D03*
X005949Y014512D03*
D72*
X006108Y014913D03*
X006120Y014937D03*
X006132Y014961D03*
X006202Y015126D03*
X006202Y015138D03*
X008069Y015138D03*
X008069Y015126D03*
X008139Y014961D03*
X008151Y014937D03*
X008163Y014913D03*
X008328Y014524D03*
D73*
X008181Y014878D03*
X008181Y014890D03*
X008169Y014902D03*
X008157Y014925D03*
X006197Y015150D03*
X006114Y014925D03*
X006102Y014902D03*
X006090Y014890D03*
X005949Y014524D03*
D74*
X005943Y014535D03*
X006061Y014831D03*
X006073Y014854D03*
X006084Y014866D03*
X006084Y014878D03*
X006202Y015161D03*
X008069Y015161D03*
X008069Y015150D03*
X008187Y014866D03*
X008199Y014854D03*
X008199Y014843D03*
X008210Y014831D03*
X008328Y014535D03*
X007136Y017583D03*
D75*
X008193Y016449D03*
X008074Y015173D03*
X008216Y014819D03*
X008228Y014795D03*
X008240Y014784D03*
X008334Y014547D03*
X006197Y015173D03*
X006067Y014843D03*
X006055Y014819D03*
X006043Y014807D03*
X006043Y014795D03*
X005937Y014547D03*
X006055Y016425D03*
D76*
X006090Y016461D03*
X006031Y015563D03*
X006067Y015528D03*
X006078Y015516D03*
X006008Y014736D03*
X006008Y014724D03*
X005996Y014713D03*
X005937Y014559D03*
X008240Y014772D03*
X008263Y014736D03*
X008263Y014724D03*
X008275Y014713D03*
X008287Y014689D03*
X008334Y014559D03*
X008193Y015516D03*
X008204Y015528D03*
X008181Y016461D03*
D77*
X008175Y016472D03*
X008163Y016484D03*
X008187Y015504D03*
X008175Y015492D03*
X008069Y015221D03*
X008069Y015209D03*
X008281Y014701D03*
X008293Y014677D03*
X008305Y014665D03*
X008340Y014571D03*
X006202Y015209D03*
X006202Y015221D03*
X006096Y015492D03*
X006084Y015504D03*
X005990Y014701D03*
X005978Y014689D03*
X005978Y014677D03*
X005931Y014571D03*
X006096Y016472D03*
X006108Y016484D03*
D78*
X006132Y016508D03*
X006013Y016402D03*
X006002Y015575D03*
X006108Y015480D03*
X006202Y015244D03*
X005943Y014618D03*
X005931Y014595D03*
X008069Y015244D03*
X008069Y015256D03*
X008163Y015480D03*
X008328Y014618D03*
X008328Y014606D03*
X008340Y014583D03*
X008258Y016402D03*
X008139Y016508D03*
D79*
X008157Y016496D03*
X007141Y017571D03*
X006114Y016496D03*
X006197Y015232D03*
X005972Y014665D03*
X005960Y014654D03*
X005960Y014642D03*
X005949Y014630D03*
X005937Y014606D03*
X005937Y014583D03*
X008074Y015232D03*
X008311Y014654D03*
X008311Y014642D03*
X008323Y014630D03*
X008334Y014595D03*
D80*
X008258Y014748D03*
X008246Y014760D03*
X008222Y014807D03*
X008069Y015185D03*
X008069Y015197D03*
X008210Y015539D03*
X008222Y015551D03*
X008234Y015563D03*
X008222Y016413D03*
X008210Y016425D03*
X008199Y016437D03*
X006202Y015197D03*
X006202Y015185D03*
X006061Y015539D03*
X006049Y015551D03*
X006037Y014784D03*
X006025Y014772D03*
X006025Y014760D03*
X006013Y014748D03*
X006049Y016413D03*
X006073Y016437D03*
X006084Y016449D03*
D81*
X007130Y017595D03*
X006197Y015091D03*
X006197Y015079D03*
X006185Y015055D03*
X008074Y015067D03*
X008074Y015079D03*
X008074Y015091D03*
X008086Y015055D03*
D82*
X008145Y015457D03*
X008157Y015469D03*
X008275Y015575D03*
X008134Y016520D03*
X006137Y016520D03*
X006114Y015469D03*
X006126Y015457D03*
X006197Y015268D03*
X006197Y015256D03*
D83*
X006202Y015280D03*
X006202Y015291D03*
X006155Y016532D03*
X008116Y016532D03*
X008069Y015280D03*
X008069Y015268D03*
D84*
X008074Y015291D03*
X008122Y015433D03*
X008134Y015445D03*
X008110Y016543D03*
X006149Y015433D03*
X006137Y015445D03*
D85*
X006155Y015421D03*
X006202Y015303D03*
X005978Y016390D03*
X006167Y016543D03*
X007136Y017559D03*
X008293Y016390D03*
X008116Y015421D03*
X008069Y015315D03*
X008069Y015303D03*
D86*
X008311Y015587D03*
X008086Y016555D03*
X006197Y015315D03*
X005960Y015587D03*
D87*
X006167Y015410D03*
X006179Y015398D03*
X006202Y015339D03*
X006202Y015327D03*
X006179Y016555D03*
X008080Y016567D03*
X008104Y015410D03*
X008069Y015339D03*
X008069Y015327D03*
D88*
X008074Y015350D03*
X008086Y015398D03*
X006197Y015350D03*
X006197Y016567D03*
D89*
X006191Y015386D03*
X006202Y015374D03*
X006202Y015362D03*
X008069Y015362D03*
X008069Y015374D03*
X008080Y015386D03*
X008328Y016378D03*
X007136Y017547D03*
D90*
X006226Y016591D03*
X005931Y015598D03*
X008340Y015598D03*
D91*
X008376Y015610D03*
X008021Y016602D03*
X006250Y016602D03*
X005895Y016366D03*
X005895Y015610D03*
D92*
X005854Y015622D03*
X008417Y015622D03*
D93*
X008452Y015634D03*
D94*
X007141Y017512D03*
X005819Y015634D03*
D95*
X008488Y015646D03*
D96*
X008482Y016331D03*
X007136Y017500D03*
X005789Y015646D03*
D97*
X005677Y015823D03*
X005677Y015835D03*
X005677Y015847D03*
X005677Y015882D03*
X005665Y015894D03*
X005665Y015917D03*
X005665Y015988D03*
X005665Y016024D03*
X005665Y016047D03*
X005677Y016118D03*
X005677Y016130D03*
X005760Y016319D03*
X007141Y017488D03*
X008511Y016319D03*
X008594Y016130D03*
X008594Y016118D03*
X008594Y016083D03*
X008606Y016059D03*
X008606Y016035D03*
X008606Y016000D03*
X008606Y015965D03*
X008606Y015917D03*
X008594Y015858D03*
X008594Y015835D03*
X008594Y015823D03*
X008523Y015658D03*
D98*
X008588Y015787D03*
X008588Y015799D03*
X008600Y015847D03*
X008600Y015870D03*
X008600Y016106D03*
X008588Y016142D03*
X008600Y016154D03*
X008588Y016165D03*
X008588Y016177D03*
X005742Y015658D03*
X005683Y015787D03*
X005683Y015799D03*
X005671Y015858D03*
X005671Y016106D03*
X005671Y016142D03*
X005683Y016154D03*
X005683Y016165D03*
D99*
X005695Y016260D03*
X005706Y016284D03*
X005695Y015705D03*
X005706Y015681D03*
X005718Y015669D03*
X007136Y017476D03*
X008565Y016284D03*
X008576Y016272D03*
X008576Y015705D03*
X008565Y015693D03*
X008565Y015681D03*
X008553Y015669D03*
D100*
X008571Y015717D03*
X008582Y016236D03*
X008571Y016248D03*
X008571Y016260D03*
X008547Y016307D03*
X005724Y016307D03*
X005700Y016272D03*
X005700Y016248D03*
X005689Y015728D03*
X005700Y015717D03*
X005700Y015693D03*
D101*
X005695Y015740D03*
X005683Y015776D03*
X005683Y016213D03*
X005695Y016236D03*
X008576Y016224D03*
X008588Y016189D03*
X008588Y015776D03*
X008588Y015752D03*
X008576Y015740D03*
X008576Y015728D03*
D102*
X008582Y015764D03*
X008594Y015811D03*
X008582Y016201D03*
X008582Y016213D03*
X005689Y016224D03*
X005689Y016201D03*
X005689Y016189D03*
X005677Y016177D03*
X005677Y015811D03*
X005689Y015764D03*
X005689Y015752D03*
D103*
X005671Y015870D03*
X005671Y015906D03*
X005671Y015929D03*
X005671Y015941D03*
X005671Y015953D03*
X005659Y015965D03*
X005671Y015976D03*
X005671Y016012D03*
X005671Y016035D03*
X005671Y016059D03*
X005671Y016071D03*
X005671Y016083D03*
X005671Y016095D03*
X008600Y016095D03*
X008600Y016071D03*
X008600Y016047D03*
X008600Y016024D03*
X008600Y016012D03*
X008600Y015976D03*
X008600Y015953D03*
X008600Y015941D03*
X008600Y015929D03*
X008600Y015906D03*
X008600Y015894D03*
X008600Y015882D03*
D104*
X008606Y015988D03*
X005665Y016000D03*
D105*
X005712Y016295D03*
X008559Y016295D03*
D106*
X005795Y016331D03*
D107*
X005836Y016343D03*
X008435Y016343D03*
D108*
X008399Y016354D03*
X007136Y017524D03*
X006285Y016614D03*
D109*
X005878Y016354D03*
X007992Y016614D03*
D110*
X008370Y016366D03*
X007141Y017535D03*
D111*
X008063Y016579D03*
X006208Y016579D03*
X005937Y016378D03*
D112*
X008039Y016591D03*
D113*
X007939Y016626D03*
D114*
X006321Y016626D03*
D115*
X007136Y016638D03*
D116*
X007136Y016650D03*
X007136Y016661D03*
X007136Y017004D03*
D117*
X007136Y016980D03*
X007136Y016685D03*
X007136Y016673D03*
D118*
X007136Y016697D03*
X007136Y016709D03*
X007136Y016969D03*
D119*
X007130Y016721D03*
D120*
X007136Y016732D03*
X007136Y016744D03*
X007136Y016957D03*
D121*
X007136Y016933D03*
X007136Y016768D03*
X007136Y016756D03*
D122*
X007136Y016780D03*
X007136Y016791D03*
D123*
X007130Y016803D03*
X007141Y016910D03*
D124*
X007136Y016898D03*
X007136Y016827D03*
X007136Y016815D03*
D125*
X007136Y016839D03*
X007136Y016850D03*
X007136Y016862D03*
X007136Y016874D03*
X007136Y016886D03*
D126*
X007130Y016921D03*
D127*
X007141Y016945D03*
D128*
X007130Y016992D03*
D129*
X007141Y017016D03*
D130*
X007130Y017028D03*
D131*
X007136Y017039D03*
D132*
X007136Y017051D03*
D133*
X007130Y017063D03*
D134*
X007136Y017075D03*
D135*
X007136Y017087D03*
D136*
X007141Y017098D03*
D137*
X007136Y017110D03*
D138*
X007136Y017122D03*
D139*
X007136Y017134D03*
X007136Y017146D03*
D140*
X007136Y017158D03*
D141*
X007136Y017169D03*
X007136Y017181D03*
D142*
X007136Y017193D03*
D143*
X007136Y017205D03*
X007136Y017217D03*
D144*
X007136Y017228D03*
D145*
X007136Y017240D03*
X007136Y017252D03*
D146*
X007136Y017264D03*
D147*
X007136Y017276D03*
X007136Y017465D03*
D148*
X007130Y017453D03*
X007130Y017287D03*
D149*
X007136Y017299D03*
D150*
X007136Y017311D03*
X007136Y017441D03*
D151*
X007136Y017335D03*
X007136Y017323D03*
D152*
X007136Y017347D03*
X007136Y017417D03*
D153*
X007136Y017370D03*
X007136Y017358D03*
D154*
X007130Y017382D03*
X007141Y017394D03*
D155*
X007130Y017406D03*
D156*
X007141Y017429D03*
D157*
X005819Y017476D03*
X008452Y017476D03*
D158*
X008458Y017488D03*
X007136Y017677D03*
X007136Y017689D03*
X007136Y017701D03*
X007136Y017713D03*
D159*
X007136Y017724D03*
X007136Y017748D03*
X007136Y017760D03*
X007136Y017772D03*
X007136Y017784D03*
X005813Y017488D03*
D160*
X005819Y017500D03*
X008452Y017500D03*
D161*
X008470Y017535D03*
X007136Y017972D03*
X007136Y017996D03*
X007136Y018008D03*
X007136Y018032D03*
X005801Y017535D03*
D162*
X007130Y018079D03*
X008464Y017547D03*
D163*
X008476Y017583D03*
D164*
X005789Y017583D03*
D165*
X005783Y017606D03*
X008488Y017606D03*
D166*
X007136Y017606D03*
D167*
X007130Y017618D03*
D168*
X007130Y017630D03*
D169*
X007136Y017642D03*
D170*
X007136Y017654D03*
X007136Y017665D03*
D171*
X007130Y017736D03*
D172*
X007136Y017795D03*
X007136Y017807D03*
X007136Y017819D03*
X007136Y017831D03*
D173*
X007136Y017866D03*
X007136Y017878D03*
X007136Y017890D03*
X007136Y017902D03*
D174*
X007130Y018020D03*
X007141Y018043D03*
D175*
X007136Y018244D03*
X007136Y018256D03*
X007136Y018268D03*
M02*
