%
M48
M72
T01C0.0118
T02C0.0150
T03C0.0157
T04C0.0197
T05C0.0236
T06C0.0240
T07C0.0276
T08C0.0315
T09C0.0320
T10C0.0472
T11C0.0866
T12C0.1024
T13C0.1260
%
T01
X2185Y2037
X2185Y5237
X2185Y8587
X4035Y10187
X5325Y11257
X6275Y11297
X7685Y11687
X8755Y13267
X9655Y12367
X10185Y13837
X10535Y15487
X11785Y15887
X11035Y16487
X10545Y17167
X10635Y17787
X11285Y17837
X11735Y17937
X12785Y16737
X12785Y15387
X12785Y13737
X13185Y12437
X13385Y12087
X12105Y12317
X12615Y10357
X11515Y10357
X11515Y9207
X12615Y9207
X12665Y8007
X13535Y8137
X13885Y7537
X14285Y7937
X14735Y8437
X15435Y7637
X15085Y7187
X15785Y6887
X16135Y7187
X16885Y8967
X18475Y9987
X18485Y10517
X18485Y11487
X18435Y11987
X17885Y11587
X16485Y10987
X16835Y12787
X17785Y12737
X19685Y12537
X19735Y12887
X20335Y12487
X20735Y12037
X21585Y12687
X21885Y12537
X22185Y12387
X21235Y12837
X20085Y13537
X19735Y13437
X20485Y14237
X20485Y15187
X20885Y16837
X20635Y17137
X20235Y17287
X20235Y17687
X19635Y17937
X19285Y17287
X18985Y16987
X18835Y16637
X18385Y15237
X15415Y14987
X16785Y17987
X16035Y18237
X22235Y17387
X22485Y17687
X24335Y17087
X24635Y17737
X25285Y17737
X26035Y17737
X26035Y18487
X26035Y16237
X26035Y15487
X25535Y14987
X25535Y14287
X24685Y14687
X24685Y15887
X23035Y15087
X23635Y13787
X25285Y12987
X25535Y12507
X25255Y12077
X25735Y11987
X24635Y11887
X23585Y12377
X24175Y10757
X23985Y10387
X24035Y9987
X24905Y10187
X24905Y9787
X24905Y9387
X25355Y9387
X25805Y9387
X26205Y9387
X25985Y9917
X25805Y10237
X25355Y10187
X25355Y9787
X25355Y10637
X25805Y10637
X26205Y10637
X24905Y10637
X24705Y8787
X24705Y8337
X25155Y8337
X25155Y7827
X24705Y7827
X24205Y7837
X24205Y7327
X24705Y7317
X25155Y7317
X25165Y6817
X24715Y6817
X24705Y6317
X24215Y6317
X24205Y6817
X25155Y6317
X24705Y5837
X24205Y5817
X24205Y5337
X24205Y4867
X23705Y4867
X23705Y5337
X23705Y5817
X23205Y5337
X23205Y4867
X23215Y4367
X23205Y3917
X23705Y3917
X23715Y4367
X24215Y4367
X24665Y4367
X24655Y3917
X24205Y3917
X24205Y3437
X24655Y3437
X25105Y3417
X25455Y3417
X25855Y3417
X26205Y3417
X26205Y2937
X25855Y2937
X25455Y2937
X25105Y2937
X24655Y2937
X24205Y2937
X23705Y3437
X25115Y3917
X25465Y3917
X25865Y3917
X26215Y3917
X26205Y4417
X25855Y4417
X25855Y5837
X26205Y5837
X26205Y6317
X25855Y6317
X25865Y6817
X26215Y6817
X26205Y7317
X25855Y7317
X25855Y7827
X26205Y7827
X26205Y8337
X25855Y8337
X25855Y8787
X26205Y8787
X22785Y7177
X22585Y6327
X21035Y7737
X21735Y7987
X20035Y7337
X19835Y8587
X20435Y4587
X19785Y3487
X18185Y4587
X22385Y4687
X22485Y4337
X12685Y1587
X11045Y1597
X9185Y1587
X9985Y5237
X9985Y5837
X11515Y8007
X9665Y10357
X6645Y9997
X5275Y12747
X2935Y12837
X2185Y11637
X4045Y14877
X5185Y15787
X5465Y15227
X5675Y16557
X6405Y16467
X6595Y16747
X7275Y17217
X7385Y17787
X8185Y18147
X8165Y17337
X8885Y16997
X9635Y17337
X9035Y15987
X6475Y17657
X6095Y17897
X5305Y17537
X4185Y17087
X4185Y18587
X2435Y18587
X7025Y18937
X7755Y19007
T02
X20335Y10387
X20735Y10387
X21135Y10387
X21535Y10387
X21535Y9987
X21535Y9587
X21535Y9187
X21135Y9187
X20735Y9187
X20735Y9587
X21135Y9587
X21135Y9987
X20735Y9987
X20335Y9987
X20335Y9587
X20335Y9187
T03
X19635Y11087
X7885Y15137
X7885Y15837
X7185Y15837
X7185Y15137
T04
X6385Y13687
X4725Y16327
X5785Y19987
X23435Y7937
T05
X9285Y8737
X8535Y10237
X3001Y14699
X3001Y16274
X9285Y4987
T06
X11035Y4987
T07
X14535Y1487
X15535Y1487
X16535Y1487
X17535Y1487
X18535Y1487
X19535Y1487
X21535Y1487
X22535Y1487
X23535Y1487
X24535Y1487
X25535Y1487
X26535Y1487
X26535Y20487
X25535Y20487
X24535Y20487
X23535Y20487
X22535Y20487
X21535Y20487
X20535Y20487
X19535Y20487
X17935Y20487
X16935Y20487
X15935Y20487
X14935Y20487
X13935Y20487
X12935Y20487
X11935Y20487
X10935Y20487
X9935Y20487
X8935Y20487
T08
X26535Y13387
X27535Y13387
X27535Y12387
X26535Y12387
X26535Y11387
X27535Y11387
T09
X7785Y8737
X7035Y8737
X6285Y8737
X5535Y8737
X7785Y7237
X7785Y5737
X7035Y5737
X6285Y5737
X5535Y5737
T10
X3700Y14079
X2184Y14079
X2184Y16894
X3700Y16894
T11
X5647Y1736
T12
X4466Y3587
X6828Y3587
T13
X7035Y1487
X27535Y3237
X27535Y14737
X7335Y20487
M30
