G75*
%MOIN*%
%OFA0B0*%
%FSLAX24Y24*%
%IPPOS*%
%LPD*%
%AMOC8*
5,1,8,0,0,1.08239X$1,22.5*
%
%ADD10OC8,0.0709*%
%ADD11C,0.1424*%
%ADD12C,0.1266*%
%ADD13C,0.0740*%
%ADD14R,0.0740X0.0740*%
%ADD15C,0.0238*%
%ADD16C,0.0080*%
%ADD17C,0.0270*%
%ADD18C,0.0277*%
%ADD19C,0.0100*%
%ADD20C,0.0320*%
%ADD21C,0.0480*%
%ADD22C,0.0317*%
%ADD23C,0.0160*%
%ADD24C,0.0240*%
%ADD25C,0.0356*%
%ADD26C,0.0360*%
D10*
X002184Y014079D03*
X003700Y014079D03*
X003700Y016894D03*
X002184Y016894D03*
D11*
X004466Y003587D03*
X006828Y003587D03*
D12*
X005647Y001736D03*
D13*
X014535Y001487D03*
X015535Y001487D03*
X016535Y001487D03*
X017535Y001487D03*
X018535Y001487D03*
X019535Y001487D03*
X021535Y001487D03*
X022535Y001487D03*
X023535Y001487D03*
X024535Y001487D03*
X025535Y001487D03*
X026535Y001487D03*
X026535Y011387D03*
X027535Y011387D03*
X027535Y012387D03*
X026535Y012387D03*
X026535Y013387D03*
X027535Y013387D03*
X025535Y020487D03*
X024535Y020487D03*
X023535Y020487D03*
X022535Y020487D03*
X021535Y020487D03*
X020535Y020487D03*
X019535Y020487D03*
X016935Y020487D03*
X015935Y020487D03*
X014935Y020487D03*
X013935Y020487D03*
X012935Y020487D03*
X011935Y020487D03*
X010935Y020487D03*
X009935Y020487D03*
X008935Y020487D03*
D14*
X017935Y020487D03*
X026535Y020487D03*
D15*
X026035Y018487D03*
X026035Y017737D03*
X025285Y017737D03*
X024635Y017737D03*
X024335Y017087D03*
X024685Y015887D03*
X025535Y014987D03*
X026035Y015487D03*
X026035Y016237D03*
X024685Y014687D03*
X025535Y014287D03*
X025285Y012987D03*
X025535Y012507D03*
X025255Y012077D03*
X025735Y011987D03*
X024635Y011887D03*
X023585Y012377D03*
X022185Y012387D03*
X021885Y012537D03*
X021585Y012687D03*
X021235Y012837D03*
X020735Y012037D03*
X020335Y012487D03*
X019685Y012537D03*
X019735Y012887D03*
X019735Y013437D03*
X020085Y013537D03*
X020485Y014237D03*
X020485Y015187D03*
X020885Y016837D03*
X020635Y017137D03*
X020235Y017287D03*
X020235Y017687D03*
X019635Y017937D03*
X019285Y017287D03*
X018985Y016987D03*
X018835Y016637D03*
X018385Y015237D03*
X015415Y014987D03*
X016835Y012787D03*
X017785Y012737D03*
X018435Y011987D03*
X018485Y011487D03*
X017885Y011587D03*
X018485Y010517D03*
X018475Y009987D03*
X016885Y008967D03*
X015435Y007637D03*
X015085Y007187D03*
X015785Y006887D03*
X016135Y007187D03*
X014735Y008437D03*
X014285Y007937D03*
X013885Y007537D03*
X013535Y008137D03*
X012665Y008007D03*
X011515Y008007D03*
X011515Y009207D03*
X012615Y009207D03*
X012615Y010357D03*
X011515Y010357D03*
X009665Y010357D03*
X007685Y011687D03*
X006275Y011297D03*
X005325Y011257D03*
X004035Y010187D03*
X002185Y011637D03*
X002935Y012837D03*
X005275Y012747D03*
X004045Y014877D03*
X005185Y015787D03*
X005465Y015227D03*
X005675Y016557D03*
X006405Y016467D03*
X006595Y016747D03*
X007275Y017217D03*
X007385Y017787D03*
X008185Y018147D03*
X008165Y017337D03*
X008885Y016997D03*
X009635Y017337D03*
X010545Y017167D03*
X010635Y017787D03*
X011285Y017837D03*
X011735Y017937D03*
X012785Y016737D03*
X011785Y015887D03*
X011035Y016487D03*
X010535Y015487D03*
X009035Y015987D03*
X006475Y017657D03*
X006095Y017897D03*
X005305Y017537D03*
X004185Y017087D03*
X004185Y018587D03*
X002435Y018587D03*
X007025Y018937D03*
X007755Y019007D03*
X012785Y015387D03*
X012785Y013737D03*
X013185Y012437D03*
X013385Y012087D03*
X012105Y012317D03*
X010185Y013837D03*
X008755Y013267D03*
X009655Y012367D03*
X006645Y009997D03*
X002185Y008587D03*
X002185Y005237D03*
X002185Y002037D03*
X009185Y001587D03*
X011045Y001597D03*
X012685Y001587D03*
X009985Y005237D03*
X009985Y005837D03*
X016485Y010987D03*
X019835Y008587D03*
X021035Y007737D03*
X021735Y007987D03*
X022785Y007177D03*
X022585Y006327D03*
X023705Y005817D03*
X023705Y005337D03*
X023705Y004867D03*
X024205Y004867D03*
X024205Y005337D03*
X024205Y005817D03*
X024705Y005837D03*
X024705Y006317D03*
X024215Y006317D03*
X024205Y006817D03*
X024715Y006817D03*
X025165Y006817D03*
X025155Y007317D03*
X024705Y007317D03*
X024205Y007327D03*
X024205Y007837D03*
X024705Y007827D03*
X025155Y007827D03*
X025155Y008337D03*
X024705Y008337D03*
X024705Y008787D03*
X024905Y009387D03*
X024905Y009787D03*
X024905Y010187D03*
X025355Y010187D03*
X025805Y010237D03*
X025985Y009917D03*
X025805Y009387D03*
X025355Y009387D03*
X025355Y009787D03*
X026205Y009387D03*
X026205Y008787D03*
X025855Y008787D03*
X025855Y008337D03*
X026205Y008337D03*
X026205Y007827D03*
X025855Y007827D03*
X025855Y007317D03*
X026205Y007317D03*
X026215Y006817D03*
X025865Y006817D03*
X025855Y006317D03*
X026205Y006317D03*
X026205Y005837D03*
X025855Y005837D03*
X025155Y006317D03*
X023205Y005337D03*
X023205Y004867D03*
X023215Y004367D03*
X023205Y003917D03*
X023705Y003917D03*
X023715Y004367D03*
X024215Y004367D03*
X024665Y004367D03*
X024655Y003917D03*
X024205Y003917D03*
X024205Y003437D03*
X024655Y003437D03*
X025105Y003417D03*
X025455Y003417D03*
X025855Y003417D03*
X026205Y003417D03*
X026205Y002937D03*
X025855Y002937D03*
X025455Y002937D03*
X025105Y002937D03*
X024655Y002937D03*
X024205Y002937D03*
X023705Y003437D03*
X025115Y003917D03*
X025465Y003917D03*
X025865Y003917D03*
X026215Y003917D03*
X026205Y004417D03*
X025855Y004417D03*
X022485Y004337D03*
X022385Y004687D03*
X020435Y004587D03*
X019785Y003487D03*
X018185Y004587D03*
X020035Y007337D03*
X024035Y009987D03*
X023985Y010387D03*
X024175Y010757D03*
X024905Y010637D03*
X025355Y010637D03*
X025805Y010637D03*
X026205Y010637D03*
X023635Y013787D03*
X023035Y015087D03*
X022235Y017387D03*
X022485Y017687D03*
X016785Y017987D03*
X016035Y018237D03*
D16*
X001644Y000904D02*
X001700Y000771D01*
X001708Y000759D01*
X001807Y000660D01*
X001819Y000652D01*
X001952Y000596D01*
X001961Y000594D01*
X002035Y000587D01*
X002035Y000587D01*
X025935Y000587D01*
X026004Y000593D01*
X026071Y000611D01*
X026135Y000640D01*
X026192Y000680D01*
X026241Y000730D01*
X026281Y000787D01*
X026311Y000850D01*
X026329Y000917D01*
X026335Y000987D01*
X026335Y001061D01*
X026268Y001088D01*
X026136Y001220D01*
X026065Y001393D01*
X026065Y001580D01*
X026136Y001753D01*
X026268Y001885D01*
X026335Y001913D01*
X026335Y001939D01*
X025977Y002297D01*
X025423Y002297D01*
X025593Y002127D01*
X025675Y002045D01*
X025675Y001937D01*
X025801Y001885D01*
X025933Y001753D01*
X026005Y001580D01*
X026005Y001393D01*
X025933Y001220D01*
X025801Y001088D01*
X025628Y001017D01*
X025441Y001017D01*
X025268Y001088D01*
X025136Y001220D01*
X025065Y001393D01*
X025065Y001580D01*
X025136Y001753D01*
X025268Y001885D01*
X025388Y001935D01*
X025227Y002097D01*
X024473Y002097D01*
X024593Y001977D01*
X024613Y001957D01*
X024628Y001957D01*
X024801Y001885D01*
X024933Y001753D01*
X025005Y001580D01*
X025005Y001393D01*
X024933Y001220D01*
X024801Y001088D01*
X024628Y001017D01*
X024441Y001017D01*
X024268Y001088D01*
X024136Y001220D01*
X024065Y001393D01*
X024065Y001580D01*
X024136Y001753D01*
X024268Y001885D01*
X024282Y001891D01*
X024277Y001897D01*
X024027Y001897D01*
X023945Y001979D01*
X023675Y002249D01*
X023675Y001937D01*
X023801Y001885D01*
X023933Y001753D01*
X024005Y001580D01*
X024005Y001393D01*
X023933Y001220D01*
X023801Y001088D01*
X023628Y001017D01*
X023441Y001017D01*
X023268Y001088D01*
X023136Y001220D01*
X023065Y001393D01*
X023065Y001580D01*
X023136Y001753D01*
X023268Y001885D01*
X023395Y001937D01*
X023395Y002279D01*
X022377Y003297D01*
X022077Y003297D01*
X021995Y003379D01*
X018677Y006697D01*
X018677Y006697D01*
X018595Y006779D01*
X018595Y009797D01*
X018575Y009777D01*
X018575Y009079D01*
X018493Y008997D01*
X018323Y008827D01*
X017054Y008827D01*
X016975Y008748D01*
X016794Y008748D01*
X016666Y008876D01*
X016666Y009057D01*
X016794Y009186D01*
X016975Y009186D01*
X017054Y009107D01*
X018207Y009107D01*
X018295Y009195D01*
X018295Y009857D01*
X018256Y009896D01*
X018256Y010077D01*
X018384Y010206D01*
X018565Y010206D01*
X018595Y010176D01*
X018595Y010317D01*
X018575Y010298D01*
X018394Y010298D01*
X018266Y010426D01*
X018266Y010607D01*
X018345Y010686D01*
X018345Y011317D01*
X018266Y011396D01*
X018266Y011577D01*
X018394Y011706D01*
X018575Y011706D01*
X018595Y011686D01*
X018595Y012545D01*
X018727Y012677D01*
X018727Y012677D01*
X018802Y012752D01*
X019247Y013197D01*
X016393Y013197D01*
X016175Y012979D01*
X016175Y009145D01*
X016425Y008895D01*
X016425Y007545D01*
X016555Y007415D01*
X016555Y006799D01*
X016565Y006789D01*
X016565Y006665D01*
X015237Y005337D01*
X010797Y005337D01*
X010685Y005225D01*
X010685Y004799D01*
X010847Y004637D01*
X013097Y004637D01*
X013185Y004549D01*
X013185Y004549D01*
X014597Y003137D01*
X014597Y003137D01*
X014685Y003049D01*
X014685Y001933D01*
X014801Y001885D01*
X014933Y001753D01*
X015005Y001580D01*
X015005Y001393D01*
X014933Y001220D01*
X014801Y001088D01*
X014628Y001017D01*
X014441Y001017D01*
X014268Y001088D01*
X014136Y001220D01*
X014065Y001393D01*
X014065Y001580D01*
X014136Y001753D01*
X014268Y001885D01*
X014385Y001933D01*
X014385Y002925D01*
X012973Y004337D01*
X010723Y004337D01*
X010473Y004587D01*
X010385Y004675D01*
X010385Y005349D01*
X010523Y005487D01*
X010473Y005537D01*
X010385Y005625D01*
X010385Y015327D01*
X010316Y015396D01*
X010316Y015577D01*
X010444Y015706D01*
X010625Y015706D01*
X010754Y015577D01*
X010754Y015396D01*
X010685Y015327D01*
X010685Y005749D01*
X010797Y005637D01*
X015113Y005637D01*
X016275Y006799D01*
X016275Y007017D01*
X016225Y006968D01*
X016044Y006968D01*
X015935Y007077D01*
X015935Y007046D01*
X016004Y006977D01*
X016004Y006796D01*
X015875Y006668D01*
X015694Y006668D01*
X015566Y006796D01*
X015566Y006977D01*
X015635Y007046D01*
X015635Y007527D01*
X015525Y007418D01*
X015344Y007418D01*
X015235Y007527D01*
X015235Y007346D01*
X015304Y007277D01*
X015304Y007096D01*
X015175Y006968D01*
X014994Y006968D01*
X014866Y007096D01*
X014866Y007277D01*
X014935Y007346D01*
X014935Y008327D01*
X014825Y008218D01*
X014644Y008218D01*
X014516Y008346D01*
X014516Y008444D01*
X014435Y008525D01*
X014435Y008096D01*
X014504Y008027D01*
X014504Y007846D01*
X014375Y007718D01*
X014194Y007718D01*
X014066Y007846D01*
X014066Y007955D01*
X014035Y007925D01*
X014035Y007696D01*
X014104Y007627D01*
X014104Y007446D01*
X013975Y007318D01*
X013794Y007318D01*
X013666Y007446D01*
X013666Y007627D01*
X013735Y007696D01*
X013735Y008027D01*
X013625Y007918D01*
X013444Y007918D01*
X013316Y008046D01*
X013316Y008227D01*
X013444Y008356D01*
X013556Y008356D01*
X013645Y008445D01*
X013645Y010165D01*
X013635Y010175D01*
X013635Y012125D01*
X013604Y012094D01*
X013604Y011996D01*
X013475Y011868D01*
X013294Y011868D01*
X013166Y011996D01*
X013166Y012177D01*
X013206Y012218D01*
X013094Y012218D01*
X012966Y012346D01*
X012966Y012527D01*
X013094Y012656D01*
X013135Y012656D01*
X013135Y017825D01*
X010943Y020017D01*
X010841Y020017D01*
X010668Y020088D01*
X010536Y020220D01*
X010465Y020393D01*
X010465Y020580D01*
X010536Y020753D01*
X010668Y020885D01*
X010841Y020957D01*
X011028Y020957D01*
X011201Y020885D01*
X011333Y020753D01*
X011405Y020580D01*
X011405Y020393D01*
X011333Y020220D01*
X011248Y020135D01*
X012335Y019049D01*
X012335Y019425D01*
X011873Y019887D01*
X011873Y019887D01*
X011785Y019975D01*
X011785Y020040D01*
X011668Y020088D01*
X011536Y020220D01*
X011465Y020393D01*
X011465Y020580D01*
X011536Y020753D01*
X011668Y020885D01*
X011841Y020957D01*
X012028Y020957D01*
X012201Y020885D01*
X012333Y020753D01*
X012405Y020580D01*
X012405Y020393D01*
X012333Y020220D01*
X012201Y020088D01*
X012126Y020057D01*
X012547Y019637D01*
X012547Y019637D01*
X012635Y019549D01*
X012635Y019149D01*
X013597Y018187D01*
X013635Y018149D01*
X013635Y018175D01*
X013473Y018337D01*
X013385Y018425D01*
X013385Y019675D01*
X013038Y020021D01*
X013028Y020017D01*
X012841Y020017D01*
X012668Y020088D01*
X012536Y020220D01*
X012465Y020393D01*
X012465Y020580D01*
X012536Y020753D01*
X012668Y020885D01*
X012841Y020957D01*
X013028Y020957D01*
X013201Y020885D01*
X013333Y020753D01*
X013405Y020580D01*
X013405Y020393D01*
X013333Y020220D01*
X013298Y020185D01*
X013685Y019799D01*
X013685Y018549D01*
X013885Y018349D01*
X013885Y018425D01*
X013873Y018437D01*
X013785Y018525D01*
X013785Y020040D01*
X013668Y020088D01*
X013536Y020220D01*
X013465Y020393D01*
X013465Y020580D01*
X013536Y020753D01*
X013668Y020885D01*
X013841Y020957D01*
X014028Y020957D01*
X014201Y020885D01*
X014333Y020753D01*
X014405Y020580D01*
X014405Y020393D01*
X014333Y020220D01*
X014201Y020088D01*
X014085Y020040D01*
X014085Y018649D01*
X014160Y018574D01*
X014265Y018679D01*
X014265Y019679D01*
X014353Y019767D01*
X014672Y020087D01*
X014668Y020088D01*
X014536Y020220D01*
X014465Y020393D01*
X014465Y020580D01*
X014536Y020753D01*
X014668Y020885D01*
X014841Y020957D01*
X015028Y020957D01*
X015201Y020885D01*
X015333Y020753D01*
X015405Y020580D01*
X015405Y020393D01*
X015333Y020220D01*
X015201Y020088D01*
X015028Y020017D01*
X015027Y020017D01*
X014997Y019987D01*
X014565Y019555D01*
X014565Y018555D01*
X014477Y018467D01*
X014435Y018425D01*
X014435Y018399D01*
X014473Y018437D01*
X014635Y018599D01*
X014635Y019349D01*
X014723Y019437D01*
X015527Y020242D01*
X015465Y020393D01*
X015465Y020580D01*
X015536Y020753D01*
X015668Y020885D01*
X015841Y020957D01*
X016028Y020957D01*
X016201Y020885D01*
X016333Y020753D01*
X016405Y020580D01*
X016405Y020393D01*
X016352Y020266D01*
X016469Y020383D01*
X016465Y020393D01*
X016465Y020580D01*
X016536Y020753D01*
X016668Y020885D01*
X016841Y020957D01*
X017028Y020957D01*
X017201Y020885D01*
X017333Y020753D01*
X017405Y020580D01*
X017405Y020393D01*
X017333Y020220D01*
X017201Y020088D01*
X017028Y020017D01*
X016841Y020017D01*
X016668Y020088D01*
X016633Y020123D01*
X016497Y019987D01*
X017223Y019987D01*
X017465Y020229D01*
X017465Y020898D01*
X017523Y020957D01*
X018346Y020957D01*
X018405Y020898D01*
X018405Y020075D01*
X018346Y020017D01*
X017677Y020017D01*
X017435Y019775D01*
X017347Y019687D01*
X016597Y019687D01*
X016335Y019425D01*
X016247Y019337D01*
X015947Y019337D01*
X015435Y018825D01*
X015435Y018275D01*
X015185Y018025D01*
X015185Y009099D01*
X015385Y008899D01*
X015385Y013299D01*
X015473Y013387D01*
X015635Y013549D01*
X015635Y017215D01*
X015505Y017345D01*
X015505Y018169D01*
X015593Y018257D01*
X015723Y018387D01*
X015875Y018387D01*
X015944Y018456D01*
X016125Y018456D01*
X016254Y018327D01*
X016254Y018146D01*
X016125Y018018D01*
X015944Y018018D01*
X015875Y018087D01*
X015847Y018087D01*
X015805Y018045D01*
X015805Y017469D01*
X015847Y017427D01*
X015935Y017339D01*
X015935Y016849D01*
X015973Y016887D01*
X016385Y017299D01*
X016385Y017799D01*
X016473Y017887D01*
X016566Y017980D01*
X016566Y018077D01*
X016694Y018206D01*
X016875Y018206D01*
X017004Y018077D01*
X017004Y017896D01*
X016875Y017768D01*
X016778Y017768D01*
X016685Y017675D01*
X016685Y017175D01*
X016185Y016675D01*
X016185Y013385D01*
X016195Y013395D01*
X016277Y013477D01*
X019177Y013477D01*
X019445Y013745D01*
X019527Y013827D01*
X019993Y013827D01*
X020064Y013756D01*
X020175Y013756D01*
X020304Y013627D01*
X020304Y013446D01*
X020175Y013318D01*
X019994Y013318D01*
X019954Y013358D01*
X019954Y013346D01*
X019884Y013277D01*
X019893Y013277D01*
X020125Y013045D01*
X020125Y012845D01*
X020264Y012706D01*
X020425Y012706D01*
X020554Y012577D01*
X020554Y012396D01*
X020425Y012268D01*
X020244Y012268D01*
X020116Y012396D01*
X020116Y012458D01*
X019927Y012647D01*
X019866Y012708D01*
X019844Y012687D01*
X019904Y012627D01*
X019904Y012446D01*
X019775Y012318D01*
X019594Y012318D01*
X019554Y012358D01*
X019325Y012129D01*
X019325Y010225D01*
X020077Y010977D01*
X021843Y010977D01*
X022175Y010645D01*
X022175Y010195D01*
X022193Y010177D01*
X023677Y010177D01*
X023781Y010281D01*
X023766Y010296D01*
X023766Y010477D01*
X023894Y010606D01*
X024075Y010606D01*
X024204Y010477D01*
X024204Y010296D01*
X024113Y010206D01*
X024125Y010206D01*
X024254Y010077D01*
X024254Y009896D01*
X024125Y009768D01*
X024014Y009768D01*
X023993Y009747D01*
X021977Y009747D01*
X021895Y009829D01*
X021745Y009979D01*
X021745Y010479D01*
X021677Y010547D01*
X020243Y010547D01*
X019625Y009929D01*
X019625Y008686D01*
X019744Y008806D01*
X019925Y008806D01*
X020054Y008677D01*
X020054Y008496D01*
X019985Y008427D01*
X019985Y007599D01*
X020028Y007556D01*
X020125Y007556D01*
X020254Y007427D01*
X020254Y007246D01*
X020125Y007118D01*
X019944Y007118D01*
X019816Y007246D01*
X019816Y007344D01*
X019685Y007475D01*
X019685Y008427D01*
X019625Y008487D01*
X019625Y007395D01*
X019764Y007395D01*
X019816Y007316D02*
X019703Y007316D01*
X019782Y007238D02*
X019824Y007238D01*
X019860Y007159D02*
X019902Y007159D01*
X019939Y007081D02*
X026335Y007081D01*
X026335Y007159D02*
X020167Y007159D01*
X020245Y007238D02*
X026335Y007238D01*
X026335Y007316D02*
X020254Y007316D01*
X020254Y007395D02*
X026335Y007395D01*
X026335Y007473D02*
X020208Y007473D01*
X020129Y007552D02*
X020910Y007552D01*
X020944Y007518D02*
X020816Y007646D01*
X020816Y007827D01*
X020944Y007956D01*
X021125Y007956D01*
X021164Y007917D01*
X021516Y007917D01*
X021516Y008077D01*
X021644Y008206D01*
X021825Y008206D01*
X021954Y008077D01*
X021954Y007896D01*
X021924Y007867D01*
X023184Y007867D01*
X023176Y007885D01*
X023176Y007988D01*
X023216Y008083D01*
X023288Y008156D01*
X023383Y008195D01*
X023486Y008195D01*
X023581Y008156D01*
X023654Y008083D01*
X023693Y007988D01*
X023693Y007885D01*
X023654Y007790D01*
X023615Y007751D01*
X023615Y007712D01*
X023515Y007612D01*
X023409Y007507D01*
X021760Y007507D01*
X021710Y007557D01*
X021164Y007557D01*
X021125Y007518D01*
X020944Y007518D01*
X020831Y007630D02*
X019985Y007630D01*
X019985Y007709D02*
X020816Y007709D01*
X020816Y007787D02*
X019985Y007787D01*
X019985Y007866D02*
X020854Y007866D01*
X020932Y007944D02*
X019985Y007944D01*
X019985Y008023D02*
X021516Y008023D01*
X021516Y007944D02*
X021137Y007944D01*
X021159Y007552D02*
X021715Y007552D01*
X021954Y007944D02*
X023176Y007944D01*
X023191Y008023D02*
X021954Y008023D01*
X021930Y008101D02*
X023234Y008101D01*
X023346Y008180D02*
X021851Y008180D01*
X021618Y008180D02*
X019985Y008180D01*
X019985Y008258D02*
X026335Y008258D01*
X026335Y008180D02*
X023523Y008180D01*
X023636Y008101D02*
X026335Y008101D01*
X026335Y008023D02*
X023679Y008023D01*
X023693Y007944D02*
X026335Y007944D01*
X026335Y007866D02*
X023685Y007866D01*
X023651Y007787D02*
X026335Y007787D01*
X026335Y007709D02*
X023611Y007709D01*
X023533Y007630D02*
X026335Y007630D01*
X026335Y007552D02*
X023454Y007552D01*
X021539Y008101D02*
X019985Y008101D01*
X019985Y008337D02*
X026335Y008337D01*
X026335Y008415D02*
X019985Y008415D01*
X020051Y008494D02*
X026335Y008494D01*
X026335Y008572D02*
X020054Y008572D01*
X020054Y008651D02*
X026335Y008651D01*
X026335Y008729D02*
X020002Y008729D01*
X019667Y008729D02*
X019625Y008729D01*
X019625Y008808D02*
X026335Y008808D01*
X026335Y008886D02*
X019625Y008886D01*
X019625Y008965D02*
X026335Y008965D01*
X026335Y009043D02*
X019625Y009043D01*
X019625Y009122D02*
X026335Y009122D01*
X026335Y009200D02*
X019625Y009200D01*
X019625Y009279D02*
X026335Y009279D01*
X026335Y009357D02*
X019625Y009357D01*
X019625Y009436D02*
X026335Y009436D01*
X026335Y009514D02*
X019625Y009514D01*
X019625Y009593D02*
X026335Y009593D01*
X026335Y009671D02*
X019625Y009671D01*
X019625Y009750D02*
X021974Y009750D01*
X021895Y009828D02*
X019625Y009828D01*
X019625Y009907D02*
X021817Y009907D01*
X021745Y009985D02*
X019681Y009985D01*
X019760Y010064D02*
X021745Y010064D01*
X021745Y010142D02*
X019838Y010142D01*
X019917Y010221D02*
X021745Y010221D01*
X021745Y010299D02*
X019995Y010299D01*
X020074Y010378D02*
X021745Y010378D01*
X021745Y010456D02*
X020152Y010456D01*
X020231Y010535D02*
X021689Y010535D01*
X021735Y010687D02*
X021885Y010537D01*
X021885Y010037D01*
X022035Y009887D01*
X023935Y009887D01*
X024035Y009987D01*
X024189Y010142D02*
X026335Y010142D01*
X026335Y010064D02*
X024254Y010064D01*
X024254Y009985D02*
X026335Y009985D01*
X026335Y009907D02*
X024254Y009907D01*
X024186Y009828D02*
X026335Y009828D01*
X026335Y009750D02*
X023996Y009750D01*
X023735Y010037D02*
X022135Y010037D01*
X022035Y010137D01*
X022035Y010587D01*
X021785Y010837D01*
X020135Y010837D01*
X019335Y010037D01*
X019335Y007237D01*
X022235Y004337D01*
X022485Y004337D01*
X022641Y004490D02*
X026335Y004490D01*
X026335Y004412D02*
X022704Y004412D01*
X022704Y004427D02*
X022575Y004556D01*
X022563Y004556D01*
X022604Y004596D01*
X022604Y004777D01*
X022475Y004906D01*
X022294Y004906D01*
X022215Y004827D01*
X022193Y004827D01*
X019625Y007395D01*
X019625Y007473D02*
X019686Y007473D01*
X019685Y007552D02*
X019625Y007552D01*
X019625Y007630D02*
X019685Y007630D01*
X019685Y007709D02*
X019625Y007709D01*
X019625Y007787D02*
X019685Y007787D01*
X019685Y007866D02*
X019625Y007866D01*
X019625Y007944D02*
X019685Y007944D01*
X019685Y008023D02*
X019625Y008023D01*
X019625Y008101D02*
X019685Y008101D01*
X019685Y008180D02*
X019625Y008180D01*
X019625Y008258D02*
X019685Y008258D01*
X019685Y008337D02*
X019625Y008337D01*
X019625Y008415D02*
X019685Y008415D01*
X018595Y008415D02*
X016425Y008415D01*
X016425Y008337D02*
X018595Y008337D01*
X018595Y008258D02*
X016425Y008258D01*
X016425Y008180D02*
X018595Y008180D01*
X018595Y008101D02*
X016425Y008101D01*
X016425Y008023D02*
X018595Y008023D01*
X018595Y007944D02*
X016425Y007944D01*
X016425Y007866D02*
X018595Y007866D01*
X018595Y007787D02*
X016425Y007787D01*
X016425Y007709D02*
X018595Y007709D01*
X018595Y007630D02*
X016425Y007630D01*
X016425Y007552D02*
X018595Y007552D01*
X018595Y007473D02*
X016496Y007473D01*
X016555Y007395D02*
X018595Y007395D01*
X018595Y007316D02*
X016555Y007316D01*
X016555Y007238D02*
X018595Y007238D01*
X018595Y007159D02*
X016555Y007159D01*
X016555Y007081D02*
X018595Y007081D01*
X018595Y007002D02*
X016555Y007002D01*
X016555Y006924D02*
X018595Y006924D01*
X018595Y006845D02*
X016555Y006845D01*
X016565Y006767D02*
X018607Y006767D01*
X018685Y006688D02*
X016565Y006688D01*
X016510Y006610D02*
X018764Y006610D01*
X018842Y006531D02*
X016431Y006531D01*
X016353Y006453D02*
X018921Y006453D01*
X018999Y006374D02*
X016274Y006374D01*
X016196Y006296D02*
X019078Y006296D01*
X019156Y006217D02*
X016117Y006217D01*
X016039Y006139D02*
X019235Y006139D01*
X019313Y006060D02*
X015960Y006060D01*
X015882Y005982D02*
X019392Y005982D01*
X019470Y005903D02*
X015803Y005903D01*
X015725Y005825D02*
X019549Y005825D01*
X019627Y005746D02*
X015646Y005746D01*
X015568Y005668D02*
X019706Y005668D01*
X019784Y005589D02*
X015489Y005589D01*
X015411Y005511D02*
X019863Y005511D01*
X019941Y005432D02*
X015332Y005432D01*
X015254Y005354D02*
X020020Y005354D01*
X020098Y005275D02*
X010735Y005275D01*
X010685Y005197D02*
X010849Y005197D01*
X010876Y005224D02*
X010797Y005145D01*
X010755Y005042D01*
X010755Y004931D01*
X010797Y004828D01*
X010876Y004749D01*
X010979Y004707D01*
X011090Y004707D01*
X011139Y004727D01*
X013177Y004727D01*
X015314Y002589D01*
X015387Y002516D01*
X015483Y002477D01*
X018677Y002477D01*
X019268Y001885D01*
X019136Y001753D01*
X019065Y001580D01*
X019065Y001393D01*
X019136Y001220D01*
X019268Y001088D01*
X019441Y001017D01*
X019628Y001017D01*
X019801Y001088D01*
X019933Y001220D01*
X020005Y001393D01*
X020005Y001580D01*
X019933Y001753D01*
X019801Y001885D01*
X019795Y001888D01*
X019795Y002038D01*
X019755Y002134D01*
X019682Y002207D01*
X018932Y002957D01*
X018836Y002997D01*
X015642Y002997D01*
X013432Y005207D01*
X013336Y005247D01*
X011139Y005247D01*
X011090Y005267D01*
X010979Y005267D01*
X010876Y005224D01*
X010786Y005118D02*
X010685Y005118D01*
X010685Y005040D02*
X010755Y005040D01*
X010755Y004961D02*
X010685Y004961D01*
X010685Y004883D02*
X010775Y004883D01*
X010821Y004804D02*
X010685Y004804D01*
X010758Y004726D02*
X010933Y004726D01*
X010836Y004647D02*
X013256Y004647D01*
X013178Y004726D02*
X011136Y004726D01*
X010648Y004412D02*
X001635Y004412D01*
X001635Y004490D02*
X010569Y004490D01*
X010490Y004569D02*
X001635Y004569D01*
X001635Y004647D02*
X010412Y004647D01*
X010385Y004726D02*
X009381Y004726D01*
X009340Y004709D02*
X009442Y004751D01*
X009520Y004829D01*
X009563Y004931D01*
X009563Y005042D01*
X009545Y005086D01*
X009545Y008638D01*
X009563Y008681D01*
X009563Y008792D01*
X009520Y008894D01*
X009442Y008972D01*
X009340Y009015D01*
X009229Y009015D01*
X009127Y008972D01*
X009075Y008920D01*
X009075Y009338D01*
X009080Y009345D01*
X009075Y009395D01*
X009075Y009410D01*
X009081Y009423D01*
X009075Y009441D01*
X009075Y009445D01*
X009072Y009447D01*
X009067Y009463D01*
X009063Y009495D01*
X009064Y009499D01*
X009063Y009501D01*
X009062Y009504D01*
X009059Y009507D01*
X009042Y009535D01*
X009031Y009565D01*
X009031Y009569D01*
X009029Y009572D01*
X009028Y009574D01*
X009024Y009576D01*
X009001Y009599D01*
X008984Y009627D01*
X008983Y009631D01*
X008980Y009632D01*
X008979Y009635D01*
X008975Y009636D01*
X008947Y009653D01*
X008924Y009676D01*
X008922Y009680D01*
X008920Y009681D01*
X008917Y009683D01*
X008913Y009683D01*
X008883Y009694D01*
X008855Y009711D01*
X008852Y009714D01*
X008849Y009715D01*
X008847Y009716D01*
X008843Y009715D01*
X008811Y009719D01*
X008795Y009724D01*
X008793Y009727D01*
X008789Y009727D01*
X008771Y009733D01*
X008758Y009727D01*
X008743Y009727D01*
X008693Y009732D01*
X008686Y009727D01*
X004984Y009727D01*
X004977Y009732D01*
X004927Y009727D01*
X004912Y009727D01*
X004899Y009733D01*
X004881Y009727D01*
X004877Y009727D01*
X004874Y009724D01*
X004859Y009719D01*
X004826Y009715D01*
X004822Y009716D01*
X004820Y009715D01*
X004817Y009714D01*
X004814Y009711D01*
X004787Y009694D01*
X004756Y009683D01*
X004752Y009683D01*
X004750Y009681D01*
X004747Y009680D01*
X004745Y009676D01*
X004722Y009653D01*
X004695Y009636D01*
X004691Y009635D01*
X004689Y009632D01*
X004686Y009631D01*
X004685Y009627D01*
X004668Y009599D01*
X004645Y009576D01*
X004641Y009574D01*
X004640Y009572D01*
X004638Y009569D01*
X004638Y009565D01*
X004628Y009535D01*
X004610Y009507D01*
X004607Y009504D01*
X004607Y009501D01*
X004605Y009499D01*
X004606Y009495D01*
X004602Y009463D01*
X004597Y009447D01*
X004595Y009445D01*
X004595Y009441D01*
X004588Y009423D01*
X004595Y009410D01*
X004595Y009395D01*
X004589Y009345D01*
X004595Y009338D01*
X004595Y005236D01*
X004589Y005229D01*
X004595Y005179D01*
X004595Y005164D01*
X004588Y005151D01*
X004595Y005133D01*
X004595Y005129D01*
X004597Y005127D01*
X004602Y005111D01*
X004606Y005078D01*
X004605Y005075D01*
X004607Y005072D01*
X004607Y005069D01*
X004610Y005066D01*
X004628Y005039D01*
X004638Y005008D01*
X004638Y005004D01*
X004640Y005002D01*
X004641Y004999D01*
X004645Y004997D01*
X004668Y004974D01*
X004685Y004947D01*
X004686Y004943D01*
X004689Y004941D01*
X004691Y004938D01*
X004695Y004937D01*
X004722Y004920D01*
X004745Y004897D01*
X004747Y004893D01*
X004750Y004892D01*
X004752Y004890D01*
X004756Y004890D01*
X004787Y004880D01*
X004814Y004862D01*
X004817Y004859D01*
X004820Y004859D01*
X004822Y004857D01*
X004826Y004858D01*
X004859Y004854D01*
X004874Y004849D01*
X004877Y004847D01*
X004881Y004847D01*
X004899Y004840D01*
X004912Y004847D01*
X004927Y004847D01*
X004977Y004841D01*
X004984Y004847D01*
X008686Y004847D01*
X008693Y004841D01*
X008743Y004847D01*
X008758Y004847D01*
X008771Y004840D01*
X008789Y004847D01*
X008793Y004847D01*
X008795Y004849D01*
X008811Y004854D01*
X008843Y004858D01*
X008847Y004857D01*
X008849Y004859D01*
X008852Y004859D01*
X008855Y004862D01*
X008883Y004880D01*
X008913Y004890D01*
X008917Y004890D01*
X008920Y004892D01*
X008922Y004893D01*
X008924Y004897D01*
X008947Y004920D01*
X008975Y004937D01*
X008979Y004938D01*
X008980Y004941D01*
X008983Y004943D01*
X008984Y004947D01*
X009001Y004974D01*
X009007Y004980D01*
X009007Y004931D01*
X009049Y004829D01*
X009127Y004751D01*
X009229Y004709D01*
X009340Y004709D01*
X009188Y004726D02*
X001635Y004726D01*
X001635Y004804D02*
X009074Y004804D01*
X009027Y004883D02*
X008892Y004883D01*
X008993Y004961D02*
X009007Y004961D01*
X008891Y005062D02*
X008859Y005030D01*
X008821Y005006D01*
X008779Y004992D01*
X008735Y004987D01*
X004935Y004987D01*
X004890Y004992D01*
X004848Y005006D01*
X004810Y005030D01*
X004778Y005062D01*
X004754Y005100D01*
X004740Y005142D01*
X004735Y005187D01*
X004735Y009387D01*
X004740Y009431D01*
X004754Y009473D01*
X004778Y009511D01*
X004810Y009543D01*
X004848Y009567D01*
X004890Y009582D01*
X004935Y009587D01*
X008735Y009587D01*
X008779Y009582D01*
X008821Y009567D01*
X008859Y009543D01*
X008891Y009511D01*
X008915Y009473D01*
X008930Y009431D01*
X008935Y009387D01*
X008935Y005187D01*
X008930Y005142D01*
X008915Y005100D01*
X008891Y005062D01*
X008869Y005040D02*
X004801Y005040D01*
X004748Y005118D02*
X008921Y005118D01*
X008935Y005197D02*
X004735Y005197D01*
X004735Y005275D02*
X008935Y005275D01*
X008935Y005354D02*
X004735Y005354D01*
X004735Y005432D02*
X008935Y005432D01*
X008935Y005511D02*
X004735Y005511D01*
X004735Y005589D02*
X008935Y005589D01*
X008935Y005668D02*
X004735Y005668D01*
X004735Y005746D02*
X008935Y005746D01*
X008935Y005825D02*
X004735Y005825D01*
X004735Y005903D02*
X008935Y005903D01*
X008935Y005982D02*
X004735Y005982D01*
X004735Y006060D02*
X008935Y006060D01*
X008935Y006139D02*
X004735Y006139D01*
X004735Y006217D02*
X008935Y006217D01*
X008935Y006296D02*
X004735Y006296D01*
X004735Y006374D02*
X008935Y006374D01*
X008935Y006453D02*
X004735Y006453D01*
X004735Y006531D02*
X008935Y006531D01*
X008935Y006610D02*
X004735Y006610D01*
X004735Y006688D02*
X008935Y006688D01*
X008935Y006767D02*
X004735Y006767D01*
X004735Y006845D02*
X008935Y006845D01*
X008935Y006924D02*
X004735Y006924D01*
X004735Y007002D02*
X008935Y007002D01*
X008935Y007081D02*
X004735Y007081D01*
X004735Y007159D02*
X008935Y007159D01*
X008935Y007238D02*
X004735Y007238D01*
X004735Y007316D02*
X008935Y007316D01*
X008935Y007395D02*
X004735Y007395D01*
X004735Y007473D02*
X008935Y007473D01*
X008935Y007552D02*
X004735Y007552D01*
X004735Y007630D02*
X008935Y007630D01*
X008935Y007709D02*
X004735Y007709D01*
X004735Y007787D02*
X008935Y007787D01*
X008935Y007866D02*
X004735Y007866D01*
X004735Y007944D02*
X008935Y007944D01*
X008935Y008023D02*
X004735Y008023D01*
X004735Y008101D02*
X008935Y008101D01*
X008935Y008180D02*
X004735Y008180D01*
X004735Y008258D02*
X008935Y008258D01*
X008935Y008337D02*
X004735Y008337D01*
X004735Y008415D02*
X008935Y008415D01*
X008935Y008494D02*
X004735Y008494D01*
X004735Y008572D02*
X008935Y008572D01*
X008935Y008651D02*
X004735Y008651D01*
X004735Y008729D02*
X008935Y008729D01*
X008935Y008808D02*
X004735Y008808D01*
X004735Y008886D02*
X008935Y008886D01*
X008935Y008965D02*
X004735Y008965D01*
X004735Y009043D02*
X008935Y009043D01*
X008935Y009122D02*
X004735Y009122D01*
X004735Y009200D02*
X008935Y009200D01*
X008935Y009279D02*
X004735Y009279D01*
X004735Y009357D02*
X008935Y009357D01*
X008928Y009436D02*
X004741Y009436D01*
X004781Y009514D02*
X008888Y009514D01*
X009008Y009593D02*
X010385Y009593D01*
X010385Y009671D02*
X008929Y009671D01*
X009055Y009514D02*
X010385Y009514D01*
X010385Y009436D02*
X009076Y009436D01*
X009079Y009357D02*
X010385Y009357D01*
X010385Y009279D02*
X009075Y009279D01*
X009075Y009200D02*
X010385Y009200D01*
X010385Y009122D02*
X009075Y009122D01*
X009075Y009043D02*
X010385Y009043D01*
X010385Y008965D02*
X009450Y008965D01*
X009524Y008886D02*
X010385Y008886D01*
X010385Y008808D02*
X009556Y008808D01*
X009563Y008729D02*
X010385Y008729D01*
X010385Y008651D02*
X009550Y008651D01*
X009545Y008572D02*
X010385Y008572D01*
X010385Y008494D02*
X009545Y008494D01*
X009545Y008415D02*
X010385Y008415D01*
X010385Y008337D02*
X009545Y008337D01*
X009545Y008258D02*
X010385Y008258D01*
X010385Y008180D02*
X009545Y008180D01*
X009545Y008101D02*
X010385Y008101D01*
X010385Y008023D02*
X009545Y008023D01*
X009545Y007944D02*
X010385Y007944D01*
X010385Y007866D02*
X009545Y007866D01*
X009545Y007787D02*
X010385Y007787D01*
X010385Y007709D02*
X009545Y007709D01*
X009545Y007630D02*
X010385Y007630D01*
X010385Y007552D02*
X009545Y007552D01*
X009545Y007473D02*
X010385Y007473D01*
X010385Y007395D02*
X009545Y007395D01*
X009545Y007316D02*
X010385Y007316D01*
X010385Y007238D02*
X009545Y007238D01*
X009545Y007159D02*
X010385Y007159D01*
X010385Y007081D02*
X009545Y007081D01*
X009545Y007002D02*
X010385Y007002D01*
X010385Y006924D02*
X009545Y006924D01*
X009545Y006845D02*
X010385Y006845D01*
X010385Y006767D02*
X009545Y006767D01*
X009545Y006688D02*
X010385Y006688D01*
X010385Y006610D02*
X009545Y006610D01*
X009545Y006531D02*
X010385Y006531D01*
X010385Y006453D02*
X009545Y006453D01*
X009545Y006374D02*
X010385Y006374D01*
X010385Y006296D02*
X009545Y006296D01*
X009545Y006217D02*
X010385Y006217D01*
X010385Y006139D02*
X009545Y006139D01*
X009545Y006060D02*
X010385Y006060D01*
X010385Y005982D02*
X009545Y005982D01*
X009545Y005903D02*
X010385Y005903D01*
X010385Y005825D02*
X009545Y005825D01*
X009545Y005746D02*
X010385Y005746D01*
X010385Y005668D02*
X009545Y005668D01*
X009545Y005589D02*
X010420Y005589D01*
X010498Y005511D02*
X009545Y005511D01*
X009545Y005432D02*
X010468Y005432D01*
X010390Y005354D02*
X009545Y005354D01*
X009545Y005275D02*
X010385Y005275D01*
X010385Y005197D02*
X009545Y005197D01*
X009545Y005118D02*
X010385Y005118D01*
X010385Y005040D02*
X009563Y005040D01*
X009563Y004961D02*
X010385Y004961D01*
X010385Y004883D02*
X009543Y004883D01*
X009495Y004804D02*
X010385Y004804D01*
X010766Y005668D02*
X015144Y005668D01*
X015222Y005746D02*
X010687Y005746D01*
X010685Y005825D02*
X015301Y005825D01*
X015379Y005903D02*
X010685Y005903D01*
X010685Y005982D02*
X015458Y005982D01*
X015536Y006060D02*
X010685Y006060D01*
X010685Y006139D02*
X015615Y006139D01*
X015693Y006217D02*
X010685Y006217D01*
X010685Y006296D02*
X015772Y006296D01*
X015850Y006374D02*
X010685Y006374D01*
X010685Y006453D02*
X015929Y006453D01*
X016007Y006531D02*
X010685Y006531D01*
X010685Y006610D02*
X016086Y006610D01*
X016164Y006688D02*
X015896Y006688D01*
X015974Y006767D02*
X016243Y006767D01*
X016275Y006845D02*
X016004Y006845D01*
X016004Y006924D02*
X016275Y006924D01*
X016275Y007002D02*
X016260Y007002D01*
X016009Y007002D02*
X015979Y007002D01*
X015635Y007081D02*
X015288Y007081D01*
X015304Y007159D02*
X015635Y007159D01*
X015635Y007238D02*
X015304Y007238D01*
X015265Y007316D02*
X015635Y007316D01*
X015635Y007395D02*
X015235Y007395D01*
X015235Y007473D02*
X015288Y007473D01*
X015581Y007473D02*
X015635Y007473D01*
X015590Y007002D02*
X015210Y007002D01*
X014959Y007002D02*
X010685Y007002D01*
X010685Y006924D02*
X015566Y006924D01*
X015566Y006845D02*
X010685Y006845D01*
X010685Y006767D02*
X015595Y006767D01*
X015673Y006688D02*
X010685Y006688D01*
X010685Y007081D02*
X014881Y007081D01*
X014866Y007159D02*
X010685Y007159D01*
X010685Y007238D02*
X014866Y007238D01*
X014904Y007316D02*
X010685Y007316D01*
X010685Y007395D02*
X013717Y007395D01*
X013666Y007473D02*
X010685Y007473D01*
X010685Y007552D02*
X013666Y007552D01*
X013668Y007630D02*
X010685Y007630D01*
X010685Y007709D02*
X013735Y007709D01*
X013735Y007787D02*
X010685Y007787D01*
X010685Y007866D02*
X013735Y007866D01*
X013735Y007944D02*
X013652Y007944D01*
X013730Y008023D02*
X013735Y008023D01*
X013535Y008137D02*
X013785Y008387D01*
X013785Y010237D01*
X013635Y010221D02*
X010685Y010221D01*
X010685Y010299D02*
X013635Y010299D01*
X013635Y010378D02*
X010685Y010378D01*
X010685Y010456D02*
X013635Y010456D01*
X013635Y010535D02*
X010685Y010535D01*
X010685Y010613D02*
X013635Y010613D01*
X013635Y010692D02*
X010685Y010692D01*
X010685Y010770D02*
X013635Y010770D01*
X013635Y010849D02*
X010685Y010849D01*
X010685Y010927D02*
X013635Y010927D01*
X013635Y011006D02*
X010685Y011006D01*
X010685Y011084D02*
X013635Y011084D01*
X013635Y011163D02*
X010685Y011163D01*
X010685Y011241D02*
X013635Y011241D01*
X013635Y011320D02*
X010685Y011320D01*
X010685Y011398D02*
X013635Y011398D01*
X013635Y011477D02*
X010685Y011477D01*
X010685Y011555D02*
X013635Y011555D01*
X013635Y011634D02*
X010685Y011634D01*
X010685Y011712D02*
X013635Y011712D01*
X013635Y011791D02*
X010685Y011791D01*
X010685Y011869D02*
X013292Y011869D01*
X013214Y011948D02*
X010685Y011948D01*
X010685Y012026D02*
X013166Y012026D01*
X013166Y012105D02*
X010685Y012105D01*
X010685Y012183D02*
X013171Y012183D01*
X013050Y012262D02*
X010685Y012262D01*
X010685Y012340D02*
X012971Y012340D01*
X012966Y012419D02*
X010685Y012419D01*
X010685Y012497D02*
X012966Y012497D01*
X013014Y012576D02*
X010685Y012576D01*
X010685Y012654D02*
X013092Y012654D01*
X013135Y012733D02*
X010685Y012733D01*
X010685Y012811D02*
X013135Y012811D01*
X013135Y012890D02*
X010685Y012890D01*
X010685Y012968D02*
X013135Y012968D01*
X013135Y013047D02*
X010685Y013047D01*
X010685Y013125D02*
X013135Y013125D01*
X013135Y013204D02*
X010685Y013204D01*
X010685Y013282D02*
X013135Y013282D01*
X013135Y013361D02*
X010685Y013361D01*
X010685Y013439D02*
X013135Y013439D01*
X013135Y013518D02*
X010685Y013518D01*
X010685Y013596D02*
X013135Y013596D01*
X013135Y013675D02*
X010685Y013675D01*
X010685Y013753D02*
X013135Y013753D01*
X013135Y013832D02*
X010685Y013832D01*
X010685Y013910D02*
X013135Y013910D01*
X013135Y013989D02*
X010685Y013989D01*
X010685Y014067D02*
X013135Y014067D01*
X013135Y014146D02*
X010685Y014146D01*
X010685Y014224D02*
X013135Y014224D01*
X013135Y014303D02*
X010685Y014303D01*
X010685Y014381D02*
X013135Y014381D01*
X013135Y014460D02*
X010685Y014460D01*
X010685Y014538D02*
X013135Y014538D01*
X013135Y014617D02*
X010685Y014617D01*
X010685Y014695D02*
X013135Y014695D01*
X013135Y014774D02*
X010685Y014774D01*
X010685Y014852D02*
X013135Y014852D01*
X013135Y014931D02*
X010685Y014931D01*
X010685Y015009D02*
X013135Y015009D01*
X013135Y015088D02*
X010685Y015088D01*
X010685Y015166D02*
X013135Y015166D01*
X013135Y015245D02*
X010685Y015245D01*
X010685Y015323D02*
X013135Y015323D01*
X013135Y015402D02*
X010754Y015402D01*
X010754Y015480D02*
X013135Y015480D01*
X013135Y015559D02*
X010754Y015559D01*
X010694Y015637D02*
X013135Y015637D01*
X013135Y015716D02*
X011923Y015716D01*
X011875Y015668D02*
X012004Y015796D01*
X012004Y015977D01*
X011875Y016106D01*
X011778Y016106D01*
X011747Y016137D01*
X009194Y016137D01*
X009125Y016206D01*
X008944Y016206D01*
X008816Y016077D01*
X008816Y015896D01*
X008944Y015768D01*
X009125Y015768D01*
X009194Y015837D01*
X011566Y015837D01*
X011566Y015796D01*
X011694Y015668D01*
X011875Y015668D01*
X012002Y015794D02*
X013135Y015794D01*
X013135Y015873D02*
X012004Y015873D01*
X012004Y015951D02*
X013135Y015951D01*
X013135Y016030D02*
X011951Y016030D01*
X011775Y016108D02*
X013135Y016108D01*
X013135Y016187D02*
X009144Y016187D01*
X008925Y016187D02*
X006425Y016187D01*
X006425Y016265D02*
X013135Y016265D01*
X013135Y016344D02*
X011201Y016344D01*
X011254Y016396D02*
X011125Y016268D01*
X010944Y016268D01*
X010875Y016337D01*
X006723Y016337D01*
X006635Y016425D01*
X006635Y016425D01*
X006533Y016527D01*
X006533Y016527D01*
X006532Y016528D01*
X006504Y016528D01*
X006376Y016656D01*
X006376Y016837D01*
X006504Y016966D01*
X006685Y016966D01*
X006814Y016837D01*
X006814Y016670D01*
X006847Y016637D01*
X010875Y016637D01*
X010944Y016706D01*
X011125Y016706D01*
X011254Y016577D01*
X011254Y016396D01*
X011254Y016422D02*
X013135Y016422D01*
X013135Y016501D02*
X011254Y016501D01*
X011252Y016579D02*
X013135Y016579D01*
X013135Y016658D02*
X011173Y016658D01*
X010896Y016658D02*
X006826Y016658D01*
X006814Y016736D02*
X013135Y016736D01*
X013135Y016815D02*
X009012Y016815D01*
X008975Y016778D02*
X009104Y016906D01*
X009104Y017087D01*
X008975Y017216D01*
X008794Y017216D01*
X008705Y017127D01*
X008264Y017127D01*
X008384Y017246D01*
X008384Y017427D01*
X008295Y017516D01*
X008295Y017749D01*
X008116Y017928D01*
X008275Y017928D01*
X008404Y018056D01*
X008404Y018237D01*
X008335Y018306D01*
X009203Y018306D01*
X009281Y018228D02*
X008404Y018228D01*
X008404Y018149D02*
X009360Y018149D01*
X009438Y018071D02*
X008404Y018071D01*
X008340Y017992D02*
X009517Y017992D01*
X009595Y017914D02*
X008130Y017914D01*
X008208Y017835D02*
X009674Y017835D01*
X009752Y017757D02*
X008287Y017757D01*
X008295Y017678D02*
X009831Y017678D01*
X009909Y017600D02*
X008295Y017600D01*
X008295Y017521D02*
X009988Y017521D01*
X010066Y017443D02*
X008368Y017443D01*
X008384Y017364D02*
X010145Y017364D01*
X010223Y017286D02*
X008384Y017286D01*
X008345Y017207D02*
X008785Y017207D01*
X008707Y017129D02*
X008266Y017129D01*
X008065Y017127D02*
X007497Y017127D01*
X007494Y017130D01*
X007494Y017307D01*
X007365Y017436D01*
X007232Y017436D01*
X007364Y017568D01*
X007475Y017568D01*
X007604Y017696D01*
X007604Y017877D01*
X007475Y018006D01*
X007294Y018006D01*
X007166Y017877D01*
X007166Y017766D01*
X006927Y017527D01*
X006654Y017527D01*
X006694Y017566D01*
X006694Y017747D01*
X006655Y017786D01*
X006655Y017795D01*
X006685Y017825D01*
X006685Y019165D01*
X006767Y019247D01*
X007913Y019247D01*
X008035Y019125D01*
X008035Y018306D01*
X007966Y018237D01*
X007966Y018078D01*
X007855Y018189D01*
X007855Y018797D01*
X007974Y018916D01*
X007974Y019097D01*
X007845Y019226D01*
X007664Y019226D01*
X007536Y019097D01*
X007536Y018916D01*
X007547Y018904D01*
X007555Y018882D01*
X007555Y018065D01*
X007643Y017977D01*
X007995Y017625D01*
X007995Y017476D01*
X007946Y017427D01*
X007946Y017246D01*
X008065Y017127D01*
X008063Y017129D02*
X007495Y017129D01*
X007494Y017207D02*
X007984Y017207D01*
X007946Y017286D02*
X007494Y017286D01*
X007437Y017364D02*
X007946Y017364D01*
X007961Y017443D02*
X007239Y017443D01*
X007317Y017521D02*
X007995Y017521D01*
X007995Y017600D02*
X007507Y017600D01*
X007586Y017678D02*
X007941Y017678D01*
X007862Y017757D02*
X007604Y017757D01*
X007604Y017835D02*
X007784Y017835D01*
X007705Y017914D02*
X007567Y017914D01*
X007627Y017992D02*
X007489Y017992D01*
X007555Y018071D02*
X006685Y018071D01*
X006685Y018149D02*
X007555Y018149D01*
X007555Y018228D02*
X006685Y018228D01*
X006685Y018306D02*
X007555Y018306D01*
X007555Y018385D02*
X006685Y018385D01*
X006685Y018463D02*
X007555Y018463D01*
X007555Y018542D02*
X006685Y018542D01*
X006685Y018620D02*
X007555Y018620D01*
X007555Y018699D02*
X006685Y018699D01*
X006685Y018777D02*
X007555Y018777D01*
X007555Y018856D02*
X006685Y018856D01*
X006685Y018934D02*
X007536Y018934D01*
X007536Y019013D02*
X006685Y019013D01*
X006685Y019091D02*
X007536Y019091D01*
X007608Y019170D02*
X006690Y019170D01*
X006501Y019405D02*
X001635Y019405D01*
X001635Y019327D02*
X006423Y019327D01*
X006385Y019289D02*
X006603Y019507D01*
X006043Y019507D01*
X005955Y019595D01*
X005955Y019595D01*
X005821Y019728D01*
X005733Y019728D01*
X005638Y019768D01*
X005566Y019840D01*
X005526Y019935D01*
X005526Y020038D01*
X005566Y020133D01*
X005638Y020206D01*
X005733Y020245D01*
X005836Y020245D01*
X005931Y020206D01*
X006004Y020133D01*
X006043Y020038D01*
X006043Y019935D01*
X006042Y019932D01*
X006167Y019807D01*
X007069Y019807D01*
X006921Y019868D01*
X006716Y020073D01*
X006605Y020341D01*
X006605Y020632D01*
X006716Y020900D01*
X006921Y021105D01*
X007189Y021217D01*
X007480Y021217D01*
X007748Y021105D01*
X007953Y020900D01*
X008065Y020632D01*
X008065Y020341D01*
X007953Y020073D01*
X007748Y019868D01*
X007600Y019807D01*
X008127Y019807D01*
X008215Y019719D01*
X010548Y017386D01*
X010635Y017386D01*
X010764Y017257D01*
X010764Y017076D01*
X010635Y016948D01*
X010454Y016948D01*
X010326Y017076D01*
X010326Y017184D01*
X008335Y019175D01*
X008335Y018306D01*
X008335Y018385D02*
X009124Y018385D01*
X009046Y018463D02*
X008335Y018463D01*
X008335Y018542D02*
X008967Y018542D01*
X008889Y018620D02*
X008335Y018620D01*
X008335Y018699D02*
X008810Y018699D01*
X008732Y018777D02*
X008335Y018777D01*
X008335Y018856D02*
X008653Y018856D01*
X008575Y018934D02*
X008335Y018934D01*
X008335Y019013D02*
X008496Y019013D01*
X008418Y019091D02*
X008335Y019091D01*
X008335Y019170D02*
X008339Y019170D01*
X008528Y019405D02*
X009804Y019405D01*
X009882Y019327D02*
X008607Y019327D01*
X008685Y019248D02*
X009961Y019248D01*
X010039Y019170D02*
X008764Y019170D01*
X008842Y019091D02*
X010118Y019091D01*
X010196Y019013D02*
X008921Y019013D01*
X008999Y018934D02*
X010275Y018934D01*
X010353Y018856D02*
X009078Y018856D01*
X009156Y018777D02*
X010432Y018777D01*
X010510Y018699D02*
X009235Y018699D01*
X009313Y018620D02*
X010589Y018620D01*
X010667Y018542D02*
X009392Y018542D01*
X009470Y018463D02*
X010746Y018463D01*
X010824Y018385D02*
X009549Y018385D01*
X009627Y018306D02*
X010903Y018306D01*
X010981Y018228D02*
X009706Y018228D01*
X009784Y018149D02*
X011060Y018149D01*
X011135Y018075D02*
X011135Y017996D01*
X011066Y017927D01*
X011066Y017746D01*
X011194Y017618D01*
X011375Y017618D01*
X011504Y017746D01*
X011504Y017927D01*
X011435Y017996D01*
X011435Y018199D01*
X011347Y018287D01*
X009356Y020277D01*
X009405Y020393D01*
X009405Y020580D01*
X009333Y020753D01*
X009201Y020885D01*
X009028Y020957D01*
X008841Y020957D01*
X008668Y020885D01*
X008536Y020753D01*
X008465Y020580D01*
X008465Y020393D01*
X008536Y020220D01*
X008668Y020088D01*
X008841Y020017D01*
X009028Y020017D01*
X009144Y020065D01*
X011135Y018075D01*
X011135Y018071D02*
X009863Y018071D01*
X009941Y017992D02*
X011130Y017992D01*
X011066Y017914D02*
X010020Y017914D01*
X010098Y017835D02*
X011066Y017835D01*
X011066Y017757D02*
X010177Y017757D01*
X010255Y017678D02*
X011133Y017678D01*
X011436Y017678D02*
X013135Y017678D01*
X013135Y017600D02*
X010334Y017600D01*
X010412Y017521D02*
X013135Y017521D01*
X013135Y017443D02*
X010491Y017443D01*
X010657Y017364D02*
X013135Y017364D01*
X013135Y017286D02*
X010735Y017286D01*
X010764Y017207D02*
X013135Y017207D01*
X013135Y017129D02*
X010764Y017129D01*
X010738Y017050D02*
X013135Y017050D01*
X013135Y016972D02*
X010659Y016972D01*
X010430Y016972D02*
X009104Y016972D01*
X009104Y017050D02*
X010351Y017050D01*
X010326Y017129D02*
X009062Y017129D01*
X008984Y017207D02*
X010302Y017207D01*
X009091Y016893D02*
X013135Y016893D01*
X013135Y017757D02*
X011864Y017757D01*
X011825Y017718D02*
X011954Y017846D01*
X011954Y018027D01*
X011885Y018096D01*
X011885Y018249D01*
X011797Y018337D01*
X010091Y020043D01*
X010201Y020088D01*
X010333Y020220D01*
X010405Y020393D01*
X010405Y020580D01*
X010333Y020753D01*
X010201Y020885D01*
X010028Y020957D01*
X009841Y020957D01*
X009668Y020885D01*
X009536Y020753D01*
X009465Y020580D01*
X009465Y020393D01*
X009536Y020220D01*
X009668Y020088D01*
X009785Y020040D01*
X009785Y019925D01*
X011585Y018125D01*
X011585Y018096D01*
X011516Y018027D01*
X011516Y017846D01*
X011644Y017718D01*
X011825Y017718D01*
X011943Y017835D02*
X013124Y017835D01*
X013045Y017914D02*
X011954Y017914D01*
X011954Y017992D02*
X012967Y017992D01*
X012888Y018071D02*
X011910Y018071D01*
X011885Y018149D02*
X012810Y018149D01*
X012731Y018228D02*
X011885Y018228D01*
X011827Y018306D02*
X012653Y018306D01*
X012574Y018385D02*
X011749Y018385D01*
X011670Y018463D02*
X012496Y018463D01*
X012417Y018542D02*
X011592Y018542D01*
X011513Y018620D02*
X012339Y018620D01*
X012260Y018699D02*
X011435Y018699D01*
X011356Y018777D02*
X012182Y018777D01*
X012103Y018856D02*
X011278Y018856D01*
X011199Y018934D02*
X012025Y018934D01*
X011946Y019013D02*
X011121Y019013D01*
X011042Y019091D02*
X011868Y019091D01*
X011789Y019170D02*
X010964Y019170D01*
X010885Y019248D02*
X011711Y019248D01*
X011632Y019327D02*
X010807Y019327D01*
X010728Y019405D02*
X011554Y019405D01*
X011475Y019484D02*
X010650Y019484D01*
X010571Y019562D02*
X011397Y019562D01*
X011318Y019641D02*
X010493Y019641D01*
X010414Y019719D02*
X011240Y019719D01*
X011161Y019798D02*
X010336Y019798D01*
X010257Y019876D02*
X011083Y019876D01*
X011004Y019955D02*
X010179Y019955D01*
X010100Y020033D02*
X010801Y020033D01*
X010645Y020112D02*
X010224Y020112D01*
X010303Y020190D02*
X010566Y020190D01*
X010516Y020269D02*
X010353Y020269D01*
X010386Y020347D02*
X010484Y020347D01*
X010465Y020426D02*
X010405Y020426D01*
X010405Y020504D02*
X010465Y020504D01*
X010466Y020583D02*
X010404Y020583D01*
X010371Y020661D02*
X010498Y020661D01*
X010531Y020740D02*
X010339Y020740D01*
X010268Y020818D02*
X010602Y020818D01*
X010696Y020897D02*
X010173Y020897D01*
X009696Y020897D02*
X009173Y020897D01*
X009268Y020818D02*
X009602Y020818D01*
X009531Y020740D02*
X009339Y020740D01*
X009371Y020661D02*
X009498Y020661D01*
X009466Y020583D02*
X009404Y020583D01*
X009405Y020504D02*
X009465Y020504D01*
X009465Y020426D02*
X009405Y020426D01*
X009386Y020347D02*
X009484Y020347D01*
X009516Y020269D02*
X009365Y020269D01*
X009443Y020190D02*
X009566Y020190D01*
X009522Y020112D02*
X009645Y020112D01*
X009600Y020033D02*
X009785Y020033D01*
X009785Y019955D02*
X009679Y019955D01*
X009757Y019876D02*
X009833Y019876D01*
X009836Y019798D02*
X009911Y019798D01*
X009914Y019719D02*
X009990Y019719D01*
X009993Y019641D02*
X010068Y019641D01*
X010071Y019562D02*
X010147Y019562D01*
X010150Y019484D02*
X010225Y019484D01*
X010228Y019405D02*
X010304Y019405D01*
X010307Y019327D02*
X010382Y019327D01*
X010385Y019248D02*
X010461Y019248D01*
X010464Y019170D02*
X010539Y019170D01*
X010542Y019091D02*
X010618Y019091D01*
X010621Y019013D02*
X010696Y019013D01*
X010699Y018934D02*
X010775Y018934D01*
X010778Y018856D02*
X010853Y018856D01*
X010856Y018777D02*
X010932Y018777D01*
X010935Y018699D02*
X011010Y018699D01*
X011013Y018620D02*
X011089Y018620D01*
X011092Y018542D02*
X011167Y018542D01*
X011170Y018463D02*
X011246Y018463D01*
X011249Y018385D02*
X011324Y018385D01*
X011327Y018306D02*
X011403Y018306D01*
X011406Y018228D02*
X011481Y018228D01*
X011435Y018149D02*
X011560Y018149D01*
X011559Y018071D02*
X011435Y018071D01*
X011439Y017992D02*
X011516Y017992D01*
X011504Y017914D02*
X011516Y017914D01*
X011504Y017835D02*
X011526Y017835D01*
X011504Y017757D02*
X011605Y017757D01*
X012849Y018934D02*
X013385Y018934D01*
X013385Y018856D02*
X012928Y018856D01*
X013006Y018777D02*
X013385Y018777D01*
X013385Y018699D02*
X013085Y018699D01*
X013163Y018620D02*
X013385Y018620D01*
X013385Y018542D02*
X013242Y018542D01*
X013320Y018463D02*
X013385Y018463D01*
X013399Y018385D02*
X013424Y018385D01*
X013477Y018306D02*
X013503Y018306D01*
X013556Y018228D02*
X013581Y018228D01*
X013634Y018149D02*
X013635Y018149D01*
X013849Y018385D02*
X013885Y018385D01*
X013846Y018463D02*
X013770Y018463D01*
X013785Y018542D02*
X013692Y018542D01*
X013685Y018620D02*
X013785Y018620D01*
X013785Y018699D02*
X013685Y018699D01*
X013685Y018777D02*
X013785Y018777D01*
X013785Y018856D02*
X013685Y018856D01*
X013685Y018934D02*
X013785Y018934D01*
X013785Y019013D02*
X013685Y019013D01*
X013685Y019091D02*
X013785Y019091D01*
X013785Y019170D02*
X013685Y019170D01*
X013685Y019248D02*
X013785Y019248D01*
X013785Y019327D02*
X013685Y019327D01*
X013685Y019405D02*
X013785Y019405D01*
X013785Y019484D02*
X013685Y019484D01*
X013685Y019562D02*
X013785Y019562D01*
X013785Y019641D02*
X013685Y019641D01*
X013685Y019719D02*
X013785Y019719D01*
X013785Y019798D02*
X013685Y019798D01*
X013607Y019876D02*
X013785Y019876D01*
X013785Y019955D02*
X013529Y019955D01*
X013450Y020033D02*
X013785Y020033D01*
X013645Y020112D02*
X013372Y020112D01*
X013303Y020190D02*
X013566Y020190D01*
X013516Y020269D02*
X013353Y020269D01*
X013386Y020347D02*
X013484Y020347D01*
X013465Y020426D02*
X013405Y020426D01*
X013405Y020504D02*
X013465Y020504D01*
X013466Y020583D02*
X013404Y020583D01*
X013371Y020661D02*
X013498Y020661D01*
X013531Y020740D02*
X013339Y020740D01*
X013268Y020818D02*
X013602Y020818D01*
X013696Y020897D02*
X013173Y020897D01*
X012696Y020897D02*
X012173Y020897D01*
X012268Y020818D02*
X012602Y020818D01*
X012531Y020740D02*
X012339Y020740D01*
X012371Y020661D02*
X012498Y020661D01*
X012466Y020583D02*
X012404Y020583D01*
X012405Y020504D02*
X012465Y020504D01*
X012465Y020426D02*
X012405Y020426D01*
X012386Y020347D02*
X012484Y020347D01*
X012516Y020269D02*
X012353Y020269D01*
X012303Y020190D02*
X012566Y020190D01*
X012645Y020112D02*
X012224Y020112D01*
X012150Y020033D02*
X012801Y020033D01*
X013104Y019955D02*
X012229Y019955D01*
X012307Y019876D02*
X013183Y019876D01*
X013261Y019798D02*
X012386Y019798D01*
X012464Y019719D02*
X013340Y019719D01*
X013385Y019641D02*
X012543Y019641D01*
X012621Y019562D02*
X013385Y019562D01*
X013385Y019484D02*
X012635Y019484D01*
X012635Y019405D02*
X013385Y019405D01*
X013385Y019327D02*
X012635Y019327D01*
X012635Y019248D02*
X013385Y019248D01*
X013385Y019170D02*
X012635Y019170D01*
X012692Y019091D02*
X013385Y019091D01*
X013385Y019013D02*
X012771Y019013D01*
X012335Y019091D02*
X012292Y019091D01*
X012335Y019170D02*
X012214Y019170D01*
X012135Y019248D02*
X012335Y019248D01*
X012335Y019327D02*
X012057Y019327D01*
X011978Y019405D02*
X012335Y019405D01*
X012275Y019484D02*
X011900Y019484D01*
X011821Y019562D02*
X012197Y019562D01*
X012118Y019641D02*
X011743Y019641D01*
X011664Y019719D02*
X012040Y019719D01*
X011961Y019798D02*
X011586Y019798D01*
X011507Y019876D02*
X011883Y019876D01*
X011804Y019955D02*
X011429Y019955D01*
X011350Y020033D02*
X011785Y020033D01*
X011645Y020112D02*
X011272Y020112D01*
X011303Y020190D02*
X011566Y020190D01*
X011516Y020269D02*
X011353Y020269D01*
X011386Y020347D02*
X011484Y020347D01*
X011465Y020426D02*
X011405Y020426D01*
X011405Y020504D02*
X011465Y020504D01*
X011466Y020583D02*
X011404Y020583D01*
X011371Y020661D02*
X011498Y020661D01*
X011531Y020740D02*
X011339Y020740D01*
X011268Y020818D02*
X011602Y020818D01*
X011696Y020897D02*
X011173Y020897D01*
X009725Y019484D02*
X008450Y019484D01*
X008371Y019562D02*
X009647Y019562D01*
X009568Y019641D02*
X008293Y019641D01*
X008214Y019719D02*
X009490Y019719D01*
X009411Y019798D02*
X008136Y019798D01*
X007913Y020033D02*
X008801Y020033D01*
X008645Y020112D02*
X007969Y020112D01*
X008002Y020190D02*
X008566Y020190D01*
X008516Y020269D02*
X008034Y020269D01*
X008065Y020347D02*
X008484Y020347D01*
X008465Y020426D02*
X008065Y020426D01*
X008065Y020504D02*
X008465Y020504D01*
X008466Y020583D02*
X008065Y020583D01*
X008052Y020661D02*
X008498Y020661D01*
X008531Y020740D02*
X008020Y020740D01*
X007987Y020818D02*
X008602Y020818D01*
X008696Y020897D02*
X007955Y020897D01*
X007878Y020975D02*
X026335Y020975D01*
X026335Y020987D02*
X026335Y020957D01*
X026123Y020957D01*
X026065Y020898D01*
X026065Y020075D01*
X026123Y020017D01*
X026335Y020017D01*
X026335Y019399D01*
X025935Y019799D01*
X025935Y020224D01*
X026005Y020393D01*
X026005Y020580D01*
X025933Y020753D01*
X025801Y020885D01*
X025628Y020957D01*
X025441Y020957D01*
X025268Y020885D01*
X025136Y020753D01*
X025065Y020580D01*
X025065Y020393D01*
X025136Y020220D01*
X025268Y020088D01*
X025441Y020017D01*
X025628Y020017D01*
X025635Y020019D01*
X025635Y019675D01*
X026135Y019175D01*
X026135Y018799D01*
X026042Y018706D01*
X025944Y018706D01*
X025816Y018577D01*
X025816Y018480D01*
X025292Y017956D01*
X025194Y017956D01*
X025066Y017827D01*
X025066Y017646D01*
X025194Y017518D01*
X025375Y017518D01*
X025504Y017646D01*
X025504Y017744D01*
X026028Y018268D01*
X026125Y018268D01*
X026254Y018396D01*
X026254Y018494D01*
X026335Y018575D01*
X026335Y018249D01*
X026042Y017956D01*
X025944Y017956D01*
X025816Y017827D01*
X025816Y017646D01*
X025944Y017518D01*
X026125Y017518D01*
X026254Y017646D01*
X026254Y017744D01*
X026335Y017825D01*
X026335Y016387D01*
X026194Y016387D01*
X026125Y016456D01*
X025944Y016456D01*
X025816Y016327D01*
X025816Y016146D01*
X025944Y016018D01*
X026125Y016018D01*
X026194Y016087D01*
X026223Y016087D01*
X026335Y015975D01*
X026335Y015549D01*
X026335Y015549D01*
X026247Y015637D01*
X026194Y015637D01*
X026335Y015637D01*
X026325Y015559D02*
X026335Y015559D01*
X026335Y015716D02*
X022035Y015716D01*
X022035Y015794D02*
X026335Y015794D01*
X026335Y015873D02*
X022035Y015873D01*
X022035Y015951D02*
X026335Y015951D01*
X026279Y016030D02*
X026137Y016030D01*
X025932Y016030D02*
X022035Y016030D01*
X022035Y016108D02*
X025853Y016108D01*
X025816Y016187D02*
X022035Y016187D01*
X022035Y016265D02*
X025816Y016265D01*
X025832Y016344D02*
X022035Y016344D01*
X022035Y016422D02*
X025910Y016422D01*
X026159Y016422D02*
X026335Y016422D01*
X026335Y016501D02*
X022035Y016501D01*
X022035Y016579D02*
X026335Y016579D01*
X026335Y016658D02*
X022035Y016658D01*
X022035Y016736D02*
X026335Y016736D01*
X026335Y016815D02*
X022035Y016815D01*
X022035Y016893D02*
X026335Y016893D01*
X026335Y016972D02*
X022035Y016972D01*
X022035Y017050D02*
X026335Y017050D01*
X026335Y017129D02*
X022035Y017129D01*
X022035Y017207D02*
X022104Y017207D01*
X022144Y017168D02*
X022325Y017168D01*
X022454Y017296D01*
X022454Y017468D01*
X022575Y017468D01*
X022704Y017596D01*
X022704Y017777D01*
X022575Y017906D01*
X022535Y017906D01*
X022535Y018825D01*
X022847Y019137D01*
X022897Y019137D01*
X022985Y019225D01*
X023685Y019925D01*
X023685Y020040D01*
X023801Y020088D01*
X023933Y020220D01*
X024005Y020393D01*
X024005Y020580D01*
X023933Y020753D01*
X023801Y020885D01*
X023628Y020957D01*
X023441Y020957D01*
X023268Y020885D01*
X023136Y020753D01*
X023065Y020580D01*
X023065Y020393D01*
X023136Y020220D01*
X023268Y020088D01*
X023378Y020043D01*
X022773Y019437D01*
X022723Y019437D01*
X022685Y019399D01*
X022685Y020040D01*
X022801Y020088D01*
X022933Y020220D01*
X023005Y020393D01*
X023005Y020580D01*
X022933Y020753D01*
X022801Y020885D01*
X022628Y020957D01*
X022441Y020957D01*
X022268Y020885D01*
X022136Y020753D01*
X022065Y020580D01*
X022065Y020393D01*
X022136Y020220D01*
X022268Y020088D01*
X022385Y020040D01*
X022385Y019499D01*
X022073Y019187D01*
X021985Y019099D01*
X021985Y019049D01*
X021947Y019087D01*
X021685Y019349D01*
X021685Y020040D01*
X021801Y020088D01*
X021933Y020220D01*
X022005Y020393D01*
X022005Y020580D01*
X021933Y020753D01*
X021801Y020885D01*
X021628Y020957D01*
X021441Y020957D01*
X021268Y020885D01*
X021136Y020753D01*
X021065Y020580D01*
X021065Y020393D01*
X021136Y020220D01*
X021268Y020088D01*
X021385Y020040D01*
X021385Y019299D01*
X020685Y019999D01*
X020685Y020040D01*
X020801Y020088D01*
X020933Y020220D01*
X021005Y020393D01*
X021005Y020580D01*
X020933Y020753D01*
X020801Y020885D01*
X020628Y020957D01*
X020441Y020957D01*
X020268Y020885D01*
X020136Y020753D01*
X020065Y020580D01*
X020065Y020393D01*
X020136Y020220D01*
X020268Y020088D01*
X020385Y020040D01*
X020385Y019875D01*
X020773Y019487D01*
X020447Y019487D01*
X019823Y020110D01*
X019933Y020220D01*
X020005Y020393D01*
X020005Y020580D01*
X019933Y020753D01*
X019801Y020885D01*
X019628Y020957D01*
X019441Y020957D01*
X019268Y020885D01*
X019136Y020753D01*
X019065Y020580D01*
X019065Y020393D01*
X019136Y020220D01*
X019268Y020088D01*
X019441Y020017D01*
X019493Y020017D01*
X020235Y019275D01*
X020323Y019187D01*
X020723Y019187D01*
X021235Y018675D01*
X021235Y013056D01*
X021144Y013056D01*
X021016Y012927D01*
X021016Y012746D01*
X021144Y012618D01*
X021325Y012618D01*
X021366Y012658D01*
X021366Y012596D01*
X021494Y012468D01*
X021666Y012468D01*
X021666Y012446D01*
X021794Y012318D01*
X021966Y012318D01*
X021966Y012296D01*
X022045Y012217D01*
X022045Y011879D01*
X022317Y011607D01*
X020985Y011607D01*
X020985Y011629D01*
X020975Y011639D01*
X020975Y011945D01*
X020954Y011966D01*
X020954Y012127D01*
X020825Y012256D01*
X020644Y012256D01*
X020516Y012127D01*
X020516Y011946D01*
X020644Y011818D01*
X020695Y011818D01*
X020695Y011639D01*
X020685Y011629D01*
X020685Y011607D01*
X019844Y011607D01*
X019562Y011325D01*
X019536Y011325D01*
X019396Y011186D01*
X019396Y010988D01*
X019536Y010848D01*
X019734Y010848D01*
X019873Y010988D01*
X019873Y011014D01*
X020026Y011167D01*
X026117Y011167D01*
X026136Y011120D01*
X026268Y010988D01*
X026335Y010961D01*
X026335Y002335D01*
X026093Y002577D01*
X024243Y002577D01*
X022643Y004177D01*
X022634Y004177D01*
X022704Y004246D01*
X022704Y004427D01*
X022704Y004333D02*
X026335Y004333D01*
X026335Y004255D02*
X022704Y004255D01*
X022643Y004176D02*
X026335Y004176D01*
X026335Y004098D02*
X022722Y004098D01*
X022800Y004019D02*
X026335Y004019D01*
X026335Y003941D02*
X022879Y003941D01*
X022957Y003862D02*
X026335Y003862D01*
X026335Y003784D02*
X023036Y003784D01*
X023114Y003705D02*
X026335Y003705D01*
X026335Y003627D02*
X023193Y003627D01*
X023271Y003548D02*
X026335Y003548D01*
X026335Y003470D02*
X023350Y003470D01*
X023428Y003391D02*
X026335Y003391D01*
X026335Y003313D02*
X023507Y003313D01*
X023585Y003234D02*
X026335Y003234D01*
X026335Y003156D02*
X023664Y003156D01*
X023742Y003077D02*
X026335Y003077D01*
X026335Y002999D02*
X023821Y002999D01*
X023899Y002920D02*
X026335Y002920D01*
X026335Y002842D02*
X023978Y002842D01*
X024056Y002763D02*
X026335Y002763D01*
X026335Y002685D02*
X024135Y002685D01*
X024213Y002606D02*
X026335Y002606D01*
X026335Y002528D02*
X026142Y002528D01*
X026220Y002449D02*
X026335Y002449D01*
X026335Y002371D02*
X026299Y002371D01*
X026035Y002437D02*
X026535Y001937D01*
X026535Y001487D01*
X026163Y001193D02*
X025906Y001193D01*
X025954Y001272D02*
X026115Y001272D01*
X026082Y001350D02*
X025987Y001350D01*
X026005Y001429D02*
X026065Y001429D01*
X026065Y001507D02*
X026005Y001507D01*
X026002Y001586D02*
X026067Y001586D01*
X026099Y001664D02*
X025970Y001664D01*
X025937Y001743D02*
X026132Y001743D01*
X026204Y001821D02*
X025865Y001821D01*
X025766Y001900D02*
X026304Y001900D01*
X026295Y001978D02*
X025675Y001978D01*
X025663Y002057D02*
X026217Y002057D01*
X026138Y002135D02*
X025584Y002135D01*
X025506Y002214D02*
X026060Y002214D01*
X025981Y002292D02*
X025427Y002292D01*
X025285Y002237D02*
X025535Y001987D01*
X025535Y001487D01*
X025099Y001664D02*
X024970Y001664D01*
X025002Y001586D02*
X025067Y001586D01*
X025065Y001507D02*
X025005Y001507D01*
X025005Y001429D02*
X025065Y001429D01*
X025082Y001350D02*
X024987Y001350D01*
X024954Y001272D02*
X025115Y001272D01*
X025163Y001193D02*
X024906Y001193D01*
X024827Y001115D02*
X025242Y001115D01*
X025394Y001036D02*
X024675Y001036D01*
X024394Y001036D02*
X023675Y001036D01*
X023827Y001115D02*
X024242Y001115D01*
X024163Y001193D02*
X023906Y001193D01*
X023954Y001272D02*
X024115Y001272D01*
X024082Y001350D02*
X023987Y001350D01*
X024005Y001429D02*
X024065Y001429D01*
X024065Y001507D02*
X024005Y001507D01*
X024002Y001586D02*
X024067Y001586D01*
X024099Y001664D02*
X023970Y001664D01*
X023937Y001743D02*
X024132Y001743D01*
X024204Y001821D02*
X023865Y001821D01*
X023766Y001900D02*
X024024Y001900D01*
X023945Y001978D02*
X023675Y001978D01*
X023675Y002057D02*
X023867Y002057D01*
X023788Y002135D02*
X023675Y002135D01*
X023675Y002214D02*
X023710Y002214D01*
X023535Y002337D02*
X023535Y001487D01*
X023099Y001664D02*
X022970Y001664D01*
X023002Y001586D02*
X023067Y001586D01*
X023005Y001580D02*
X022933Y001753D01*
X022801Y001885D01*
X022628Y001957D01*
X022441Y001957D01*
X022268Y001885D01*
X022136Y001753D01*
X022065Y001580D01*
X022065Y001393D01*
X022136Y001220D01*
X022268Y001088D01*
X022441Y001017D01*
X022628Y001017D01*
X022801Y001088D01*
X022933Y001220D01*
X023005Y001393D01*
X023005Y001580D01*
X023005Y001507D02*
X023065Y001507D01*
X023065Y001429D02*
X023005Y001429D01*
X022987Y001350D02*
X023082Y001350D01*
X023115Y001272D02*
X022954Y001272D01*
X022906Y001193D02*
X023163Y001193D01*
X023242Y001115D02*
X022827Y001115D01*
X022675Y001036D02*
X023394Y001036D01*
X022394Y001036D02*
X021675Y001036D01*
X021628Y001017D02*
X021801Y001088D01*
X021933Y001220D01*
X022005Y001393D01*
X022005Y001580D01*
X021933Y001753D01*
X021801Y001885D01*
X021628Y001957D01*
X021441Y001957D01*
X021268Y001885D01*
X021136Y001753D01*
X021065Y001580D01*
X021065Y001393D01*
X021136Y001220D01*
X021268Y001088D01*
X021441Y001017D01*
X021628Y001017D01*
X021827Y001115D02*
X022242Y001115D01*
X022163Y001193D02*
X021906Y001193D01*
X021954Y001272D02*
X022115Y001272D01*
X022082Y001350D02*
X021987Y001350D01*
X022005Y001429D02*
X022065Y001429D01*
X022065Y001507D02*
X022005Y001507D01*
X022002Y001586D02*
X022067Y001586D01*
X022099Y001664D02*
X021970Y001664D01*
X021937Y001743D02*
X022132Y001743D01*
X022204Y001821D02*
X021865Y001821D01*
X021766Y001900D02*
X022304Y001900D01*
X022766Y001900D02*
X023304Y001900D01*
X023395Y001978D02*
X019795Y001978D01*
X019795Y001900D02*
X021304Y001900D01*
X021204Y001821D02*
X019865Y001821D01*
X019937Y001743D02*
X021132Y001743D01*
X021099Y001664D02*
X019970Y001664D01*
X020002Y001586D02*
X021067Y001586D01*
X021065Y001507D02*
X020005Y001507D01*
X020005Y001429D02*
X021065Y001429D01*
X021082Y001350D02*
X019987Y001350D01*
X019954Y001272D02*
X021115Y001272D01*
X021163Y001193D02*
X019906Y001193D01*
X019827Y001115D02*
X021242Y001115D01*
X021394Y001036D02*
X019675Y001036D01*
X019394Y001036D02*
X018669Y001036D01*
X018645Y001028D02*
X018715Y001051D01*
X018781Y001085D01*
X018841Y001128D01*
X018893Y001180D01*
X018937Y001240D01*
X018970Y001306D01*
X018993Y001377D01*
X019005Y001450D01*
X019005Y001458D01*
X018564Y001458D01*
X018564Y001516D01*
X018506Y001516D01*
X018506Y001957D01*
X018498Y001957D01*
X018425Y001945D01*
X018354Y001922D01*
X018288Y001889D01*
X018228Y001845D01*
X018176Y001793D01*
X018133Y001733D01*
X018099Y001667D01*
X018076Y001597D01*
X018065Y001524D01*
X018065Y001516D01*
X018506Y001516D01*
X018506Y001458D01*
X018065Y001458D01*
X018065Y001450D01*
X018076Y001377D01*
X018099Y001306D01*
X018133Y001240D01*
X018176Y001180D01*
X018228Y001128D01*
X018288Y001085D01*
X018354Y001051D01*
X018425Y001028D01*
X018498Y001017D01*
X018506Y001017D01*
X018506Y001458D01*
X018564Y001458D01*
X018564Y001017D01*
X018572Y001017D01*
X018645Y001028D01*
X018564Y001036D02*
X018506Y001036D01*
X018506Y001115D02*
X018564Y001115D01*
X018564Y001193D02*
X018506Y001193D01*
X018506Y001272D02*
X018564Y001272D01*
X018564Y001350D02*
X018506Y001350D01*
X018506Y001429D02*
X018564Y001429D01*
X018564Y001507D02*
X019065Y001507D01*
X019005Y001516D02*
X019005Y001524D01*
X018993Y001597D01*
X018970Y001667D01*
X018937Y001733D01*
X018893Y001793D01*
X018841Y001845D01*
X018781Y001889D01*
X018715Y001922D01*
X018645Y001945D01*
X018572Y001957D01*
X018564Y001957D01*
X018564Y001516D01*
X019005Y001516D01*
X018995Y001586D02*
X019067Y001586D01*
X019099Y001664D02*
X018971Y001664D01*
X018930Y001743D02*
X019132Y001743D01*
X019204Y001821D02*
X018865Y001821D01*
X018759Y001900D02*
X019254Y001900D01*
X019268Y001885D02*
X019268Y001885D01*
X019175Y001978D02*
X014685Y001978D01*
X014685Y002057D02*
X019097Y002057D01*
X019018Y002135D02*
X014685Y002135D01*
X014685Y002214D02*
X018940Y002214D01*
X018861Y002292D02*
X014685Y002292D01*
X014685Y002371D02*
X018783Y002371D01*
X018704Y002449D02*
X014685Y002449D01*
X014685Y002528D02*
X015376Y002528D01*
X015297Y002606D02*
X014685Y002606D01*
X014685Y002685D02*
X015219Y002685D01*
X015140Y002763D02*
X014685Y002763D01*
X014685Y002842D02*
X015062Y002842D01*
X014983Y002920D02*
X014685Y002920D01*
X014685Y002999D02*
X014905Y002999D01*
X014826Y003077D02*
X014656Y003077D01*
X014578Y003156D02*
X014748Y003156D01*
X014669Y003234D02*
X014499Y003234D01*
X014421Y003313D02*
X014591Y003313D01*
X014512Y003391D02*
X014342Y003391D01*
X014264Y003470D02*
X014434Y003470D01*
X014355Y003548D02*
X014185Y003548D01*
X014107Y003627D02*
X014277Y003627D01*
X014198Y003705D02*
X014028Y003705D01*
X013950Y003784D02*
X014120Y003784D01*
X014041Y003862D02*
X013871Y003862D01*
X013793Y003941D02*
X013963Y003941D01*
X013884Y004019D02*
X013714Y004019D01*
X013636Y004098D02*
X013806Y004098D01*
X013727Y004176D02*
X013557Y004176D01*
X013479Y004255D02*
X013649Y004255D01*
X013570Y004333D02*
X013400Y004333D01*
X013322Y004412D02*
X013492Y004412D01*
X013413Y004490D02*
X013243Y004490D01*
X013165Y004569D02*
X013335Y004569D01*
X012976Y004333D02*
X007147Y004333D01*
X007288Y004275D02*
X006990Y004398D01*
X006667Y004398D01*
X006368Y004275D01*
X006140Y004047D01*
X006017Y003748D01*
X006017Y003425D01*
X006140Y003127D01*
X006368Y002898D01*
X006667Y002775D01*
X006990Y002775D01*
X007288Y002898D01*
X007517Y003127D01*
X007640Y003425D01*
X007640Y003748D01*
X007517Y004047D01*
X007288Y004275D01*
X007308Y004255D02*
X013055Y004255D01*
X013133Y004176D02*
X007387Y004176D01*
X007465Y004098D02*
X013212Y004098D01*
X013290Y004019D02*
X007528Y004019D01*
X007560Y003941D02*
X013369Y003941D01*
X013447Y003862D02*
X007593Y003862D01*
X007625Y003784D02*
X013526Y003784D01*
X013604Y003705D02*
X007640Y003705D01*
X007640Y003627D02*
X013683Y003627D01*
X013761Y003548D02*
X007640Y003548D01*
X007640Y003470D02*
X013840Y003470D01*
X013918Y003391D02*
X007626Y003391D01*
X007594Y003313D02*
X013997Y003313D01*
X014075Y003234D02*
X007561Y003234D01*
X007529Y003156D02*
X014154Y003156D01*
X014232Y003077D02*
X007467Y003077D01*
X007388Y002999D02*
X014311Y002999D01*
X014385Y002920D02*
X007310Y002920D01*
X007151Y002842D02*
X014385Y002842D01*
X014385Y002763D02*
X001635Y002763D01*
X001635Y002685D02*
X014385Y002685D01*
X014385Y002606D02*
X001635Y002606D01*
X001635Y002528D02*
X014385Y002528D01*
X014385Y002449D02*
X005819Y002449D01*
X005791Y002457D02*
X005883Y002432D01*
X005972Y002395D01*
X006055Y002347D01*
X006132Y002289D01*
X006200Y002221D01*
X006258Y002144D01*
X006306Y002061D01*
X006343Y001972D01*
X006368Y001880D01*
X006377Y001807D01*
X006416Y001900D01*
X006621Y002105D01*
X006889Y002217D01*
X007180Y002217D01*
X007448Y002105D01*
X007653Y001900D01*
X007765Y001632D01*
X007765Y001341D01*
X007653Y001073D01*
X007448Y000868D01*
X007180Y000757D01*
X006889Y000757D01*
X006621Y000868D01*
X006416Y001073D01*
X006305Y001341D01*
X006305Y001409D01*
X006258Y001328D01*
X006200Y001252D01*
X006132Y001184D01*
X006055Y001125D01*
X005972Y001077D01*
X005883Y001041D01*
X005791Y001016D01*
X005695Y001003D01*
X005687Y001003D01*
X005687Y001696D01*
X005607Y001696D01*
X005607Y001003D01*
X005599Y001003D01*
X005504Y001016D01*
X005411Y001041D01*
X005322Y001077D01*
X005239Y001125D01*
X005163Y001184D01*
X005095Y001252D01*
X005036Y001328D01*
X004988Y001411D01*
X004952Y001500D01*
X004927Y001593D01*
X004914Y001688D01*
X004914Y001696D01*
X005607Y001696D01*
X005607Y001776D01*
X004914Y001776D01*
X004914Y001784D01*
X004927Y001880D01*
X004952Y001972D01*
X004988Y002061D01*
X005036Y002144D01*
X005095Y002221D01*
X005163Y002289D01*
X005239Y002347D01*
X005322Y002395D01*
X005411Y002432D01*
X005504Y002457D01*
X005599Y002469D01*
X005607Y002469D01*
X005607Y001776D01*
X005687Y001776D01*
X005687Y002469D01*
X005695Y002469D01*
X005791Y002457D01*
X005687Y002449D02*
X005607Y002449D01*
X005607Y002371D02*
X005687Y002371D01*
X005687Y002292D02*
X005607Y002292D01*
X005607Y002214D02*
X005687Y002214D01*
X005687Y002135D02*
X005607Y002135D01*
X005607Y002057D02*
X005687Y002057D01*
X005687Y001978D02*
X005607Y001978D01*
X005607Y001900D02*
X005687Y001900D01*
X005687Y001821D02*
X005607Y001821D01*
X005607Y001743D02*
X001635Y001743D01*
X001635Y001821D02*
X004919Y001821D01*
X004932Y001900D02*
X001635Y001900D01*
X001635Y001978D02*
X004954Y001978D01*
X004986Y002057D02*
X001635Y002057D01*
X001635Y002135D02*
X005031Y002135D01*
X005090Y002214D02*
X001635Y002214D01*
X001635Y002292D02*
X005168Y002292D01*
X005280Y002371D02*
X001635Y002371D01*
X001635Y002449D02*
X005475Y002449D01*
X006015Y002371D02*
X014385Y002371D01*
X014385Y002292D02*
X006127Y002292D01*
X006205Y002214D02*
X006882Y002214D01*
X006693Y002135D02*
X006263Y002135D01*
X006308Y002057D02*
X006572Y002057D01*
X006494Y001978D02*
X006341Y001978D01*
X006362Y001900D02*
X006416Y001900D01*
X006383Y001821D02*
X006375Y001821D01*
X006305Y001350D02*
X006271Y001350D01*
X006215Y001272D02*
X006334Y001272D01*
X006366Y001193D02*
X006141Y001193D01*
X006037Y001115D02*
X006399Y001115D01*
X006453Y001036D02*
X005867Y001036D01*
X005687Y001036D02*
X005607Y001036D01*
X005607Y001115D02*
X005687Y001115D01*
X005687Y001193D02*
X005607Y001193D01*
X005607Y001272D02*
X005687Y001272D01*
X005687Y001350D02*
X005607Y001350D01*
X005607Y001429D02*
X005687Y001429D01*
X005687Y001507D02*
X005607Y001507D01*
X005607Y001586D02*
X005687Y001586D01*
X005687Y001664D02*
X005607Y001664D01*
X005258Y001115D02*
X001635Y001115D01*
X001635Y001193D02*
X005154Y001193D01*
X005080Y001272D02*
X001635Y001272D01*
X001635Y001350D02*
X005024Y001350D01*
X004981Y001429D02*
X001635Y001429D01*
X001635Y001507D02*
X004950Y001507D01*
X004929Y001586D02*
X001635Y001586D01*
X001635Y001664D02*
X004917Y001664D01*
X005428Y001036D02*
X001635Y001036D01*
X001635Y000987D02*
X001635Y020987D01*
X001642Y021065D01*
X001702Y021209D01*
X001812Y021319D01*
X001957Y021379D01*
X002035Y021387D01*
X025935Y021387D01*
X026004Y021381D01*
X026071Y021363D01*
X026135Y021333D01*
X026192Y021293D01*
X026241Y021244D01*
X026281Y021187D01*
X026311Y021123D01*
X026329Y021056D01*
X026335Y020987D01*
X026329Y021054D02*
X007800Y021054D01*
X007683Y021132D02*
X026306Y021132D01*
X026264Y021211D02*
X007494Y021211D01*
X007175Y021211D02*
X001704Y021211D01*
X001670Y021132D02*
X006986Y021132D01*
X006869Y021054D02*
X001641Y021054D01*
X001635Y020975D02*
X006791Y020975D01*
X006714Y020897D02*
X001635Y020897D01*
X001635Y020818D02*
X006682Y020818D01*
X006649Y020740D02*
X001635Y020740D01*
X001635Y020661D02*
X006617Y020661D01*
X006605Y020583D02*
X001635Y020583D01*
X001635Y020504D02*
X006605Y020504D01*
X006605Y020426D02*
X001635Y020426D01*
X001635Y020347D02*
X006605Y020347D01*
X006635Y020269D02*
X001635Y020269D01*
X001635Y020190D02*
X005623Y020190D01*
X005557Y020112D02*
X001635Y020112D01*
X001635Y020033D02*
X005526Y020033D01*
X005526Y019955D02*
X001635Y019955D01*
X001635Y019876D02*
X005551Y019876D01*
X005608Y019798D02*
X001635Y019798D01*
X001635Y019719D02*
X005830Y019719D01*
X005908Y019641D02*
X001635Y019641D01*
X001635Y019562D02*
X005987Y019562D01*
X006385Y019289D02*
X006385Y017949D01*
X006355Y017919D01*
X006355Y017846D01*
X006256Y017747D01*
X006256Y017566D01*
X006295Y017527D01*
X006277Y017527D01*
X006195Y017445D01*
X005825Y017075D01*
X005825Y017415D01*
X006088Y017678D01*
X006185Y017678D01*
X006314Y017806D01*
X006314Y017987D01*
X006185Y018116D01*
X006004Y018116D01*
X005876Y017987D01*
X005876Y017890D01*
X005613Y017627D01*
X005525Y017539D01*
X005525Y016716D01*
X005456Y016647D01*
X005456Y016466D01*
X005495Y016427D01*
X005343Y016427D01*
X004993Y016777D01*
X004527Y016777D01*
X004445Y016695D01*
X004295Y016545D01*
X004295Y014445D01*
X004136Y014286D01*
X003888Y014534D01*
X003740Y014534D01*
X003740Y014119D01*
X003660Y014119D01*
X003660Y014534D01*
X003511Y014534D01*
X003245Y014267D01*
X003245Y014119D01*
X003660Y014119D01*
X003660Y014039D01*
X003740Y014039D01*
X003740Y013625D01*
X003888Y013625D01*
X004095Y013832D01*
X004095Y010445D01*
X004056Y010406D01*
X003944Y010406D01*
X003816Y010277D01*
X003816Y010096D01*
X003944Y009968D01*
X004125Y009968D01*
X004254Y010096D01*
X004254Y010208D01*
X004293Y010247D01*
X004375Y010329D01*
X004375Y014129D01*
X004493Y014247D01*
X004575Y014329D01*
X004575Y014442D01*
X005510Y013507D01*
X006199Y013507D01*
X006205Y013501D01*
X006205Y012312D01*
X006310Y012207D01*
X008257Y010260D01*
X008257Y010181D01*
X008299Y010079D01*
X008377Y010001D01*
X008479Y009959D01*
X008590Y009959D01*
X008692Y010001D01*
X008770Y010079D01*
X008813Y010181D01*
X008813Y010292D01*
X008770Y010394D01*
X008692Y010472D01*
X008590Y010515D01*
X008511Y010515D01*
X007479Y011547D01*
X007515Y011547D01*
X007594Y011468D01*
X007775Y011468D01*
X007904Y011596D01*
X007904Y011777D01*
X007775Y011906D01*
X007594Y011906D01*
X007529Y011841D01*
X006875Y012495D01*
X006875Y013795D01*
X006425Y014245D01*
X006425Y016295D01*
X006275Y016445D01*
X006275Y016879D01*
X006473Y017077D01*
X007105Y017077D01*
X007184Y016998D01*
X007202Y016998D01*
X007213Y016987D01*
X007373Y016827D01*
X008745Y016827D01*
X008794Y016778D01*
X008975Y016778D01*
X008757Y016815D02*
X006814Y016815D01*
X006758Y016893D02*
X007306Y016893D01*
X007227Y016972D02*
X006368Y016972D01*
X006431Y016893D02*
X006289Y016893D01*
X006275Y016815D02*
X006376Y016815D01*
X006376Y016736D02*
X006275Y016736D01*
X006275Y016658D02*
X006376Y016658D01*
X006452Y016579D02*
X006275Y016579D01*
X006275Y016501D02*
X006558Y016501D01*
X006637Y016422D02*
X006297Y016422D01*
X006376Y016344D02*
X006715Y016344D01*
X006425Y016108D02*
X008846Y016108D01*
X008816Y016030D02*
X006425Y016030D01*
X006425Y015951D02*
X008816Y015951D01*
X008839Y015873D02*
X006425Y015873D01*
X006425Y015794D02*
X008917Y015794D01*
X009152Y015794D02*
X011567Y015794D01*
X011646Y015716D02*
X006425Y015716D01*
X006425Y015637D02*
X010375Y015637D01*
X010316Y015559D02*
X006425Y015559D01*
X006425Y015480D02*
X010316Y015480D01*
X010316Y015402D02*
X006425Y015402D01*
X006425Y015323D02*
X010385Y015323D01*
X010385Y015245D02*
X006425Y015245D01*
X006425Y015166D02*
X010385Y015166D01*
X010385Y015088D02*
X006425Y015088D01*
X006425Y015009D02*
X010385Y015009D01*
X010385Y014931D02*
X006425Y014931D01*
X006425Y014852D02*
X010385Y014852D01*
X010385Y014774D02*
X006425Y014774D01*
X006425Y014695D02*
X010385Y014695D01*
X010385Y014617D02*
X006425Y014617D01*
X006425Y014538D02*
X010385Y014538D01*
X010385Y014460D02*
X006425Y014460D01*
X006425Y014381D02*
X010385Y014381D01*
X010385Y014303D02*
X006425Y014303D01*
X006445Y014224D02*
X010385Y014224D01*
X010385Y014146D02*
X006524Y014146D01*
X006602Y014067D02*
X010385Y014067D01*
X010385Y013989D02*
X006681Y013989D01*
X006759Y013910D02*
X010385Y013910D01*
X010385Y013832D02*
X006838Y013832D01*
X006875Y013753D02*
X010385Y013753D01*
X010385Y013675D02*
X006875Y013675D01*
X006875Y013596D02*
X010385Y013596D01*
X010385Y013518D02*
X006875Y013518D01*
X006875Y013439D02*
X010385Y013439D01*
X010385Y013361D02*
X006875Y013361D01*
X006875Y013282D02*
X010385Y013282D01*
X010385Y013204D02*
X006875Y013204D01*
X006875Y013125D02*
X010385Y013125D01*
X010385Y013047D02*
X006875Y013047D01*
X006875Y012968D02*
X010385Y012968D01*
X010385Y012890D02*
X006875Y012890D01*
X006875Y012811D02*
X010385Y012811D01*
X010385Y012733D02*
X006875Y012733D01*
X006875Y012654D02*
X010385Y012654D01*
X010385Y012576D02*
X006875Y012576D01*
X006875Y012497D02*
X010385Y012497D01*
X010385Y012419D02*
X006951Y012419D01*
X007029Y012340D02*
X010385Y012340D01*
X010385Y012262D02*
X007108Y012262D01*
X007186Y012183D02*
X010385Y012183D01*
X010385Y012105D02*
X007265Y012105D01*
X007343Y012026D02*
X010385Y012026D01*
X010385Y011948D02*
X007422Y011948D01*
X007500Y011869D02*
X007557Y011869D01*
X007485Y011687D02*
X006735Y012437D01*
X006735Y013737D01*
X006285Y014187D01*
X006285Y016237D01*
X006135Y016387D01*
X006135Y016937D01*
X006415Y017217D01*
X007275Y017217D01*
X007255Y017237D01*
X007131Y017050D02*
X006446Y017050D01*
X006335Y017387D02*
X006985Y017387D01*
X007385Y017787D01*
X007202Y017914D02*
X006685Y017914D01*
X006685Y017992D02*
X007280Y017992D01*
X007166Y017835D02*
X006685Y017835D01*
X006684Y017757D02*
X007157Y017757D01*
X007078Y017678D02*
X006694Y017678D01*
X006694Y017600D02*
X007000Y017600D01*
X006343Y017835D02*
X006314Y017835D01*
X006314Y017914D02*
X006355Y017914D01*
X006385Y017992D02*
X006309Y017992D01*
X006385Y018071D02*
X006230Y018071D01*
X006385Y018149D02*
X001635Y018149D01*
X001635Y018071D02*
X005959Y018071D01*
X005880Y017992D02*
X001635Y017992D01*
X001635Y017914D02*
X005876Y017914D01*
X005821Y017835D02*
X001635Y017835D01*
X001635Y017757D02*
X005743Y017757D01*
X005664Y017678D02*
X001635Y017678D01*
X001635Y017600D02*
X005586Y017600D01*
X005525Y017521D02*
X001635Y017521D01*
X001635Y017443D02*
X005525Y017443D01*
X005525Y017364D02*
X001635Y017364D01*
X001635Y017286D02*
X001933Y017286D01*
X001996Y017348D02*
X001730Y017082D01*
X001730Y016934D01*
X002144Y016934D01*
X002144Y016854D01*
X002224Y016854D01*
X002224Y016934D01*
X002638Y016934D01*
X002638Y017082D01*
X002372Y017348D01*
X002224Y017348D01*
X002224Y016934D01*
X002144Y016934D01*
X002144Y017348D01*
X001996Y017348D01*
X002144Y017286D02*
X002224Y017286D01*
X002224Y017207D02*
X002144Y017207D01*
X002144Y017129D02*
X002224Y017129D01*
X002224Y017050D02*
X002144Y017050D01*
X002144Y016972D02*
X002224Y016972D01*
X002224Y016893D02*
X003660Y016893D01*
X003660Y016854D02*
X003245Y016854D01*
X003245Y016706D01*
X003511Y016440D01*
X003660Y016440D01*
X003660Y016854D01*
X003740Y016854D01*
X003740Y016934D01*
X004154Y016934D01*
X004154Y017082D01*
X003888Y017348D01*
X003740Y017348D01*
X003740Y016934D01*
X003660Y016934D01*
X003660Y017348D01*
X003511Y017348D01*
X003245Y017082D01*
X003245Y016934D01*
X003660Y016934D01*
X003660Y016854D01*
X003660Y016815D02*
X003740Y016815D01*
X003740Y016854D02*
X003740Y016440D01*
X003888Y016440D01*
X004154Y016706D01*
X004154Y016854D01*
X003740Y016854D01*
X003740Y016893D02*
X005525Y016893D01*
X005525Y016815D02*
X004154Y016815D01*
X004154Y016736D02*
X004486Y016736D01*
X004408Y016658D02*
X004106Y016658D01*
X004027Y016579D02*
X004329Y016579D01*
X004295Y016501D02*
X003949Y016501D01*
X003740Y016501D02*
X003660Y016501D01*
X003660Y016579D02*
X003740Y016579D01*
X003740Y016658D02*
X003660Y016658D01*
X003660Y016736D02*
X003740Y016736D01*
X003740Y016972D02*
X003660Y016972D01*
X003660Y017050D02*
X003740Y017050D01*
X003740Y017129D02*
X003660Y017129D01*
X003660Y017207D02*
X003740Y017207D01*
X003740Y017286D02*
X003660Y017286D01*
X003449Y017286D02*
X002435Y017286D01*
X002513Y017207D02*
X003370Y017207D01*
X003292Y017129D02*
X002592Y017129D01*
X002638Y017050D02*
X003245Y017050D01*
X003245Y016972D02*
X002638Y016972D01*
X002638Y016854D02*
X002224Y016854D01*
X002224Y016440D01*
X002372Y016440D01*
X002638Y016706D01*
X002638Y016854D01*
X002638Y016815D02*
X003245Y016815D01*
X003245Y016736D02*
X002638Y016736D01*
X002590Y016658D02*
X003294Y016658D01*
X003372Y016579D02*
X002511Y016579D01*
X002433Y016501D02*
X003451Y016501D01*
X003219Y016364D02*
X003091Y016492D01*
X002910Y016492D01*
X002783Y016364D01*
X002783Y016184D01*
X002910Y016056D01*
X003091Y016056D01*
X003219Y016184D01*
X003219Y016364D01*
X003219Y016344D02*
X004295Y016344D01*
X004295Y016422D02*
X003161Y016422D01*
X003219Y016265D02*
X004295Y016265D01*
X004295Y016187D02*
X003219Y016187D01*
X003143Y016108D02*
X004295Y016108D01*
X004295Y016030D02*
X001635Y016030D01*
X001635Y016108D02*
X002858Y016108D01*
X002783Y016187D02*
X001635Y016187D01*
X001635Y016265D02*
X002783Y016265D01*
X002783Y016344D02*
X001635Y016344D01*
X001635Y016422D02*
X002840Y016422D01*
X002224Y016501D02*
X002144Y016501D01*
X002144Y016440D02*
X002144Y016854D01*
X001730Y016854D01*
X001730Y016706D01*
X001996Y016440D01*
X002144Y016440D01*
X002144Y016579D02*
X002224Y016579D01*
X002224Y016658D02*
X002144Y016658D01*
X002144Y016736D02*
X002224Y016736D01*
X002224Y016815D02*
X002144Y016815D01*
X002144Y016893D02*
X001635Y016893D01*
X001635Y016815D02*
X001730Y016815D01*
X001730Y016736D02*
X001635Y016736D01*
X001635Y016658D02*
X001778Y016658D01*
X001856Y016579D02*
X001635Y016579D01*
X001635Y016501D02*
X001935Y016501D01*
X001730Y016972D02*
X001635Y016972D01*
X001635Y017050D02*
X001730Y017050D01*
X001776Y017129D02*
X001635Y017129D01*
X001635Y017207D02*
X001854Y017207D01*
X001635Y018228D02*
X006385Y018228D01*
X006385Y018306D02*
X001635Y018306D01*
X001635Y018385D02*
X006385Y018385D01*
X006385Y018463D02*
X001635Y018463D01*
X001635Y018542D02*
X006385Y018542D01*
X006385Y018620D02*
X001635Y018620D01*
X001635Y018699D02*
X006385Y018699D01*
X006385Y018777D02*
X001635Y018777D01*
X001635Y018856D02*
X006385Y018856D01*
X006385Y018934D02*
X001635Y018934D01*
X001635Y019013D02*
X006385Y019013D01*
X006385Y019091D02*
X001635Y019091D01*
X001635Y019170D02*
X006385Y019170D01*
X006385Y019248D02*
X001635Y019248D01*
X001635Y019484D02*
X006580Y019484D01*
X006913Y019876D02*
X006097Y019876D01*
X006043Y019955D02*
X006834Y019955D01*
X006756Y020033D02*
X006043Y020033D01*
X006013Y020112D02*
X006700Y020112D01*
X006667Y020190D02*
X005947Y020190D01*
X007756Y019876D02*
X009333Y019876D01*
X009254Y019955D02*
X007835Y019955D01*
X007901Y019170D02*
X007989Y019170D01*
X007974Y019091D02*
X008035Y019091D01*
X008035Y019013D02*
X007974Y019013D01*
X007974Y018934D02*
X008035Y018934D01*
X008035Y018856D02*
X007913Y018856D01*
X007855Y018777D02*
X008035Y018777D01*
X008035Y018699D02*
X007855Y018699D01*
X007855Y018620D02*
X008035Y018620D01*
X008035Y018542D02*
X007855Y018542D01*
X007855Y018463D02*
X008035Y018463D01*
X008035Y018385D02*
X007855Y018385D01*
X007855Y018306D02*
X008034Y018306D01*
X007966Y018228D02*
X007855Y018228D01*
X007894Y018149D02*
X007966Y018149D01*
X006265Y017757D02*
X006264Y017757D01*
X006256Y017678D02*
X006186Y017678D01*
X006256Y017600D02*
X006010Y017600D01*
X005931Y017521D02*
X006271Y017521D01*
X006193Y017443D02*
X005853Y017443D01*
X005825Y017364D02*
X006114Y017364D01*
X006036Y017286D02*
X005825Y017286D01*
X005825Y017207D02*
X005957Y017207D01*
X005879Y017129D02*
X005825Y017129D01*
X005955Y017007D02*
X006335Y017387D01*
X005955Y017007D02*
X005955Y016387D01*
X005855Y016287D01*
X005285Y016287D01*
X004935Y016637D01*
X004585Y016637D01*
X004435Y016487D01*
X004435Y014387D01*
X004235Y014187D01*
X004235Y010387D01*
X004035Y010187D01*
X003816Y010221D02*
X001635Y010221D01*
X001635Y010299D02*
X003837Y010299D01*
X003916Y010378D02*
X001635Y010378D01*
X001635Y010456D02*
X004095Y010456D01*
X004095Y010535D02*
X001635Y010535D01*
X001635Y010613D02*
X004095Y010613D01*
X004095Y010692D02*
X001635Y010692D01*
X001635Y010770D02*
X004095Y010770D01*
X004095Y010849D02*
X001635Y010849D01*
X001635Y010927D02*
X004095Y010927D01*
X004095Y011006D02*
X001635Y011006D01*
X001635Y011084D02*
X004095Y011084D01*
X004095Y011163D02*
X001635Y011163D01*
X001635Y011241D02*
X004095Y011241D01*
X004095Y011320D02*
X001635Y011320D01*
X001635Y011398D02*
X004095Y011398D01*
X004095Y011477D02*
X001635Y011477D01*
X001635Y011555D02*
X004095Y011555D01*
X004095Y011634D02*
X001635Y011634D01*
X001635Y011712D02*
X004095Y011712D01*
X004095Y011791D02*
X001635Y011791D01*
X001635Y011869D02*
X004095Y011869D01*
X004095Y011948D02*
X001635Y011948D01*
X001635Y012026D02*
X004095Y012026D01*
X004095Y012105D02*
X001635Y012105D01*
X001635Y012183D02*
X004095Y012183D01*
X004095Y012262D02*
X001635Y012262D01*
X001635Y012340D02*
X004095Y012340D01*
X004095Y012419D02*
X001635Y012419D01*
X001635Y012497D02*
X004095Y012497D01*
X004095Y012576D02*
X001635Y012576D01*
X001635Y012654D02*
X004095Y012654D01*
X004095Y012733D02*
X001635Y012733D01*
X001635Y012811D02*
X004095Y012811D01*
X004095Y012890D02*
X001635Y012890D01*
X001635Y012968D02*
X004095Y012968D01*
X004095Y013047D02*
X001635Y013047D01*
X001635Y013125D02*
X004095Y013125D01*
X004095Y013204D02*
X001635Y013204D01*
X001635Y013282D02*
X004095Y013282D01*
X004095Y013361D02*
X001635Y013361D01*
X001635Y013439D02*
X004095Y013439D01*
X004095Y013518D02*
X001635Y013518D01*
X001635Y013596D02*
X004095Y013596D01*
X004095Y013675D02*
X003938Y013675D01*
X004016Y013753D02*
X004095Y013753D01*
X004375Y013753D02*
X005264Y013753D01*
X005342Y013675D02*
X004375Y013675D01*
X004375Y013596D02*
X005421Y013596D01*
X005499Y013518D02*
X004375Y013518D01*
X004375Y013439D02*
X006205Y013439D01*
X006205Y013361D02*
X004375Y013361D01*
X004375Y013282D02*
X006205Y013282D01*
X006205Y013204D02*
X004375Y013204D01*
X004375Y013125D02*
X006205Y013125D01*
X006205Y013047D02*
X004375Y013047D01*
X004375Y012968D02*
X006205Y012968D01*
X006205Y012890D02*
X004375Y012890D01*
X004375Y012811D02*
X006205Y012811D01*
X006205Y012733D02*
X004375Y012733D01*
X004375Y012654D02*
X006205Y012654D01*
X006205Y012576D02*
X004375Y012576D01*
X004375Y012497D02*
X006205Y012497D01*
X006205Y012419D02*
X004375Y012419D01*
X004375Y012340D02*
X006205Y012340D01*
X006255Y012262D02*
X004375Y012262D01*
X004375Y012183D02*
X006334Y012183D01*
X006412Y012105D02*
X004375Y012105D01*
X004375Y012026D02*
X006491Y012026D01*
X006569Y011948D02*
X004375Y011948D01*
X004375Y011869D02*
X006648Y011869D01*
X006726Y011791D02*
X004375Y011791D01*
X004375Y011712D02*
X006805Y011712D01*
X006883Y011634D02*
X004375Y011634D01*
X004375Y011555D02*
X006962Y011555D01*
X007040Y011477D02*
X004375Y011477D01*
X004375Y011398D02*
X007119Y011398D01*
X007197Y011320D02*
X004375Y011320D01*
X004375Y011241D02*
X007276Y011241D01*
X007354Y011163D02*
X004375Y011163D01*
X004375Y011084D02*
X007433Y011084D01*
X007511Y011006D02*
X004375Y011006D01*
X004375Y010927D02*
X007590Y010927D01*
X007668Y010849D02*
X004375Y010849D01*
X004375Y010770D02*
X007747Y010770D01*
X007825Y010692D02*
X004375Y010692D01*
X004375Y010613D02*
X007904Y010613D01*
X007982Y010535D02*
X004375Y010535D01*
X004375Y010456D02*
X008061Y010456D01*
X008139Y010378D02*
X004375Y010378D01*
X004345Y010299D02*
X008218Y010299D01*
X008257Y010221D02*
X004267Y010221D01*
X004254Y010142D02*
X008273Y010142D01*
X008314Y010064D02*
X004221Y010064D01*
X004143Y009985D02*
X008415Y009985D01*
X008654Y009985D02*
X010385Y009985D01*
X010385Y009907D02*
X001635Y009907D01*
X001635Y009985D02*
X003926Y009985D01*
X003848Y010064D02*
X001635Y010064D01*
X001635Y010142D02*
X003816Y010142D01*
X004615Y009514D02*
X001635Y009514D01*
X001635Y009436D02*
X004593Y009436D01*
X004590Y009357D02*
X001635Y009357D01*
X001635Y009279D02*
X004595Y009279D01*
X004595Y009200D02*
X001635Y009200D01*
X001635Y009122D02*
X004595Y009122D01*
X004595Y009043D02*
X001635Y009043D01*
X001635Y008965D02*
X004595Y008965D01*
X004595Y008886D02*
X001635Y008886D01*
X001635Y008808D02*
X004595Y008808D01*
X004595Y008729D02*
X001635Y008729D01*
X001635Y008651D02*
X004595Y008651D01*
X004595Y008572D02*
X001635Y008572D01*
X001635Y008494D02*
X004595Y008494D01*
X004595Y008415D02*
X001635Y008415D01*
X001635Y008337D02*
X004595Y008337D01*
X004595Y008258D02*
X001635Y008258D01*
X001635Y008180D02*
X004595Y008180D01*
X004595Y008101D02*
X001635Y008101D01*
X001635Y008023D02*
X004595Y008023D01*
X004595Y007944D02*
X001635Y007944D01*
X001635Y007866D02*
X004595Y007866D01*
X004595Y007787D02*
X001635Y007787D01*
X001635Y007709D02*
X004595Y007709D01*
X004595Y007630D02*
X001635Y007630D01*
X001635Y007552D02*
X004595Y007552D01*
X004595Y007473D02*
X001635Y007473D01*
X001635Y007395D02*
X004595Y007395D01*
X004595Y007316D02*
X001635Y007316D01*
X001635Y007238D02*
X004595Y007238D01*
X004595Y007159D02*
X001635Y007159D01*
X001635Y007081D02*
X004595Y007081D01*
X004595Y007002D02*
X001635Y007002D01*
X001635Y006924D02*
X004595Y006924D01*
X004595Y006845D02*
X001635Y006845D01*
X001635Y006767D02*
X004595Y006767D01*
X004595Y006688D02*
X001635Y006688D01*
X001635Y006610D02*
X004595Y006610D01*
X004595Y006531D02*
X001635Y006531D01*
X001635Y006453D02*
X004595Y006453D01*
X004595Y006374D02*
X001635Y006374D01*
X001635Y006296D02*
X004595Y006296D01*
X004595Y006217D02*
X001635Y006217D01*
X001635Y006139D02*
X004595Y006139D01*
X004595Y006060D02*
X001635Y006060D01*
X001635Y005982D02*
X004595Y005982D01*
X004595Y005903D02*
X001635Y005903D01*
X001635Y005825D02*
X004595Y005825D01*
X004595Y005746D02*
X001635Y005746D01*
X001635Y005668D02*
X004595Y005668D01*
X004595Y005589D02*
X001635Y005589D01*
X001635Y005511D02*
X004595Y005511D01*
X004595Y005432D02*
X001635Y005432D01*
X001635Y005354D02*
X004595Y005354D01*
X004595Y005275D02*
X001635Y005275D01*
X001635Y005197D02*
X004593Y005197D01*
X004600Y005118D02*
X001635Y005118D01*
X001635Y005040D02*
X004627Y005040D01*
X004676Y004961D02*
X001635Y004961D01*
X001635Y004883D02*
X004778Y004883D01*
X004625Y004385D02*
X004519Y004398D01*
X004506Y004398D01*
X004506Y003627D01*
X004426Y003627D01*
X004426Y004398D01*
X004413Y004398D01*
X004307Y004385D01*
X004205Y004357D01*
X004106Y004316D01*
X004014Y004263D01*
X003930Y004198D01*
X003854Y004123D01*
X003790Y004039D01*
X003736Y003946D01*
X003696Y003848D01*
X003668Y003745D01*
X003654Y003640D01*
X003654Y003627D01*
X001635Y003627D01*
X001635Y003705D02*
X003663Y003705D01*
X003654Y003627D02*
X004426Y003627D01*
X004506Y003627D01*
X005278Y003627D01*
X006017Y003627D01*
X006017Y003705D02*
X005269Y003705D01*
X005264Y003745D02*
X005237Y003848D01*
X005196Y003946D01*
X005143Y004039D01*
X005078Y004123D01*
X005003Y004198D01*
X004918Y004263D01*
X004826Y004316D01*
X004728Y004357D01*
X004625Y004385D01*
X004506Y004333D02*
X004426Y004333D01*
X004426Y004255D02*
X004506Y004255D01*
X004506Y004176D02*
X004426Y004176D01*
X004426Y004098D02*
X004506Y004098D01*
X004506Y004019D02*
X004426Y004019D01*
X004426Y003941D02*
X004506Y003941D01*
X004506Y003862D02*
X004426Y003862D01*
X004426Y003784D02*
X004506Y003784D01*
X004506Y003705D02*
X004426Y003705D01*
X004426Y003627D02*
X004426Y003547D01*
X003654Y003547D01*
X003654Y003533D01*
X003668Y003428D01*
X003696Y003325D01*
X003736Y003227D01*
X003790Y003135D01*
X003854Y003050D01*
X003930Y002975D01*
X004014Y002910D01*
X004106Y002857D01*
X004205Y002816D01*
X004307Y002789D01*
X004413Y002775D01*
X004426Y002775D01*
X004426Y003547D01*
X004506Y003547D01*
X004506Y003627D01*
X004506Y003548D02*
X006017Y003548D01*
X006017Y003470D02*
X005270Y003470D01*
X005264Y003428D02*
X005278Y003533D01*
X005278Y003547D01*
X004506Y003547D01*
X004506Y002775D01*
X004519Y002775D01*
X004625Y002789D01*
X004728Y002816D01*
X004826Y002857D01*
X004918Y002910D01*
X005003Y002975D01*
X005078Y003050D01*
X005143Y003135D01*
X005196Y003227D01*
X005237Y003325D01*
X005264Y003428D01*
X005254Y003391D02*
X006031Y003391D01*
X006063Y003313D02*
X005231Y003313D01*
X005199Y003234D02*
X006096Y003234D01*
X006128Y003156D02*
X005155Y003156D01*
X005098Y003077D02*
X006190Y003077D01*
X006268Y002999D02*
X005026Y002999D01*
X004931Y002920D02*
X006347Y002920D01*
X006506Y002842D02*
X004789Y002842D01*
X004506Y002842D02*
X004426Y002842D01*
X004426Y002920D02*
X004506Y002920D01*
X004506Y002999D02*
X004426Y002999D01*
X004426Y003077D02*
X004506Y003077D01*
X004506Y003156D02*
X004426Y003156D01*
X004426Y003234D02*
X004506Y003234D01*
X004506Y003313D02*
X004426Y003313D01*
X004426Y003391D02*
X004506Y003391D01*
X004506Y003470D02*
X004426Y003470D01*
X004426Y003548D02*
X001635Y003548D01*
X001635Y003470D02*
X003663Y003470D01*
X003678Y003391D02*
X001635Y003391D01*
X001635Y003313D02*
X003701Y003313D01*
X003733Y003234D02*
X001635Y003234D01*
X001635Y003156D02*
X003778Y003156D01*
X003834Y003077D02*
X001635Y003077D01*
X001635Y002999D02*
X003906Y002999D01*
X004001Y002920D02*
X001635Y002920D01*
X001635Y002842D02*
X004143Y002842D01*
X003678Y003784D02*
X001635Y003784D01*
X001635Y003862D02*
X003702Y003862D01*
X003734Y003941D02*
X001635Y003941D01*
X001635Y004019D02*
X003778Y004019D01*
X003835Y004098D02*
X001635Y004098D01*
X001635Y004176D02*
X003908Y004176D01*
X004003Y004255D02*
X001635Y004255D01*
X001635Y004333D02*
X004147Y004333D01*
X004785Y004333D02*
X006509Y004333D01*
X006348Y004255D02*
X004929Y004255D01*
X005025Y004176D02*
X006270Y004176D01*
X006191Y004098D02*
X005097Y004098D01*
X005154Y004019D02*
X006129Y004019D01*
X006096Y003941D02*
X005198Y003941D01*
X005231Y003862D02*
X006064Y003862D01*
X006031Y003784D02*
X005254Y003784D01*
X005264Y003745D02*
X005278Y003640D01*
X005278Y003627D01*
X007187Y002214D02*
X014385Y002214D01*
X014385Y002135D02*
X007376Y002135D01*
X007497Y002057D02*
X014385Y002057D01*
X014385Y001978D02*
X007575Y001978D01*
X007654Y001900D02*
X014304Y001900D01*
X014204Y001821D02*
X007686Y001821D01*
X007719Y001743D02*
X014132Y001743D01*
X014099Y001664D02*
X007751Y001664D01*
X007765Y001586D02*
X014067Y001586D01*
X014065Y001507D02*
X007765Y001507D01*
X007765Y001429D02*
X014065Y001429D01*
X014082Y001350D02*
X007765Y001350D01*
X007736Y001272D02*
X014115Y001272D01*
X014163Y001193D02*
X007703Y001193D01*
X007671Y001115D02*
X014242Y001115D01*
X014394Y001036D02*
X007616Y001036D01*
X007538Y000958D02*
X026332Y000958D01*
X026335Y001036D02*
X025675Y001036D01*
X025827Y001115D02*
X026242Y001115D01*
X026318Y000879D02*
X007459Y000879D01*
X007286Y000801D02*
X026288Y000801D01*
X026234Y000722D02*
X001744Y000722D01*
X001687Y000801D02*
X006783Y000801D01*
X006610Y000879D02*
X001655Y000879D01*
X001644Y000904D02*
X001642Y000913D01*
X001635Y000987D01*
X001635Y000987D01*
X001638Y000958D02*
X006531Y000958D01*
X001838Y000644D02*
X026140Y000644D01*
X024535Y001487D02*
X024535Y001837D01*
X024335Y002037D01*
X024085Y002037D01*
X022485Y003637D01*
X022185Y003637D01*
X018885Y006937D01*
X018885Y012387D01*
X019635Y013137D01*
X019835Y013137D01*
X019985Y012987D01*
X019985Y012787D01*
X020285Y012487D01*
X020335Y012487D01*
X020554Y012497D02*
X021464Y012497D01*
X021386Y012576D02*
X020554Y012576D01*
X020477Y012654D02*
X021107Y012654D01*
X021029Y012733D02*
X020237Y012733D01*
X020158Y012811D02*
X021016Y012811D01*
X021016Y012890D02*
X020125Y012890D01*
X020125Y012968D02*
X021056Y012968D01*
X021135Y013047D02*
X020123Y013047D01*
X020044Y013125D02*
X021235Y013125D01*
X021235Y013204D02*
X019966Y013204D01*
X019890Y013282D02*
X021235Y013282D01*
X021235Y013361D02*
X020218Y013361D01*
X020297Y013439D02*
X021235Y013439D01*
X021235Y013518D02*
X020304Y013518D01*
X020304Y013596D02*
X021235Y013596D01*
X021235Y013675D02*
X020256Y013675D01*
X020178Y013753D02*
X021235Y013753D01*
X021235Y013832D02*
X016185Y013832D01*
X016185Y013910D02*
X021235Y013910D01*
X021235Y013989D02*
X016185Y013989D01*
X016185Y014067D02*
X021235Y014067D01*
X021235Y014146D02*
X016185Y014146D01*
X016185Y014224D02*
X021235Y014224D01*
X021235Y014303D02*
X016185Y014303D01*
X016185Y014381D02*
X021235Y014381D01*
X021235Y014460D02*
X016185Y014460D01*
X016185Y014538D02*
X021235Y014538D01*
X021235Y014617D02*
X016185Y014617D01*
X016185Y014695D02*
X021235Y014695D01*
X021235Y014774D02*
X016185Y014774D01*
X016185Y014852D02*
X021235Y014852D01*
X021235Y014931D02*
X016185Y014931D01*
X016185Y015009D02*
X021235Y015009D01*
X021235Y015088D02*
X016185Y015088D01*
X016185Y015166D02*
X021235Y015166D01*
X021235Y015245D02*
X016185Y015245D01*
X016185Y015323D02*
X021235Y015323D01*
X021235Y015402D02*
X016185Y015402D01*
X016185Y015480D02*
X021235Y015480D01*
X021235Y015559D02*
X016185Y015559D01*
X016185Y015637D02*
X021235Y015637D01*
X021235Y015716D02*
X016185Y015716D01*
X016185Y015794D02*
X021235Y015794D01*
X021235Y015873D02*
X016185Y015873D01*
X016185Y015951D02*
X021235Y015951D01*
X021235Y016030D02*
X016185Y016030D01*
X016185Y016108D02*
X021235Y016108D01*
X021235Y016187D02*
X016185Y016187D01*
X016185Y016265D02*
X021235Y016265D01*
X021235Y016344D02*
X016185Y016344D01*
X016185Y016422D02*
X018739Y016422D01*
X018744Y016418D02*
X018925Y016418D01*
X018994Y016487D01*
X019097Y016487D01*
X019197Y016587D01*
X020847Y016587D01*
X020878Y016618D01*
X020975Y016618D01*
X021104Y016746D01*
X021104Y016927D01*
X020975Y017056D01*
X020854Y017056D01*
X020854Y017227D01*
X020725Y017356D01*
X020544Y017356D01*
X020454Y017266D01*
X020454Y017377D01*
X020344Y017487D01*
X020454Y017596D01*
X020454Y017777D01*
X020325Y017906D01*
X020144Y017906D01*
X020075Y017837D01*
X019947Y017837D01*
X019854Y017930D01*
X019854Y018027D01*
X019725Y018156D01*
X019544Y018156D01*
X019416Y018027D01*
X019416Y017846D01*
X019544Y017718D01*
X019642Y017718D01*
X019823Y017537D01*
X020075Y017537D01*
X020125Y017487D01*
X020075Y017437D01*
X019444Y017437D01*
X019375Y017506D01*
X019194Y017506D01*
X019066Y017377D01*
X019066Y017206D01*
X018894Y017206D01*
X018766Y017077D01*
X018766Y016896D01*
X018806Y016856D01*
X018744Y016856D01*
X018616Y016727D01*
X018616Y016546D01*
X018744Y016418D01*
X018661Y016501D02*
X016185Y016501D01*
X016185Y016579D02*
X018616Y016579D01*
X018616Y016658D02*
X016185Y016658D01*
X016246Y016736D02*
X018624Y016736D01*
X018703Y016815D02*
X016325Y016815D01*
X016403Y016893D02*
X018768Y016893D01*
X018766Y016972D02*
X016482Y016972D01*
X016560Y017050D02*
X018766Y017050D01*
X018817Y017129D02*
X016639Y017129D01*
X016685Y017207D02*
X019066Y017207D01*
X019066Y017286D02*
X016685Y017286D01*
X016685Y017364D02*
X019066Y017364D01*
X019131Y017443D02*
X016685Y017443D01*
X016685Y017521D02*
X020090Y017521D01*
X020081Y017443D02*
X019438Y017443D01*
X019681Y017678D02*
X016688Y017678D01*
X016685Y017600D02*
X019759Y017600D01*
X019505Y017757D02*
X016767Y017757D01*
X016943Y017835D02*
X019426Y017835D01*
X019416Y017914D02*
X017004Y017914D01*
X017004Y017992D02*
X019416Y017992D01*
X019459Y018071D02*
X017004Y018071D01*
X016932Y018149D02*
X019537Y018149D01*
X019732Y018149D02*
X021235Y018149D01*
X021235Y018071D02*
X019810Y018071D01*
X019854Y017992D02*
X021235Y017992D01*
X021235Y017914D02*
X019870Y017914D01*
X020396Y017835D02*
X021235Y017835D01*
X021235Y017757D02*
X020454Y017757D01*
X020454Y017678D02*
X021235Y017678D01*
X021235Y017600D02*
X020454Y017600D01*
X020379Y017521D02*
X021235Y017521D01*
X021235Y017443D02*
X020388Y017443D01*
X020454Y017364D02*
X021235Y017364D01*
X021235Y017286D02*
X020795Y017286D01*
X020854Y017207D02*
X021235Y017207D01*
X021235Y017129D02*
X020854Y017129D01*
X020981Y017050D02*
X021235Y017050D01*
X021235Y016972D02*
X021059Y016972D01*
X021104Y016893D02*
X021235Y016893D01*
X021235Y016815D02*
X021104Y016815D01*
X021094Y016736D02*
X021235Y016736D01*
X021235Y016658D02*
X021015Y016658D01*
X021235Y016579D02*
X019189Y016579D01*
X019111Y016501D02*
X021235Y016501D01*
X021235Y016422D02*
X018930Y016422D01*
X020454Y017286D02*
X020474Y017286D01*
X021235Y018228D02*
X016254Y018228D01*
X016254Y018306D02*
X021235Y018306D01*
X021235Y018385D02*
X016196Y018385D01*
X016254Y018149D02*
X016637Y018149D01*
X016566Y018071D02*
X016178Y018071D01*
X015891Y018071D02*
X015831Y018071D01*
X015805Y017992D02*
X016566Y017992D01*
X016500Y017914D02*
X015805Y017914D01*
X015805Y017835D02*
X016421Y017835D01*
X016385Y017757D02*
X015805Y017757D01*
X015805Y017678D02*
X016385Y017678D01*
X016385Y017600D02*
X015805Y017600D01*
X015805Y017521D02*
X016385Y017521D01*
X016385Y017443D02*
X015831Y017443D01*
X015909Y017364D02*
X016385Y017364D01*
X016372Y017286D02*
X015935Y017286D01*
X015935Y017207D02*
X016293Y017207D01*
X016215Y017129D02*
X015935Y017129D01*
X015935Y017050D02*
X016136Y017050D01*
X016058Y016972D02*
X015935Y016972D01*
X015935Y016893D02*
X015979Y016893D01*
X015635Y016893D02*
X015185Y016893D01*
X015185Y016815D02*
X015635Y016815D01*
X015635Y016736D02*
X015185Y016736D01*
X015185Y016658D02*
X015635Y016658D01*
X015635Y016579D02*
X015185Y016579D01*
X015185Y016501D02*
X015635Y016501D01*
X015635Y016422D02*
X015185Y016422D01*
X015185Y016344D02*
X015635Y016344D01*
X015635Y016265D02*
X015185Y016265D01*
X015185Y016187D02*
X015635Y016187D01*
X015635Y016108D02*
X015185Y016108D01*
X015185Y016030D02*
X015635Y016030D01*
X015635Y015951D02*
X015185Y015951D01*
X015185Y015873D02*
X015635Y015873D01*
X015635Y015794D02*
X015185Y015794D01*
X015185Y015716D02*
X015635Y015716D01*
X015635Y015637D02*
X015185Y015637D01*
X015185Y015559D02*
X015635Y015559D01*
X015635Y015480D02*
X015185Y015480D01*
X015185Y015402D02*
X015635Y015402D01*
X015635Y015323D02*
X015185Y015323D01*
X015185Y015245D02*
X015635Y015245D01*
X015635Y015166D02*
X015185Y015166D01*
X015185Y015088D02*
X015635Y015088D01*
X015635Y015009D02*
X015185Y015009D01*
X015185Y014931D02*
X015635Y014931D01*
X015635Y014852D02*
X015185Y014852D01*
X015185Y014774D02*
X015635Y014774D01*
X015635Y014695D02*
X015185Y014695D01*
X015185Y014617D02*
X015635Y014617D01*
X015635Y014538D02*
X015185Y014538D01*
X015185Y014460D02*
X015635Y014460D01*
X015635Y014381D02*
X015185Y014381D01*
X015185Y014303D02*
X015635Y014303D01*
X015635Y014224D02*
X015185Y014224D01*
X015185Y014146D02*
X015635Y014146D01*
X015635Y014067D02*
X015185Y014067D01*
X015185Y013989D02*
X015635Y013989D01*
X015635Y013910D02*
X015185Y013910D01*
X015185Y013832D02*
X015635Y013832D01*
X015635Y013753D02*
X015185Y013753D01*
X015185Y013675D02*
X015635Y013675D01*
X015635Y013596D02*
X015185Y013596D01*
X015185Y013518D02*
X015604Y013518D01*
X015525Y013439D02*
X015185Y013439D01*
X015185Y013361D02*
X015447Y013361D01*
X015385Y013282D02*
X015185Y013282D01*
X015185Y013204D02*
X015385Y013204D01*
X015385Y013125D02*
X015185Y013125D01*
X015185Y013047D02*
X015385Y013047D01*
X015385Y012968D02*
X015185Y012968D01*
X015185Y012890D02*
X015385Y012890D01*
X015385Y012811D02*
X015185Y012811D01*
X015185Y012733D02*
X015385Y012733D01*
X015385Y012654D02*
X015185Y012654D01*
X015185Y012576D02*
X015385Y012576D01*
X015385Y012497D02*
X015185Y012497D01*
X015185Y012419D02*
X015385Y012419D01*
X015385Y012340D02*
X015185Y012340D01*
X015185Y012262D02*
X015385Y012262D01*
X015385Y012183D02*
X015185Y012183D01*
X015185Y012105D02*
X015385Y012105D01*
X015385Y012026D02*
X015185Y012026D01*
X015185Y011948D02*
X015385Y011948D01*
X015385Y011869D02*
X015185Y011869D01*
X015185Y011791D02*
X015385Y011791D01*
X015385Y011712D02*
X015185Y011712D01*
X015185Y011634D02*
X015385Y011634D01*
X015385Y011555D02*
X015185Y011555D01*
X015185Y011477D02*
X015385Y011477D01*
X015385Y011398D02*
X015185Y011398D01*
X015185Y011320D02*
X015385Y011320D01*
X015385Y011241D02*
X015185Y011241D01*
X015185Y011163D02*
X015385Y011163D01*
X015385Y011084D02*
X015185Y011084D01*
X015185Y011006D02*
X015385Y011006D01*
X015385Y010927D02*
X015185Y010927D01*
X015185Y010849D02*
X015385Y010849D01*
X015385Y010770D02*
X015185Y010770D01*
X015185Y010692D02*
X015385Y010692D01*
X015385Y010613D02*
X015185Y010613D01*
X015185Y010535D02*
X015385Y010535D01*
X015385Y010456D02*
X015185Y010456D01*
X015185Y010378D02*
X015385Y010378D01*
X015385Y010299D02*
X015185Y010299D01*
X015185Y010221D02*
X015385Y010221D01*
X015385Y010142D02*
X015185Y010142D01*
X015185Y010064D02*
X015385Y010064D01*
X015385Y009985D02*
X015185Y009985D01*
X015185Y009907D02*
X015385Y009907D01*
X015385Y009828D02*
X015185Y009828D01*
X015185Y009750D02*
X015385Y009750D01*
X015385Y009671D02*
X015185Y009671D01*
X015185Y009593D02*
X015385Y009593D01*
X015385Y009514D02*
X015185Y009514D01*
X015185Y009436D02*
X015385Y009436D01*
X015385Y009357D02*
X015185Y009357D01*
X015185Y009279D02*
X015385Y009279D01*
X015385Y009200D02*
X015185Y009200D01*
X015185Y009122D02*
X015385Y009122D01*
X015385Y009043D02*
X015240Y009043D01*
X015319Y008965D02*
X015385Y008965D01*
X016035Y009087D02*
X016035Y013037D01*
X016335Y013337D01*
X019235Y013337D01*
X019585Y013687D01*
X019935Y013687D01*
X020085Y013537D01*
X019735Y013437D02*
X019685Y013437D01*
X018860Y012612D01*
X018785Y012537D01*
X018735Y012487D01*
X018735Y006837D01*
X022135Y003437D01*
X022435Y003437D01*
X023535Y002337D01*
X023381Y002292D02*
X019597Y002292D01*
X019675Y002214D02*
X023395Y002214D01*
X023395Y002135D02*
X019754Y002135D01*
X019787Y002057D02*
X023395Y002057D01*
X023204Y001821D02*
X022865Y001821D01*
X022937Y001743D02*
X023132Y001743D01*
X023303Y002371D02*
X019518Y002371D01*
X019440Y002449D02*
X023224Y002449D01*
X023146Y002528D02*
X019361Y002528D01*
X019283Y002606D02*
X023067Y002606D01*
X022989Y002685D02*
X019204Y002685D01*
X019126Y002763D02*
X022910Y002763D01*
X022832Y002842D02*
X019047Y002842D01*
X018969Y002920D02*
X022753Y002920D01*
X022675Y002999D02*
X015640Y002999D01*
X015562Y003077D02*
X022596Y003077D01*
X022518Y003156D02*
X015483Y003156D01*
X015405Y003234D02*
X022439Y003234D01*
X022061Y003313D02*
X015326Y003313D01*
X015248Y003391D02*
X021982Y003391D01*
X021904Y003470D02*
X015169Y003470D01*
X015091Y003548D02*
X021825Y003548D01*
X021747Y003627D02*
X015012Y003627D01*
X014934Y003705D02*
X021668Y003705D01*
X021590Y003784D02*
X014855Y003784D01*
X014777Y003862D02*
X021511Y003862D01*
X021433Y003941D02*
X014698Y003941D01*
X014620Y004019D02*
X021354Y004019D01*
X021276Y004098D02*
X014541Y004098D01*
X014463Y004176D02*
X021197Y004176D01*
X021119Y004255D02*
X014384Y004255D01*
X014306Y004333D02*
X021040Y004333D01*
X020962Y004412D02*
X014227Y004412D01*
X014149Y004490D02*
X020883Y004490D01*
X020805Y004569D02*
X014070Y004569D01*
X013992Y004647D02*
X020726Y004647D01*
X020648Y004726D02*
X013913Y004726D01*
X013835Y004804D02*
X020569Y004804D01*
X020491Y004883D02*
X013756Y004883D01*
X013678Y004961D02*
X020412Y004961D01*
X020334Y005040D02*
X013599Y005040D01*
X013521Y005118D02*
X020255Y005118D01*
X020177Y005197D02*
X013442Y005197D01*
X014052Y007395D02*
X014935Y007395D01*
X014935Y007473D02*
X014104Y007473D01*
X014104Y007552D02*
X014935Y007552D01*
X014935Y007630D02*
X014101Y007630D01*
X014035Y007709D02*
X014935Y007709D01*
X014935Y007787D02*
X014445Y007787D01*
X014504Y007866D02*
X014935Y007866D01*
X014935Y007944D02*
X014504Y007944D01*
X014504Y008023D02*
X014935Y008023D01*
X014935Y008101D02*
X014435Y008101D01*
X014435Y008180D02*
X014935Y008180D01*
X014935Y008258D02*
X014866Y008258D01*
X014603Y008258D02*
X014435Y008258D01*
X014435Y008337D02*
X014525Y008337D01*
X014516Y008415D02*
X014435Y008415D01*
X014435Y008494D02*
X014465Y008494D01*
X014066Y007944D02*
X014054Y007944D01*
X014066Y007866D02*
X014035Y007866D01*
X014035Y007787D02*
X014124Y007787D01*
X013417Y007944D02*
X010685Y007944D01*
X010685Y008023D02*
X013339Y008023D01*
X013316Y008101D02*
X010685Y008101D01*
X010685Y008180D02*
X013316Y008180D01*
X013346Y008258D02*
X010685Y008258D01*
X010685Y008337D02*
X013425Y008337D01*
X013615Y008415D02*
X010685Y008415D01*
X010685Y008494D02*
X013645Y008494D01*
X013645Y008572D02*
X010685Y008572D01*
X010685Y008651D02*
X013645Y008651D01*
X013645Y008729D02*
X010685Y008729D01*
X010685Y008808D02*
X013645Y008808D01*
X013645Y008886D02*
X010685Y008886D01*
X010685Y008965D02*
X013645Y008965D01*
X013645Y009043D02*
X010685Y009043D01*
X010685Y009122D02*
X013645Y009122D01*
X013645Y009200D02*
X010685Y009200D01*
X010685Y009279D02*
X013645Y009279D01*
X013645Y009357D02*
X010685Y009357D01*
X010685Y009436D02*
X013645Y009436D01*
X013645Y009514D02*
X010685Y009514D01*
X010685Y009593D02*
X013645Y009593D01*
X013645Y009671D02*
X010685Y009671D01*
X010685Y009750D02*
X013645Y009750D01*
X013645Y009828D02*
X010685Y009828D01*
X010685Y009907D02*
X013645Y009907D01*
X013645Y009985D02*
X010685Y009985D01*
X010685Y010064D02*
X013645Y010064D01*
X013645Y010142D02*
X010685Y010142D01*
X010385Y010142D02*
X008797Y010142D01*
X008813Y010221D02*
X010385Y010221D01*
X010385Y010299D02*
X008810Y010299D01*
X008777Y010378D02*
X010385Y010378D01*
X010385Y010456D02*
X008708Y010456D01*
X008491Y010535D02*
X010385Y010535D01*
X010385Y010613D02*
X008413Y010613D01*
X008334Y010692D02*
X010385Y010692D01*
X010385Y010770D02*
X008256Y010770D01*
X008177Y010849D02*
X010385Y010849D01*
X010385Y010927D02*
X008099Y010927D01*
X008020Y011006D02*
X010385Y011006D01*
X010385Y011084D02*
X007942Y011084D01*
X007863Y011163D02*
X010385Y011163D01*
X010385Y011241D02*
X007785Y011241D01*
X007706Y011320D02*
X010385Y011320D01*
X010385Y011398D02*
X007628Y011398D01*
X007585Y011477D02*
X007549Y011477D01*
X007485Y011687D02*
X007685Y011687D01*
X007904Y011712D02*
X010385Y011712D01*
X010385Y011634D02*
X007904Y011634D01*
X007863Y011555D02*
X010385Y011555D01*
X010385Y011477D02*
X007784Y011477D01*
X007890Y011791D02*
X010385Y011791D01*
X010385Y011869D02*
X007812Y011869D01*
X008755Y010064D02*
X010385Y010064D01*
X010385Y009828D02*
X001635Y009828D01*
X001635Y009750D02*
X010385Y009750D01*
X009119Y008965D02*
X009075Y008965D01*
X004740Y009671D02*
X001635Y009671D01*
X001635Y009593D02*
X004662Y009593D01*
X003660Y013625D02*
X003660Y014039D01*
X003245Y014039D01*
X003245Y013891D01*
X003511Y013625D01*
X003660Y013625D01*
X003660Y013675D02*
X003740Y013675D01*
X003740Y013753D02*
X003660Y013753D01*
X003660Y013832D02*
X003740Y013832D01*
X003740Y013910D02*
X003660Y013910D01*
X003660Y013989D02*
X003740Y013989D01*
X003660Y014067D02*
X002224Y014067D01*
X002224Y014039D02*
X002224Y014119D01*
X002638Y014119D01*
X002638Y014267D01*
X002372Y014534D01*
X002224Y014534D01*
X002224Y014119D01*
X002144Y014119D01*
X002144Y014039D01*
X002224Y014039D01*
X002638Y014039D01*
X002638Y013891D01*
X002372Y013625D01*
X002224Y013625D01*
X002224Y014039D01*
X002224Y013989D02*
X002144Y013989D01*
X002144Y014039D02*
X002144Y013625D01*
X001996Y013625D01*
X001730Y013891D01*
X001730Y014039D01*
X002144Y014039D01*
X002144Y014067D02*
X001635Y014067D01*
X001635Y013989D02*
X001730Y013989D01*
X001730Y013910D02*
X001635Y013910D01*
X001635Y013832D02*
X001789Y013832D01*
X001867Y013753D02*
X001635Y013753D01*
X001635Y013675D02*
X001946Y013675D01*
X002144Y013675D02*
X002224Y013675D01*
X002224Y013753D02*
X002144Y013753D01*
X002144Y013832D02*
X002224Y013832D01*
X002224Y013910D02*
X002144Y013910D01*
X002144Y014119D02*
X001730Y014119D01*
X001730Y014267D01*
X001996Y014534D01*
X002144Y014534D01*
X002144Y014119D01*
X002144Y014146D02*
X002224Y014146D01*
X002224Y014224D02*
X002144Y014224D01*
X002144Y014303D02*
X002224Y014303D01*
X002224Y014381D02*
X002144Y014381D01*
X002144Y014460D02*
X002224Y014460D01*
X002446Y014460D02*
X003438Y014460D01*
X003359Y014381D02*
X002524Y014381D01*
X002603Y014303D02*
X003281Y014303D01*
X003245Y014224D02*
X002638Y014224D01*
X002638Y014146D02*
X003245Y014146D01*
X003245Y013989D02*
X002638Y013989D01*
X002638Y013910D02*
X003245Y013910D01*
X003305Y013832D02*
X002579Y013832D01*
X002500Y013753D02*
X003383Y013753D01*
X003462Y013675D02*
X002422Y013675D01*
X001730Y014146D02*
X001635Y014146D01*
X001635Y014224D02*
X001730Y014224D01*
X001765Y014303D02*
X001635Y014303D01*
X001635Y014381D02*
X001843Y014381D01*
X001922Y014460D02*
X001635Y014460D01*
X001635Y014538D02*
X002853Y014538D01*
X002910Y014481D02*
X002783Y014609D01*
X002783Y014790D01*
X002910Y014917D01*
X003091Y014917D01*
X003219Y014790D01*
X003219Y014609D01*
X003091Y014481D01*
X002910Y014481D01*
X002783Y014617D02*
X001635Y014617D01*
X001635Y014695D02*
X002783Y014695D01*
X002783Y014774D02*
X001635Y014774D01*
X001635Y014852D02*
X002845Y014852D01*
X003156Y014852D02*
X004295Y014852D01*
X004295Y014774D02*
X003219Y014774D01*
X003219Y014695D02*
X004295Y014695D01*
X004295Y014617D02*
X003219Y014617D01*
X003148Y014538D02*
X004295Y014538D01*
X004295Y014460D02*
X003962Y014460D01*
X004040Y014381D02*
X004231Y014381D01*
X004153Y014303D02*
X004119Y014303D01*
X004392Y014146D02*
X004871Y014146D01*
X004793Y014224D02*
X004470Y014224D01*
X004549Y014303D02*
X004714Y014303D01*
X004636Y014381D02*
X004575Y014381D01*
X004375Y014067D02*
X004950Y014067D01*
X005028Y013989D02*
X004375Y013989D01*
X004375Y013910D02*
X005107Y013910D01*
X005185Y013832D02*
X004375Y013832D01*
X003740Y014146D02*
X003660Y014146D01*
X003660Y014224D02*
X003740Y014224D01*
X003740Y014303D02*
X003660Y014303D01*
X003660Y014381D02*
X003740Y014381D01*
X003740Y014460D02*
X003660Y014460D01*
X004295Y014931D02*
X001635Y014931D01*
X001635Y015009D02*
X004295Y015009D01*
X004295Y015088D02*
X001635Y015088D01*
X001635Y015166D02*
X004295Y015166D01*
X004295Y015245D02*
X001635Y015245D01*
X001635Y015323D02*
X004295Y015323D01*
X004295Y015402D02*
X001635Y015402D01*
X001635Y015480D02*
X004295Y015480D01*
X004295Y015559D02*
X001635Y015559D01*
X001635Y015637D02*
X004295Y015637D01*
X004295Y015716D02*
X001635Y015716D01*
X001635Y015794D02*
X004295Y015794D01*
X004295Y015873D02*
X001635Y015873D01*
X001635Y015951D02*
X004295Y015951D01*
X005190Y016579D02*
X005456Y016579D01*
X005456Y016501D02*
X005269Y016501D01*
X005112Y016658D02*
X005466Y016658D01*
X005525Y016736D02*
X005033Y016736D01*
X005525Y016972D02*
X004154Y016972D01*
X004154Y017050D02*
X005525Y017050D01*
X005525Y017129D02*
X004108Y017129D01*
X004029Y017207D02*
X005525Y017207D01*
X005525Y017286D02*
X003951Y017286D01*
X001782Y021289D02*
X026196Y021289D01*
X026052Y021368D02*
X001929Y021368D01*
X009068Y020033D02*
X009176Y020033D01*
X014085Y020033D02*
X014619Y020033D01*
X014645Y020112D02*
X014224Y020112D01*
X014303Y020190D02*
X014566Y020190D01*
X014516Y020269D02*
X014353Y020269D01*
X014386Y020347D02*
X014484Y020347D01*
X014465Y020426D02*
X014405Y020426D01*
X014405Y020504D02*
X014465Y020504D01*
X014466Y020583D02*
X014404Y020583D01*
X014371Y020661D02*
X014498Y020661D01*
X014531Y020740D02*
X014339Y020740D01*
X014268Y020818D02*
X014602Y020818D01*
X014696Y020897D02*
X014173Y020897D01*
X014085Y019955D02*
X014541Y019955D01*
X014462Y019876D02*
X014085Y019876D01*
X014085Y019798D02*
X014384Y019798D01*
X014305Y019719D02*
X014085Y019719D01*
X014085Y019641D02*
X014265Y019641D01*
X014265Y019562D02*
X014085Y019562D01*
X014085Y019484D02*
X014265Y019484D01*
X014265Y019405D02*
X014085Y019405D01*
X014085Y019327D02*
X014265Y019327D01*
X014265Y019248D02*
X014085Y019248D01*
X014085Y019170D02*
X014265Y019170D01*
X014265Y019091D02*
X014085Y019091D01*
X014085Y019013D02*
X014265Y019013D01*
X014265Y018934D02*
X014085Y018934D01*
X014085Y018856D02*
X014265Y018856D01*
X014265Y018777D02*
X014085Y018777D01*
X014085Y018699D02*
X014265Y018699D01*
X014206Y018620D02*
X014113Y018620D01*
X014473Y018463D02*
X014499Y018463D01*
X014552Y018542D02*
X014578Y018542D01*
X014565Y018620D02*
X014635Y018620D01*
X014635Y018699D02*
X014565Y018699D01*
X014565Y018777D02*
X014635Y018777D01*
X014635Y018856D02*
X014565Y018856D01*
X014565Y018934D02*
X014635Y018934D01*
X014635Y019013D02*
X014565Y019013D01*
X014565Y019091D02*
X014635Y019091D01*
X014635Y019170D02*
X014565Y019170D01*
X014565Y019248D02*
X014635Y019248D01*
X014635Y019327D02*
X014565Y019327D01*
X014565Y019405D02*
X014691Y019405D01*
X014770Y019484D02*
X014565Y019484D01*
X014572Y019562D02*
X014848Y019562D01*
X014927Y019641D02*
X014651Y019641D01*
X014729Y019719D02*
X015005Y019719D01*
X015084Y019798D02*
X014808Y019798D01*
X014886Y019876D02*
X015162Y019876D01*
X015241Y019955D02*
X014965Y019955D01*
X015068Y020033D02*
X015319Y020033D01*
X015398Y020112D02*
X015224Y020112D01*
X015303Y020190D02*
X015476Y020190D01*
X015516Y020269D02*
X015353Y020269D01*
X015386Y020347D02*
X015484Y020347D01*
X015465Y020426D02*
X015405Y020426D01*
X015405Y020504D02*
X015465Y020504D01*
X015466Y020583D02*
X015404Y020583D01*
X015371Y020661D02*
X015498Y020661D01*
X015531Y020740D02*
X015339Y020740D01*
X015268Y020818D02*
X015602Y020818D01*
X015696Y020897D02*
X015173Y020897D01*
X016173Y020897D02*
X016696Y020897D01*
X016602Y020818D02*
X016268Y020818D01*
X016339Y020740D02*
X016531Y020740D01*
X016498Y020661D02*
X016371Y020661D01*
X016404Y020583D02*
X016466Y020583D01*
X016465Y020504D02*
X016405Y020504D01*
X016405Y020426D02*
X016465Y020426D01*
X016433Y020347D02*
X016386Y020347D01*
X016355Y020269D02*
X016353Y020269D01*
X016543Y020033D02*
X016801Y020033D01*
X016645Y020112D02*
X016622Y020112D01*
X017068Y020033D02*
X017269Y020033D01*
X017224Y020112D02*
X017348Y020112D01*
X017303Y020190D02*
X017426Y020190D01*
X017465Y020269D02*
X017353Y020269D01*
X017386Y020347D02*
X017465Y020347D01*
X017465Y020426D02*
X017405Y020426D01*
X017405Y020504D02*
X017465Y020504D01*
X017465Y020583D02*
X017404Y020583D01*
X017371Y020661D02*
X017465Y020661D01*
X017465Y020740D02*
X017339Y020740D01*
X017268Y020818D02*
X017465Y020818D01*
X017465Y020897D02*
X017173Y020897D01*
X017615Y019955D02*
X019554Y019955D01*
X019633Y019876D02*
X017536Y019876D01*
X017458Y019798D02*
X019711Y019798D01*
X019790Y019719D02*
X017379Y019719D01*
X016551Y019641D02*
X019868Y019641D01*
X019947Y019562D02*
X016472Y019562D01*
X016394Y019484D02*
X020025Y019484D01*
X020104Y019405D02*
X016315Y019405D01*
X015937Y019327D02*
X020182Y019327D01*
X020261Y019248D02*
X015858Y019248D01*
X015780Y019170D02*
X020739Y019170D01*
X020818Y019091D02*
X015701Y019091D01*
X015623Y019013D02*
X020896Y019013D01*
X020975Y018934D02*
X015544Y018934D01*
X015466Y018856D02*
X021053Y018856D01*
X021132Y018777D02*
X015435Y018777D01*
X015435Y018699D02*
X021210Y018699D01*
X021235Y018620D02*
X015435Y018620D01*
X015435Y018542D02*
X021235Y018542D01*
X021235Y018463D02*
X015435Y018463D01*
X015435Y018385D02*
X015721Y018385D01*
X015642Y018306D02*
X015435Y018306D01*
X015388Y018228D02*
X015564Y018228D01*
X015505Y018149D02*
X015309Y018149D01*
X015231Y018071D02*
X015505Y018071D01*
X015505Y017992D02*
X015185Y017992D01*
X015185Y017914D02*
X015505Y017914D01*
X015505Y017835D02*
X015185Y017835D01*
X015185Y017757D02*
X015505Y017757D01*
X015505Y017678D02*
X015185Y017678D01*
X015185Y017600D02*
X015505Y017600D01*
X015505Y017521D02*
X015185Y017521D01*
X015185Y017443D02*
X015505Y017443D01*
X015505Y017364D02*
X015185Y017364D01*
X015185Y017286D02*
X015563Y017286D01*
X015635Y017207D02*
X015185Y017207D01*
X015185Y017129D02*
X015635Y017129D01*
X015635Y017050D02*
X015185Y017050D01*
X015185Y016972D02*
X015635Y016972D01*
X018363Y020033D02*
X019401Y020033D01*
X019245Y020112D02*
X018405Y020112D01*
X018405Y020190D02*
X019166Y020190D01*
X019116Y020269D02*
X018405Y020269D01*
X018405Y020347D02*
X019084Y020347D01*
X019065Y020426D02*
X018405Y020426D01*
X018405Y020504D02*
X019065Y020504D01*
X019066Y020583D02*
X018405Y020583D01*
X018405Y020661D02*
X019098Y020661D01*
X019131Y020740D02*
X018405Y020740D01*
X018405Y020818D02*
X019202Y020818D01*
X019296Y020897D02*
X018405Y020897D01*
X019773Y020897D02*
X020296Y020897D01*
X020202Y020818D02*
X019868Y020818D01*
X019939Y020740D02*
X020131Y020740D01*
X020098Y020661D02*
X019971Y020661D01*
X020004Y020583D02*
X020066Y020583D01*
X020065Y020504D02*
X020005Y020504D01*
X020005Y020426D02*
X020065Y020426D01*
X020084Y020347D02*
X019986Y020347D01*
X019953Y020269D02*
X020116Y020269D01*
X020166Y020190D02*
X019903Y020190D01*
X019824Y020112D02*
X020245Y020112D01*
X020385Y020033D02*
X019900Y020033D01*
X019979Y019955D02*
X020385Y019955D01*
X020385Y019876D02*
X020057Y019876D01*
X020136Y019798D02*
X020461Y019798D01*
X020540Y019719D02*
X020214Y019719D01*
X020293Y019641D02*
X020618Y019641D01*
X020697Y019562D02*
X020371Y019562D01*
X020886Y019798D02*
X021385Y019798D01*
X021385Y019876D02*
X020807Y019876D01*
X020729Y019955D02*
X021385Y019955D01*
X021385Y020033D02*
X020685Y020033D01*
X020824Y020112D02*
X021245Y020112D01*
X021166Y020190D02*
X020903Y020190D01*
X020953Y020269D02*
X021116Y020269D01*
X021084Y020347D02*
X020986Y020347D01*
X021005Y020426D02*
X021065Y020426D01*
X021065Y020504D02*
X021005Y020504D01*
X021004Y020583D02*
X021066Y020583D01*
X021098Y020661D02*
X020971Y020661D01*
X020939Y020740D02*
X021131Y020740D01*
X021202Y020818D02*
X020868Y020818D01*
X020773Y020897D02*
X021296Y020897D01*
X021773Y020897D02*
X022296Y020897D01*
X022202Y020818D02*
X021868Y020818D01*
X021939Y020740D02*
X022131Y020740D01*
X022098Y020661D02*
X021971Y020661D01*
X022004Y020583D02*
X022066Y020583D01*
X022065Y020504D02*
X022005Y020504D01*
X022005Y020426D02*
X022065Y020426D01*
X022084Y020347D02*
X021986Y020347D01*
X021953Y020269D02*
X022116Y020269D01*
X022166Y020190D02*
X021903Y020190D01*
X021824Y020112D02*
X022245Y020112D01*
X022385Y020033D02*
X021685Y020033D01*
X021685Y019955D02*
X022385Y019955D01*
X022385Y019876D02*
X021685Y019876D01*
X021685Y019798D02*
X022385Y019798D01*
X022385Y019719D02*
X021685Y019719D01*
X021685Y019641D02*
X022385Y019641D01*
X022385Y019562D02*
X021685Y019562D01*
X021685Y019484D02*
X022370Y019484D01*
X022291Y019405D02*
X021685Y019405D01*
X021707Y019327D02*
X022213Y019327D01*
X022134Y019248D02*
X021785Y019248D01*
X021864Y019170D02*
X022056Y019170D01*
X021985Y019091D02*
X021942Y019091D01*
X021385Y019327D02*
X021357Y019327D01*
X021385Y019405D02*
X021278Y019405D01*
X021200Y019484D02*
X021385Y019484D01*
X021385Y019562D02*
X021121Y019562D01*
X021043Y019641D02*
X021385Y019641D01*
X021385Y019719D02*
X020964Y019719D01*
X022566Y018856D02*
X024495Y018856D01*
X024495Y018934D02*
X022644Y018934D01*
X022723Y019013D02*
X024495Y019013D01*
X024495Y019091D02*
X022801Y019091D01*
X022930Y019170D02*
X024495Y019170D01*
X024495Y019248D02*
X023008Y019248D01*
X023087Y019327D02*
X024495Y019327D01*
X024495Y019405D02*
X023165Y019405D01*
X023244Y019484D02*
X024495Y019484D01*
X024495Y019562D02*
X023322Y019562D01*
X023401Y019641D02*
X024495Y019641D01*
X024495Y019719D02*
X023479Y019719D01*
X023558Y019798D02*
X024495Y019798D01*
X024495Y019876D02*
X023636Y019876D01*
X023685Y019955D02*
X024495Y019955D01*
X024495Y020017D02*
X024495Y017906D01*
X024416Y017827D01*
X024416Y017646D01*
X024544Y017518D01*
X024725Y017518D01*
X024854Y017646D01*
X024854Y017827D01*
X024775Y017906D01*
X024775Y020077D01*
X024801Y020088D01*
X024933Y020220D01*
X025005Y020393D01*
X025005Y020580D01*
X024933Y020753D01*
X024801Y020885D01*
X024628Y020957D01*
X024441Y020957D01*
X024268Y020885D01*
X024136Y020753D01*
X024065Y020580D01*
X024065Y020393D01*
X024136Y020220D01*
X024268Y020088D01*
X024441Y020017D01*
X024495Y020017D01*
X024401Y020033D02*
X023685Y020033D01*
X023824Y020112D02*
X024245Y020112D01*
X024166Y020190D02*
X023903Y020190D01*
X023953Y020269D02*
X024116Y020269D01*
X024084Y020347D02*
X023986Y020347D01*
X024005Y020426D02*
X024065Y020426D01*
X024065Y020504D02*
X024005Y020504D01*
X024004Y020583D02*
X024066Y020583D01*
X024098Y020661D02*
X023971Y020661D01*
X023939Y020740D02*
X024131Y020740D01*
X024202Y020818D02*
X023868Y020818D01*
X023773Y020897D02*
X024296Y020897D01*
X024535Y020487D02*
X024635Y020387D01*
X024635Y017737D01*
X024854Y017757D02*
X025066Y017757D01*
X025073Y017835D02*
X024846Y017835D01*
X024775Y017914D02*
X025152Y017914D01*
X025328Y017992D02*
X024775Y017992D01*
X024775Y018071D02*
X025407Y018071D01*
X025485Y018149D02*
X024775Y018149D01*
X024775Y018228D02*
X025564Y018228D01*
X025642Y018306D02*
X024775Y018306D01*
X024775Y018385D02*
X025721Y018385D01*
X025799Y018463D02*
X024775Y018463D01*
X024775Y018542D02*
X025816Y018542D01*
X025858Y018620D02*
X024775Y018620D01*
X024775Y018699D02*
X025937Y018699D01*
X026113Y018777D02*
X024775Y018777D01*
X024775Y018856D02*
X026135Y018856D01*
X026135Y018934D02*
X024775Y018934D01*
X024775Y019013D02*
X026135Y019013D01*
X026135Y019091D02*
X024775Y019091D01*
X024775Y019170D02*
X026135Y019170D01*
X026061Y019248D02*
X024775Y019248D01*
X024775Y019327D02*
X025982Y019327D01*
X025904Y019405D02*
X024775Y019405D01*
X024775Y019484D02*
X025825Y019484D01*
X025747Y019562D02*
X024775Y019562D01*
X024775Y019641D02*
X025668Y019641D01*
X025635Y019719D02*
X024775Y019719D01*
X024775Y019798D02*
X025635Y019798D01*
X025635Y019876D02*
X024775Y019876D01*
X024775Y019955D02*
X025635Y019955D01*
X025401Y020033D02*
X024775Y020033D01*
X024824Y020112D02*
X025245Y020112D01*
X025166Y020190D02*
X024903Y020190D01*
X024953Y020269D02*
X025116Y020269D01*
X025084Y020347D02*
X024986Y020347D01*
X025005Y020426D02*
X025065Y020426D01*
X025065Y020504D02*
X025005Y020504D01*
X025004Y020583D02*
X025066Y020583D01*
X025098Y020661D02*
X024971Y020661D01*
X024939Y020740D02*
X025131Y020740D01*
X025202Y020818D02*
X024868Y020818D01*
X024773Y020897D02*
X025296Y020897D01*
X025773Y020897D02*
X026065Y020897D01*
X026065Y020818D02*
X025868Y020818D01*
X025939Y020740D02*
X026065Y020740D01*
X026065Y020661D02*
X025971Y020661D01*
X026004Y020583D02*
X026065Y020583D01*
X026065Y020504D02*
X026005Y020504D01*
X026005Y020426D02*
X026065Y020426D01*
X026065Y020347D02*
X025986Y020347D01*
X025953Y020269D02*
X026065Y020269D01*
X026065Y020190D02*
X025935Y020190D01*
X025935Y020112D02*
X026065Y020112D01*
X026107Y020033D02*
X025935Y020033D01*
X025935Y019955D02*
X026335Y019955D01*
X026335Y019876D02*
X025935Y019876D01*
X025936Y019798D02*
X026335Y019798D01*
X026335Y019719D02*
X026014Y019719D01*
X026093Y019641D02*
X026335Y019641D01*
X026335Y019562D02*
X026171Y019562D01*
X026250Y019484D02*
X026335Y019484D01*
X026328Y019405D02*
X026335Y019405D01*
X026302Y018542D02*
X026335Y018542D01*
X026335Y018463D02*
X026254Y018463D01*
X026242Y018385D02*
X026335Y018385D01*
X026335Y018306D02*
X026164Y018306D01*
X026314Y018228D02*
X025988Y018228D01*
X025909Y018149D02*
X026235Y018149D01*
X026157Y018071D02*
X025831Y018071D01*
X025752Y017992D02*
X026078Y017992D01*
X025902Y017914D02*
X025674Y017914D01*
X025595Y017835D02*
X025823Y017835D01*
X025816Y017757D02*
X025517Y017757D01*
X025504Y017678D02*
X025816Y017678D01*
X025862Y017600D02*
X025457Y017600D01*
X025379Y017521D02*
X025940Y017521D01*
X026129Y017521D02*
X026335Y017521D01*
X026335Y017443D02*
X022454Y017443D01*
X022454Y017364D02*
X026335Y017364D01*
X026335Y017286D02*
X022443Y017286D01*
X022365Y017207D02*
X026335Y017207D01*
X026335Y017600D02*
X026207Y017600D01*
X026254Y017678D02*
X026335Y017678D01*
X026335Y017757D02*
X026267Y017757D01*
X025190Y017521D02*
X024729Y017521D01*
X024807Y017600D02*
X025112Y017600D01*
X025066Y017678D02*
X024854Y017678D01*
X024540Y017521D02*
X022629Y017521D01*
X022704Y017600D02*
X024462Y017600D01*
X024416Y017678D02*
X022704Y017678D01*
X022704Y017757D02*
X024416Y017757D01*
X024423Y017835D02*
X022646Y017835D01*
X022535Y017914D02*
X024495Y017914D01*
X024495Y017992D02*
X022535Y017992D01*
X022535Y018071D02*
X024495Y018071D01*
X024495Y018149D02*
X022535Y018149D01*
X022535Y018228D02*
X024495Y018228D01*
X024495Y018306D02*
X022535Y018306D01*
X022535Y018385D02*
X024495Y018385D01*
X024495Y018463D02*
X022535Y018463D01*
X022535Y018542D02*
X024495Y018542D01*
X024495Y018620D02*
X022535Y018620D01*
X022535Y018699D02*
X024495Y018699D01*
X024495Y018777D02*
X022535Y018777D01*
X022685Y019405D02*
X022691Y019405D01*
X022685Y019484D02*
X022820Y019484D01*
X022898Y019562D02*
X022685Y019562D01*
X022685Y019641D02*
X022977Y019641D01*
X023055Y019719D02*
X022685Y019719D01*
X022685Y019798D02*
X023134Y019798D01*
X023212Y019876D02*
X022685Y019876D01*
X022685Y019955D02*
X023291Y019955D01*
X023369Y020033D02*
X022685Y020033D01*
X022824Y020112D02*
X023245Y020112D01*
X023166Y020190D02*
X022903Y020190D01*
X022953Y020269D02*
X023116Y020269D01*
X023084Y020347D02*
X022986Y020347D01*
X023005Y020426D02*
X023065Y020426D01*
X023065Y020504D02*
X023005Y020504D01*
X023004Y020583D02*
X023066Y020583D01*
X023098Y020661D02*
X022971Y020661D01*
X022939Y020740D02*
X023131Y020740D01*
X023202Y020818D02*
X022868Y020818D01*
X022773Y020897D02*
X023296Y020897D01*
X022035Y017277D02*
X022144Y017168D01*
X022035Y017277D02*
X022035Y012696D01*
X022104Y012627D01*
X022104Y012606D01*
X022275Y012606D01*
X022404Y012477D01*
X022404Y012296D01*
X022325Y012217D01*
X022325Y011995D01*
X022543Y011777D01*
X024327Y011777D01*
X024416Y011866D01*
X024416Y011977D01*
X024544Y012106D01*
X024725Y012106D01*
X024854Y011977D01*
X024854Y011796D01*
X024725Y011668D01*
X024614Y011668D01*
X024553Y011607D01*
X026117Y011607D01*
X026136Y011653D01*
X026268Y011785D01*
X026335Y011813D01*
X026335Y011961D01*
X026268Y011988D01*
X026136Y012120D01*
X026065Y012293D01*
X026065Y012480D01*
X026136Y012653D01*
X026268Y012785D01*
X026335Y012813D01*
X026335Y012961D01*
X026288Y012985D01*
X026228Y013028D01*
X026176Y013080D01*
X026133Y013140D01*
X026099Y013206D01*
X026076Y013277D01*
X026065Y013348D01*
X026335Y013348D01*
X026335Y013425D01*
X026065Y013425D01*
X026076Y013497D01*
X026099Y013567D01*
X026133Y013633D01*
X026176Y013693D01*
X026228Y013745D01*
X026288Y013789D01*
X026335Y013812D01*
X026335Y013975D01*
X026135Y014175D01*
X026135Y015277D01*
X026125Y015268D01*
X025944Y015268D01*
X025816Y015396D01*
X025816Y015577D01*
X025944Y015706D01*
X026125Y015706D01*
X026194Y015637D01*
X025875Y015637D02*
X022035Y015637D01*
X022035Y015559D02*
X025816Y015559D01*
X025816Y015480D02*
X022035Y015480D01*
X022035Y015402D02*
X025816Y015402D01*
X025888Y015323D02*
X022035Y015323D01*
X022035Y015245D02*
X026135Y015245D01*
X026135Y015166D02*
X022035Y015166D01*
X022035Y015088D02*
X026135Y015088D01*
X026135Y015009D02*
X022035Y015009D01*
X022035Y014931D02*
X026135Y014931D01*
X026135Y014852D02*
X022035Y014852D01*
X022035Y014774D02*
X026135Y014774D01*
X026135Y014695D02*
X022035Y014695D01*
X022035Y014617D02*
X026135Y014617D01*
X026135Y014538D02*
X022035Y014538D01*
X022035Y014460D02*
X026135Y014460D01*
X026135Y014381D02*
X022035Y014381D01*
X022035Y014303D02*
X026135Y014303D01*
X026135Y014224D02*
X022035Y014224D01*
X022035Y014146D02*
X026163Y014146D01*
X026242Y014067D02*
X022035Y014067D01*
X022035Y013989D02*
X026320Y013989D01*
X026335Y013910D02*
X022035Y013910D01*
X022035Y013832D02*
X026335Y013832D01*
X026240Y013753D02*
X022035Y013753D01*
X022035Y013675D02*
X026163Y013675D01*
X026114Y013596D02*
X022035Y013596D01*
X022035Y013518D02*
X026083Y013518D01*
X026067Y013439D02*
X022035Y013439D01*
X022035Y013361D02*
X026335Y013361D01*
X026075Y013282D02*
X022035Y013282D01*
X022035Y013204D02*
X026100Y013204D01*
X026144Y013125D02*
X022035Y013125D01*
X022035Y013047D02*
X026210Y013047D01*
X026321Y012968D02*
X022035Y012968D01*
X022035Y012890D02*
X026335Y012890D01*
X026331Y012811D02*
X022035Y012811D01*
X022035Y012733D02*
X026216Y012733D01*
X026138Y012654D02*
X022077Y012654D01*
X022305Y012576D02*
X026104Y012576D01*
X026072Y012497D02*
X022384Y012497D01*
X022404Y012419D02*
X026065Y012419D01*
X026065Y012340D02*
X022404Y012340D01*
X022369Y012262D02*
X026078Y012262D01*
X026110Y012183D02*
X022325Y012183D01*
X022325Y012105D02*
X024543Y012105D01*
X024464Y012026D02*
X022325Y012026D01*
X022372Y011948D02*
X024416Y011948D01*
X024416Y011869D02*
X022450Y011869D01*
X022529Y011791D02*
X024341Y011791D01*
X024385Y011637D02*
X024635Y011887D01*
X024854Y011869D02*
X026335Y011869D01*
X026335Y011948D02*
X024854Y011948D01*
X024805Y012026D02*
X026230Y012026D01*
X026152Y012105D02*
X024726Y012105D01*
X024848Y011791D02*
X026282Y011791D01*
X026196Y011712D02*
X024770Y011712D01*
X024580Y011634D02*
X026128Y011634D01*
X026119Y011163D02*
X020022Y011163D01*
X019943Y011084D02*
X026172Y011084D01*
X026251Y011006D02*
X019873Y011006D01*
X019813Y010927D02*
X020027Y010927D01*
X019949Y010849D02*
X019734Y010849D01*
X019870Y010770D02*
X019325Y010770D01*
X019325Y010692D02*
X019792Y010692D01*
X019713Y010613D02*
X019325Y010613D01*
X019325Y010535D02*
X019635Y010535D01*
X019556Y010456D02*
X019325Y010456D01*
X019325Y010378D02*
X019478Y010378D01*
X019399Y010299D02*
X019325Y010299D01*
X019485Y009987D02*
X020185Y010687D01*
X021735Y010687D01*
X021971Y010849D02*
X026335Y010849D01*
X026335Y010927D02*
X021892Y010927D01*
X022049Y010770D02*
X026335Y010770D01*
X026335Y010692D02*
X022128Y010692D01*
X022175Y010613D02*
X026335Y010613D01*
X026335Y010535D02*
X024146Y010535D01*
X024204Y010456D02*
X026335Y010456D01*
X026335Y010378D02*
X024204Y010378D01*
X024204Y010299D02*
X026335Y010299D01*
X026335Y010221D02*
X024128Y010221D01*
X023985Y010287D02*
X023985Y010387D01*
X023985Y010287D02*
X023735Y010037D01*
X023721Y010221D02*
X022175Y010221D01*
X022175Y010299D02*
X023766Y010299D01*
X023766Y010378D02*
X022175Y010378D01*
X022175Y010456D02*
X023766Y010456D01*
X023823Y010535D02*
X022175Y010535D01*
X022290Y011634D02*
X020980Y011634D01*
X020975Y011712D02*
X022211Y011712D01*
X022133Y011791D02*
X020975Y011791D01*
X020975Y011869D02*
X022054Y011869D01*
X022045Y011948D02*
X020972Y011948D01*
X020954Y012026D02*
X022045Y012026D01*
X022045Y012105D02*
X020954Y012105D01*
X020898Y012183D02*
X022045Y012183D01*
X022000Y012262D02*
X019458Y012262D01*
X019536Y012340D02*
X019571Y012340D01*
X019535Y012537D02*
X019185Y012187D01*
X019185Y007137D01*
X022285Y004037D01*
X022585Y004037D01*
X024185Y002437D01*
X026035Y002437D01*
X025345Y001978D02*
X024591Y001978D01*
X024513Y002057D02*
X025267Y002057D01*
X025304Y001900D02*
X024766Y001900D01*
X024865Y001821D02*
X025204Y001821D01*
X025132Y001743D02*
X024937Y001743D01*
X025285Y002237D02*
X024135Y002237D01*
X022535Y003837D01*
X022235Y003837D01*
X019035Y007037D01*
X019035Y012287D01*
X019635Y012887D01*
X019735Y012887D01*
X019877Y012654D02*
X019919Y012654D01*
X019904Y012576D02*
X019998Y012576D01*
X020076Y012497D02*
X019904Y012497D01*
X019876Y012419D02*
X020116Y012419D01*
X020171Y012340D02*
X019798Y012340D01*
X019685Y012537D02*
X019535Y012537D01*
X019379Y012183D02*
X020571Y012183D01*
X020516Y012105D02*
X019325Y012105D01*
X019325Y012026D02*
X020516Y012026D01*
X020516Y011948D02*
X019325Y011948D01*
X019325Y011869D02*
X020592Y011869D01*
X020695Y011791D02*
X019325Y011791D01*
X019325Y011712D02*
X020695Y011712D01*
X020690Y011634D02*
X019325Y011634D01*
X019325Y011555D02*
X019792Y011555D01*
X019714Y011477D02*
X019325Y011477D01*
X019325Y011398D02*
X019635Y011398D01*
X019530Y011320D02*
X019325Y011320D01*
X019325Y011241D02*
X019452Y011241D01*
X019396Y011163D02*
X019325Y011163D01*
X019325Y011084D02*
X019396Y011084D01*
X019396Y011006D02*
X019325Y011006D01*
X019325Y010927D02*
X019456Y010927D01*
X019535Y010849D02*
X019325Y010849D01*
X018485Y010517D02*
X018485Y011487D01*
X018322Y011634D02*
X016175Y011634D01*
X016175Y011712D02*
X018595Y011712D01*
X018595Y011791D02*
X016175Y011791D01*
X016175Y011869D02*
X018595Y011869D01*
X018595Y011948D02*
X016175Y011948D01*
X016175Y012026D02*
X018595Y012026D01*
X018595Y012105D02*
X016175Y012105D01*
X016175Y012183D02*
X018595Y012183D01*
X018595Y012262D02*
X016175Y012262D01*
X016175Y012340D02*
X018595Y012340D01*
X018595Y012419D02*
X016175Y012419D01*
X016175Y012497D02*
X018595Y012497D01*
X018626Y012576D02*
X016175Y012576D01*
X016175Y012654D02*
X018704Y012654D01*
X018783Y012733D02*
X016175Y012733D01*
X016175Y012811D02*
X018861Y012811D01*
X018940Y012890D02*
X016175Y012890D01*
X016175Y012968D02*
X019018Y012968D01*
X019097Y013047D02*
X016243Y013047D01*
X016321Y013125D02*
X019175Y013125D01*
X019218Y013518D02*
X016185Y013518D01*
X016185Y013596D02*
X019296Y013596D01*
X019375Y013675D02*
X016185Y013675D01*
X016185Y013753D02*
X019453Y013753D01*
X020554Y012419D02*
X021693Y012419D01*
X021771Y012340D02*
X020498Y012340D01*
X020735Y012037D02*
X020735Y011987D01*
X020835Y011887D01*
X020835Y011567D01*
X021362Y012654D02*
X021366Y012654D01*
X022185Y012387D02*
X022185Y011937D01*
X022485Y011637D01*
X024385Y011637D01*
X019485Y009987D02*
X019485Y007337D01*
X022135Y004687D01*
X022385Y004687D01*
X022604Y004726D02*
X026335Y004726D01*
X026335Y004804D02*
X022577Y004804D01*
X022498Y004883D02*
X026335Y004883D01*
X026335Y004961D02*
X022058Y004961D01*
X022137Y004883D02*
X022271Y004883D01*
X021980Y005040D02*
X026335Y005040D01*
X026335Y005118D02*
X021901Y005118D01*
X021823Y005197D02*
X026335Y005197D01*
X026335Y005275D02*
X021744Y005275D01*
X021666Y005354D02*
X026335Y005354D01*
X026335Y005432D02*
X021587Y005432D01*
X021509Y005511D02*
X026335Y005511D01*
X026335Y005589D02*
X021430Y005589D01*
X021352Y005668D02*
X026335Y005668D01*
X026335Y005746D02*
X021273Y005746D01*
X021195Y005825D02*
X026335Y005825D01*
X026335Y005903D02*
X021116Y005903D01*
X021038Y005982D02*
X026335Y005982D01*
X026335Y006060D02*
X020959Y006060D01*
X020881Y006139D02*
X026335Y006139D01*
X026335Y006217D02*
X020802Y006217D01*
X020724Y006296D02*
X026335Y006296D01*
X026335Y006374D02*
X020645Y006374D01*
X020567Y006453D02*
X026335Y006453D01*
X026335Y006531D02*
X020488Y006531D01*
X020410Y006610D02*
X026335Y006610D01*
X026335Y006688D02*
X020331Y006688D01*
X020253Y006767D02*
X026335Y006767D01*
X026335Y006845D02*
X020174Y006845D01*
X020096Y006924D02*
X026335Y006924D01*
X026335Y007002D02*
X020017Y007002D01*
X018595Y008494D02*
X016425Y008494D01*
X016425Y008572D02*
X018595Y008572D01*
X018595Y008651D02*
X016425Y008651D01*
X016425Y008729D02*
X018595Y008729D01*
X018595Y008808D02*
X017035Y008808D01*
X016885Y008967D02*
X018265Y008967D01*
X018435Y009137D01*
X018435Y009947D01*
X018475Y009987D01*
X018320Y010142D02*
X016175Y010142D01*
X016175Y010064D02*
X018256Y010064D01*
X018256Y009985D02*
X016175Y009985D01*
X016175Y009907D02*
X018256Y009907D01*
X018295Y009828D02*
X016175Y009828D01*
X016175Y009750D02*
X018295Y009750D01*
X018295Y009671D02*
X016175Y009671D01*
X016175Y009593D02*
X018295Y009593D01*
X018295Y009514D02*
X016175Y009514D01*
X016175Y009436D02*
X018295Y009436D01*
X018295Y009357D02*
X016175Y009357D01*
X016175Y009279D02*
X018295Y009279D01*
X018295Y009200D02*
X016175Y009200D01*
X016198Y009122D02*
X016730Y009122D01*
X016666Y009043D02*
X016276Y009043D01*
X016355Y008965D02*
X016666Y008965D01*
X016666Y008886D02*
X016425Y008886D01*
X016425Y008808D02*
X016734Y008808D01*
X016285Y008837D02*
X016035Y009087D01*
X016285Y008837D02*
X016285Y007487D01*
X016415Y007357D01*
X016415Y006727D01*
X018382Y008886D02*
X018595Y008886D01*
X018595Y008965D02*
X018461Y008965D01*
X018539Y009043D02*
X018595Y009043D01*
X018595Y009122D02*
X018575Y009122D01*
X018575Y009200D02*
X018595Y009200D01*
X018595Y009279D02*
X018575Y009279D01*
X018575Y009357D02*
X018595Y009357D01*
X018595Y009436D02*
X018575Y009436D01*
X018575Y009514D02*
X018595Y009514D01*
X018595Y009593D02*
X018575Y009593D01*
X018575Y009671D02*
X018595Y009671D01*
X018595Y009750D02*
X018575Y009750D01*
X018595Y010221D02*
X016175Y010221D01*
X016175Y010299D02*
X018392Y010299D01*
X018314Y010378D02*
X016175Y010378D01*
X016175Y010456D02*
X018266Y010456D01*
X018266Y010535D02*
X016175Y010535D01*
X016175Y010613D02*
X018271Y010613D01*
X018345Y010692D02*
X016175Y010692D01*
X016175Y010770D02*
X018345Y010770D01*
X018345Y010849D02*
X016175Y010849D01*
X016175Y010927D02*
X018345Y010927D01*
X018345Y011006D02*
X016175Y011006D01*
X016175Y011084D02*
X018345Y011084D01*
X018345Y011163D02*
X016175Y011163D01*
X016175Y011241D02*
X018345Y011241D01*
X018342Y011320D02*
X016175Y011320D01*
X016175Y011398D02*
X018266Y011398D01*
X018266Y011477D02*
X016175Y011477D01*
X016175Y011555D02*
X018266Y011555D01*
X018577Y010299D02*
X018595Y010299D01*
X018222Y009122D02*
X017039Y009122D01*
X013635Y011869D02*
X013477Y011869D01*
X013555Y011948D02*
X013635Y011948D01*
X013635Y012026D02*
X013604Y012026D01*
X013615Y012105D02*
X013635Y012105D01*
X016185Y013439D02*
X016239Y013439D01*
X022604Y004647D02*
X026335Y004647D01*
X026335Y004569D02*
X022576Y004569D01*
X018564Y001900D02*
X018506Y001900D01*
X018506Y001821D02*
X018564Y001821D01*
X018564Y001743D02*
X018506Y001743D01*
X018506Y001664D02*
X018564Y001664D01*
X018564Y001586D02*
X018506Y001586D01*
X018506Y001507D02*
X017564Y001507D01*
X017564Y001516D02*
X017564Y001458D01*
X018005Y001458D01*
X018005Y001450D01*
X017993Y001377D01*
X017970Y001306D01*
X017937Y001240D01*
X017893Y001180D01*
X017841Y001128D01*
X017781Y001085D01*
X017715Y001051D01*
X017645Y001028D01*
X017572Y001017D01*
X017564Y001017D01*
X017564Y001458D01*
X017506Y001458D01*
X017065Y001458D01*
X017065Y001450D01*
X017076Y001377D01*
X017099Y001306D01*
X017133Y001240D01*
X017176Y001180D01*
X017228Y001128D01*
X017288Y001085D01*
X017354Y001051D01*
X017425Y001028D01*
X017498Y001017D01*
X017506Y001017D01*
X017506Y001458D01*
X017506Y001516D01*
X017506Y001957D01*
X017498Y001957D01*
X017425Y001945D01*
X017354Y001922D01*
X017288Y001889D01*
X017228Y001845D01*
X017176Y001793D01*
X017133Y001733D01*
X017099Y001667D01*
X017076Y001597D01*
X017065Y001524D01*
X017065Y001516D01*
X017506Y001516D01*
X017564Y001516D01*
X017564Y001957D01*
X017572Y001957D01*
X017645Y001945D01*
X017715Y001922D01*
X017781Y001889D01*
X017841Y001845D01*
X017893Y001793D01*
X017937Y001733D01*
X017970Y001667D01*
X017993Y001597D01*
X018005Y001524D01*
X018005Y001516D01*
X017564Y001516D01*
X017506Y001507D02*
X017005Y001507D01*
X017005Y001580D02*
X017005Y001393D01*
X016933Y001220D01*
X016801Y001088D01*
X016628Y001017D01*
X016441Y001017D01*
X016268Y001088D01*
X016136Y001220D01*
X016134Y001227D01*
X015936Y001227D01*
X015933Y001220D01*
X015801Y001088D01*
X015628Y001017D01*
X015441Y001017D01*
X015268Y001088D01*
X015136Y001220D01*
X015065Y001393D01*
X015065Y001580D01*
X015136Y001753D01*
X015268Y001885D01*
X015441Y001957D01*
X015628Y001957D01*
X015801Y001885D01*
X015933Y001753D01*
X015936Y001747D01*
X016134Y001747D01*
X016136Y001753D01*
X016268Y001885D01*
X016441Y001957D01*
X016628Y001957D01*
X016801Y001885D01*
X016933Y001753D01*
X017005Y001580D01*
X017002Y001586D02*
X017074Y001586D01*
X017098Y001664D02*
X016970Y001664D01*
X016937Y001743D02*
X017140Y001743D01*
X017204Y001821D02*
X016865Y001821D01*
X016766Y001900D02*
X017310Y001900D01*
X017506Y001900D02*
X017564Y001900D01*
X017564Y001821D02*
X017506Y001821D01*
X017506Y001743D02*
X017564Y001743D01*
X017564Y001664D02*
X017506Y001664D01*
X017506Y001586D02*
X017564Y001586D01*
X017564Y001429D02*
X017506Y001429D01*
X017506Y001350D02*
X017564Y001350D01*
X017564Y001272D02*
X017506Y001272D01*
X017506Y001193D02*
X017564Y001193D01*
X017564Y001115D02*
X017506Y001115D01*
X017506Y001036D02*
X017564Y001036D01*
X017669Y001036D02*
X018400Y001036D01*
X018247Y001115D02*
X017822Y001115D01*
X017902Y001193D02*
X018167Y001193D01*
X018117Y001272D02*
X017953Y001272D01*
X017984Y001350D02*
X018085Y001350D01*
X018068Y001429D02*
X018001Y001429D01*
X017995Y001586D02*
X018074Y001586D01*
X018098Y001664D02*
X017971Y001664D01*
X017930Y001743D02*
X018140Y001743D01*
X018204Y001821D02*
X017865Y001821D01*
X017759Y001900D02*
X018310Y001900D01*
X019001Y001429D02*
X019065Y001429D01*
X019082Y001350D02*
X018984Y001350D01*
X018953Y001272D02*
X019115Y001272D01*
X019163Y001193D02*
X018902Y001193D01*
X018822Y001115D02*
X019242Y001115D01*
X017400Y001036D02*
X016675Y001036D01*
X016827Y001115D02*
X017247Y001115D01*
X017167Y001193D02*
X016906Y001193D01*
X016954Y001272D02*
X017117Y001272D01*
X017085Y001350D02*
X016987Y001350D01*
X017005Y001429D02*
X017068Y001429D01*
X016394Y001036D02*
X015675Y001036D01*
X015827Y001115D02*
X016242Y001115D01*
X016163Y001193D02*
X015906Y001193D01*
X015394Y001036D02*
X014675Y001036D01*
X014827Y001115D02*
X015242Y001115D01*
X015163Y001193D02*
X014906Y001193D01*
X014954Y001272D02*
X015115Y001272D01*
X015082Y001350D02*
X014987Y001350D01*
X015005Y001429D02*
X015065Y001429D01*
X015065Y001507D02*
X015005Y001507D01*
X015002Y001586D02*
X015067Y001586D01*
X015099Y001664D02*
X014970Y001664D01*
X014937Y001743D02*
X015132Y001743D01*
X015204Y001821D02*
X014865Y001821D01*
X014766Y001900D02*
X015304Y001900D01*
X015766Y001900D02*
X016304Y001900D01*
X016204Y001821D02*
X015865Y001821D01*
D17*
X020335Y009187D03*
X020735Y009187D03*
X021135Y009187D03*
X021535Y009187D03*
X021535Y009587D03*
X021535Y009987D03*
X021535Y010387D03*
X021135Y010387D03*
X020735Y010387D03*
X020735Y009987D03*
X021135Y009987D03*
X021135Y009587D03*
X020735Y009587D03*
X020335Y009587D03*
X020335Y009987D03*
X020335Y010387D03*
D18*
X019635Y011087D03*
X007885Y015137D03*
X007885Y015837D03*
X007185Y015837D03*
X007185Y015137D03*
D19*
X006785Y016487D02*
X006595Y016677D01*
X006595Y016747D01*
X006785Y016487D02*
X011035Y016487D01*
X011685Y015987D02*
X011785Y015887D01*
X011685Y015987D02*
X009035Y015987D01*
X008865Y016977D02*
X007435Y016977D01*
X007275Y017137D01*
X007275Y017217D01*
X008145Y017357D02*
X008145Y017687D01*
X007705Y018127D01*
X007705Y018907D01*
X007755Y019007D01*
X007975Y019397D02*
X006705Y019397D01*
X006535Y019227D01*
X006535Y017887D01*
X006505Y017857D01*
X006505Y017687D01*
X006475Y017657D01*
X006095Y017897D02*
X005675Y017477D01*
X005675Y016557D01*
X005185Y015787D02*
X005185Y015337D01*
X005285Y015237D01*
X005485Y015237D01*
X005495Y015227D01*
X005465Y015227D01*
X008145Y017357D02*
X008165Y017337D01*
X008865Y016977D02*
X008885Y016997D01*
X008185Y018147D02*
X008165Y018167D01*
X008185Y018187D01*
X008185Y019187D01*
X007975Y019397D01*
X008065Y019657D02*
X006105Y019657D01*
X005785Y019977D01*
X005785Y019987D01*
X008065Y019657D02*
X010545Y017177D01*
X010545Y017167D01*
X011285Y017837D02*
X011285Y018137D01*
X008935Y020487D01*
X009935Y020487D02*
X009935Y019987D01*
X011735Y018187D01*
X011735Y017937D01*
X012485Y019087D02*
X013535Y018037D01*
X013535Y012237D01*
X013385Y012087D01*
X013185Y012437D02*
X013285Y012537D01*
X013285Y017887D01*
X010935Y020237D01*
X010935Y020487D01*
X011935Y020487D02*
X011935Y020037D01*
X012485Y019487D01*
X012485Y019087D01*
X013535Y018487D02*
X013535Y019737D01*
X012935Y020337D01*
X012935Y020487D01*
X013935Y020487D02*
X013935Y018587D01*
X014035Y018487D01*
X014035Y008137D01*
X013885Y007987D01*
X013885Y007537D01*
X014285Y007937D02*
X014285Y018487D01*
X014415Y018617D01*
X014415Y019617D01*
X014935Y020137D01*
X014935Y020487D01*
X015935Y020487D02*
X015935Y020437D01*
X014785Y019287D01*
X014785Y018537D01*
X014535Y018287D01*
X014535Y008637D01*
X014735Y008437D01*
X015085Y008587D02*
X015085Y007187D01*
X015435Y007637D02*
X015335Y007737D01*
X015335Y008737D01*
X015035Y009037D01*
X015035Y018087D01*
X015285Y018337D01*
X015285Y018887D01*
X015885Y019487D01*
X016185Y019487D01*
X016535Y019837D01*
X017285Y019837D01*
X017935Y020487D01*
X016935Y020487D02*
X016785Y020487D01*
X016035Y019737D01*
X015785Y019737D01*
X015035Y018987D01*
X015035Y018437D01*
X014785Y018187D01*
X014785Y008887D01*
X015085Y008587D01*
X015535Y008937D02*
X015785Y008687D01*
X015785Y006887D01*
X016135Y007187D02*
X016035Y007287D01*
X016035Y008737D01*
X015785Y008987D01*
X015785Y013137D01*
X016035Y013387D01*
X016035Y016737D01*
X016535Y017237D01*
X016535Y017737D01*
X016785Y017987D01*
X016035Y018237D02*
X015785Y018237D01*
X015655Y018107D01*
X015655Y017407D01*
X015785Y017277D01*
X015785Y013487D01*
X015535Y013237D01*
X015535Y008937D01*
X013785Y010237D02*
X013785Y018237D01*
X013535Y018487D01*
X010535Y015487D02*
X010535Y005687D01*
X010735Y005487D01*
X010535Y005287D01*
X010535Y004737D01*
X010785Y004487D01*
X013035Y004487D01*
X014535Y002987D01*
X014535Y001487D01*
X015175Y005487D02*
X010735Y005487D01*
X015175Y005487D02*
X016415Y006727D01*
X019835Y007537D02*
X020035Y007337D01*
X019835Y007537D02*
X019835Y008587D01*
X020835Y011387D02*
X020835Y011567D01*
X021585Y012687D02*
X021635Y012737D01*
X021635Y018837D01*
X020535Y019937D01*
X020535Y020487D01*
X019535Y020487D02*
X019535Y020187D01*
X020385Y019337D01*
X020785Y019337D01*
X021385Y018737D01*
X021385Y012987D01*
X021235Y012837D01*
X021885Y012537D02*
X021885Y018937D01*
X021535Y019287D01*
X021535Y020487D01*
X022535Y020487D02*
X022535Y019437D01*
X022135Y019037D01*
X022135Y017487D01*
X022235Y017387D01*
X022485Y017687D02*
X022385Y017787D01*
X022385Y018887D01*
X022785Y019287D01*
X022835Y019287D01*
X023535Y019987D01*
X023535Y020487D01*
X025535Y020487D02*
X025785Y020237D01*
X025785Y019737D01*
X026285Y019237D01*
X026285Y018737D01*
X026035Y018487D01*
X025285Y017737D01*
X026035Y017737D02*
X026535Y018237D01*
X026535Y020487D01*
X026285Y016237D02*
X026035Y016237D01*
X026285Y016237D02*
X026535Y015987D01*
X026535Y014487D01*
X027535Y013487D01*
X027535Y013387D01*
X027035Y013677D02*
X026725Y013987D01*
X026535Y013987D01*
X026285Y014237D01*
X026285Y015387D01*
X026185Y015487D01*
X026035Y015487D01*
X027035Y013677D02*
X027035Y012737D01*
X027385Y012387D01*
X027535Y012387D01*
X020885Y016837D02*
X020785Y016737D01*
X019135Y016737D01*
X019035Y016637D01*
X018835Y016637D01*
X018985Y016987D02*
X020485Y016987D01*
X020635Y017137D01*
X020235Y017287D02*
X019285Y017287D01*
X019885Y017687D02*
X019635Y017937D01*
X019885Y017687D02*
X020235Y017687D01*
D20*
X009285Y008737D02*
X009285Y004987D01*
X011035Y004987D02*
X013285Y004987D01*
X015535Y002737D01*
X018785Y002737D01*
X019535Y001987D01*
X019535Y001487D01*
X016535Y001487D02*
X015535Y001487D01*
D21*
X007785Y005737D03*
X007035Y005737D03*
X006285Y005737D03*
X005535Y005737D03*
X007785Y007237D03*
X007785Y008737D03*
X007035Y008737D03*
X006285Y008737D03*
X005535Y008737D03*
D22*
X006385Y013687D03*
X004725Y016327D03*
X005785Y019987D03*
X023435Y007937D03*
D23*
X023435Y007787D01*
X023335Y007687D01*
X021835Y007687D01*
X021735Y007787D01*
X021685Y007737D01*
X021035Y007737D01*
X021735Y007787D02*
X021735Y007987D01*
X008535Y010237D02*
X006385Y012387D01*
X006385Y013687D01*
X005585Y013687D01*
X004725Y014547D01*
X004725Y016327D01*
D24*
X019635Y011087D02*
X019935Y011387D01*
X020835Y011387D01*
X026535Y011387D01*
D25*
X009285Y008737D03*
X008535Y010237D03*
X009285Y004987D03*
D26*
X011035Y004987D03*
M02*
