G75*
%MOIN*%
%OFA0B0*%
%FSLAX24Y24*%
%IPPOS*%
%LPD*%
%AMOC8*
5,1,8,0,0,1.08239X$1,22.5*
%
%ADD10R,0.0197X0.0197*%
%ADD11R,0.0453X0.0394*%
%ADD12R,0.0335X0.0866*%
%ADD13R,0.0394X0.0413*%
%ADD14R,0.0870X0.0240*%
%ADD15R,0.0276X0.0315*%
%ADD16C,0.0118*%
%ADD17R,0.0315X0.0354*%
%ADD18R,0.0669X0.0157*%
%ADD19R,0.0880X0.0480*%
%ADD20R,0.0866X0.1417*%
%ADD21R,0.0787X0.0709*%
%ADD22R,0.0709X0.0630*%
%ADD23R,0.0248X0.0327*%
%ADD24R,0.0906X0.0630*%
%ADD25R,0.0984X0.0472*%
%ADD26R,0.0220X0.0102*%
%ADD27R,0.0394X0.0394*%
%ADD28R,0.0118X0.0118*%
%ADD29R,0.0102X0.0220*%
%ADD30R,0.0315X0.0091*%
%ADD31R,0.0091X0.0315*%
%ADD32R,0.0599X0.0599*%
%ADD33R,0.0433X0.0236*%
%ADD34R,0.0945X0.0591*%
D10*
X017068Y011097D03*
X017501Y011097D03*
X018868Y010787D03*
X019301Y010787D03*
X022388Y008487D03*
X022388Y008227D03*
X022821Y008227D03*
X022821Y008487D03*
X023218Y008697D03*
X023651Y008697D03*
X024185Y008660D03*
X024185Y009093D03*
X024408Y009097D03*
X024841Y009097D03*
X025065Y009093D03*
X025505Y009083D03*
X025508Y009087D03*
X025941Y009087D03*
X025505Y008650D03*
X025065Y008660D03*
X023651Y009487D03*
X023218Y009487D03*
X023018Y009897D03*
X023451Y009897D03*
X023451Y010287D03*
X023018Y010287D03*
X023018Y010667D03*
X023018Y010997D03*
X023451Y010997D03*
X023451Y010667D03*
X023341Y013127D03*
X022908Y013127D03*
X022908Y014477D03*
X023341Y014477D03*
X022821Y007967D03*
X022388Y007967D03*
X022381Y007707D03*
X022235Y007303D03*
X022235Y006870D03*
X021948Y007707D03*
X020335Y007303D03*
X020335Y006870D03*
X019751Y007187D03*
X019318Y007187D03*
D11*
X020940Y007343D03*
X021629Y007343D03*
X021629Y006831D03*
X020940Y006831D03*
D12*
X024853Y005087D03*
X025936Y005087D03*
D13*
X025395Y005687D03*
X025395Y004486D03*
D14*
X017605Y008987D03*
X017605Y009487D03*
X017605Y009987D03*
X017605Y010487D03*
X014955Y010487D03*
X014955Y009987D03*
X014955Y009487D03*
X014955Y008987D03*
D15*
X012119Y013837D03*
X011450Y013837D03*
X007499Y013917D03*
X006830Y013917D03*
X006119Y014267D03*
X006119Y014847D03*
X005450Y014847D03*
X005450Y014267D03*
X006830Y013337D03*
X007499Y013337D03*
X003619Y011687D03*
X002950Y011687D03*
X002930Y010187D03*
X003599Y010187D03*
X003599Y008687D03*
X002930Y008687D03*
X023260Y008327D03*
X023929Y008327D03*
D16*
X003768Y008125D02*
X003768Y007849D01*
X003492Y007849D01*
X003492Y008125D01*
X003768Y008125D01*
X003768Y007966D02*
X003492Y007966D01*
X003492Y008083D02*
X003768Y008083D01*
X003077Y008125D02*
X003077Y007849D01*
X002801Y007849D01*
X002801Y008125D01*
X003077Y008125D01*
X003077Y007966D02*
X002801Y007966D01*
X002801Y008083D02*
X003077Y008083D01*
X002801Y009349D02*
X002801Y009625D01*
X003077Y009625D01*
X003077Y009349D01*
X002801Y009349D01*
X002801Y009466D02*
X003077Y009466D01*
X003077Y009583D02*
X002801Y009583D01*
X003492Y009625D02*
X003492Y009349D01*
X003492Y009625D02*
X003768Y009625D01*
X003768Y009349D01*
X003492Y009349D01*
X003492Y009466D02*
X003768Y009466D01*
X003768Y009583D02*
X003492Y009583D01*
X003492Y010849D02*
X003492Y011125D01*
X003768Y011125D01*
X003768Y010849D01*
X003492Y010849D01*
X003492Y010966D02*
X003768Y010966D01*
X003768Y011083D02*
X003492Y011083D01*
X002801Y011125D02*
X002801Y010849D01*
X002801Y011125D02*
X003077Y011125D01*
X003077Y010849D01*
X002801Y010849D01*
X002801Y010966D02*
X003077Y010966D01*
X003077Y011083D02*
X002801Y011083D01*
D17*
X011411Y015380D03*
X012159Y015380D03*
X011785Y014554D03*
X012159Y016343D03*
X011411Y016343D03*
X011785Y017170D03*
D18*
X003394Y015998D03*
X003394Y015743D03*
X003394Y015487D03*
X003394Y015231D03*
X003394Y014975D03*
D19*
X009255Y008147D03*
X009255Y007237D03*
X009255Y006327D03*
D20*
X006815Y007237D03*
D21*
X008935Y002739D03*
X008935Y004235D03*
D22*
X010285Y004038D03*
X011485Y004038D03*
X011485Y002935D03*
X010285Y002935D03*
D23*
X009737Y009487D03*
X008832Y009487D03*
D24*
X004875Y020187D03*
X002394Y020187D03*
D25*
X012785Y004136D03*
X012785Y002837D03*
D26*
X008440Y014896D03*
X008440Y015093D03*
X008440Y015290D03*
X008440Y015487D03*
X008440Y015684D03*
X008440Y015880D03*
X008440Y016077D03*
X006629Y016077D03*
X006629Y015880D03*
X006629Y015684D03*
X006629Y015487D03*
X006629Y015290D03*
X006629Y015093D03*
X006629Y014896D03*
D27*
X007535Y015487D03*
D28*
X006708Y016313D03*
D29*
X006944Y016392D03*
X007141Y016392D03*
X007338Y016392D03*
X007535Y016392D03*
X007731Y016392D03*
X007928Y016392D03*
X008125Y016392D03*
X008125Y014581D03*
X007928Y014581D03*
X007731Y014581D03*
X007535Y014581D03*
X007338Y014581D03*
X007141Y014581D03*
X006944Y014581D03*
D30*
X019754Y010653D03*
X019754Y010495D03*
X019754Y010338D03*
X019754Y010180D03*
X019754Y010023D03*
X019754Y009865D03*
X019754Y009708D03*
X019754Y009550D03*
X019754Y009393D03*
X019754Y009235D03*
X019754Y009078D03*
X019754Y008921D03*
X022116Y008921D03*
X022116Y009078D03*
X022116Y009235D03*
X022116Y009393D03*
X022116Y009550D03*
X022116Y009708D03*
X022116Y009865D03*
X022116Y010023D03*
X022116Y010180D03*
X022116Y010338D03*
X022116Y010495D03*
X022116Y010653D03*
D31*
X021801Y010968D03*
X021643Y010968D03*
X021486Y010968D03*
X021328Y010968D03*
X021171Y010968D03*
X021013Y010968D03*
X020856Y010968D03*
X020698Y010968D03*
X020541Y010968D03*
X020383Y010968D03*
X020226Y010968D03*
X020069Y010968D03*
X020069Y008606D03*
X020226Y008606D03*
X020383Y008606D03*
X020541Y008606D03*
X020698Y008606D03*
X020856Y008606D03*
X021013Y008606D03*
X021171Y008606D03*
X021328Y008606D03*
X021486Y008606D03*
X021643Y008606D03*
X021801Y008606D03*
D32*
X021358Y009363D03*
X020511Y009363D03*
X020511Y010210D03*
X021358Y010210D03*
D33*
X022887Y013580D03*
X022887Y013974D03*
D34*
X025112Y013777D03*
M02*
