%
M48
M72
T01C0.0118
T02C0.0150
T03C0.0157
T04C0.0197
T05C0.0236
T06C0.0240
T07C0.0276
T08C0.0315
T09C0.0320
T10C0.0394
T11C0.0669
T12C0.0866
T13C0.1024
T14C0.1260
%
T01
X5026Y5293
X5026Y7043
X6526Y7043
X6076Y8163
X6866Y9453
X7146Y9263
X6396Y10133
X5826Y10243
X6276Y11023
X6616Y11743
X6276Y12493
X6446Y13403
X5826Y13493
X5776Y14143
X5676Y14593
X6876Y15643
X7726Y14643
X7126Y13893
X8126Y13393
X7626Y11893
X9776Y13043
X10346Y11613
X11246Y12513
X13256Y12523
X13256Y14373
X13256Y15473
X14406Y15473
X15606Y15523
X15476Y16393
X16076Y16743
X15676Y17143
X15176Y17593
X15976Y18293
X16426Y17943
X16726Y18643
X16426Y18993
X14646Y19743
X13626Y21333
X13096Y21343
X12126Y21343
X11626Y21293
X12026Y20743
X10876Y20643
X10826Y19693
X12626Y19343
X11526Y16243
X11176Y16043
X11296Y14963
X9876Y15643
X8226Y15643
X8626Y18273
X8376Y21243
X6976Y21693
X6626Y21843
X6326Y22143
X5676Y22493
X5926Y23093
X6326Y23093
X6476Y23493
X6776Y23743
X8426Y23343
X9376Y23343
X10076Y22943
X10176Y22593
X10726Y22593
X11076Y22543
X11126Y23193
X11576Y23593
X10776Y24093
X10926Y24443
X11076Y24743
X11226Y25043
X11236Y26443
X11726Y27493
X11926Y28143
X11286Y28143
X10626Y28143
X9326Y28393
X8626Y28393
X8926Y27543
X7726Y27543
X6526Y27193
X5876Y27493
X5876Y28143
X5876Y28893
X5126Y28893
X8526Y25893
X9826Y26493
X12856Y27033
X13226Y26843
X13626Y26893
X13826Y27763
X14226Y27763
X14226Y28213
X13826Y28213
X13426Y28213
X13426Y27763
X12976Y27763
X12976Y28213
X12976Y28663
X13376Y28663
X13696Y28843
X14226Y28663
X14226Y29063
X14826Y29063
X14826Y28713
X15276Y28713
X15276Y29063
X15786Y29063
X15786Y28713
X16296Y28713
X16296Y29063
X16796Y29073
X16796Y28723
X17296Y28713
X17296Y29063
X17776Y29063
X17776Y28713
X17296Y28013
X17296Y27563
X17776Y27563
X17796Y27063
X18276Y27063
X18746Y27063
X18746Y26563
X18276Y26563
X17796Y26563
X18276Y26063
X18746Y26063
X19246Y26073
X19696Y26063
X19696Y26563
X19246Y26573
X19246Y27073
X19696Y27063
X19696Y27513
X19246Y27523
X19696Y27973
X19696Y28323
X19696Y28723
X19696Y29073
X20196Y29063
X20196Y28713
X20196Y28313
X20196Y27963
X20176Y27513
X20176Y27063
X20676Y27063
X20676Y27513
X20676Y27963
X20676Y28313
X20676Y28713
X20676Y29063
X19196Y29063
X19196Y28713
X17296Y27073
X16796Y27063
X16796Y27573
X16796Y28023
X16296Y28013
X16296Y27563
X16286Y27063
X15776Y27063
X15786Y27563
X15786Y28013
X15276Y28013
X15276Y27563
X14826Y27563
X12976Y29063
X16436Y25643
X17286Y25443
X18926Y25243
X19276Y25343
X20176Y26563
X19026Y23293
X20126Y22643
X19026Y21043
X16276Y22893
X15026Y22693
X15876Y23893
X15626Y24593
X15026Y33543
X13426Y35393
X12356Y36683
X12316Y37633
X13616Y38003
X11926Y39043
X10346Y40113
X11246Y41013
X9776Y41543
X8126Y41893
X7126Y42393
X6446Y41903
X5826Y41993
X5776Y42643
X5676Y43093
X6876Y44143
X7726Y43143
X8226Y44143
X9876Y44143
X11176Y44543
X11526Y44743
X11296Y43463
X13256Y43973
X13256Y42873
X14406Y42873
X15606Y42873
X15606Y44023
X15476Y44893
X16076Y45243
X15676Y45643
X15176Y46093
X15976Y46793
X16426Y46443
X16726Y47143
X16426Y47493
X14646Y48243
X13626Y49833
X13096Y49843
X12126Y49843
X11626Y49793
X12026Y49243
X10876Y49143
X10826Y48193
X12626Y47843
X11076Y51043
X10726Y51093
X10176Y51093
X10076Y51443
X9376Y51843
X8426Y51843
X6776Y52243
X6476Y51993
X6326Y51593
X5926Y51593
X5676Y50993
X6326Y50643
X6626Y50343
X6976Y50193
X8376Y49743
X5626Y48143
X5376Y47393
X8626Y46773
X11126Y51693
X11576Y52093
X10776Y52593
X10926Y52943
X11076Y53243
X11226Y53543
X11236Y54943
X11726Y55993
X11926Y56643
X11286Y56643
X10626Y56643
X9326Y56893
X8626Y56893
X8926Y56043
X9826Y54993
X8526Y54393
X7726Y56043
X6526Y55693
X5876Y55993
X5876Y56643
X5876Y57393
X5126Y57393
X5926Y53843
X6226Y53593
X12856Y55533
X13226Y55343
X13626Y55393
X14826Y56063
X15276Y56063
X15276Y56513
X15786Y56513
X15786Y56063
X15776Y55563
X16286Y55563
X16296Y56063
X16296Y56513
X16796Y56523
X16796Y56073
X17296Y56063
X17296Y56513
X17776Y56063
X17796Y55563
X18276Y55563
X18746Y55563
X18746Y55063
X18276Y55063
X17796Y55063
X18276Y54563
X18746Y54563
X19246Y54573
X19696Y54563
X19696Y55063
X19246Y55073
X19246Y55573
X19696Y55563
X19696Y56013
X19246Y56023
X19696Y56473
X19696Y56823
X19696Y57223
X19696Y57573
X20196Y57563
X20196Y57213
X20196Y56813
X20196Y56463
X20176Y56013
X20176Y55563
X20676Y55563
X20676Y56013
X20676Y56463
X20676Y56813
X20676Y57213
X20676Y57563
X19196Y57563
X19196Y57213
X17776Y57213
X17776Y57563
X17296Y57563
X17296Y57213
X16796Y57223
X16796Y57573
X16296Y57563
X16296Y57213
X15786Y57213
X15786Y57563
X15276Y57563
X15276Y57213
X14826Y57213
X14826Y57563
X14226Y57563
X14226Y57163
X14226Y56713
X13826Y56713
X13426Y56713
X13426Y56263
X13826Y56263
X14226Y56263
X13696Y57343
X13376Y57163
X12976Y57163
X12976Y57563
X12976Y56713
X12976Y56263
X16796Y55563
X17296Y55573
X17286Y53943
X16436Y54143
X15626Y53093
X15876Y52393
X16276Y51393
X15026Y51193
X19026Y51793
X20126Y51143
X19026Y49543
X18926Y53743
X19276Y53843
X20176Y55063
X26126Y57393
X26876Y57393
X26876Y56643
X26876Y55993
X27526Y55693
X28726Y56043
X29926Y56043
X30826Y54993
X32236Y54943
X32726Y55993
X32926Y56643
X32286Y56643
X31626Y56643
X30326Y56893
X29626Y56893
X29526Y54393
X27226Y53593
X26926Y53843
X27776Y52243
X27476Y51993
X27326Y51593
X26926Y51593
X26676Y50993
X27326Y50643
X27626Y50343
X27976Y50193
X29376Y49743
X31176Y51093
X31076Y51443
X31726Y51093
X32076Y51043
X32126Y51693
X32576Y52093
X31776Y52593
X31926Y52943
X32076Y53243
X32226Y53543
X30376Y51843
X29426Y51843
X31876Y49143
X32626Y49793
X33126Y49843
X33026Y49243
X34096Y49843
X34626Y49833
X35646Y48243
X37426Y47493
X37726Y47143
X37426Y46443
X36976Y46793
X36176Y46093
X36676Y45643
X37076Y45243
X36476Y44893
X36606Y44023
X36606Y42873
X35406Y42873
X34256Y42873
X34256Y43973
X35406Y43973
X32526Y44743
X32176Y44543
X32296Y43463
X30876Y44143
X29226Y44143
X28726Y43143
X28126Y42393
X27446Y41903
X26826Y41993
X26776Y42643
X26676Y43093
X27876Y44143
X29126Y41893
X28626Y40393
X27616Y40243
X27276Y39523
X27396Y38633
X26826Y38743
X25676Y38383
X25606Y39113
X27276Y40993
X27866Y37953
X28146Y37763
X27076Y36663
X27526Y35543
X26026Y35543
X26026Y33793
X28826Y36543
X29386Y36823
X29736Y35403
X31776Y34293
X32976Y33543
X34426Y35393
X33356Y36683
X33316Y37633
X34616Y38003
X32926Y39043
X31346Y40113
X32246Y41013
X30776Y41543
X34256Y41023
X38776Y41343
X39376Y41343
X43026Y40543
X43016Y42403
X43026Y44043
X47376Y47393
X47626Y48143
X50376Y49743
X48976Y50193
X48626Y50343
X48326Y50643
X47676Y50993
X47926Y51593
X48326Y51593
X48476Y51993
X48776Y52243
X48226Y53593
X47926Y53843
X48526Y55693
X47876Y55993
X47876Y56643
X47876Y57393
X47126Y57393
X49726Y56043
X50926Y56043
X51826Y54993
X50526Y54393
X53236Y54943
X53726Y55993
X53926Y56643
X53286Y56643
X52626Y56643
X51326Y56893
X50626Y56893
X53226Y53543
X53076Y53243
X52926Y52943
X52776Y52593
X53576Y52093
X53126Y51693
X53076Y51043
X52726Y51093
X52176Y51093
X52076Y51443
X51376Y51843
X50426Y51843
X52876Y49143
X53626Y49793
X54126Y49843
X54026Y49243
X55096Y49843
X55626Y49833
X56646Y48243
X58426Y47493
X58726Y47143
X58426Y46443
X57976Y46793
X57176Y46093
X57676Y45643
X58076Y45243
X57476Y44893
X57606Y44023
X57606Y42873
X56406Y42873
X56406Y43973
X55256Y43973
X55256Y42873
X53296Y43463
X53176Y44543
X53526Y44743
X51876Y44143
X50226Y44143
X49726Y43143
X49126Y42393
X48446Y41903
X47826Y41993
X47776Y42643
X47676Y43093
X48876Y44143
X50126Y41893
X49626Y40393
X48616Y40243
X48276Y39523
X48396Y38633
X47826Y38743
X48866Y37953
X49146Y37763
X50386Y36823
X49826Y36543
X50736Y35403
X48526Y35543
X48076Y36663
X47026Y35543
X47026Y33793
X42576Y33543
X39376Y33543
X36026Y33543
X31866Y36633
X33976Y29063
X33976Y28663
X34376Y28663
X34696Y28843
X35226Y28663
X35226Y29063
X35826Y29063
X35826Y28713
X36276Y28713
X36276Y29063
X36786Y29063
X36786Y28713
X37296Y28713
X37296Y29063
X37796Y29073
X37796Y28723
X38296Y28713
X38296Y29063
X38776Y29063
X38776Y28713
X38296Y28013
X38296Y27563
X38776Y27563
X38796Y27063
X39276Y27063
X39746Y27063
X39746Y26563
X39276Y26563
X38796Y26563
X39276Y26063
X39746Y26063
X40246Y26073
X40696Y26063
X40696Y26563
X40246Y26573
X40246Y27073
X40696Y27063
X40696Y27513
X40246Y27523
X40696Y27973
X40696Y28323
X40696Y28723
X40696Y29073
X41196Y29063
X41196Y28713
X41196Y28313
X41196Y27963
X41176Y27513
X41176Y27063
X41676Y27063
X41676Y27513
X41676Y27963
X41676Y28313
X41676Y28713
X41676Y29063
X40196Y29063
X40196Y28713
X37796Y28023
X37796Y27573
X37296Y27563
X37296Y28013
X36786Y28013
X36786Y27563
X36776Y27063
X37286Y27063
X37796Y27063
X38296Y27073
X37436Y25643
X38286Y25443
X36626Y24593
X36876Y23893
X37276Y22893
X36026Y22693
X34626Y21333
X34096Y21343
X33126Y21343
X32626Y21293
X33026Y20743
X31876Y20643
X31826Y19693
X33626Y19343
X35646Y19743
X37426Y18993
X37726Y18643
X37426Y17943
X36976Y18293
X36676Y17143
X37076Y16743
X36476Y16393
X36606Y15523
X36606Y14373
X35406Y14373
X34256Y14373
X34256Y15473
X35406Y15473
X36176Y17593
X32526Y16243
X32176Y16043
X32296Y14963
X30876Y15643
X29226Y15643
X28726Y14643
X28126Y13893
X27446Y13403
X26826Y13493
X26776Y14143
X26676Y14593
X27876Y15643
X29126Y13393
X28626Y11893
X27616Y11743
X27276Y11023
X27396Y10133
X26826Y10243
X25676Y9883
X25606Y10613
X27276Y12493
X27866Y9453
X28146Y9263
X28826Y8043
X29386Y8323
X29736Y6903
X27526Y7043
X27076Y8163
X26026Y7043
X26026Y5293
X21576Y5043
X18376Y5043
X15026Y5043
X13426Y6893
X12356Y8183
X12316Y9133
X13616Y9503
X11926Y10543
X10866Y8133
X8736Y6903
X7826Y8043
X8386Y8323
X10776Y5793
X11976Y5043
X4676Y9883
X4606Y10613
X5376Y18893
X5626Y19643
X6226Y25093
X5926Y25343
X11976Y33543
X10776Y34293
X8736Y35403
X7826Y36543
X8386Y36823
X7146Y37763
X6866Y37953
X6396Y38633
X5826Y38743
X6276Y39523
X6616Y40243
X7626Y40393
X6276Y40993
X4606Y39113
X4676Y38383
X6076Y36663
X6526Y35543
X5026Y35543
X5026Y33793
X10866Y36633
X13256Y41023
X14406Y43973
X17776Y41343
X18376Y41343
X22016Y42403
X22026Y44043
X22026Y40543
X29626Y46773
X31826Y48193
X33626Y47843
X36026Y51193
X37276Y51393
X36876Y52393
X36626Y53093
X37436Y54143
X38286Y53943
X39276Y54563
X39746Y54563
X40246Y54573
X40696Y54563
X40696Y55063
X40246Y55073
X40246Y55573
X40696Y55563
X40696Y56013
X40246Y56023
X40696Y56473
X40696Y56823
X40696Y57223
X40696Y57573
X41196Y57563
X41196Y57213
X41196Y56813
X41196Y56463
X41176Y56013
X41176Y55563
X41676Y55563
X41676Y56013
X41676Y56463
X41676Y56813
X41676Y57213
X41676Y57563
X40196Y57563
X40196Y57213
X38776Y57213
X38776Y57563
X38296Y57563
X38296Y57213
X37796Y57223
X37796Y57573
X37296Y57563
X37296Y57213
X36786Y57213
X36786Y57563
X36276Y57563
X36276Y57213
X35826Y57213
X35826Y57563
X35226Y57563
X35226Y57163
X35226Y56713
X34826Y56713
X34426Y56713
X34426Y56263
X34826Y56263
X35226Y56263
X35826Y56063
X36276Y56063
X36276Y56513
X36786Y56513
X36786Y56063
X36776Y55563
X37286Y55563
X37296Y56063
X37296Y56513
X37796Y56523
X37796Y56073
X38296Y56063
X38296Y56513
X38776Y56063
X38796Y55563
X39276Y55563
X39746Y55563
X39746Y55063
X39276Y55063
X38796Y55063
X38296Y55573
X37796Y55563
X39926Y53743
X40276Y53843
X41176Y55063
X40026Y51793
X41126Y51143
X40026Y49543
X34626Y55393
X34226Y55343
X33856Y55533
X33976Y56263
X33976Y56713
X33976Y57163
X34376Y57163
X34696Y57343
X33976Y57563
X26626Y48143
X26376Y47393
X21576Y33543
X18376Y33543
X26126Y28893
X26876Y28893
X26876Y28143
X26876Y27493
X27526Y27193
X28726Y27543
X29626Y28393
X30326Y28393
X29926Y27543
X30826Y26493
X32236Y26443
X32726Y27493
X32926Y28143
X32286Y28143
X31626Y28143
X33976Y28213
X34426Y28213
X34826Y28213
X35226Y28213
X35226Y27763
X34826Y27763
X34426Y27763
X33976Y27763
X33856Y27033
X34226Y26843
X34626Y26893
X35826Y27563
X36276Y27563
X36276Y28013
X39926Y25243
X40276Y25343
X41176Y26563
X40026Y23293
X41126Y22643
X40026Y21043
X43026Y15543
X43016Y13903
X43026Y12043
X39376Y12843
X38776Y12843
X34256Y12523
X32246Y12513
X31346Y11613
X30776Y13043
X32926Y10543
X34616Y9503
X33316Y9133
X33356Y8183
X31866Y8133
X31776Y5793
X32976Y5043
X34426Y6893
X36026Y5043
X39376Y5043
X42576Y5043
X47026Y5293
X47026Y7043
X48526Y7043
X48076Y8163
X48866Y9453
X49146Y9263
X48396Y10133
X47826Y10243
X48276Y11023
X48616Y11743
X48276Y12493
X48446Y13403
X47826Y13493
X47776Y14143
X47676Y14593
X48876Y15643
X49726Y14643
X49126Y13893
X50126Y13393
X49626Y11893
X51776Y13043
X52346Y11613
X53246Y12513
X55256Y12523
X55256Y14373
X55256Y15473
X56406Y15473
X57476Y16393
X58076Y16743
X57676Y17143
X57176Y17593
X57976Y18293
X58426Y17943
X58726Y18643
X58426Y18993
X56646Y19743
X55626Y21333
X55096Y21343
X54126Y21343
X53626Y21293
X54026Y20743
X52876Y20643
X52826Y19693
X54626Y19343
X53526Y16243
X53176Y16043
X51876Y15643
X53296Y14963
X56406Y14373
X57606Y14373
X57606Y15523
X59776Y12843
X60376Y12843
X64026Y12043
X64016Y13903
X64026Y15543
X61026Y21043
X62126Y22643
X61026Y23293
X60926Y25243
X61276Y25343
X61246Y26073
X61696Y26063
X61696Y26563
X61246Y26573
X61246Y27073
X61696Y27063
X61696Y27513
X61246Y27523
X61696Y27973
X61696Y28323
X61696Y28723
X61696Y29073
X62196Y29063
X62196Y28713
X62196Y28313
X62196Y27963
X62176Y27513
X62176Y27063
X62676Y27063
X62676Y27513
X62676Y27963
X62676Y28313
X62676Y28713
X62676Y29063
X61196Y29063
X61196Y28713
X59776Y28713
X59776Y29063
X59296Y29063
X59296Y28713
X58796Y28723
X58796Y29073
X58296Y29063
X58296Y28713
X57786Y28713
X57786Y29063
X57276Y29063
X57276Y28713
X56826Y28713
X56826Y29063
X56226Y29063
X56226Y28663
X56226Y28213
X55826Y28213
X55426Y28213
X55426Y27763
X55826Y27763
X56226Y27763
X56826Y27563
X57276Y27563
X57276Y28013
X57786Y28013
X57786Y27563
X57776Y27063
X58286Y27063
X58296Y27563
X58296Y28013
X58796Y28023
X58796Y27573
X59296Y27563
X59296Y28013
X59776Y27563
X59796Y27063
X60276Y27063
X60746Y27063
X60746Y26563
X60276Y26563
X59796Y26563
X60276Y26063
X60746Y26063
X62176Y26563
X59296Y27073
X58796Y27063
X58436Y25643
X59286Y25443
X57626Y24593
X57876Y23893
X58276Y22893
X57026Y22693
X53576Y23593
X53126Y23193
X52726Y22593
X53076Y22543
X52176Y22593
X52076Y22943
X51376Y23343
X50426Y23343
X48776Y23743
X48476Y23493
X48326Y23093
X47926Y23093
X47676Y22493
X48326Y22143
X48626Y21843
X48976Y21693
X50376Y21243
X47626Y19643
X47376Y18893
X50626Y18273
X50226Y15643
X46606Y10613
X46676Y9883
X49826Y8043
X50386Y8323
X50736Y6903
X52776Y5793
X53976Y5043
X55426Y6893
X54356Y8183
X54316Y9133
X55616Y9503
X53926Y10543
X52866Y8133
X57026Y5043
X60376Y5043
X63576Y5043
X52776Y24093
X52926Y24443
X53076Y24743
X53226Y25043
X53236Y26443
X53726Y27493
X53926Y28143
X53286Y28143
X52626Y28143
X51326Y28393
X50626Y28393
X50926Y27543
X49726Y27543
X48526Y27193
X47876Y27493
X47876Y28143
X47876Y28893
X47126Y28893
X50526Y25893
X51826Y26493
X54856Y27033
X55226Y26843
X55626Y26893
X54976Y27763
X54976Y28213
X54976Y28663
X55376Y28663
X55696Y28843
X54976Y29063
X53976Y33543
X52776Y34293
X52866Y36633
X54356Y36683
X54316Y37633
X55616Y38003
X53926Y39043
X52346Y40113
X53246Y41013
X51776Y41543
X55256Y41023
X59776Y41343
X60376Y41343
X64026Y40543
X64016Y42403
X64026Y44043
X61026Y49543
X62126Y51143
X61026Y51793
X58276Y51393
X57876Y52393
X57626Y53093
X58436Y54143
X59286Y53943
X60276Y54563
X60746Y54563
X61246Y54573
X61696Y54563
X61696Y55063
X61246Y55073
X61246Y55573
X61696Y55563
X61696Y56013
X61246Y56023
X61696Y56473
X61696Y56823
X61696Y57223
X61696Y57573
X62196Y57563
X62196Y57213
X62196Y56813
X62196Y56463
X62176Y56013
X62176Y55563
X62676Y55563
X62676Y56013
X62676Y56463
X62676Y56813
X62676Y57213
X62676Y57563
X61196Y57563
X61196Y57213
X59776Y57213
X59776Y57563
X59296Y57563
X59296Y57213
X58796Y57223
X58796Y57573
X58296Y57563
X58296Y57213
X57786Y57213
X57786Y57563
X57276Y57563
X57276Y57213
X56826Y57213
X56826Y57563
X56226Y57563
X56226Y57163
X56226Y56713
X55826Y56713
X55426Y56713
X55426Y56263
X55826Y56263
X56226Y56263
X56826Y56063
X57276Y56063
X57276Y56513
X57786Y56513
X57786Y56063
X57776Y55563
X58286Y55563
X58296Y56063
X58296Y56513
X58796Y56523
X58796Y56073
X59296Y56063
X59296Y56513
X59776Y56063
X59796Y55563
X60276Y55563
X60746Y55563
X60746Y55063
X60276Y55063
X59796Y55063
X59296Y55573
X58796Y55563
X60926Y53743
X61276Y53843
X62176Y55063
X57026Y51193
X54626Y47843
X52826Y48193
X50626Y46773
X48276Y40993
X46606Y39113
X46676Y38383
X55426Y35393
X57026Y33543
X60376Y33543
X63576Y33543
X48226Y25093
X47926Y25343
X32576Y23593
X32126Y23193
X31726Y22593
X32076Y22543
X31176Y22593
X31076Y22943
X30376Y23343
X29426Y23343
X27776Y23743
X27476Y23493
X27326Y23093
X26926Y23093
X26676Y22493
X27326Y22143
X27626Y21843
X27976Y21693
X29376Y21243
X26626Y19643
X26376Y18893
X29626Y18273
X31776Y24093
X31926Y24443
X32076Y24743
X32226Y25043
X29526Y25893
X27226Y25093
X26926Y25343
X22026Y15543
X22016Y13903
X22026Y12043
X18376Y12843
X17776Y12843
X15606Y14373
X14406Y14373
X55226Y55343
X55626Y55393
X54856Y55533
X54976Y56263
X54976Y56713
X54976Y57163
X55376Y57163
X55696Y57343
X54976Y57563
T02
X55226Y52893
X55626Y52893
X56026Y52893
X56426Y52893
X56426Y52493
X56426Y52093
X56426Y51693
X56026Y51693
X56026Y52093
X56026Y52493
X55626Y52493
X55626Y52093
X55626Y51693
X55226Y51693
X55226Y52093
X55226Y52493
X35426Y52493
X35426Y52093
X35426Y51693
X35026Y51693
X35026Y52093
X35026Y52493
X35026Y52893
X35426Y52893
X34626Y52893
X34626Y52493
X34626Y52093
X34626Y51693
X34226Y51693
X34226Y52093
X34226Y52493
X34226Y52893
X14426Y52893
X14426Y52493
X14426Y52093
X14426Y51693
X14026Y51693
X14026Y52093
X14026Y52493
X14026Y52893
X13626Y52893
X13626Y52493
X13626Y52093
X13626Y51693
X13226Y51693
X13226Y52093
X13226Y52493
X13226Y52893
X13226Y24393
X13626Y24393
X14026Y24393
X14426Y24393
X14426Y23993
X14426Y23593
X14426Y23193
X14026Y23193
X14026Y23593
X14026Y23993
X13626Y23993
X13626Y23593
X13626Y23193
X13226Y23193
X13226Y23593
X13226Y23993
X34226Y23993
X34626Y23993
X35026Y23993
X35426Y23993
X35426Y23593
X35426Y23193
X35026Y23193
X35026Y23593
X34626Y23593
X34626Y23193
X34226Y23193
X34226Y23593
X34226Y24393
X34626Y24393
X35026Y24393
X35426Y24393
X55226Y24393
X55626Y24393
X56026Y24393
X56426Y24393
X56426Y23993
X56426Y23593
X56426Y23193
X56026Y23193
X56026Y23593
X56026Y23993
X55626Y23993
X55626Y23593
X55626Y23193
X55226Y23193
X55226Y23593
X55226Y23993
T03
X54526Y22493
X50476Y10743
X50476Y10043
X49776Y10043
X49776Y10743
X33526Y22493
X29476Y10743
X29476Y10043
X28776Y10043
X28776Y10743
X12526Y22493
X8476Y10743
X8476Y10043
X7776Y10043
X7776Y10743
X7776Y38543
X8476Y38543
X8476Y39243
X7776Y39243
X12526Y50993
X28776Y39243
X29476Y39243
X29476Y38543
X28776Y38543
X33526Y50993
X49776Y39243
X50476Y39243
X50476Y38543
X49776Y38543
X54526Y50993
T04
X57676Y54793
X51926Y37743
X49286Y36083
X45626Y37143
X36676Y26293
X28286Y36083
X30926Y37743
X24626Y37143
X15676Y26293
X7286Y36083
X9926Y37743
X3626Y37143
X15676Y54793
X36676Y54793
X57676Y26293
X51926Y9243
X49286Y7583
X45626Y8643
X30926Y9243
X28286Y7583
X24626Y8643
X9926Y9243
X7286Y7583
X3626Y8643
T05
X7338Y5809
X8913Y5809
X13376Y11393
X14876Y12143
X18626Y12143
X28338Y5809
X29913Y5809
X34376Y11393
X35876Y12143
X39626Y12143
X49338Y5809
X50913Y5809
X55376Y11393
X56876Y12143
X60626Y12143
X50913Y34309
X49338Y34309
X55376Y39893
X56876Y40643
X60626Y40643
X39626Y40643
X35876Y40643
X34376Y39893
X29913Y34309
X28338Y34309
X18626Y40643
X14876Y40643
X13376Y39893
X8913Y34309
X7338Y34309
T06
X18626Y42393
X39626Y42393
X60626Y42393
X60626Y13893
X39626Y13893
X18626Y13893
T07
X22126Y17393
X22126Y18393
X22126Y19393
X22126Y20393
X22126Y21393
X22126Y22393
X24126Y22393
X24126Y23393
X24126Y24393
X24126Y25393
X24126Y26393
X24126Y27393
X24126Y28393
X24126Y29393
X22126Y29393
X22126Y28393
X22126Y27393
X22126Y26393
X22126Y25393
X22126Y24393
X24126Y20793
X24126Y19793
X24126Y18793
X24126Y17793
X24126Y16793
X24126Y15793
X24126Y14793
X24126Y13793
X24126Y12793
X24126Y11793
X43126Y17393
X43126Y18393
X43126Y19393
X43126Y20393
X43126Y21393
X43126Y22393
X45126Y22393
X45126Y23393
X45126Y24393
X45126Y25393
X45126Y26393
X45126Y27393
X45126Y28393
X45126Y29393
X43126Y29393
X43126Y28393
X43126Y27393
X43126Y26393
X43126Y25393
X43126Y24393
X45126Y20793
X45126Y19793
X45126Y18793
X45126Y17793
X45126Y16793
X45126Y15793
X45126Y14793
X45126Y13793
X45126Y12793
X45126Y11793
X64126Y17393
X64126Y18393
X64126Y19393
X64126Y20393
X64126Y21393
X64126Y22393
X64126Y24393
X64126Y25393
X64126Y26393
X64126Y27393
X64126Y28393
X64126Y29393
X64126Y45893
X64126Y46893
X64126Y47893
X64126Y48893
X64126Y49893
X64126Y50893
X64126Y52893
X64126Y53893
X64126Y54893
X64126Y55893
X64126Y56893
X64126Y57893
X45126Y57893
X45126Y56893
X45126Y55893
X45126Y54893
X45126Y53893
X45126Y52893
X45126Y51893
X45126Y50893
X45126Y49293
X45126Y48293
X45126Y47293
X45126Y46293
X45126Y45293
X45126Y44293
X45126Y43293
X45126Y42293
X45126Y41293
X45126Y40293
X43126Y45893
X43126Y46893
X43126Y47893
X43126Y48893
X43126Y49893
X43126Y50893
X43126Y52893
X43126Y53893
X43126Y54893
X43126Y55893
X43126Y56893
X43126Y57893
X24126Y57893
X24126Y56893
X24126Y55893
X24126Y54893
X24126Y53893
X24126Y52893
X24126Y51893
X24126Y50893
X22126Y50893
X22126Y49893
X22126Y48893
X22126Y47893
X22126Y46893
X22126Y45893
X24126Y46293
X24126Y45293
X24126Y44293
X24126Y43293
X24126Y42293
X24126Y41293
X24126Y40293
X24126Y47293
X24126Y48293
X24126Y49293
X22126Y52893
X22126Y53893
X22126Y54893
X22126Y55893
X22126Y56893
X22126Y57893
X3126Y57893
X3126Y56893
X3126Y55893
X3126Y54893
X3126Y53893
X3126Y52893
X3126Y51893
X3126Y50893
X3126Y49293
X3126Y48293
X3126Y47293
X3126Y46293
X3126Y45293
X3126Y44293
X3126Y43293
X3126Y42293
X3126Y41293
X3126Y40293
X3126Y29393
X3126Y28393
X3126Y27393
X3126Y26393
X3126Y25393
X3126Y24393
X3126Y23393
X3126Y22393
X3126Y20793
X3126Y19793
X3126Y18793
X3126Y17793
X3126Y16793
X3126Y15793
X3126Y14793
X3126Y13793
X3126Y12793
X3126Y11793
T08
X10226Y29393
X11226Y29393
X11226Y30393
X10226Y30393
X12226Y30393
X12226Y29393
X31226Y29393
X31226Y30393
X32226Y30393
X33226Y30393
X33226Y29393
X32226Y29393
X52226Y29393
X53226Y29393
X53226Y30393
X52226Y30393
X54226Y30393
X54226Y29393
X54226Y57893
X54226Y58893
X53226Y58893
X52226Y58893
X52226Y57893
X53226Y57893
X33226Y57893
X32226Y57893
X32226Y58893
X33226Y58893
X31226Y58893
X31226Y57893
X12226Y57893
X12226Y58893
X11226Y58893
X10226Y58893
X10226Y57893
X11226Y57893
T09
X14876Y39143
X14876Y38393
X14876Y37643
X14876Y36893
X16376Y39143
X17876Y39143
X17876Y38393
X17876Y37643
X17876Y36893
X35876Y36893
X35876Y37643
X35876Y38393
X35876Y39143
X37376Y39143
X38876Y39143
X38876Y38393
X38876Y37643
X38876Y36893
X56876Y36893
X56876Y37643
X56876Y38393
X56876Y39143
X58376Y39143
X59876Y39143
X59876Y38393
X59876Y37643
X59876Y36893
X59876Y10643
X59876Y9893
X59876Y9143
X59876Y8393
X58376Y10643
X56876Y10643
X56876Y9893
X56876Y9143
X56876Y8393
X38876Y8393
X38876Y9143
X38876Y9893
X38876Y10643
X37376Y10643
X35876Y10643
X35876Y9893
X35876Y9143
X35876Y8393
X17876Y8393
X17876Y9143
X17876Y9893
X17876Y10643
X16376Y10643
X14876Y10643
X14876Y9893
X14876Y9143
X14876Y8393
T10
X9533Y6311
X9533Y4993
X6718Y4993
X6718Y6311
X27718Y6311
X27718Y4993
X30533Y4993
X30533Y6311
X48718Y6311
X48718Y4993
X51533Y4993
X51533Y6311
X51533Y33493
X51533Y34811
X48718Y34811
X48718Y33493
X30533Y33493
X30533Y34811
X27718Y34811
X27718Y33493
X9533Y33493
X9533Y34811
X6718Y34811
X6718Y33493
T11
X1094Y3846
X1094Y59602
X66141Y59602
X66141Y3846
T12
X63876Y8506
X42876Y8506
X21876Y8506
X21876Y37006
X42876Y37006
X63876Y37006
T13
X62026Y38187
X62026Y35825
X41026Y35825
X41026Y38187
X20026Y38187
X20026Y35825
X20026Y9687
X20026Y7325
X41026Y7325
X41026Y9687
X62026Y9687
X62026Y7325
T14
X64126Y9893
X45126Y10193
X43126Y9893
X24126Y10193
X22126Y9893
X3126Y10193
X8876Y30393
X3126Y38693
X20376Y30393
X22126Y38393
X24126Y38693
X29876Y30393
X41376Y30393
X43126Y38393
X45126Y38693
X50876Y30393
X62376Y30393
X64126Y38393
X62376Y58893
X50876Y58893
X41376Y58893
X29876Y58893
X20376Y58893
X8876Y58893
M30
