G75*
%MOIN*%
%OFA0B0*%
%FSLAX24Y24*%
%IPPOS*%
%LPD*%
%AMOC8*
5,1,8,0,0,1.08239X$1,22.5*
%
%ADD10C,0.0749*%
%ADD11C,0.1340*%
%ADD12C,0.1181*%
%ADD13R,0.0277X0.0277*%
%ADD14R,0.0474X0.0533*%
%ADD15R,0.0946X0.0415*%
%ADD16R,0.0493X0.0474*%
%ADD17R,0.0320X0.0950*%
%ADD18R,0.0395X0.0356*%
%ADD19C,0.0142*%
%ADD20R,0.0434X0.0395*%
%ADD21R,0.0237X0.0749*%
%ADD22C,0.0316*%
%ADD23OC8,0.0671*%
%ADD24R,0.0560X0.0960*%
%ADD25R,0.1497X0.0946*%
%ADD26R,0.0789X0.0867*%
%ADD27C,0.1504*%
%ADD28C,0.1346*%
%ADD29R,0.0710X0.0789*%
%ADD30R,0.0407X0.0328*%
%ADD31C,0.0820*%
%ADD32R,0.0820X0.0820*%
%ADD33R,0.0710X0.0986*%
%ADD34R,0.0552X0.1064*%
%ADD35R,0.0157X0.0413*%
%ADD36R,0.0197X0.0197*%
%ADD37R,0.1181X0.1181*%
%ADD38R,0.0413X0.0157*%
%ADD39R,0.0171X0.0395*%
%ADD40R,0.0395X0.0171*%
%ADD41R,0.1773X0.1773*%
%ADD42R,0.0316X0.0513*%
%ADD43R,0.0671X0.1025*%
%ADD44C,0.0560*%
%ADD45C,0.0436*%
%ADD46C,0.0440*%
D10*
X001094Y003846D03*
X001094Y059602D03*
X066141Y059602D03*
X066141Y003846D03*
D11*
X064126Y009893D03*
X045126Y010193D03*
X043126Y009893D03*
X024126Y010193D03*
X022126Y009893D03*
X003126Y010193D03*
X008876Y030393D03*
X003126Y038693D03*
X020376Y030393D03*
X022126Y038393D03*
X024126Y038693D03*
X029876Y030393D03*
X041376Y030393D03*
X043126Y038393D03*
X045126Y038693D03*
X050876Y030393D03*
X062376Y030393D03*
X064126Y038393D03*
X062376Y058893D03*
X050876Y058893D03*
X041376Y058893D03*
X029876Y058893D03*
X020376Y058893D03*
X008876Y058893D03*
D12*
X001094Y055649D03*
X001094Y008799D03*
X066141Y008799D03*
X066141Y055649D03*
D13*
X058742Y053593D03*
X058309Y053593D03*
X057906Y053740D03*
X057646Y053747D03*
X057386Y053747D03*
X057126Y053747D03*
X057126Y054180D03*
X057386Y054180D03*
X057646Y054180D03*
X056916Y054577D03*
X056916Y055010D03*
X056952Y055543D03*
X056519Y055543D03*
X056516Y055767D03*
X056516Y056200D03*
X056519Y056423D03*
X056952Y056423D03*
X056962Y056863D03*
X056529Y056863D03*
X056526Y056867D03*
X056526Y057300D03*
X056126Y055010D03*
X056126Y054577D03*
X055716Y054377D03*
X055326Y054377D03*
X054946Y054377D03*
X054616Y054377D03*
X054616Y054810D03*
X054946Y054810D03*
X055326Y054810D03*
X055716Y054810D03*
X057906Y053307D03*
X058309Y051693D03*
X058742Y051693D03*
X058426Y051110D03*
X058426Y050677D03*
X054826Y050660D03*
X054826Y050227D03*
X054516Y048860D03*
X054516Y048427D03*
X052486Y054267D03*
X052486Y054700D03*
X051136Y054700D03*
X051136Y054267D03*
X037742Y053593D03*
X037309Y053593D03*
X036906Y053740D03*
X036646Y053747D03*
X036386Y053747D03*
X036126Y053747D03*
X036126Y054180D03*
X036386Y054180D03*
X036646Y054180D03*
X035916Y054577D03*
X035916Y055010D03*
X035952Y055543D03*
X035519Y055543D03*
X035516Y055767D03*
X035516Y056200D03*
X035519Y056423D03*
X035952Y056423D03*
X035962Y056863D03*
X035529Y056863D03*
X035526Y056867D03*
X035526Y057300D03*
X035126Y055010D03*
X035126Y054577D03*
X034716Y054377D03*
X034326Y054377D03*
X033946Y054377D03*
X033616Y054377D03*
X033616Y054810D03*
X033946Y054810D03*
X034326Y054810D03*
X034716Y054810D03*
X036906Y053307D03*
X037309Y051693D03*
X037742Y051693D03*
X037426Y051110D03*
X037426Y050677D03*
X033826Y050660D03*
X033826Y050227D03*
X033516Y048860D03*
X033516Y048427D03*
X031486Y054267D03*
X031486Y054700D03*
X030136Y054700D03*
X030136Y054267D03*
X016742Y053593D03*
X016309Y053593D03*
X015906Y053740D03*
X015646Y053747D03*
X015386Y053747D03*
X015126Y053747D03*
X015126Y054180D03*
X015386Y054180D03*
X015646Y054180D03*
X014916Y054577D03*
X014916Y055010D03*
X014952Y055543D03*
X014519Y055543D03*
X014516Y055767D03*
X014516Y056200D03*
X014519Y056423D03*
X014952Y056423D03*
X014962Y056863D03*
X014529Y056863D03*
X014526Y056867D03*
X014526Y057300D03*
X014126Y055010D03*
X014126Y054577D03*
X013716Y054377D03*
X013326Y054377D03*
X012946Y054377D03*
X012616Y054377D03*
X012616Y054810D03*
X012946Y054810D03*
X013326Y054810D03*
X013716Y054810D03*
X015906Y053307D03*
X016309Y051693D03*
X016742Y051693D03*
X016426Y051110D03*
X016426Y050677D03*
X012826Y050660D03*
X012826Y050227D03*
X012516Y048860D03*
X012516Y048427D03*
X010486Y054267D03*
X010486Y054700D03*
X009136Y054700D03*
X009136Y054267D03*
X014526Y028800D03*
X014526Y028367D03*
X014529Y028363D03*
X014962Y028363D03*
X014952Y027923D03*
X014519Y027923D03*
X014516Y027700D03*
X014516Y027267D03*
X014519Y027043D03*
X014952Y027043D03*
X014916Y026510D03*
X014916Y026077D03*
X015126Y025680D03*
X015386Y025680D03*
X015646Y025680D03*
X015646Y025247D03*
X015906Y025240D03*
X016309Y025093D03*
X016742Y025093D03*
X015906Y024807D03*
X015386Y025247D03*
X015126Y025247D03*
X014126Y026077D03*
X014126Y026510D03*
X013716Y026310D03*
X013326Y026310D03*
X012946Y026310D03*
X012616Y026310D03*
X012616Y025877D03*
X012946Y025877D03*
X013326Y025877D03*
X013716Y025877D03*
X016309Y023193D03*
X016742Y023193D03*
X016426Y022610D03*
X016426Y022177D03*
X012826Y022160D03*
X012826Y021727D03*
X012516Y020360D03*
X012516Y019927D03*
X010486Y025767D03*
X010486Y026200D03*
X009136Y026200D03*
X009136Y025767D03*
X030136Y025767D03*
X030136Y026200D03*
X031486Y026200D03*
X031486Y025767D03*
X033616Y025877D03*
X033946Y025877D03*
X034326Y025877D03*
X034716Y025877D03*
X034716Y026310D03*
X034326Y026310D03*
X033946Y026310D03*
X033616Y026310D03*
X035126Y026510D03*
X035126Y026077D03*
X035916Y026077D03*
X035916Y026510D03*
X035952Y027043D03*
X035519Y027043D03*
X035516Y027267D03*
X035516Y027700D03*
X035519Y027923D03*
X035952Y027923D03*
X035962Y028363D03*
X035529Y028363D03*
X035526Y028367D03*
X035526Y028800D03*
X036126Y025680D03*
X036386Y025680D03*
X036646Y025680D03*
X036646Y025247D03*
X036906Y025240D03*
X037309Y025093D03*
X037742Y025093D03*
X036906Y024807D03*
X036386Y025247D03*
X036126Y025247D03*
X037309Y023193D03*
X037742Y023193D03*
X037426Y022610D03*
X037426Y022177D03*
X033826Y022160D03*
X033826Y021727D03*
X033516Y020360D03*
X033516Y019927D03*
X051136Y025767D03*
X051136Y026200D03*
X052486Y026200D03*
X052486Y025767D03*
X054616Y025877D03*
X054946Y025877D03*
X055326Y025877D03*
X055716Y025877D03*
X055716Y026310D03*
X055326Y026310D03*
X054946Y026310D03*
X054616Y026310D03*
X056126Y026510D03*
X056126Y026077D03*
X056916Y026077D03*
X056916Y026510D03*
X056952Y027043D03*
X056519Y027043D03*
X056516Y027267D03*
X056516Y027700D03*
X056519Y027923D03*
X056952Y027923D03*
X056962Y028363D03*
X056529Y028363D03*
X056526Y028367D03*
X056526Y028800D03*
X057126Y025680D03*
X057386Y025680D03*
X057646Y025680D03*
X057646Y025247D03*
X057906Y025240D03*
X058309Y025093D03*
X058742Y025093D03*
X057906Y024807D03*
X057386Y025247D03*
X057126Y025247D03*
X058309Y023193D03*
X058742Y023193D03*
X058426Y022610D03*
X058426Y022177D03*
X054826Y022160D03*
X054826Y021727D03*
X054516Y020360D03*
X054516Y019927D03*
D14*
X058270Y023799D03*
X058781Y023799D03*
X058781Y024488D03*
X058270Y024488D03*
X037781Y024488D03*
X037270Y024488D03*
X037270Y023799D03*
X037781Y023799D03*
X016781Y023799D03*
X016270Y023799D03*
X016270Y024488D03*
X016781Y024488D03*
X016781Y052299D03*
X016270Y052299D03*
X016270Y052988D03*
X016781Y052988D03*
X037270Y052988D03*
X037781Y052988D03*
X037781Y052299D03*
X037270Y052299D03*
X058270Y052299D03*
X058781Y052299D03*
X058781Y052988D03*
X058270Y052988D03*
D15*
X060526Y056212D03*
X060526Y057295D03*
X039526Y057295D03*
X039526Y056212D03*
X018526Y056212D03*
X018526Y057295D03*
X018526Y028795D03*
X018526Y027712D03*
X039526Y027712D03*
X039526Y028795D03*
X060526Y028795D03*
X060526Y027712D03*
D16*
X061126Y028253D03*
X059925Y028253D03*
X040126Y028253D03*
X038925Y028253D03*
X019126Y028253D03*
X017925Y028253D03*
X017925Y056753D03*
X019126Y056753D03*
X038925Y056753D03*
X040126Y056753D03*
X059925Y056753D03*
X061126Y056753D03*
D17*
X056626Y048963D03*
X056126Y048963D03*
X055626Y048963D03*
X055126Y048963D03*
X055126Y046313D03*
X055626Y046313D03*
X056126Y046313D03*
X056626Y046313D03*
X035626Y046313D03*
X035126Y046313D03*
X034626Y046313D03*
X034126Y046313D03*
X034126Y048963D03*
X034626Y048963D03*
X035126Y048963D03*
X035626Y048963D03*
X014626Y048963D03*
X014126Y048963D03*
X013626Y048963D03*
X013126Y048963D03*
X013126Y046313D03*
X013626Y046313D03*
X014126Y046313D03*
X014626Y046313D03*
X014626Y020463D03*
X014126Y020463D03*
X013626Y020463D03*
X013126Y020463D03*
X013126Y017813D03*
X013626Y017813D03*
X014126Y017813D03*
X014626Y017813D03*
X034126Y017813D03*
X034626Y017813D03*
X035126Y017813D03*
X035626Y017813D03*
X035626Y020463D03*
X035126Y020463D03*
X034626Y020463D03*
X034126Y020463D03*
X055126Y020463D03*
X055626Y020463D03*
X056126Y020463D03*
X056626Y020463D03*
X056626Y017813D03*
X056126Y017813D03*
X055626Y017813D03*
X055126Y017813D03*
D18*
X051776Y014978D03*
X051776Y014309D03*
X051696Y010358D03*
X052276Y010358D03*
X052276Y009689D03*
X051696Y009689D03*
X051346Y008978D03*
X050766Y008978D03*
X050766Y008309D03*
X051346Y008309D03*
X053926Y006478D03*
X053926Y005809D03*
X055426Y005789D03*
X055426Y006458D03*
X056926Y006458D03*
X056926Y005789D03*
X035926Y005789D03*
X035926Y006458D03*
X034426Y006458D03*
X034426Y005789D03*
X032926Y005809D03*
X032926Y006478D03*
X030346Y008309D03*
X029766Y008309D03*
X029766Y008978D03*
X030346Y008978D03*
X030696Y009689D03*
X031276Y009689D03*
X031276Y010358D03*
X030696Y010358D03*
X030776Y014309D03*
X030776Y014978D03*
X036286Y026119D03*
X036286Y026788D03*
X035926Y034289D03*
X035926Y034958D03*
X034426Y034958D03*
X034426Y034289D03*
X032926Y034309D03*
X032926Y034978D03*
X030346Y036809D03*
X029766Y036809D03*
X029766Y037478D03*
X030346Y037478D03*
X030696Y038189D03*
X031276Y038189D03*
X031276Y038858D03*
X030696Y038858D03*
X030776Y042809D03*
X030776Y043478D03*
X036286Y054619D03*
X036286Y055288D03*
X051776Y043478D03*
X051776Y042809D03*
X051696Y038858D03*
X052276Y038858D03*
X052276Y038189D03*
X051696Y038189D03*
X051346Y037478D03*
X050766Y037478D03*
X050766Y036809D03*
X051346Y036809D03*
X053926Y034978D03*
X053926Y034309D03*
X055426Y034289D03*
X055426Y034958D03*
X056926Y034958D03*
X056926Y034289D03*
X057286Y026788D03*
X057286Y026119D03*
X057286Y054619D03*
X057286Y055288D03*
X015286Y055288D03*
X015286Y054619D03*
X009776Y043478D03*
X009776Y042809D03*
X009696Y038858D03*
X010276Y038858D03*
X010276Y038189D03*
X009696Y038189D03*
X009346Y037478D03*
X008766Y037478D03*
X008766Y036809D03*
X009346Y036809D03*
X011926Y034978D03*
X011926Y034309D03*
X013426Y034289D03*
X013426Y034958D03*
X014926Y034958D03*
X014926Y034289D03*
X015286Y026788D03*
X015286Y026119D03*
X009776Y014978D03*
X009776Y014309D03*
X009696Y010358D03*
X010276Y010358D03*
X010276Y009689D03*
X009696Y009689D03*
X009346Y008978D03*
X008766Y008978D03*
X008766Y008309D03*
X009346Y008309D03*
X011926Y006478D03*
X011926Y005809D03*
X013426Y005789D03*
X013426Y006458D03*
X014926Y006458D03*
X014926Y005789D03*
D19*
X015460Y005964D02*
X015792Y005964D01*
X015792Y005632D01*
X015460Y005632D01*
X015460Y005964D01*
X015460Y005773D02*
X015792Y005773D01*
X015792Y005914D02*
X015460Y005914D01*
X015460Y006655D02*
X015792Y006655D01*
X015792Y006323D01*
X015460Y006323D01*
X015460Y006655D01*
X015460Y006464D02*
X015792Y006464D01*
X015792Y006605D02*
X015460Y006605D01*
X014292Y006323D02*
X013960Y006323D01*
X013960Y006655D01*
X014292Y006655D01*
X014292Y006323D01*
X014292Y006464D02*
X013960Y006464D01*
X013960Y006605D02*
X014292Y006605D01*
X014292Y005632D02*
X013960Y005632D01*
X013960Y005964D01*
X014292Y005964D01*
X014292Y005632D01*
X014292Y005773D02*
X013960Y005773D01*
X013960Y005914D02*
X014292Y005914D01*
X012792Y005632D02*
X012460Y005632D01*
X012460Y005964D01*
X012792Y005964D01*
X012792Y005632D01*
X012792Y005773D02*
X012460Y005773D01*
X012460Y005914D02*
X012792Y005914D01*
X012792Y006323D02*
X012460Y006323D01*
X012460Y006655D01*
X012792Y006655D01*
X012792Y006323D01*
X012792Y006464D02*
X012460Y006464D01*
X012460Y006605D02*
X012792Y006605D01*
X033460Y006323D02*
X033792Y006323D01*
X033460Y006323D02*
X033460Y006655D01*
X033792Y006655D01*
X033792Y006323D01*
X033792Y006464D02*
X033460Y006464D01*
X033460Y006605D02*
X033792Y006605D01*
X033792Y005632D02*
X033460Y005632D01*
X033460Y005964D01*
X033792Y005964D01*
X033792Y005632D01*
X033792Y005773D02*
X033460Y005773D01*
X033460Y005914D02*
X033792Y005914D01*
X034960Y005632D02*
X035292Y005632D01*
X034960Y005632D02*
X034960Y005964D01*
X035292Y005964D01*
X035292Y005632D01*
X035292Y005773D02*
X034960Y005773D01*
X034960Y005914D02*
X035292Y005914D01*
X035292Y006323D02*
X034960Y006323D01*
X034960Y006655D01*
X035292Y006655D01*
X035292Y006323D01*
X035292Y006464D02*
X034960Y006464D01*
X034960Y006605D02*
X035292Y006605D01*
X036460Y006655D02*
X036792Y006655D01*
X036792Y006323D01*
X036460Y006323D01*
X036460Y006655D01*
X036460Y006464D02*
X036792Y006464D01*
X036792Y006605D02*
X036460Y006605D01*
X036460Y005964D02*
X036792Y005964D01*
X036792Y005632D01*
X036460Y005632D01*
X036460Y005964D01*
X036460Y005773D02*
X036792Y005773D01*
X036792Y005914D02*
X036460Y005914D01*
X054460Y005632D02*
X054792Y005632D01*
X054460Y005632D02*
X054460Y005964D01*
X054792Y005964D01*
X054792Y005632D01*
X054792Y005773D02*
X054460Y005773D01*
X054460Y005914D02*
X054792Y005914D01*
X054792Y006323D02*
X054460Y006323D01*
X054460Y006655D01*
X054792Y006655D01*
X054792Y006323D01*
X054792Y006464D02*
X054460Y006464D01*
X054460Y006605D02*
X054792Y006605D01*
X055960Y006323D02*
X056292Y006323D01*
X055960Y006323D02*
X055960Y006655D01*
X056292Y006655D01*
X056292Y006323D01*
X056292Y006464D02*
X055960Y006464D01*
X055960Y006605D02*
X056292Y006605D01*
X056292Y005632D02*
X055960Y005632D01*
X055960Y005964D01*
X056292Y005964D01*
X056292Y005632D01*
X056292Y005773D02*
X055960Y005773D01*
X055960Y005914D02*
X056292Y005914D01*
X057460Y005964D02*
X057792Y005964D01*
X057792Y005632D01*
X057460Y005632D01*
X057460Y005964D01*
X057460Y005773D02*
X057792Y005773D01*
X057792Y005914D02*
X057460Y005914D01*
X057460Y006655D02*
X057792Y006655D01*
X057792Y006323D01*
X057460Y006323D01*
X057460Y006655D01*
X057460Y006464D02*
X057792Y006464D01*
X057792Y006605D02*
X057460Y006605D01*
X057460Y034464D02*
X057792Y034464D01*
X057792Y034132D01*
X057460Y034132D01*
X057460Y034464D01*
X057460Y034273D02*
X057792Y034273D01*
X057792Y034414D02*
X057460Y034414D01*
X057460Y035155D02*
X057792Y035155D01*
X057792Y034823D01*
X057460Y034823D01*
X057460Y035155D01*
X057460Y034964D02*
X057792Y034964D01*
X057792Y035105D02*
X057460Y035105D01*
X056292Y034823D02*
X055960Y034823D01*
X055960Y035155D01*
X056292Y035155D01*
X056292Y034823D01*
X056292Y034964D02*
X055960Y034964D01*
X055960Y035105D02*
X056292Y035105D01*
X056292Y034132D02*
X055960Y034132D01*
X055960Y034464D01*
X056292Y034464D01*
X056292Y034132D01*
X056292Y034273D02*
X055960Y034273D01*
X055960Y034414D02*
X056292Y034414D01*
X054792Y034132D02*
X054460Y034132D01*
X054460Y034464D01*
X054792Y034464D01*
X054792Y034132D01*
X054792Y034273D02*
X054460Y034273D01*
X054460Y034414D02*
X054792Y034414D01*
X054792Y034823D02*
X054460Y034823D01*
X054460Y035155D01*
X054792Y035155D01*
X054792Y034823D01*
X054792Y034964D02*
X054460Y034964D01*
X054460Y035105D02*
X054792Y035105D01*
X036792Y035155D02*
X036460Y035155D01*
X036792Y035155D02*
X036792Y034823D01*
X036460Y034823D01*
X036460Y035155D01*
X036460Y034964D02*
X036792Y034964D01*
X036792Y035105D02*
X036460Y035105D01*
X036460Y034464D02*
X036792Y034464D01*
X036792Y034132D01*
X036460Y034132D01*
X036460Y034464D01*
X036460Y034273D02*
X036792Y034273D01*
X036792Y034414D02*
X036460Y034414D01*
X035292Y034132D02*
X034960Y034132D01*
X034960Y034464D01*
X035292Y034464D01*
X035292Y034132D01*
X035292Y034273D02*
X034960Y034273D01*
X034960Y034414D02*
X035292Y034414D01*
X035292Y034823D02*
X034960Y034823D01*
X034960Y035155D01*
X035292Y035155D01*
X035292Y034823D01*
X035292Y034964D02*
X034960Y034964D01*
X034960Y035105D02*
X035292Y035105D01*
X033792Y034823D02*
X033460Y034823D01*
X033460Y035155D01*
X033792Y035155D01*
X033792Y034823D01*
X033792Y034964D02*
X033460Y034964D01*
X033460Y035105D02*
X033792Y035105D01*
X033792Y034132D02*
X033460Y034132D01*
X033460Y034464D01*
X033792Y034464D01*
X033792Y034132D01*
X033792Y034273D02*
X033460Y034273D01*
X033460Y034414D02*
X033792Y034414D01*
X015792Y034464D02*
X015460Y034464D01*
X015792Y034464D02*
X015792Y034132D01*
X015460Y034132D01*
X015460Y034464D01*
X015460Y034273D02*
X015792Y034273D01*
X015792Y034414D02*
X015460Y034414D01*
X015460Y035155D02*
X015792Y035155D01*
X015792Y034823D01*
X015460Y034823D01*
X015460Y035155D01*
X015460Y034964D02*
X015792Y034964D01*
X015792Y035105D02*
X015460Y035105D01*
X014292Y034823D02*
X013960Y034823D01*
X013960Y035155D01*
X014292Y035155D01*
X014292Y034823D01*
X014292Y034964D02*
X013960Y034964D01*
X013960Y035105D02*
X014292Y035105D01*
X014292Y034132D02*
X013960Y034132D01*
X013960Y034464D01*
X014292Y034464D01*
X014292Y034132D01*
X014292Y034273D02*
X013960Y034273D01*
X013960Y034414D02*
X014292Y034414D01*
X012792Y034132D02*
X012460Y034132D01*
X012460Y034464D01*
X012792Y034464D01*
X012792Y034132D01*
X012792Y034273D02*
X012460Y034273D01*
X012460Y034414D02*
X012792Y034414D01*
X012792Y034823D02*
X012460Y034823D01*
X012460Y035155D01*
X012792Y035155D01*
X012792Y034823D01*
X012792Y034964D02*
X012460Y034964D01*
X012460Y035105D02*
X012792Y035105D01*
D20*
X009059Y043143D03*
X008232Y042769D03*
X008232Y043517D03*
X007269Y043517D03*
X007269Y042769D03*
X006443Y043143D03*
X027443Y043143D03*
X028269Y042769D03*
X028269Y043517D03*
X029232Y043517D03*
X029232Y042769D03*
X030059Y043143D03*
X048443Y043143D03*
X049269Y042769D03*
X049269Y043517D03*
X050232Y043517D03*
X050232Y042769D03*
X051059Y043143D03*
X050232Y015017D03*
X050232Y014269D03*
X051059Y014643D03*
X049269Y014269D03*
X049269Y015017D03*
X048443Y014643D03*
X030059Y014643D03*
X029232Y014269D03*
X029232Y015017D03*
X028269Y015017D03*
X028269Y014269D03*
X027443Y014643D03*
X009059Y014643D03*
X008232Y014269D03*
X008232Y015017D03*
X007269Y015017D03*
X007269Y014269D03*
X006443Y014643D03*
D21*
X007614Y006203D03*
X007870Y006203D03*
X008126Y006203D03*
X008381Y006203D03*
X008637Y006203D03*
X028614Y006203D03*
X028870Y006203D03*
X029126Y006203D03*
X029381Y006203D03*
X029637Y006203D03*
X049614Y006203D03*
X049870Y006203D03*
X050126Y006203D03*
X050381Y006203D03*
X050637Y006203D03*
X050637Y034703D03*
X050381Y034703D03*
X050126Y034703D03*
X049870Y034703D03*
X049614Y034703D03*
X029637Y034703D03*
X029381Y034703D03*
X029126Y034703D03*
X028870Y034703D03*
X028614Y034703D03*
X008637Y034703D03*
X008381Y034703D03*
X008126Y034703D03*
X007870Y034703D03*
X007614Y034703D03*
D22*
X007338Y034309D03*
X008913Y034309D03*
X028338Y034309D03*
X029913Y034309D03*
X049338Y034309D03*
X050913Y034309D03*
X050913Y005809D03*
X049338Y005809D03*
X029913Y005809D03*
X028338Y005809D03*
X008913Y005809D03*
X007338Y005809D03*
D23*
X006718Y006311D03*
X006718Y004993D03*
X009533Y004993D03*
X009533Y006311D03*
X027718Y006311D03*
X027718Y004993D03*
X030533Y004993D03*
X030533Y006311D03*
X048718Y006311D03*
X048718Y004993D03*
X051533Y004993D03*
X051533Y006311D03*
X051533Y033493D03*
X051533Y034811D03*
X048718Y034811D03*
X048718Y033493D03*
X030533Y033493D03*
X030533Y034811D03*
X027718Y034811D03*
X027718Y033493D03*
X009533Y033493D03*
X009533Y034811D03*
X006718Y034811D03*
X006718Y033493D03*
D24*
X015466Y040613D03*
X016376Y040613D03*
X017286Y040613D03*
X036466Y040613D03*
X037376Y040613D03*
X038286Y040613D03*
X057466Y040613D03*
X058376Y040613D03*
X059286Y040613D03*
X059286Y012113D03*
X058376Y012113D03*
X057466Y012113D03*
X038286Y012113D03*
X037376Y012113D03*
X036466Y012113D03*
X017286Y012113D03*
X016376Y012113D03*
X015466Y012113D03*
D25*
X016376Y009673D03*
X037376Y009673D03*
X058376Y009673D03*
X058376Y038173D03*
X037376Y038173D03*
X016376Y038173D03*
D26*
X019378Y040293D03*
X020874Y040293D03*
X040378Y040293D03*
X041874Y040293D03*
X061378Y040293D03*
X062874Y040293D03*
X062874Y011793D03*
X061378Y011793D03*
X041874Y011793D03*
X040378Y011793D03*
X020874Y011793D03*
X019378Y011793D03*
D27*
X020026Y009687D03*
X020026Y007325D03*
X041026Y007325D03*
X041026Y009687D03*
X062026Y009687D03*
X062026Y007325D03*
X062026Y035825D03*
X062026Y038187D03*
X041026Y038187D03*
X041026Y035825D03*
X020026Y035825D03*
X020026Y038187D03*
D28*
X021876Y037006D03*
X042876Y037006D03*
X063876Y037006D03*
X063876Y008506D03*
X042876Y008506D03*
X021876Y008506D03*
D29*
X020677Y013143D03*
X019574Y013143D03*
X019574Y014343D03*
X020677Y014343D03*
X040574Y014343D03*
X041677Y014343D03*
X041677Y013143D03*
X040574Y013143D03*
X061574Y013143D03*
X062677Y013143D03*
X062677Y014343D03*
X061574Y014343D03*
X061574Y041643D03*
X062677Y041643D03*
X062677Y042843D03*
X061574Y042843D03*
X041677Y042843D03*
X040574Y042843D03*
X040574Y041643D03*
X041677Y041643D03*
X020677Y041643D03*
X019574Y041643D03*
X019574Y042843D03*
X020677Y042843D03*
D30*
X014126Y041096D03*
X014126Y040191D03*
X035126Y040191D03*
X035126Y041096D03*
X056126Y041096D03*
X056126Y040191D03*
X056126Y012596D03*
X056126Y011691D03*
X035126Y011691D03*
X035126Y012596D03*
X014126Y012596D03*
X014126Y011691D03*
D31*
X022126Y017393D03*
X022126Y018393D03*
X022126Y019393D03*
X022126Y020393D03*
X022126Y021393D03*
X022126Y022393D03*
X024126Y022393D03*
X024126Y023393D03*
X024126Y024393D03*
X024126Y025393D03*
X024126Y026393D03*
X024126Y027393D03*
X024126Y028393D03*
X022126Y028393D03*
X022126Y027393D03*
X022126Y026393D03*
X022126Y025393D03*
X022126Y024393D03*
X024126Y019793D03*
X024126Y018793D03*
X024126Y017793D03*
X024126Y016793D03*
X024126Y015793D03*
X024126Y014793D03*
X024126Y013793D03*
X024126Y012793D03*
X024126Y011793D03*
X043126Y017393D03*
X043126Y018393D03*
X043126Y019393D03*
X043126Y020393D03*
X043126Y021393D03*
X043126Y022393D03*
X045126Y022393D03*
X045126Y023393D03*
X045126Y024393D03*
X045126Y025393D03*
X045126Y026393D03*
X045126Y027393D03*
X045126Y028393D03*
X043126Y028393D03*
X043126Y027393D03*
X043126Y026393D03*
X043126Y025393D03*
X043126Y024393D03*
X045126Y019793D03*
X045126Y018793D03*
X045126Y017793D03*
X045126Y016793D03*
X045126Y015793D03*
X045126Y014793D03*
X045126Y013793D03*
X045126Y012793D03*
X045126Y011793D03*
X064126Y017393D03*
X064126Y018393D03*
X064126Y019393D03*
X064126Y020393D03*
X064126Y021393D03*
X064126Y022393D03*
X064126Y024393D03*
X064126Y025393D03*
X064126Y026393D03*
X064126Y027393D03*
X064126Y028393D03*
X064126Y029393D03*
X054226Y029393D03*
X054226Y030393D03*
X053226Y030393D03*
X053226Y029393D03*
X052226Y029393D03*
X052226Y030393D03*
X043126Y029393D03*
X033226Y029393D03*
X033226Y030393D03*
X032226Y030393D03*
X032226Y029393D03*
X031226Y029393D03*
X031226Y030393D03*
X022126Y029393D03*
X012226Y029393D03*
X012226Y030393D03*
X011226Y030393D03*
X011226Y029393D03*
X010226Y029393D03*
X010226Y030393D03*
X003126Y028393D03*
X003126Y027393D03*
X003126Y026393D03*
X003126Y025393D03*
X003126Y024393D03*
X003126Y023393D03*
X003126Y022393D03*
X003126Y019793D03*
X003126Y018793D03*
X003126Y017793D03*
X003126Y016793D03*
X003126Y015793D03*
X003126Y014793D03*
X003126Y013793D03*
X003126Y012793D03*
X003126Y011793D03*
X003126Y040293D03*
X003126Y041293D03*
X003126Y042293D03*
X003126Y043293D03*
X003126Y044293D03*
X003126Y045293D03*
X003126Y046293D03*
X003126Y047293D03*
X003126Y048293D03*
X003126Y050893D03*
X003126Y051893D03*
X003126Y052893D03*
X003126Y053893D03*
X003126Y054893D03*
X003126Y055893D03*
X003126Y056893D03*
X010226Y057893D03*
X011226Y057893D03*
X012226Y057893D03*
X012226Y058893D03*
X011226Y058893D03*
X010226Y058893D03*
X022126Y057893D03*
X022126Y056893D03*
X022126Y055893D03*
X022126Y054893D03*
X022126Y053893D03*
X022126Y052893D03*
X024126Y052893D03*
X024126Y051893D03*
X024126Y050893D03*
X022126Y050893D03*
X022126Y049893D03*
X022126Y048893D03*
X022126Y047893D03*
X022126Y046893D03*
X022126Y045893D03*
X024126Y046293D03*
X024126Y045293D03*
X024126Y044293D03*
X024126Y043293D03*
X024126Y042293D03*
X024126Y041293D03*
X024126Y040293D03*
X024126Y047293D03*
X024126Y048293D03*
X024126Y053893D03*
X024126Y054893D03*
X024126Y055893D03*
X024126Y056893D03*
X031226Y057893D03*
X032226Y057893D03*
X033226Y057893D03*
X033226Y058893D03*
X032226Y058893D03*
X031226Y058893D03*
X043126Y057893D03*
X043126Y056893D03*
X043126Y055893D03*
X043126Y054893D03*
X043126Y053893D03*
X043126Y052893D03*
X045126Y052893D03*
X045126Y051893D03*
X045126Y050893D03*
X043126Y050893D03*
X043126Y049893D03*
X043126Y048893D03*
X043126Y047893D03*
X043126Y046893D03*
X043126Y045893D03*
X045126Y046293D03*
X045126Y045293D03*
X045126Y044293D03*
X045126Y043293D03*
X045126Y042293D03*
X045126Y041293D03*
X045126Y040293D03*
X045126Y047293D03*
X045126Y048293D03*
X045126Y053893D03*
X045126Y054893D03*
X045126Y055893D03*
X045126Y056893D03*
X052226Y057893D03*
X053226Y057893D03*
X054226Y057893D03*
X054226Y058893D03*
X053226Y058893D03*
X052226Y058893D03*
X064126Y057893D03*
X064126Y056893D03*
X064126Y055893D03*
X064126Y054893D03*
X064126Y053893D03*
X064126Y052893D03*
X064126Y050893D03*
X064126Y049893D03*
X064126Y048893D03*
X064126Y047893D03*
X064126Y046893D03*
X064126Y045893D03*
D32*
X045126Y049293D03*
X045126Y057893D03*
X024126Y057893D03*
X024126Y049293D03*
X003126Y049293D03*
X003126Y057893D03*
X003126Y029393D03*
X003126Y020793D03*
X024126Y020793D03*
X024126Y029393D03*
X045126Y029393D03*
X045126Y020793D03*
D33*
X045426Y033753D03*
X045426Y036233D03*
X024426Y036233D03*
X024426Y033753D03*
X003426Y033753D03*
X003426Y036233D03*
X003426Y007733D03*
X003426Y005253D03*
X024426Y005253D03*
X024426Y007733D03*
X045426Y007733D03*
X045426Y005253D03*
D34*
X041775Y015643D03*
X040476Y015643D03*
X020775Y015643D03*
X019476Y015643D03*
X019476Y044143D03*
X020775Y044143D03*
X040476Y044143D03*
X041775Y044143D03*
X061476Y044143D03*
X062775Y044143D03*
X062775Y015643D03*
X061476Y015643D03*
D35*
X050716Y011387D03*
X050519Y011387D03*
X050322Y011387D03*
X050126Y011387D03*
X049929Y011387D03*
X049732Y011387D03*
X049535Y011387D03*
X049535Y009399D03*
X049732Y009399D03*
X049929Y009399D03*
X050126Y009399D03*
X050322Y009399D03*
X050519Y009399D03*
X050716Y009399D03*
X029716Y009399D03*
X029519Y009399D03*
X029322Y009399D03*
X029126Y009399D03*
X028929Y009399D03*
X028732Y009399D03*
X028535Y009399D03*
X028535Y011387D03*
X028732Y011387D03*
X028929Y011387D03*
X029126Y011387D03*
X029322Y011387D03*
X029519Y011387D03*
X029716Y011387D03*
X008716Y011387D03*
X008519Y011387D03*
X008322Y011387D03*
X008126Y011387D03*
X007929Y011387D03*
X007732Y011387D03*
X007535Y011387D03*
X007535Y009399D03*
X007732Y009399D03*
X007929Y009399D03*
X008126Y009399D03*
X008322Y009399D03*
X008519Y009399D03*
X008716Y009399D03*
X008716Y037899D03*
X008519Y037899D03*
X008322Y037899D03*
X008126Y037899D03*
X007929Y037899D03*
X007732Y037899D03*
X007535Y037899D03*
X007535Y039887D03*
X007732Y039887D03*
X007929Y039887D03*
X008126Y039887D03*
X008322Y039887D03*
X008519Y039887D03*
X008716Y039887D03*
X028535Y039887D03*
X028732Y039887D03*
X028929Y039887D03*
X029126Y039887D03*
X029322Y039887D03*
X029519Y039887D03*
X029716Y039887D03*
X029716Y037899D03*
X029519Y037899D03*
X029322Y037899D03*
X029126Y037899D03*
X028929Y037899D03*
X028732Y037899D03*
X028535Y037899D03*
X049535Y037899D03*
X049732Y037899D03*
X049929Y037899D03*
X050126Y037899D03*
X050322Y037899D03*
X050519Y037899D03*
X050716Y037899D03*
X050716Y039887D03*
X050519Y039887D03*
X050322Y039887D03*
X050126Y039887D03*
X049929Y039887D03*
X049732Y039887D03*
X049535Y039887D03*
D36*
X049298Y038066D03*
X028298Y038066D03*
X007298Y038066D03*
X007298Y009566D03*
X028298Y009566D03*
X049298Y009566D03*
D37*
X050126Y010393D03*
X029126Y010393D03*
X008126Y010393D03*
X008126Y038893D03*
X029126Y038893D03*
X050126Y038893D03*
D38*
X051120Y038893D03*
X051120Y038696D03*
X051120Y038500D03*
X051120Y038303D03*
X051120Y039090D03*
X051120Y039287D03*
X051120Y039484D03*
X049131Y039484D03*
X049131Y039287D03*
X049131Y039090D03*
X049131Y038893D03*
X049131Y038696D03*
X049131Y038500D03*
X049131Y038303D03*
X030120Y038303D03*
X030120Y038500D03*
X030120Y038696D03*
X030120Y038893D03*
X030120Y039090D03*
X030120Y039287D03*
X030120Y039484D03*
X028131Y039484D03*
X028131Y039287D03*
X028131Y039090D03*
X028131Y038893D03*
X028131Y038696D03*
X028131Y038500D03*
X028131Y038303D03*
X009120Y038303D03*
X009120Y038500D03*
X009120Y038696D03*
X009120Y038893D03*
X009120Y039090D03*
X009120Y039287D03*
X009120Y039484D03*
X007131Y039484D03*
X007131Y039287D03*
X007131Y039090D03*
X007131Y038893D03*
X007131Y038696D03*
X007131Y038500D03*
X007131Y038303D03*
X007131Y010984D03*
X007131Y010787D03*
X007131Y010590D03*
X007131Y010393D03*
X007131Y010196D03*
X007131Y010000D03*
X007131Y009803D03*
X009120Y009803D03*
X009120Y010000D03*
X009120Y010196D03*
X009120Y010393D03*
X009120Y010590D03*
X009120Y010787D03*
X009120Y010984D03*
X028131Y010984D03*
X028131Y010787D03*
X028131Y010590D03*
X028131Y010393D03*
X028131Y010196D03*
X028131Y010000D03*
X028131Y009803D03*
X030120Y009803D03*
X030120Y010000D03*
X030120Y010196D03*
X030120Y010393D03*
X030120Y010590D03*
X030120Y010787D03*
X030120Y010984D03*
X049131Y010984D03*
X049131Y010787D03*
X049131Y010590D03*
X049131Y010393D03*
X049131Y010196D03*
X049131Y010000D03*
X049131Y009803D03*
X051120Y009803D03*
X051120Y010000D03*
X051120Y010196D03*
X051120Y010393D03*
X051120Y010590D03*
X051120Y010787D03*
X051120Y010984D03*
D39*
X054959Y022612D03*
X055117Y022612D03*
X055274Y022612D03*
X055432Y022612D03*
X055589Y022612D03*
X055747Y022612D03*
X055904Y022612D03*
X056062Y022612D03*
X056219Y022612D03*
X056377Y022612D03*
X056534Y022612D03*
X056692Y022612D03*
X056692Y024974D03*
X056534Y024974D03*
X056377Y024974D03*
X056219Y024974D03*
X056062Y024974D03*
X055904Y024974D03*
X055747Y024974D03*
X055589Y024974D03*
X055432Y024974D03*
X055274Y024974D03*
X055117Y024974D03*
X054959Y024974D03*
X035692Y024974D03*
X035534Y024974D03*
X035377Y024974D03*
X035219Y024974D03*
X035062Y024974D03*
X034904Y024974D03*
X034747Y024974D03*
X034589Y024974D03*
X034432Y024974D03*
X034274Y024974D03*
X034117Y024974D03*
X033959Y024974D03*
X033959Y022612D03*
X034117Y022612D03*
X034274Y022612D03*
X034432Y022612D03*
X034589Y022612D03*
X034747Y022612D03*
X034904Y022612D03*
X035062Y022612D03*
X035219Y022612D03*
X035377Y022612D03*
X035534Y022612D03*
X035692Y022612D03*
X014692Y022612D03*
X014534Y022612D03*
X014377Y022612D03*
X014219Y022612D03*
X014062Y022612D03*
X013904Y022612D03*
X013747Y022612D03*
X013589Y022612D03*
X013432Y022612D03*
X013274Y022612D03*
X013117Y022612D03*
X012959Y022612D03*
X012959Y024974D03*
X013117Y024974D03*
X013274Y024974D03*
X013432Y024974D03*
X013589Y024974D03*
X013747Y024974D03*
X013904Y024974D03*
X014062Y024974D03*
X014219Y024974D03*
X014377Y024974D03*
X014534Y024974D03*
X014692Y024974D03*
X014692Y051112D03*
X014534Y051112D03*
X014377Y051112D03*
X014219Y051112D03*
X014062Y051112D03*
X013904Y051112D03*
X013747Y051112D03*
X013589Y051112D03*
X013432Y051112D03*
X013274Y051112D03*
X013117Y051112D03*
X012959Y051112D03*
X012959Y053474D03*
X013117Y053474D03*
X013274Y053474D03*
X013432Y053474D03*
X013589Y053474D03*
X013747Y053474D03*
X013904Y053474D03*
X014062Y053474D03*
X014219Y053474D03*
X014377Y053474D03*
X014534Y053474D03*
X014692Y053474D03*
X033959Y053474D03*
X034117Y053474D03*
X034274Y053474D03*
X034432Y053474D03*
X034589Y053474D03*
X034747Y053474D03*
X034904Y053474D03*
X035062Y053474D03*
X035219Y053474D03*
X035377Y053474D03*
X035534Y053474D03*
X035692Y053474D03*
X035692Y051112D03*
X035534Y051112D03*
X035377Y051112D03*
X035219Y051112D03*
X035062Y051112D03*
X034904Y051112D03*
X034747Y051112D03*
X034589Y051112D03*
X034432Y051112D03*
X034274Y051112D03*
X034117Y051112D03*
X033959Y051112D03*
X054959Y051112D03*
X055117Y051112D03*
X055274Y051112D03*
X055432Y051112D03*
X055589Y051112D03*
X055747Y051112D03*
X055904Y051112D03*
X056062Y051112D03*
X056219Y051112D03*
X056377Y051112D03*
X056534Y051112D03*
X056692Y051112D03*
X056692Y053474D03*
X056534Y053474D03*
X056377Y053474D03*
X056219Y053474D03*
X056062Y053474D03*
X055904Y053474D03*
X055747Y053474D03*
X055589Y053474D03*
X055432Y053474D03*
X055274Y053474D03*
X055117Y053474D03*
X054959Y053474D03*
D40*
X054644Y053159D03*
X054644Y053002D03*
X054644Y052844D03*
X054644Y052687D03*
X054644Y052530D03*
X054644Y052372D03*
X054644Y052215D03*
X054644Y052057D03*
X054644Y051900D03*
X054644Y051742D03*
X054644Y051585D03*
X054644Y051427D03*
X057007Y051427D03*
X057007Y051585D03*
X057007Y051742D03*
X057007Y051900D03*
X057007Y052057D03*
X057007Y052215D03*
X057007Y052372D03*
X057007Y052530D03*
X057007Y052687D03*
X057007Y052844D03*
X057007Y053002D03*
X057007Y053159D03*
X036007Y053159D03*
X036007Y053002D03*
X036007Y052844D03*
X036007Y052687D03*
X036007Y052530D03*
X036007Y052372D03*
X036007Y052215D03*
X036007Y052057D03*
X036007Y051900D03*
X036007Y051742D03*
X036007Y051585D03*
X036007Y051427D03*
X033644Y051427D03*
X033644Y051585D03*
X033644Y051742D03*
X033644Y051900D03*
X033644Y052057D03*
X033644Y052215D03*
X033644Y052372D03*
X033644Y052530D03*
X033644Y052687D03*
X033644Y052844D03*
X033644Y053002D03*
X033644Y053159D03*
X015007Y053159D03*
X015007Y053002D03*
X015007Y052844D03*
X015007Y052687D03*
X015007Y052530D03*
X015007Y052372D03*
X015007Y052215D03*
X015007Y052057D03*
X015007Y051900D03*
X015007Y051742D03*
X015007Y051585D03*
X015007Y051427D03*
X012644Y051427D03*
X012644Y051585D03*
X012644Y051742D03*
X012644Y051900D03*
X012644Y052057D03*
X012644Y052215D03*
X012644Y052372D03*
X012644Y052530D03*
X012644Y052687D03*
X012644Y052844D03*
X012644Y053002D03*
X012644Y053159D03*
X012644Y024659D03*
X012644Y024502D03*
X012644Y024344D03*
X012644Y024187D03*
X012644Y024030D03*
X012644Y023872D03*
X012644Y023715D03*
X012644Y023557D03*
X012644Y023400D03*
X012644Y023242D03*
X012644Y023085D03*
X012644Y022927D03*
X015007Y022927D03*
X015007Y023085D03*
X015007Y023242D03*
X015007Y023400D03*
X015007Y023557D03*
X015007Y023715D03*
X015007Y023872D03*
X015007Y024030D03*
X015007Y024187D03*
X015007Y024344D03*
X015007Y024502D03*
X015007Y024659D03*
X033644Y024659D03*
X033644Y024502D03*
X033644Y024344D03*
X033644Y024187D03*
X033644Y024030D03*
X033644Y023872D03*
X033644Y023715D03*
X033644Y023557D03*
X033644Y023400D03*
X033644Y023242D03*
X033644Y023085D03*
X033644Y022927D03*
X036007Y022927D03*
X036007Y023085D03*
X036007Y023242D03*
X036007Y023400D03*
X036007Y023557D03*
X036007Y023715D03*
X036007Y023872D03*
X036007Y024030D03*
X036007Y024187D03*
X036007Y024344D03*
X036007Y024502D03*
X036007Y024659D03*
X054644Y024659D03*
X054644Y024502D03*
X054644Y024344D03*
X054644Y024187D03*
X054644Y024030D03*
X054644Y023872D03*
X054644Y023715D03*
X054644Y023557D03*
X054644Y023400D03*
X054644Y023242D03*
X054644Y023085D03*
X054644Y022927D03*
X057007Y022927D03*
X057007Y023085D03*
X057007Y023242D03*
X057007Y023400D03*
X057007Y023557D03*
X057007Y023715D03*
X057007Y023872D03*
X057007Y024030D03*
X057007Y024187D03*
X057007Y024344D03*
X057007Y024502D03*
X057007Y024659D03*
D41*
X055826Y023793D03*
X034826Y023793D03*
X013826Y023793D03*
X013826Y052293D03*
X034826Y052293D03*
X055826Y052293D03*
D42*
X052032Y054246D03*
X051639Y054246D03*
X031032Y054246D03*
X030639Y054246D03*
X010032Y054246D03*
X009639Y054246D03*
X009639Y025746D03*
X010032Y025746D03*
X030639Y025746D03*
X031032Y025746D03*
X051639Y025746D03*
X052032Y025746D03*
D43*
X051836Y027970D03*
X030836Y027970D03*
X009836Y027970D03*
X009836Y056470D03*
X030836Y056470D03*
X051836Y056470D03*
D44*
X056876Y039143D03*
X056876Y038393D03*
X056876Y037643D03*
X056876Y036893D03*
X058376Y039143D03*
X059876Y039143D03*
X059876Y038393D03*
X059876Y037643D03*
X059876Y036893D03*
X038876Y036893D03*
X038876Y037643D03*
X038876Y038393D03*
X038876Y039143D03*
X037376Y039143D03*
X035876Y039143D03*
X035876Y038393D03*
X035876Y037643D03*
X035876Y036893D03*
X017876Y036893D03*
X017876Y037643D03*
X017876Y038393D03*
X017876Y039143D03*
X016376Y039143D03*
X014876Y039143D03*
X014876Y038393D03*
X014876Y037643D03*
X014876Y036893D03*
X014876Y010643D03*
X014876Y009893D03*
X014876Y009143D03*
X014876Y008393D03*
X016376Y010643D03*
X017876Y010643D03*
X017876Y009893D03*
X017876Y009143D03*
X017876Y008393D03*
X035876Y008393D03*
X035876Y009143D03*
X035876Y009893D03*
X035876Y010643D03*
X037376Y010643D03*
X038876Y010643D03*
X038876Y009893D03*
X038876Y009143D03*
X038876Y008393D03*
X056876Y008393D03*
X056876Y009143D03*
X056876Y009893D03*
X056876Y010643D03*
X058376Y010643D03*
X059876Y010643D03*
X059876Y009893D03*
X059876Y009143D03*
X059876Y008393D03*
D45*
X060626Y012143D03*
X056876Y012143D03*
X055376Y011393D03*
X039626Y012143D03*
X035876Y012143D03*
X034376Y011393D03*
X018626Y012143D03*
X014876Y012143D03*
X013376Y011393D03*
X013376Y039893D03*
X014876Y040643D03*
X018626Y040643D03*
X034376Y039893D03*
X035876Y040643D03*
X039626Y040643D03*
X055376Y039893D03*
X056876Y040643D03*
X060626Y040643D03*
D46*
X060626Y042393D03*
X039626Y042393D03*
X018626Y042393D03*
X018626Y013893D03*
X039626Y013893D03*
X060626Y013893D03*
M02*
